M48
;DRILL file {KiCad (2017-01-09 revision c2fb336)-makepkg} date 04/23/17 15:55:25
;FORMAT={-:-/ absolute / inch / decimal}
FMAT,2
INCH,TZ
T1C0.016
T2C0.020
T3C0.039
T4C0.040
T5C0.035
%
G90
G05
M72
T1
X3.554Y-2.898
T2
X2.6375Y-3.02
X2.715Y-3.225
X2.755Y-2.615
X2.755Y-2.6575
X2.755Y-2.79
X2.755Y-2.8325
X2.775Y-3.225
X2.8248Y-2.6925
X2.8248Y-2.7325
X2.895Y-2.8352
X2.925Y-3.2375
X2.9427Y-3.1227
X3.Y-3.4575
X3.075Y-3.1475
X3.0775Y-3.2
X3.1752Y-2.6925
X3.1752Y-2.7325
X3.245Y-2.615
X3.245Y-2.6575
X3.245Y-2.79
X3.245Y-2.8325
X3.39Y-3.4753
X3.46Y-2.665
X3.725Y-2.665
T3
X2.57Y-3.4
X2.57Y-3.5
X2.57Y-3.6
X2.57Y-3.815
X2.67Y-3.815
X2.77Y-3.815
X3.025Y-3.815
X3.125Y-3.815
X3.32Y-3.15
X3.32Y-3.25
X3.32Y-3.35
X3.32Y-3.715
X3.42Y-3.15
X3.42Y-3.25
X3.42Y-3.35
X3.42Y-3.615
X3.42Y-3.715
X3.42Y-3.815
X3.595Y-3.815
X3.695Y-3.815
X3.795Y-3.815
T4
X2.21Y-2.8
X2.21Y-2.9
X2.21Y-3.
X2.21Y-3.1
X2.21Y-3.2
X2.21Y-3.3
X2.21Y-3.4
X2.21Y-3.5
X2.21Y-3.6
X2.21Y-3.7
X2.31Y-2.8
X2.31Y-2.9
X2.31Y-3.
X2.31Y-3.1
X2.31Y-3.2
X2.31Y-3.3
X2.31Y-3.4
X2.31Y-3.5
X2.31Y-3.6
X2.31Y-3.7
X3.695Y-3.05
X3.695Y-3.15
X3.695Y-3.25
X3.695Y-3.35
X3.695Y-3.45
X3.795Y-3.05
X3.795Y-3.15
X3.795Y-3.25
X3.795Y-3.35
X3.795Y-3.45
T5
X2.9134Y-2.7329
X3.0866Y-2.7329
T0
M30
