G04 #@! TF.GenerationSoftware,KiCad,Pcbnew,(2017-01-09 revision c2fb336)-makepkg*
G04 #@! TF.CreationDate,2017-04-23T15:55:18+02:00*
G04 #@! TF.ProjectId,jtagTc2050Adaptor,6A74616754633230353041646170746F,rev?*
G04 #@! TF.FileFunction,Copper,L2,Bot,Signal*
G04 #@! TF.FilePolarity,Positive*
%FSLAX46Y46*%
G04 Gerber Fmt 4.6, Leading zero omitted, Abs format (unit mm)*
G04 Created by KiCad (PCBNEW (2017-01-09 revision c2fb336)-makepkg) date 04/23/17 15:55:18*
%MOMM*%
%LPD*%
G01*
G04 APERTURE LIST*
%ADD10C,0.100000*%
%ADD11C,0.300000*%
%ADD12C,0.010000*%
%ADD13O,1.727200X1.727200*%
%ADD14R,1.727200X1.727200*%
%ADD15O,1.700000X1.700000*%
%ADD16R,1.700000X1.700000*%
%ADD17C,1.000000*%
%ADD18C,0.800000*%
%ADD19C,0.500000*%
%ADD20C,0.254000*%
G04 APERTURE END LIST*
D10*
D11*
X53483428Y-98738428D02*
X53626285Y-98738428D01*
X53769142Y-98667000D01*
X53840571Y-98595571D01*
X53912000Y-98452714D01*
X53983428Y-98167000D01*
X53983428Y-97809857D01*
X53912000Y-97524142D01*
X53840571Y-97381285D01*
X53769142Y-97309857D01*
X53626285Y-97238428D01*
X53483428Y-97238428D01*
X53340571Y-97309857D01*
X53269142Y-97381285D01*
X53197714Y-97524142D01*
X53126285Y-97809857D01*
X53126285Y-98167000D01*
X53197714Y-98452714D01*
X53269142Y-98595571D01*
X53340571Y-98667000D01*
X53483428Y-98738428D01*
X55269142Y-98238428D02*
X55269142Y-97238428D01*
X54912000Y-98809857D02*
X54554857Y-97738428D01*
X55483428Y-97738428D01*
X57126285Y-98809857D02*
X55840571Y-96881285D01*
X57554857Y-98595571D02*
X57626285Y-98667000D01*
X57769142Y-98738428D01*
X58126285Y-98738428D01*
X58269142Y-98667000D01*
X58340571Y-98595571D01*
X58412000Y-98452714D01*
X58412000Y-98309857D01*
X58340571Y-98095571D01*
X57483428Y-97238428D01*
X58412000Y-97238428D01*
X59340571Y-98738428D02*
X59483428Y-98738428D01*
X59626285Y-98667000D01*
X59697714Y-98595571D01*
X59769142Y-98452714D01*
X59840571Y-98167000D01*
X59840571Y-97809857D01*
X59769142Y-97524142D01*
X59697714Y-97381285D01*
X59626285Y-97309857D01*
X59483428Y-97238428D01*
X59340571Y-97238428D01*
X59197714Y-97309857D01*
X59126285Y-97381285D01*
X59054857Y-97524142D01*
X58983428Y-97809857D01*
X58983428Y-98167000D01*
X59054857Y-98452714D01*
X59126285Y-98595571D01*
X59197714Y-98667000D01*
X59340571Y-98738428D01*
X61269142Y-97238428D02*
X60412000Y-97238428D01*
X60840571Y-97238428D02*
X60840571Y-98738428D01*
X60697714Y-98524142D01*
X60554857Y-98381285D01*
X60412000Y-98309857D01*
X61769142Y-98738428D02*
X62769142Y-98738428D01*
X62126285Y-97238428D01*
D12*
G36*
X69017114Y-73348905D02*
X68942461Y-73386127D01*
X68876569Y-73454661D01*
X68858423Y-73480048D01*
X68838655Y-73513266D01*
X68825828Y-73549345D01*
X68818490Y-73597498D01*
X68815187Y-73666936D01*
X68814462Y-73758606D01*
X68817737Y-73884230D01*
X68829123Y-73978554D01*
X68850959Y-74048923D01*
X68885581Y-74102686D01*
X68935330Y-74147188D01*
X68938986Y-74149823D01*
X68988015Y-74176777D01*
X69047055Y-74190112D01*
X69122141Y-74193400D01*
X69244205Y-74193400D01*
X69244256Y-74311897D01*
X69245392Y-74377892D01*
X69252314Y-74416602D01*
X69270402Y-74439819D01*
X69305038Y-74459333D01*
X69313355Y-74463320D01*
X69352280Y-74482003D01*
X69382417Y-74493803D01*
X69404826Y-74494822D01*
X69420567Y-74481161D01*
X69430698Y-74448922D01*
X69436277Y-74394204D01*
X69438365Y-74313111D01*
X69438019Y-74201744D01*
X69436300Y-74056202D01*
X69435763Y-74012669D01*
X69433828Y-73862605D01*
X69432096Y-73764442D01*
X69244308Y-73764442D01*
X69243252Y-73847764D01*
X69238562Y-73902280D01*
X69227949Y-73938237D01*
X69209128Y-73965882D01*
X69196350Y-73979365D01*
X69144110Y-74018817D01*
X69097858Y-74022028D01*
X69050133Y-73989449D01*
X69048923Y-73988246D01*
X69029506Y-73963068D01*
X69017693Y-73928847D01*
X69011735Y-73876148D01*
X69009880Y-73795531D01*
X69009846Y-73777671D01*
X69014330Y-73666575D01*
X69028926Y-73589561D01*
X69055350Y-73542547D01*
X69095317Y-73521450D01*
X69118416Y-73519323D01*
X69173238Y-73529300D01*
X69210842Y-73562152D01*
X69233477Y-73622257D01*
X69243394Y-73713998D01*
X69244308Y-73764442D01*
X69432096Y-73764442D01*
X69431778Y-73746460D01*
X69429127Y-73659079D01*
X69425394Y-73595305D01*
X69420093Y-73549982D01*
X69412742Y-73517955D01*
X69402857Y-73494068D01*
X69389954Y-73473164D01*
X69384421Y-73465298D01*
X69311031Y-73390995D01*
X69218240Y-73348867D01*
X69110904Y-73337122D01*
X69017114Y-73348905D01*
X69017114Y-73348905D01*
G37*
X69017114Y-73348905D02*
X68942461Y-73386127D01*
X68876569Y-73454661D01*
X68858423Y-73480048D01*
X68838655Y-73513266D01*
X68825828Y-73549345D01*
X68818490Y-73597498D01*
X68815187Y-73666936D01*
X68814462Y-73758606D01*
X68817737Y-73884230D01*
X68829123Y-73978554D01*
X68850959Y-74048923D01*
X68885581Y-74102686D01*
X68935330Y-74147188D01*
X68938986Y-74149823D01*
X68988015Y-74176777D01*
X69047055Y-74190112D01*
X69122141Y-74193400D01*
X69244205Y-74193400D01*
X69244256Y-74311897D01*
X69245392Y-74377892D01*
X69252314Y-74416602D01*
X69270402Y-74439819D01*
X69305038Y-74459333D01*
X69313355Y-74463320D01*
X69352280Y-74482003D01*
X69382417Y-74493803D01*
X69404826Y-74494822D01*
X69420567Y-74481161D01*
X69430698Y-74448922D01*
X69436277Y-74394204D01*
X69438365Y-74313111D01*
X69438019Y-74201744D01*
X69436300Y-74056202D01*
X69435763Y-74012669D01*
X69433828Y-73862605D01*
X69432096Y-73764442D01*
X69244308Y-73764442D01*
X69243252Y-73847764D01*
X69238562Y-73902280D01*
X69227949Y-73938237D01*
X69209128Y-73965882D01*
X69196350Y-73979365D01*
X69144110Y-74018817D01*
X69097858Y-74022028D01*
X69050133Y-73989449D01*
X69048923Y-73988246D01*
X69029506Y-73963068D01*
X69017693Y-73928847D01*
X69011735Y-73876148D01*
X69009880Y-73795531D01*
X69009846Y-73777671D01*
X69014330Y-73666575D01*
X69028926Y-73589561D01*
X69055350Y-73542547D01*
X69095317Y-73521450D01*
X69118416Y-73519323D01*
X69173238Y-73529300D01*
X69210842Y-73562152D01*
X69233477Y-73622257D01*
X69243394Y-73713998D01*
X69244308Y-73764442D01*
X69432096Y-73764442D01*
X69431778Y-73746460D01*
X69429127Y-73659079D01*
X69425394Y-73595305D01*
X69420093Y-73549982D01*
X69412742Y-73517955D01*
X69402857Y-73494068D01*
X69389954Y-73473164D01*
X69384421Y-73465298D01*
X69311031Y-73390995D01*
X69218240Y-73348867D01*
X69110904Y-73337122D01*
X69017114Y-73348905D01*
G36*
X67514336Y-73359489D02*
X67451633Y-73395758D01*
X67408039Y-73431758D01*
X67376155Y-73469475D01*
X67354190Y-73515599D01*
X67340351Y-73576821D01*
X67332847Y-73659831D01*
X67329883Y-73771319D01*
X67329539Y-73851462D01*
X67329539Y-74146465D01*
X67495615Y-74220915D01*
X67505385Y-73897802D01*
X67509421Y-73777129D01*
X67513656Y-73689541D01*
X67518903Y-73629050D01*
X67525975Y-73589668D01*
X67535689Y-73565407D01*
X67548856Y-73550280D01*
X67553081Y-73547006D01*
X67617091Y-73521434D01*
X67681792Y-73531553D01*
X67720308Y-73558400D01*
X67735975Y-73577424D01*
X67746820Y-73602388D01*
X67753712Y-73640234D01*
X67757521Y-73697902D01*
X67759117Y-73782335D01*
X67759385Y-73870328D01*
X67759437Y-73980723D01*
X67761328Y-74058863D01*
X67767655Y-74111565D01*
X67781017Y-74145642D01*
X67804015Y-74167911D01*
X67839246Y-74185187D01*
X67886303Y-74203138D01*
X67937697Y-74222678D01*
X67931579Y-73875885D01*
X67929116Y-73750868D01*
X67926233Y-73658482D01*
X67922102Y-73592281D01*
X67915893Y-73545820D01*
X67906774Y-73512656D01*
X67893917Y-73486344D01*
X67878416Y-73463129D01*
X67803629Y-73388969D01*
X67712372Y-73346084D01*
X67613117Y-73335812D01*
X67514336Y-73359489D01*
X67514336Y-73359489D01*
G37*
X67514336Y-73359489D02*
X67451633Y-73395758D01*
X67408039Y-73431758D01*
X67376155Y-73469475D01*
X67354190Y-73515599D01*
X67340351Y-73576821D01*
X67332847Y-73659831D01*
X67329883Y-73771319D01*
X67329539Y-73851462D01*
X67329539Y-74146465D01*
X67495615Y-74220915D01*
X67505385Y-73897802D01*
X67509421Y-73777129D01*
X67513656Y-73689541D01*
X67518903Y-73629050D01*
X67525975Y-73589668D01*
X67535689Y-73565407D01*
X67548856Y-73550280D01*
X67553081Y-73547006D01*
X67617091Y-73521434D01*
X67681792Y-73531553D01*
X67720308Y-73558400D01*
X67735975Y-73577424D01*
X67746820Y-73602388D01*
X67753712Y-73640234D01*
X67757521Y-73697902D01*
X67759117Y-73782335D01*
X67759385Y-73870328D01*
X67759437Y-73980723D01*
X67761328Y-74058863D01*
X67767655Y-74111565D01*
X67781017Y-74145642D01*
X67804015Y-74167911D01*
X67839246Y-74185187D01*
X67886303Y-74203138D01*
X67937697Y-74222678D01*
X67931579Y-73875885D01*
X67929116Y-73750868D01*
X67926233Y-73658482D01*
X67922102Y-73592281D01*
X67915893Y-73545820D01*
X67906774Y-73512656D01*
X67893917Y-73486344D01*
X67878416Y-73463129D01*
X67803629Y-73388969D01*
X67712372Y-73346084D01*
X67613117Y-73335812D01*
X67514336Y-73359489D01*
G36*
X69769114Y-73351656D02*
X69677536Y-73399809D01*
X69609951Y-73477305D01*
X69585943Y-73527127D01*
X69567262Y-73601933D01*
X69557699Y-73696452D01*
X69556792Y-73799610D01*
X69564079Y-73900335D01*
X69579097Y-73987553D01*
X69601385Y-74050191D01*
X69608235Y-74060979D01*
X69689368Y-74141505D01*
X69785734Y-74189736D01*
X69890299Y-74203850D01*
X69996032Y-74182029D01*
X70025457Y-74168947D01*
X70082759Y-74128631D01*
X70133050Y-74075175D01*
X70137803Y-74068395D01*
X70157122Y-74035721D01*
X70169892Y-74000794D01*
X70177436Y-73954814D01*
X70181076Y-73888984D01*
X70182135Y-73794505D01*
X70182154Y-73773323D01*
X70182106Y-73766582D01*
X69986769Y-73766582D01*
X69985632Y-73855749D01*
X69981159Y-73914920D01*
X69971754Y-73953141D01*
X69955824Y-73979453D01*
X69947692Y-73988246D01*
X69900942Y-74021661D01*
X69855553Y-74020137D01*
X69809660Y-73991152D01*
X69782288Y-73960209D01*
X69766077Y-73915043D01*
X69756974Y-73843820D01*
X69756349Y-73835514D01*
X69754796Y-73706437D01*
X69771035Y-73610572D01*
X69804848Y-73548507D01*
X69856016Y-73520832D01*
X69874280Y-73519323D01*
X69922240Y-73526913D01*
X69955047Y-73553208D01*
X69975105Y-73603495D01*
X69984822Y-73683064D01*
X69986769Y-73766582D01*
X70182106Y-73766582D01*
X70181426Y-73672649D01*
X70178371Y-73602306D01*
X70171678Y-73553563D01*
X70160040Y-73517688D01*
X70142147Y-73485948D01*
X70138192Y-73480048D01*
X70071733Y-73400504D01*
X69999315Y-73354329D01*
X69911151Y-73335999D01*
X69881213Y-73335103D01*
X69769114Y-73351656D01*
X69769114Y-73351656D01*
G37*
X69769114Y-73351656D02*
X69677536Y-73399809D01*
X69609951Y-73477305D01*
X69585943Y-73527127D01*
X69567262Y-73601933D01*
X69557699Y-73696452D01*
X69556792Y-73799610D01*
X69564079Y-73900335D01*
X69579097Y-73987553D01*
X69601385Y-74050191D01*
X69608235Y-74060979D01*
X69689368Y-74141505D01*
X69785734Y-74189736D01*
X69890299Y-74203850D01*
X69996032Y-74182029D01*
X70025457Y-74168947D01*
X70082759Y-74128631D01*
X70133050Y-74075175D01*
X70137803Y-74068395D01*
X70157122Y-74035721D01*
X70169892Y-74000794D01*
X70177436Y-73954814D01*
X70181076Y-73888984D01*
X70182135Y-73794505D01*
X70182154Y-73773323D01*
X70182106Y-73766582D01*
X69986769Y-73766582D01*
X69985632Y-73855749D01*
X69981159Y-73914920D01*
X69971754Y-73953141D01*
X69955824Y-73979453D01*
X69947692Y-73988246D01*
X69900942Y-74021661D01*
X69855553Y-74020137D01*
X69809660Y-73991152D01*
X69782288Y-73960209D01*
X69766077Y-73915043D01*
X69756974Y-73843820D01*
X69756349Y-73835514D01*
X69754796Y-73706437D01*
X69771035Y-73610572D01*
X69804848Y-73548507D01*
X69856016Y-73520832D01*
X69874280Y-73519323D01*
X69922240Y-73526913D01*
X69955047Y-73553208D01*
X69975105Y-73603495D01*
X69984822Y-73683064D01*
X69986769Y-73766582D01*
X70182106Y-73766582D01*
X70181426Y-73672649D01*
X70178371Y-73602306D01*
X70171678Y-73553563D01*
X70160040Y-73517688D01*
X70142147Y-73485948D01*
X70138192Y-73480048D01*
X70071733Y-73400504D01*
X69999315Y-73354329D01*
X69911151Y-73335999D01*
X69881213Y-73335103D01*
X69769114Y-73351656D01*
G36*
X68251746Y-73364145D02*
X68174714Y-73415967D01*
X68115184Y-73490812D01*
X68079622Y-73586054D01*
X68072429Y-73656156D01*
X68073246Y-73685409D01*
X68080086Y-73707807D01*
X68098888Y-73727874D01*
X68135592Y-73750133D01*
X68196138Y-73779109D01*
X68286466Y-73819327D01*
X68286923Y-73819529D01*
X68370067Y-73857610D01*
X68438247Y-73891425D01*
X68484495Y-73917333D01*
X68501842Y-73931695D01*
X68501846Y-73931811D01*
X68486557Y-73963085D01*
X68450804Y-73997557D01*
X68409758Y-74022390D01*
X68388963Y-74027323D01*
X68332230Y-74010262D01*
X68283373Y-73967533D01*
X68259535Y-73920555D01*
X68236603Y-73885922D01*
X68191682Y-73846481D01*
X68138877Y-73812409D01*
X68092290Y-73793880D01*
X68082548Y-73792862D01*
X68071582Y-73809615D01*
X68070921Y-73852439D01*
X68078980Y-73910181D01*
X68094173Y-73971689D01*
X68114914Y-74025809D01*
X68115962Y-74027910D01*
X68178379Y-74115060D01*
X68259274Y-74174339D01*
X68351144Y-74203434D01*
X68446487Y-74200034D01*
X68537802Y-74161828D01*
X68541862Y-74159141D01*
X68613694Y-74094042D01*
X68660927Y-74009105D01*
X68687066Y-73897421D01*
X68690574Y-73866043D01*
X68696787Y-73717936D01*
X68689339Y-73648868D01*
X68501846Y-73648868D01*
X68499410Y-73691952D01*
X68486086Y-73704526D01*
X68452868Y-73695119D01*
X68400506Y-73672883D01*
X68341976Y-73645010D01*
X68340521Y-73644272D01*
X68290911Y-73618177D01*
X68271000Y-73600763D01*
X68275910Y-73582507D01*
X68296584Y-73558520D01*
X68349181Y-73523806D01*
X68405823Y-73521256D01*
X68456631Y-73546519D01*
X68491724Y-73595247D01*
X68501846Y-73648868D01*
X68689339Y-73648868D01*
X68684008Y-73599436D01*
X68651222Y-73505455D01*
X68605579Y-73439615D01*
X68523198Y-73373081D01*
X68432454Y-73340076D01*
X68339815Y-73337973D01*
X68251746Y-73364145D01*
X68251746Y-73364145D01*
G37*
X68251746Y-73364145D02*
X68174714Y-73415967D01*
X68115184Y-73490812D01*
X68079622Y-73586054D01*
X68072429Y-73656156D01*
X68073246Y-73685409D01*
X68080086Y-73707807D01*
X68098888Y-73727874D01*
X68135592Y-73750133D01*
X68196138Y-73779109D01*
X68286466Y-73819327D01*
X68286923Y-73819529D01*
X68370067Y-73857610D01*
X68438247Y-73891425D01*
X68484495Y-73917333D01*
X68501842Y-73931695D01*
X68501846Y-73931811D01*
X68486557Y-73963085D01*
X68450804Y-73997557D01*
X68409758Y-74022390D01*
X68388963Y-74027323D01*
X68332230Y-74010262D01*
X68283373Y-73967533D01*
X68259535Y-73920555D01*
X68236603Y-73885922D01*
X68191682Y-73846481D01*
X68138877Y-73812409D01*
X68092290Y-73793880D01*
X68082548Y-73792862D01*
X68071582Y-73809615D01*
X68070921Y-73852439D01*
X68078980Y-73910181D01*
X68094173Y-73971689D01*
X68114914Y-74025809D01*
X68115962Y-74027910D01*
X68178379Y-74115060D01*
X68259274Y-74174339D01*
X68351144Y-74203434D01*
X68446487Y-74200034D01*
X68537802Y-74161828D01*
X68541862Y-74159141D01*
X68613694Y-74094042D01*
X68660927Y-74009105D01*
X68687066Y-73897421D01*
X68690574Y-73866043D01*
X68696787Y-73717936D01*
X68689339Y-73648868D01*
X68501846Y-73648868D01*
X68499410Y-73691952D01*
X68486086Y-73704526D01*
X68452868Y-73695119D01*
X68400506Y-73672883D01*
X68341976Y-73645010D01*
X68340521Y-73644272D01*
X68290911Y-73618177D01*
X68271000Y-73600763D01*
X68275910Y-73582507D01*
X68296584Y-73558520D01*
X68349181Y-73523806D01*
X68405823Y-73521256D01*
X68456631Y-73546519D01*
X68491724Y-73595247D01*
X68501846Y-73648868D01*
X68689339Y-73648868D01*
X68684008Y-73599436D01*
X68651222Y-73505455D01*
X68605579Y-73439615D01*
X68523198Y-73373081D01*
X68432454Y-73340076D01*
X68339815Y-73337973D01*
X68251746Y-73364145D01*
G36*
X66626154Y-73256520D02*
X66620428Y-73336380D01*
X66613851Y-73383439D01*
X66604738Y-73403966D01*
X66591402Y-73404229D01*
X66587077Y-73401778D01*
X66529556Y-73384036D01*
X66454732Y-73385072D01*
X66378661Y-73403310D01*
X66331082Y-73426905D01*
X66282298Y-73464598D01*
X66246636Y-73507255D01*
X66222155Y-73561457D01*
X66206913Y-73633784D01*
X66198970Y-73730819D01*
X66196384Y-73859142D01*
X66196338Y-73883758D01*
X66196308Y-74160270D01*
X66257839Y-74181720D01*
X66301541Y-74196312D01*
X66325518Y-74203106D01*
X66326223Y-74203169D01*
X66328585Y-74184745D01*
X66330594Y-74133926D01*
X66332099Y-74057393D01*
X66332947Y-73961830D01*
X66333077Y-73903729D01*
X66333349Y-73789171D01*
X66334748Y-73707067D01*
X66338151Y-73650793D01*
X66344433Y-73613726D01*
X66354471Y-73589244D01*
X66369139Y-73570725D01*
X66378298Y-73561806D01*
X66441211Y-73525866D01*
X66509864Y-73523175D01*
X66572152Y-73553570D01*
X66583671Y-73564544D01*
X66600567Y-73585179D01*
X66612286Y-73609656D01*
X66619767Y-73645047D01*
X66623946Y-73698426D01*
X66625763Y-73776866D01*
X66626154Y-73885017D01*
X66626154Y-74160270D01*
X66687685Y-74181720D01*
X66731387Y-74196312D01*
X66755364Y-74203106D01*
X66756070Y-74203169D01*
X66757874Y-74184469D01*
X66759500Y-74131722D01*
X66760883Y-74049957D01*
X66761958Y-73944205D01*
X66762660Y-73819494D01*
X66762923Y-73680855D01*
X66762923Y-73146206D01*
X66635923Y-73092636D01*
X66626154Y-73256520D01*
X66626154Y-73256520D01*
G37*
X66626154Y-73256520D02*
X66620428Y-73336380D01*
X66613851Y-73383439D01*
X66604738Y-73403966D01*
X66591402Y-73404229D01*
X66587077Y-73401778D01*
X66529556Y-73384036D01*
X66454732Y-73385072D01*
X66378661Y-73403310D01*
X66331082Y-73426905D01*
X66282298Y-73464598D01*
X66246636Y-73507255D01*
X66222155Y-73561457D01*
X66206913Y-73633784D01*
X66198970Y-73730819D01*
X66196384Y-73859142D01*
X66196338Y-73883758D01*
X66196308Y-74160270D01*
X66257839Y-74181720D01*
X66301541Y-74196312D01*
X66325518Y-74203106D01*
X66326223Y-74203169D01*
X66328585Y-74184745D01*
X66330594Y-74133926D01*
X66332099Y-74057393D01*
X66332947Y-73961830D01*
X66333077Y-73903729D01*
X66333349Y-73789171D01*
X66334748Y-73707067D01*
X66338151Y-73650793D01*
X66344433Y-73613726D01*
X66354471Y-73589244D01*
X66369139Y-73570725D01*
X66378298Y-73561806D01*
X66441211Y-73525866D01*
X66509864Y-73523175D01*
X66572152Y-73553570D01*
X66583671Y-73564544D01*
X66600567Y-73585179D01*
X66612286Y-73609656D01*
X66619767Y-73645047D01*
X66623946Y-73698426D01*
X66625763Y-73776866D01*
X66626154Y-73885017D01*
X66626154Y-74160270D01*
X66687685Y-74181720D01*
X66731387Y-74196312D01*
X66755364Y-74203106D01*
X66756070Y-74203169D01*
X66757874Y-74184469D01*
X66759500Y-74131722D01*
X66760883Y-74049957D01*
X66761958Y-73944205D01*
X66762660Y-73819494D01*
X66762923Y-73680855D01*
X66762923Y-73146206D01*
X66635923Y-73092636D01*
X66626154Y-73256520D01*
G36*
X65732499Y-73390703D02*
X65655940Y-73419133D01*
X65655064Y-73419679D01*
X65607715Y-73454527D01*
X65572759Y-73495252D01*
X65548175Y-73548325D01*
X65531938Y-73620214D01*
X65522025Y-73717392D01*
X65516414Y-73846328D01*
X65515923Y-73864698D01*
X65508859Y-74141687D01*
X65568305Y-74172428D01*
X65611319Y-74193202D01*
X65637290Y-74203046D01*
X65638491Y-74203169D01*
X65642986Y-74185006D01*
X65646556Y-74136012D01*
X65648752Y-74064431D01*
X65649231Y-74006468D01*
X65649242Y-73912570D01*
X65653534Y-73853603D01*
X65668497Y-73825479D01*
X65700518Y-73824106D01*
X65755986Y-73845398D01*
X65839731Y-73884536D01*
X65901311Y-73917043D01*
X65932983Y-73945245D01*
X65942294Y-73975982D01*
X65942308Y-73977504D01*
X65926943Y-74030454D01*
X65881453Y-74059060D01*
X65811834Y-74063203D01*
X65761687Y-74062484D01*
X65735246Y-74076927D01*
X65718757Y-74111618D01*
X65709267Y-74155816D01*
X65722943Y-74180893D01*
X65728093Y-74184482D01*
X65776575Y-74198896D01*
X65844469Y-74200937D01*
X65914388Y-74191383D01*
X65963932Y-74173922D01*
X66032430Y-74115764D01*
X66071366Y-74034808D01*
X66079077Y-73971560D01*
X66073193Y-73914511D01*
X66051899Y-73867942D01*
X66009735Y-73826581D01*
X65941241Y-73785155D01*
X65840956Y-73738393D01*
X65834846Y-73735750D01*
X65744510Y-73694017D01*
X65688765Y-73659791D01*
X65664871Y-73629035D01*
X65670087Y-73597711D01*
X65701672Y-73561783D01*
X65711117Y-73553516D01*
X65774383Y-73521458D01*
X65839936Y-73522807D01*
X65897028Y-73554238D01*
X65934907Y-73612424D01*
X65938426Y-73623846D01*
X65972700Y-73679237D01*
X66016191Y-73705918D01*
X66079077Y-73732360D01*
X66079077Y-73663948D01*
X66059948Y-73564510D01*
X66003169Y-73473302D01*
X65973622Y-73442789D01*
X65906458Y-73403628D01*
X65821044Y-73385900D01*
X65732499Y-73390703D01*
X65732499Y-73390703D01*
G37*
X65732499Y-73390703D02*
X65655940Y-73419133D01*
X65655064Y-73419679D01*
X65607715Y-73454527D01*
X65572759Y-73495252D01*
X65548175Y-73548325D01*
X65531938Y-73620214D01*
X65522025Y-73717392D01*
X65516414Y-73846328D01*
X65515923Y-73864698D01*
X65508859Y-74141687D01*
X65568305Y-74172428D01*
X65611319Y-74193202D01*
X65637290Y-74203046D01*
X65638491Y-74203169D01*
X65642986Y-74185006D01*
X65646556Y-74136012D01*
X65648752Y-74064431D01*
X65649231Y-74006468D01*
X65649242Y-73912570D01*
X65653534Y-73853603D01*
X65668497Y-73825479D01*
X65700518Y-73824106D01*
X65755986Y-73845398D01*
X65839731Y-73884536D01*
X65901311Y-73917043D01*
X65932983Y-73945245D01*
X65942294Y-73975982D01*
X65942308Y-73977504D01*
X65926943Y-74030454D01*
X65881453Y-74059060D01*
X65811834Y-74063203D01*
X65761687Y-74062484D01*
X65735246Y-74076927D01*
X65718757Y-74111618D01*
X65709267Y-74155816D01*
X65722943Y-74180893D01*
X65728093Y-74184482D01*
X65776575Y-74198896D01*
X65844469Y-74200937D01*
X65914388Y-74191383D01*
X65963932Y-74173922D01*
X66032430Y-74115764D01*
X66071366Y-74034808D01*
X66079077Y-73971560D01*
X66073193Y-73914511D01*
X66051899Y-73867942D01*
X66009735Y-73826581D01*
X65941241Y-73785155D01*
X65840956Y-73738393D01*
X65834846Y-73735750D01*
X65744510Y-73694017D01*
X65688765Y-73659791D01*
X65664871Y-73629035D01*
X65670087Y-73597711D01*
X65701672Y-73561783D01*
X65711117Y-73553516D01*
X65774383Y-73521458D01*
X65839936Y-73522807D01*
X65897028Y-73554238D01*
X65934907Y-73612424D01*
X65938426Y-73623846D01*
X65972700Y-73679237D01*
X66016191Y-73705918D01*
X66079077Y-73732360D01*
X66079077Y-73663948D01*
X66059948Y-73564510D01*
X66003169Y-73473302D01*
X65973622Y-73442789D01*
X65906458Y-73403628D01*
X65821044Y-73385900D01*
X65732499Y-73390703D01*
G36*
X65072638Y-73389070D02*
X64983883Y-73421821D01*
X64911978Y-73479750D01*
X64883856Y-73520528D01*
X64853198Y-73595354D01*
X64853835Y-73649458D01*
X64886013Y-73685846D01*
X64897919Y-73692033D01*
X64949325Y-73711325D01*
X64975578Y-73706382D01*
X64984470Y-73673987D01*
X64984923Y-73656092D01*
X65001203Y-73590259D01*
X65043635Y-73544207D01*
X65102612Y-73521964D01*
X65168525Y-73527561D01*
X65222105Y-73556629D01*
X65240202Y-73573210D01*
X65253029Y-73593325D01*
X65261694Y-73623732D01*
X65267304Y-73671188D01*
X65270965Y-73742450D01*
X65273785Y-73844275D01*
X65274516Y-73876515D01*
X65277180Y-73986810D01*
X65280208Y-74064436D01*
X65284750Y-74115796D01*
X65291954Y-74147290D01*
X65302967Y-74165320D01*
X65318940Y-74176288D01*
X65329166Y-74181133D01*
X65372594Y-74197701D01*
X65398158Y-74203169D01*
X65406605Y-74184907D01*
X65411761Y-74129696D01*
X65413654Y-74036899D01*
X65412311Y-73905878D01*
X65411893Y-73885669D01*
X65408942Y-73766133D01*
X65405452Y-73678849D01*
X65400486Y-73616991D01*
X65393107Y-73573736D01*
X65382376Y-73542260D01*
X65367355Y-73515739D01*
X65359498Y-73504375D01*
X65314447Y-73454092D01*
X65264060Y-73414981D01*
X65257892Y-73411567D01*
X65167542Y-73384612D01*
X65072638Y-73389070D01*
X65072638Y-73389070D01*
G37*
X65072638Y-73389070D02*
X64983883Y-73421821D01*
X64911978Y-73479750D01*
X64883856Y-73520528D01*
X64853198Y-73595354D01*
X64853835Y-73649458D01*
X64886013Y-73685846D01*
X64897919Y-73692033D01*
X64949325Y-73711325D01*
X64975578Y-73706382D01*
X64984470Y-73673987D01*
X64984923Y-73656092D01*
X65001203Y-73590259D01*
X65043635Y-73544207D01*
X65102612Y-73521964D01*
X65168525Y-73527561D01*
X65222105Y-73556629D01*
X65240202Y-73573210D01*
X65253029Y-73593325D01*
X65261694Y-73623732D01*
X65267304Y-73671188D01*
X65270965Y-73742450D01*
X65273785Y-73844275D01*
X65274516Y-73876515D01*
X65277180Y-73986810D01*
X65280208Y-74064436D01*
X65284750Y-74115796D01*
X65291954Y-74147290D01*
X65302967Y-74165320D01*
X65318940Y-74176288D01*
X65329166Y-74181133D01*
X65372594Y-74197701D01*
X65398158Y-74203169D01*
X65406605Y-74184907D01*
X65411761Y-74129696D01*
X65413654Y-74036899D01*
X65412311Y-73905878D01*
X65411893Y-73885669D01*
X65408942Y-73766133D01*
X65405452Y-73678849D01*
X65400486Y-73616991D01*
X65393107Y-73573736D01*
X65382376Y-73542260D01*
X65367355Y-73515739D01*
X65359498Y-73504375D01*
X65314447Y-73454092D01*
X65264060Y-73414981D01*
X65257892Y-73411567D01*
X65167542Y-73384612D01*
X65072638Y-73389070D01*
G36*
X64183919Y-73544689D02*
X64184167Y-73690720D01*
X64185128Y-73803055D01*
X64187206Y-73887078D01*
X64190807Y-73948169D01*
X64196335Y-73991709D01*
X64204196Y-74023079D01*
X64214793Y-74047662D01*
X64222818Y-74061694D01*
X64289272Y-74137788D01*
X64373530Y-74185484D01*
X64466751Y-74202599D01*
X64560100Y-74186946D01*
X64615688Y-74158818D01*
X64674043Y-74110160D01*
X64713814Y-74050733D01*
X64737810Y-73972907D01*
X64748839Y-73869052D01*
X64750401Y-73792862D01*
X64750191Y-73787386D01*
X64613692Y-73787386D01*
X64612859Y-73874755D01*
X64609039Y-73932592D01*
X64600254Y-73970429D01*
X64584526Y-73997798D01*
X64565734Y-74018442D01*
X64502625Y-74058290D01*
X64434863Y-74061695D01*
X64370821Y-74028425D01*
X64365836Y-74023917D01*
X64344561Y-74000467D01*
X64331221Y-73972566D01*
X64323999Y-73931041D01*
X64321077Y-73866716D01*
X64320615Y-73795600D01*
X64321617Y-73706258D01*
X64325762Y-73646658D01*
X64334764Y-73607489D01*
X64350333Y-73579440D01*
X64363098Y-73564544D01*
X64422400Y-73526975D01*
X64490699Y-73522457D01*
X64555890Y-73551153D01*
X64568472Y-73561806D01*
X64589889Y-73585463D01*
X64603256Y-73613651D01*
X64610434Y-73655645D01*
X64613281Y-73720719D01*
X64613692Y-73787386D01*
X64750191Y-73787386D01*
X64745678Y-73670165D01*
X64729638Y-73577977D01*
X64699472Y-73508669D01*
X64652371Y-73454611D01*
X64615688Y-73426905D01*
X64549010Y-73396972D01*
X64471728Y-73383078D01*
X64399890Y-73386797D01*
X64359692Y-73401800D01*
X64343918Y-73406070D01*
X64333450Y-73390150D01*
X64326144Y-73347489D01*
X64320615Y-73282506D01*
X64314563Y-73210132D01*
X64306156Y-73166587D01*
X64290859Y-73141687D01*
X64264136Y-73125245D01*
X64247346Y-73117964D01*
X64183846Y-73091363D01*
X64183919Y-73544689D01*
X64183919Y-73544689D01*
G37*
X64183919Y-73544689D02*
X64184167Y-73690720D01*
X64185128Y-73803055D01*
X64187206Y-73887078D01*
X64190807Y-73948169D01*
X64196335Y-73991709D01*
X64204196Y-74023079D01*
X64214793Y-74047662D01*
X64222818Y-74061694D01*
X64289272Y-74137788D01*
X64373530Y-74185484D01*
X64466751Y-74202599D01*
X64560100Y-74186946D01*
X64615688Y-74158818D01*
X64674043Y-74110160D01*
X64713814Y-74050733D01*
X64737810Y-73972907D01*
X64748839Y-73869052D01*
X64750401Y-73792862D01*
X64750191Y-73787386D01*
X64613692Y-73787386D01*
X64612859Y-73874755D01*
X64609039Y-73932592D01*
X64600254Y-73970429D01*
X64584526Y-73997798D01*
X64565734Y-74018442D01*
X64502625Y-74058290D01*
X64434863Y-74061695D01*
X64370821Y-74028425D01*
X64365836Y-74023917D01*
X64344561Y-74000467D01*
X64331221Y-73972566D01*
X64323999Y-73931041D01*
X64321077Y-73866716D01*
X64320615Y-73795600D01*
X64321617Y-73706258D01*
X64325762Y-73646658D01*
X64334764Y-73607489D01*
X64350333Y-73579440D01*
X64363098Y-73564544D01*
X64422400Y-73526975D01*
X64490699Y-73522457D01*
X64555890Y-73551153D01*
X64568472Y-73561806D01*
X64589889Y-73585463D01*
X64603256Y-73613651D01*
X64610434Y-73655645D01*
X64613281Y-73720719D01*
X64613692Y-73787386D01*
X64750191Y-73787386D01*
X64745678Y-73670165D01*
X64729638Y-73577977D01*
X64699472Y-73508669D01*
X64652371Y-73454611D01*
X64615688Y-73426905D01*
X64549010Y-73396972D01*
X64471728Y-73383078D01*
X64399890Y-73386797D01*
X64359692Y-73401800D01*
X64343918Y-73406070D01*
X64333450Y-73390150D01*
X64326144Y-73347489D01*
X64320615Y-73282506D01*
X64314563Y-73210132D01*
X64306156Y-73166587D01*
X64290859Y-73141687D01*
X64264136Y-73125245D01*
X64247346Y-73117964D01*
X64183846Y-73091363D01*
X64183919Y-73544689D01*
G36*
X63390071Y-73401062D02*
X63387089Y-73452468D01*
X63384753Y-73530592D01*
X63383251Y-73629257D01*
X63382769Y-73732743D01*
X63382769Y-74082933D01*
X63444599Y-74144763D01*
X63487207Y-74182862D01*
X63524610Y-74198295D01*
X63575730Y-74197318D01*
X63596022Y-74194833D01*
X63659446Y-74187600D01*
X63711905Y-74183455D01*
X63724692Y-74183072D01*
X63767801Y-74185576D01*
X63829456Y-74191862D01*
X63853362Y-74194833D01*
X63912078Y-74199428D01*
X63951536Y-74189446D01*
X63990662Y-74158628D01*
X64004785Y-74144763D01*
X64066615Y-74082933D01*
X64066615Y-73427903D01*
X64016850Y-73405229D01*
X63973998Y-73388434D01*
X63948927Y-73382554D01*
X63942499Y-73401136D01*
X63936491Y-73453055D01*
X63931303Y-73532572D01*
X63927336Y-73633946D01*
X63925423Y-73719592D01*
X63920077Y-74056631D01*
X63873440Y-74063225D01*
X63831024Y-74058614D01*
X63810240Y-74043687D01*
X63804430Y-74015777D01*
X63799470Y-73956325D01*
X63795754Y-73872866D01*
X63793676Y-73772932D01*
X63793376Y-73721504D01*
X63793077Y-73425454D01*
X63731546Y-73404004D01*
X63687996Y-73389420D01*
X63664306Y-73382619D01*
X63663623Y-73382554D01*
X63661246Y-73401042D01*
X63658634Y-73452306D01*
X63656005Y-73530049D01*
X63653579Y-73627974D01*
X63651885Y-73719592D01*
X63646539Y-74056631D01*
X63529308Y-74056631D01*
X63523928Y-73749146D01*
X63518549Y-73441661D01*
X63461399Y-73412107D01*
X63419203Y-73391813D01*
X63394230Y-73382604D01*
X63393509Y-73382554D01*
X63390071Y-73401062D01*
X63390071Y-73401062D01*
G37*
X63390071Y-73401062D02*
X63387089Y-73452468D01*
X63384753Y-73530592D01*
X63383251Y-73629257D01*
X63382769Y-73732743D01*
X63382769Y-74082933D01*
X63444599Y-74144763D01*
X63487207Y-74182862D01*
X63524610Y-74198295D01*
X63575730Y-74197318D01*
X63596022Y-74194833D01*
X63659446Y-74187600D01*
X63711905Y-74183455D01*
X63724692Y-74183072D01*
X63767801Y-74185576D01*
X63829456Y-74191862D01*
X63853362Y-74194833D01*
X63912078Y-74199428D01*
X63951536Y-74189446D01*
X63990662Y-74158628D01*
X64004785Y-74144763D01*
X64066615Y-74082933D01*
X64066615Y-73427903D01*
X64016850Y-73405229D01*
X63973998Y-73388434D01*
X63948927Y-73382554D01*
X63942499Y-73401136D01*
X63936491Y-73453055D01*
X63931303Y-73532572D01*
X63927336Y-73633946D01*
X63925423Y-73719592D01*
X63920077Y-74056631D01*
X63873440Y-74063225D01*
X63831024Y-74058614D01*
X63810240Y-74043687D01*
X63804430Y-74015777D01*
X63799470Y-73956325D01*
X63795754Y-73872866D01*
X63793676Y-73772932D01*
X63793376Y-73721504D01*
X63793077Y-73425454D01*
X63731546Y-73404004D01*
X63687996Y-73389420D01*
X63664306Y-73382619D01*
X63663623Y-73382554D01*
X63661246Y-73401042D01*
X63658634Y-73452306D01*
X63656005Y-73530049D01*
X63653579Y-73627974D01*
X63651885Y-73719592D01*
X63646539Y-74056631D01*
X63529308Y-74056631D01*
X63523928Y-73749146D01*
X63518549Y-73441661D01*
X63461399Y-73412107D01*
X63419203Y-73391813D01*
X63394230Y-73382604D01*
X63393509Y-73382554D01*
X63390071Y-73401062D01*
G36*
X62898667Y-73397928D02*
X62842410Y-73423517D01*
X62798253Y-73454524D01*
X62765899Y-73489195D01*
X62743562Y-73533920D01*
X62729454Y-73595092D01*
X62721789Y-73679101D01*
X62718780Y-73792340D01*
X62718462Y-73866909D01*
X62718462Y-74157820D01*
X62768227Y-74180495D01*
X62807424Y-74197067D01*
X62826843Y-74203169D01*
X62830558Y-74185010D01*
X62833505Y-74136048D01*
X62835309Y-74064553D01*
X62835692Y-74007785D01*
X62837339Y-73925771D01*
X62841778Y-73860709D01*
X62848260Y-73820867D01*
X62853410Y-73812400D01*
X62888023Y-73821046D01*
X62942360Y-73843223D01*
X63005278Y-73873286D01*
X63065632Y-73905592D01*
X63112279Y-73934498D01*
X63134074Y-73954361D01*
X63134161Y-73954575D01*
X63132286Y-73991335D01*
X63115475Y-74026426D01*
X63085961Y-74054928D01*
X63042884Y-74064461D01*
X63006068Y-74063350D01*
X62953926Y-74062533D01*
X62926556Y-74074749D01*
X62910118Y-74107024D01*
X62908045Y-74113110D01*
X62900919Y-74159139D01*
X62919976Y-74187087D01*
X62969647Y-74200407D01*
X63023303Y-74202870D01*
X63119858Y-74184610D01*
X63169841Y-74158531D01*
X63231571Y-74097268D01*
X63264310Y-74022070D01*
X63267247Y-73942611D01*
X63239576Y-73868567D01*
X63197953Y-73822169D01*
X63156396Y-73796193D01*
X63091078Y-73763307D01*
X63014962Y-73729957D01*
X63002274Y-73724861D01*
X62918667Y-73687965D01*
X62870470Y-73655446D01*
X62854970Y-73623118D01*
X62869450Y-73586794D01*
X62894308Y-73558400D01*
X62953061Y-73523439D01*
X63017707Y-73520817D01*
X63076992Y-73547758D01*
X63119661Y-73601488D01*
X63125261Y-73615350D01*
X63157867Y-73666336D01*
X63205470Y-73704187D01*
X63265539Y-73735250D01*
X63265539Y-73647168D01*
X63262003Y-73593351D01*
X63246844Y-73550934D01*
X63213232Y-73505679D01*
X63180965Y-73470820D01*
X63130791Y-73421462D01*
X63091807Y-73394947D01*
X63049936Y-73384311D01*
X63002540Y-73382554D01*
X62898667Y-73397928D01*
X62898667Y-73397928D01*
G37*
X62898667Y-73397928D02*
X62842410Y-73423517D01*
X62798253Y-73454524D01*
X62765899Y-73489195D01*
X62743562Y-73533920D01*
X62729454Y-73595092D01*
X62721789Y-73679101D01*
X62718780Y-73792340D01*
X62718462Y-73866909D01*
X62718462Y-74157820D01*
X62768227Y-74180495D01*
X62807424Y-74197067D01*
X62826843Y-74203169D01*
X62830558Y-74185010D01*
X62833505Y-74136048D01*
X62835309Y-74064553D01*
X62835692Y-74007785D01*
X62837339Y-73925771D01*
X62841778Y-73860709D01*
X62848260Y-73820867D01*
X62853410Y-73812400D01*
X62888023Y-73821046D01*
X62942360Y-73843223D01*
X63005278Y-73873286D01*
X63065632Y-73905592D01*
X63112279Y-73934498D01*
X63134074Y-73954361D01*
X63134161Y-73954575D01*
X63132286Y-73991335D01*
X63115475Y-74026426D01*
X63085961Y-74054928D01*
X63042884Y-74064461D01*
X63006068Y-74063350D01*
X62953926Y-74062533D01*
X62926556Y-74074749D01*
X62910118Y-74107024D01*
X62908045Y-74113110D01*
X62900919Y-74159139D01*
X62919976Y-74187087D01*
X62969647Y-74200407D01*
X63023303Y-74202870D01*
X63119858Y-74184610D01*
X63169841Y-74158531D01*
X63231571Y-74097268D01*
X63264310Y-74022070D01*
X63267247Y-73942611D01*
X63239576Y-73868567D01*
X63197953Y-73822169D01*
X63156396Y-73796193D01*
X63091078Y-73763307D01*
X63014962Y-73729957D01*
X63002274Y-73724861D01*
X62918667Y-73687965D01*
X62870470Y-73655446D01*
X62854970Y-73623118D01*
X62869450Y-73586794D01*
X62894308Y-73558400D01*
X62953061Y-73523439D01*
X63017707Y-73520817D01*
X63076992Y-73547758D01*
X63119661Y-73601488D01*
X63125261Y-73615350D01*
X63157867Y-73666336D01*
X63205470Y-73704187D01*
X63265539Y-73735250D01*
X63265539Y-73647168D01*
X63262003Y-73593351D01*
X63246844Y-73550934D01*
X63213232Y-73505679D01*
X63180965Y-73470820D01*
X63130791Y-73421462D01*
X63091807Y-73394947D01*
X63049936Y-73384311D01*
X63002540Y-73382554D01*
X62898667Y-73397928D01*
G36*
X62215193Y-73401182D02*
X62191839Y-73411388D01*
X62136098Y-73455534D01*
X62088431Y-73519367D01*
X62058952Y-73587487D01*
X62054154Y-73621070D01*
X62070240Y-73667956D01*
X62105525Y-73692765D01*
X62143356Y-73707787D01*
X62160679Y-73710555D01*
X62169114Y-73690466D01*
X62185770Y-73646751D01*
X62193077Y-73626998D01*
X62234052Y-73558671D01*
X62293378Y-73524591D01*
X62369448Y-73525639D01*
X62375082Y-73526981D01*
X62415695Y-73546236D01*
X62445552Y-73583775D01*
X62465945Y-73644209D01*
X62478164Y-73732151D01*
X62483500Y-73852213D01*
X62484000Y-73916098D01*
X62484248Y-74016803D01*
X62485874Y-74085454D01*
X62490199Y-74129073D01*
X62498546Y-74154682D01*
X62512235Y-74169303D01*
X62532589Y-74179958D01*
X62533766Y-74180495D01*
X62572962Y-74197067D01*
X62592381Y-74203169D01*
X62595365Y-74184719D01*
X62597919Y-74133723D01*
X62599860Y-74056708D01*
X62601003Y-73960205D01*
X62601231Y-73889584D01*
X62600068Y-73752925D01*
X62595521Y-73649251D01*
X62586001Y-73572508D01*
X62569919Y-73516646D01*
X62545687Y-73475612D01*
X62511714Y-73443354D01*
X62478167Y-73420840D01*
X62397501Y-73390876D01*
X62303619Y-73384118D01*
X62215193Y-73401182D01*
X62215193Y-73401182D01*
G37*
X62215193Y-73401182D02*
X62191839Y-73411388D01*
X62136098Y-73455534D01*
X62088431Y-73519367D01*
X62058952Y-73587487D01*
X62054154Y-73621070D01*
X62070240Y-73667956D01*
X62105525Y-73692765D01*
X62143356Y-73707787D01*
X62160679Y-73710555D01*
X62169114Y-73690466D01*
X62185770Y-73646751D01*
X62193077Y-73626998D01*
X62234052Y-73558671D01*
X62293378Y-73524591D01*
X62369448Y-73525639D01*
X62375082Y-73526981D01*
X62415695Y-73546236D01*
X62445552Y-73583775D01*
X62465945Y-73644209D01*
X62478164Y-73732151D01*
X62483500Y-73852213D01*
X62484000Y-73916098D01*
X62484248Y-74016803D01*
X62485874Y-74085454D01*
X62490199Y-74129073D01*
X62498546Y-74154682D01*
X62512235Y-74169303D01*
X62532589Y-74179958D01*
X62533766Y-74180495D01*
X62572962Y-74197067D01*
X62592381Y-74203169D01*
X62595365Y-74184719D01*
X62597919Y-74133723D01*
X62599860Y-74056708D01*
X62601003Y-73960205D01*
X62601231Y-73889584D01*
X62600068Y-73752925D01*
X62595521Y-73649251D01*
X62586001Y-73572508D01*
X62569919Y-73516646D01*
X62545687Y-73475612D01*
X62511714Y-73443354D01*
X62478167Y-73420840D01*
X62397501Y-73390876D01*
X62303619Y-73384118D01*
X62215193Y-73401182D01*
G36*
X61540776Y-73412238D02*
X61463472Y-73462761D01*
X61426186Y-73507990D01*
X61396647Y-73590063D01*
X61394301Y-73655007D01*
X61399615Y-73741845D01*
X61599885Y-73829503D01*
X61697261Y-73874287D01*
X61760887Y-73910313D01*
X61793971Y-73941517D01*
X61799720Y-73971836D01*
X61781342Y-74005205D01*
X61761077Y-74027323D01*
X61702111Y-74062793D01*
X61637976Y-74065279D01*
X61579074Y-74037635D01*
X61535803Y-73982720D01*
X61528064Y-73963328D01*
X61490994Y-73902764D01*
X61448346Y-73876952D01*
X61389846Y-73854871D01*
X61389846Y-73938584D01*
X61395018Y-73995550D01*
X61415277Y-74043589D01*
X61457738Y-74098746D01*
X61464049Y-74105914D01*
X61511280Y-74154985D01*
X61551879Y-74181320D01*
X61602672Y-74193435D01*
X61644780Y-74197403D01*
X61720098Y-74198391D01*
X61773714Y-74185866D01*
X61807162Y-74167269D01*
X61859732Y-74126375D01*
X61896121Y-74082148D01*
X61919150Y-74026526D01*
X61931641Y-73951447D01*
X61936413Y-73848849D01*
X61936794Y-73796776D01*
X61935499Y-73734348D01*
X61817529Y-73734348D01*
X61816161Y-73767838D01*
X61812751Y-73773323D01*
X61790247Y-73765872D01*
X61741818Y-73746153D01*
X61677092Y-73718118D01*
X61663557Y-73712092D01*
X61581756Y-73670496D01*
X61536688Y-73633938D01*
X61526783Y-73599696D01*
X61550474Y-73565048D01*
X61570040Y-73549739D01*
X61640640Y-73519121D01*
X61706720Y-73524180D01*
X61762041Y-73561551D01*
X61800364Y-73627873D01*
X61812651Y-73680516D01*
X61817529Y-73734348D01*
X61935499Y-73734348D01*
X61934270Y-73675120D01*
X61924968Y-73585110D01*
X61906540Y-73519567D01*
X61876640Y-73471312D01*
X61832920Y-73433167D01*
X61813859Y-73420840D01*
X61727274Y-73388736D01*
X61632478Y-73386716D01*
X61540776Y-73412238D01*
X61540776Y-73412238D01*
G37*
X61540776Y-73412238D02*
X61463472Y-73462761D01*
X61426186Y-73507990D01*
X61396647Y-73590063D01*
X61394301Y-73655007D01*
X61399615Y-73741845D01*
X61599885Y-73829503D01*
X61697261Y-73874287D01*
X61760887Y-73910313D01*
X61793971Y-73941517D01*
X61799720Y-73971836D01*
X61781342Y-74005205D01*
X61761077Y-74027323D01*
X61702111Y-74062793D01*
X61637976Y-74065279D01*
X61579074Y-74037635D01*
X61535803Y-73982720D01*
X61528064Y-73963328D01*
X61490994Y-73902764D01*
X61448346Y-73876952D01*
X61389846Y-73854871D01*
X61389846Y-73938584D01*
X61395018Y-73995550D01*
X61415277Y-74043589D01*
X61457738Y-74098746D01*
X61464049Y-74105914D01*
X61511280Y-74154985D01*
X61551879Y-74181320D01*
X61602672Y-74193435D01*
X61644780Y-74197403D01*
X61720098Y-74198391D01*
X61773714Y-74185866D01*
X61807162Y-74167269D01*
X61859732Y-74126375D01*
X61896121Y-74082148D01*
X61919150Y-74026526D01*
X61931641Y-73951447D01*
X61936413Y-73848849D01*
X61936794Y-73796776D01*
X61935499Y-73734348D01*
X61817529Y-73734348D01*
X61816161Y-73767838D01*
X61812751Y-73773323D01*
X61790247Y-73765872D01*
X61741818Y-73746153D01*
X61677092Y-73718118D01*
X61663557Y-73712092D01*
X61581756Y-73670496D01*
X61536688Y-73633938D01*
X61526783Y-73599696D01*
X61550474Y-73565048D01*
X61570040Y-73549739D01*
X61640640Y-73519121D01*
X61706720Y-73524180D01*
X61762041Y-73561551D01*
X61800364Y-73627873D01*
X61812651Y-73680516D01*
X61817529Y-73734348D01*
X61935499Y-73734348D01*
X61934270Y-73675120D01*
X61924968Y-73585110D01*
X61906540Y-73519567D01*
X61876640Y-73471312D01*
X61832920Y-73433167D01*
X61813859Y-73420840D01*
X61727274Y-73388736D01*
X61632478Y-73386716D01*
X61540776Y-73412238D01*
G36*
X65646122Y-67052176D02*
X65540388Y-67052755D01*
X65463868Y-67054322D01*
X65411628Y-67057372D01*
X65378737Y-67062396D01*
X65360263Y-67069889D01*
X65351273Y-67080344D01*
X65346837Y-67094253D01*
X65346406Y-67096054D01*
X65339667Y-67128545D01*
X65327192Y-67192652D01*
X65310281Y-67281551D01*
X65290229Y-67388419D01*
X65268336Y-67506433D01*
X65267571Y-67510578D01*
X65245641Y-67626231D01*
X65225123Y-67728414D01*
X65207341Y-67810998D01*
X65193619Y-67867856D01*
X65185282Y-67892858D01*
X65184884Y-67893301D01*
X65160323Y-67905510D01*
X65109685Y-67925856D01*
X65043905Y-67949945D01*
X65043539Y-67950074D01*
X64960683Y-67981218D01*
X64863000Y-68020891D01*
X64770923Y-68060781D01*
X64766566Y-68062753D01*
X64616593Y-68130820D01*
X64284502Y-67904039D01*
X64182626Y-67834904D01*
X64090343Y-67773097D01*
X64012997Y-67722133D01*
X63955936Y-67685527D01*
X63924505Y-67666794D01*
X63921521Y-67665404D01*
X63898679Y-67671590D01*
X63856018Y-67701435D01*
X63791872Y-67756347D01*
X63704579Y-67837734D01*
X63615465Y-67924322D01*
X63529559Y-68009647D01*
X63452673Y-68087508D01*
X63389436Y-68153097D01*
X63344477Y-68201605D01*
X63322424Y-68228225D01*
X63321604Y-68229595D01*
X63319166Y-68247863D01*
X63328350Y-68277695D01*
X63351426Y-68323121D01*
X63390663Y-68388170D01*
X63448330Y-68476870D01*
X63525205Y-68591057D01*
X63593430Y-68691562D01*
X63654418Y-68781703D01*
X63704644Y-68856249D01*
X63740584Y-68909965D01*
X63758713Y-68937618D01*
X63759854Y-68939495D01*
X63757641Y-68965990D01*
X63740862Y-69017486D01*
X63712858Y-69084251D01*
X63702878Y-69105572D01*
X63659328Y-69200559D01*
X63612866Y-69308337D01*
X63575123Y-69401592D01*
X63547927Y-69470806D01*
X63526325Y-69523406D01*
X63513842Y-69550897D01*
X63512291Y-69553016D01*
X63489332Y-69556524D01*
X63435214Y-69566138D01*
X63357132Y-69580489D01*
X63262281Y-69598207D01*
X63157857Y-69617925D01*
X63051056Y-69638274D01*
X62949074Y-69657886D01*
X62859106Y-69675391D01*
X62788347Y-69689422D01*
X62743994Y-69698609D01*
X62733115Y-69701207D01*
X62721878Y-69707618D01*
X62713395Y-69722097D01*
X62707286Y-69749533D01*
X62703168Y-69794811D01*
X62700659Y-69862820D01*
X62699379Y-69958447D01*
X62698946Y-70086580D01*
X62698923Y-70139101D01*
X62698923Y-70566245D01*
X62801500Y-70586491D01*
X62858569Y-70597470D01*
X62943731Y-70613495D01*
X63046628Y-70632633D01*
X63156904Y-70652951D01*
X63187385Y-70658532D01*
X63289145Y-70678317D01*
X63377795Y-70697773D01*
X63445892Y-70715097D01*
X63485996Y-70728488D01*
X63492677Y-70732479D01*
X63509081Y-70760742D01*
X63532601Y-70815509D01*
X63558684Y-70885988D01*
X63563858Y-70901169D01*
X63598044Y-70995296D01*
X63640477Y-71101501D01*
X63682003Y-71196873D01*
X63682208Y-71197316D01*
X63751360Y-71346925D01*
X63296488Y-72016017D01*
X63588500Y-72308516D01*
X63676820Y-72395570D01*
X63757375Y-72472309D01*
X63825640Y-72534637D01*
X63877092Y-72578456D01*
X63907206Y-72599670D01*
X63911526Y-72601016D01*
X63936889Y-72590416D01*
X63988642Y-72560947D01*
X64061132Y-72516105D01*
X64148706Y-72459384D01*
X64243388Y-72395862D01*
X64339484Y-72331068D01*
X64425163Y-72274687D01*
X64494984Y-72230188D01*
X64543506Y-72201039D01*
X64565218Y-72190708D01*
X64591707Y-72199450D01*
X64641938Y-72222487D01*
X64705549Y-72255031D01*
X64712292Y-72258649D01*
X64797954Y-72301610D01*
X64856694Y-72322679D01*
X64893228Y-72322903D01*
X64912269Y-72303328D01*
X64912380Y-72303054D01*
X64921898Y-72279872D01*
X64944597Y-72224841D01*
X64978718Y-72142222D01*
X65022500Y-72036272D01*
X65074184Y-71911252D01*
X65132008Y-71771420D01*
X65188009Y-71636037D01*
X65249553Y-71486634D01*
X65306061Y-71348232D01*
X65355839Y-71225073D01*
X65397194Y-71121402D01*
X65428432Y-71041459D01*
X65447859Y-70989488D01*
X65453846Y-70970092D01*
X65438832Y-70947843D01*
X65399561Y-70912382D01*
X65347193Y-70873287D01*
X65198059Y-70749645D01*
X65081489Y-70607922D01*
X64998882Y-70451104D01*
X64951634Y-70282175D01*
X64941143Y-70104122D01*
X64948769Y-70021939D01*
X64990318Y-69851431D01*
X65061877Y-69700859D01*
X65159005Y-69571709D01*
X65277266Y-69465464D01*
X65412220Y-69383610D01*
X65559429Y-69327632D01*
X65714456Y-69299015D01*
X65872861Y-69299244D01*
X66030206Y-69329805D01*
X66182054Y-69392182D01*
X66323965Y-69487860D01*
X66383197Y-69541972D01*
X66496797Y-69680920D01*
X66575894Y-69832761D01*
X66621014Y-69993067D01*
X66632684Y-70157412D01*
X66611431Y-70321371D01*
X66557780Y-70480518D01*
X66472260Y-70630425D01*
X66355395Y-70766667D01*
X66224807Y-70873287D01*
X66170412Y-70914042D01*
X66131986Y-70949118D01*
X66118154Y-70970126D01*
X66125397Y-70993035D01*
X66145995Y-71047765D01*
X66178254Y-71130072D01*
X66220479Y-71235715D01*
X66270977Y-71360450D01*
X66328052Y-71500036D01*
X66384146Y-71636070D01*
X66446033Y-71785601D01*
X66503356Y-71924167D01*
X66554356Y-72047507D01*
X66597273Y-72151364D01*
X66630347Y-72231480D01*
X66651819Y-72283595D01*
X66659775Y-72303054D01*
X66678571Y-72322823D01*
X66714926Y-72322765D01*
X66773521Y-72301841D01*
X66859032Y-72259013D01*
X66859708Y-72258649D01*
X66924093Y-72225412D01*
X66976139Y-72201202D01*
X67005488Y-72190804D01*
X67006783Y-72190708D01*
X67028876Y-72201255D01*
X67077652Y-72230584D01*
X67147669Y-72275227D01*
X67233486Y-72331714D01*
X67328612Y-72395862D01*
X67425460Y-72460811D01*
X67512747Y-72517296D01*
X67584819Y-72561821D01*
X67636023Y-72590890D01*
X67660474Y-72601016D01*
X67682990Y-72587707D01*
X67728258Y-72550512D01*
X67791756Y-72493528D01*
X67868961Y-72420849D01*
X67955349Y-72336571D01*
X67983601Y-72308416D01*
X68275713Y-72015816D01*
X68053369Y-71689504D01*
X67985798Y-71589297D01*
X67926493Y-71499363D01*
X67878783Y-71424910D01*
X67845993Y-71371151D01*
X67831452Y-71343294D01*
X67831026Y-71341312D01*
X67838692Y-71315055D01*
X67859311Y-71262237D01*
X67889315Y-71191710D01*
X67910375Y-71144493D01*
X67949752Y-71054094D01*
X67986835Y-70962766D01*
X68015585Y-70885600D01*
X68023395Y-70862092D01*
X68045583Y-70799316D01*
X68067273Y-70750811D01*
X68079187Y-70732479D01*
X68105477Y-70721259D01*
X68162858Y-70705354D01*
X68243882Y-70686567D01*
X68341105Y-70666699D01*
X68384615Y-70658532D01*
X68495104Y-70638229D01*
X68601084Y-70618570D01*
X68692199Y-70601488D01*
X68758092Y-70588918D01*
X68770500Y-70586491D01*
X68873077Y-70566245D01*
X68873077Y-70139101D01*
X68872847Y-69998646D01*
X68871901Y-69892379D01*
X68869859Y-69815413D01*
X68866338Y-69762860D01*
X68860957Y-69729833D01*
X68853334Y-69711445D01*
X68843088Y-69702808D01*
X68838885Y-69701207D01*
X68813530Y-69695527D01*
X68757516Y-69684195D01*
X68678036Y-69668579D01*
X68582288Y-69650047D01*
X68477467Y-69629969D01*
X68370768Y-69609712D01*
X68269387Y-69590646D01*
X68180521Y-69574139D01*
X68111363Y-69561559D01*
X68069111Y-69554275D01*
X68059710Y-69553016D01*
X68051193Y-69536163D01*
X68032340Y-69491270D01*
X68006676Y-69426830D01*
X67996877Y-69401592D01*
X67957352Y-69304086D01*
X67910808Y-69196359D01*
X67869123Y-69105572D01*
X67838450Y-69036153D01*
X67818044Y-68979110D01*
X67811232Y-68944177D01*
X67812318Y-68939495D01*
X67826715Y-68917391D01*
X67859588Y-68868231D01*
X67907410Y-68797248D01*
X67966652Y-68709678D01*
X68033785Y-68610757D01*
X68047059Y-68591230D01*
X68124954Y-68475540D01*
X68182213Y-68387444D01*
X68221119Y-68322886D01*
X68243956Y-68277811D01*
X68253006Y-68248163D01*
X68250552Y-68229885D01*
X68250489Y-68229769D01*
X68231173Y-68205761D01*
X68188449Y-68159347D01*
X68126949Y-68095337D01*
X68051302Y-68018545D01*
X67966139Y-67933782D01*
X67956535Y-67924322D01*
X67849210Y-67820389D01*
X67766385Y-67744075D01*
X67706395Y-67693971D01*
X67667577Y-67668670D01*
X67650480Y-67665404D01*
X67625527Y-67679650D01*
X67573745Y-67712556D01*
X67500480Y-67760608D01*
X67411080Y-67820290D01*
X67310889Y-67888088D01*
X67287499Y-67904039D01*
X66955407Y-68130820D01*
X66805435Y-68062753D01*
X66714230Y-68023085D01*
X66616331Y-67983191D01*
X66532169Y-67951383D01*
X66528462Y-67950074D01*
X66462631Y-67925976D01*
X66411884Y-67905600D01*
X66387158Y-67893336D01*
X66387116Y-67893301D01*
X66379271Y-67871134D01*
X66365934Y-67816617D01*
X66348430Y-67735880D01*
X66328083Y-67635050D01*
X66306218Y-67520256D01*
X66304429Y-67510578D01*
X66282496Y-67392304D01*
X66262360Y-67284942D01*
X66245320Y-67195317D01*
X66232672Y-67130251D01*
X66225716Y-67096568D01*
X66225594Y-67096054D01*
X66221361Y-67081725D01*
X66213129Y-67070907D01*
X66195967Y-67063106D01*
X66164942Y-67057829D01*
X66115122Y-67054582D01*
X66041576Y-67052872D01*
X65939371Y-67052207D01*
X65803575Y-67052093D01*
X65786000Y-67052092D01*
X65646122Y-67052176D01*
X65646122Y-67052176D01*
G37*
X65646122Y-67052176D02*
X65540388Y-67052755D01*
X65463868Y-67054322D01*
X65411628Y-67057372D01*
X65378737Y-67062396D01*
X65360263Y-67069889D01*
X65351273Y-67080344D01*
X65346837Y-67094253D01*
X65346406Y-67096054D01*
X65339667Y-67128545D01*
X65327192Y-67192652D01*
X65310281Y-67281551D01*
X65290229Y-67388419D01*
X65268336Y-67506433D01*
X65267571Y-67510578D01*
X65245641Y-67626231D01*
X65225123Y-67728414D01*
X65207341Y-67810998D01*
X65193619Y-67867856D01*
X65185282Y-67892858D01*
X65184884Y-67893301D01*
X65160323Y-67905510D01*
X65109685Y-67925856D01*
X65043905Y-67949945D01*
X65043539Y-67950074D01*
X64960683Y-67981218D01*
X64863000Y-68020891D01*
X64770923Y-68060781D01*
X64766566Y-68062753D01*
X64616593Y-68130820D01*
X64284502Y-67904039D01*
X64182626Y-67834904D01*
X64090343Y-67773097D01*
X64012997Y-67722133D01*
X63955936Y-67685527D01*
X63924505Y-67666794D01*
X63921521Y-67665404D01*
X63898679Y-67671590D01*
X63856018Y-67701435D01*
X63791872Y-67756347D01*
X63704579Y-67837734D01*
X63615465Y-67924322D01*
X63529559Y-68009647D01*
X63452673Y-68087508D01*
X63389436Y-68153097D01*
X63344477Y-68201605D01*
X63322424Y-68228225D01*
X63321604Y-68229595D01*
X63319166Y-68247863D01*
X63328350Y-68277695D01*
X63351426Y-68323121D01*
X63390663Y-68388170D01*
X63448330Y-68476870D01*
X63525205Y-68591057D01*
X63593430Y-68691562D01*
X63654418Y-68781703D01*
X63704644Y-68856249D01*
X63740584Y-68909965D01*
X63758713Y-68937618D01*
X63759854Y-68939495D01*
X63757641Y-68965990D01*
X63740862Y-69017486D01*
X63712858Y-69084251D01*
X63702878Y-69105572D01*
X63659328Y-69200559D01*
X63612866Y-69308337D01*
X63575123Y-69401592D01*
X63547927Y-69470806D01*
X63526325Y-69523406D01*
X63513842Y-69550897D01*
X63512291Y-69553016D01*
X63489332Y-69556524D01*
X63435214Y-69566138D01*
X63357132Y-69580489D01*
X63262281Y-69598207D01*
X63157857Y-69617925D01*
X63051056Y-69638274D01*
X62949074Y-69657886D01*
X62859106Y-69675391D01*
X62788347Y-69689422D01*
X62743994Y-69698609D01*
X62733115Y-69701207D01*
X62721878Y-69707618D01*
X62713395Y-69722097D01*
X62707286Y-69749533D01*
X62703168Y-69794811D01*
X62700659Y-69862820D01*
X62699379Y-69958447D01*
X62698946Y-70086580D01*
X62698923Y-70139101D01*
X62698923Y-70566245D01*
X62801500Y-70586491D01*
X62858569Y-70597470D01*
X62943731Y-70613495D01*
X63046628Y-70632633D01*
X63156904Y-70652951D01*
X63187385Y-70658532D01*
X63289145Y-70678317D01*
X63377795Y-70697773D01*
X63445892Y-70715097D01*
X63485996Y-70728488D01*
X63492677Y-70732479D01*
X63509081Y-70760742D01*
X63532601Y-70815509D01*
X63558684Y-70885988D01*
X63563858Y-70901169D01*
X63598044Y-70995296D01*
X63640477Y-71101501D01*
X63682003Y-71196873D01*
X63682208Y-71197316D01*
X63751360Y-71346925D01*
X63296488Y-72016017D01*
X63588500Y-72308516D01*
X63676820Y-72395570D01*
X63757375Y-72472309D01*
X63825640Y-72534637D01*
X63877092Y-72578456D01*
X63907206Y-72599670D01*
X63911526Y-72601016D01*
X63936889Y-72590416D01*
X63988642Y-72560947D01*
X64061132Y-72516105D01*
X64148706Y-72459384D01*
X64243388Y-72395862D01*
X64339484Y-72331068D01*
X64425163Y-72274687D01*
X64494984Y-72230188D01*
X64543506Y-72201039D01*
X64565218Y-72190708D01*
X64591707Y-72199450D01*
X64641938Y-72222487D01*
X64705549Y-72255031D01*
X64712292Y-72258649D01*
X64797954Y-72301610D01*
X64856694Y-72322679D01*
X64893228Y-72322903D01*
X64912269Y-72303328D01*
X64912380Y-72303054D01*
X64921898Y-72279872D01*
X64944597Y-72224841D01*
X64978718Y-72142222D01*
X65022500Y-72036272D01*
X65074184Y-71911252D01*
X65132008Y-71771420D01*
X65188009Y-71636037D01*
X65249553Y-71486634D01*
X65306061Y-71348232D01*
X65355839Y-71225073D01*
X65397194Y-71121402D01*
X65428432Y-71041459D01*
X65447859Y-70989488D01*
X65453846Y-70970092D01*
X65438832Y-70947843D01*
X65399561Y-70912382D01*
X65347193Y-70873287D01*
X65198059Y-70749645D01*
X65081489Y-70607922D01*
X64998882Y-70451104D01*
X64951634Y-70282175D01*
X64941143Y-70104122D01*
X64948769Y-70021939D01*
X64990318Y-69851431D01*
X65061877Y-69700859D01*
X65159005Y-69571709D01*
X65277266Y-69465464D01*
X65412220Y-69383610D01*
X65559429Y-69327632D01*
X65714456Y-69299015D01*
X65872861Y-69299244D01*
X66030206Y-69329805D01*
X66182054Y-69392182D01*
X66323965Y-69487860D01*
X66383197Y-69541972D01*
X66496797Y-69680920D01*
X66575894Y-69832761D01*
X66621014Y-69993067D01*
X66632684Y-70157412D01*
X66611431Y-70321371D01*
X66557780Y-70480518D01*
X66472260Y-70630425D01*
X66355395Y-70766667D01*
X66224807Y-70873287D01*
X66170412Y-70914042D01*
X66131986Y-70949118D01*
X66118154Y-70970126D01*
X66125397Y-70993035D01*
X66145995Y-71047765D01*
X66178254Y-71130072D01*
X66220479Y-71235715D01*
X66270977Y-71360450D01*
X66328052Y-71500036D01*
X66384146Y-71636070D01*
X66446033Y-71785601D01*
X66503356Y-71924167D01*
X66554356Y-72047507D01*
X66597273Y-72151364D01*
X66630347Y-72231480D01*
X66651819Y-72283595D01*
X66659775Y-72303054D01*
X66678571Y-72322823D01*
X66714926Y-72322765D01*
X66773521Y-72301841D01*
X66859032Y-72259013D01*
X66859708Y-72258649D01*
X66924093Y-72225412D01*
X66976139Y-72201202D01*
X67005488Y-72190804D01*
X67006783Y-72190708D01*
X67028876Y-72201255D01*
X67077652Y-72230584D01*
X67147669Y-72275227D01*
X67233486Y-72331714D01*
X67328612Y-72395862D01*
X67425460Y-72460811D01*
X67512747Y-72517296D01*
X67584819Y-72561821D01*
X67636023Y-72590890D01*
X67660474Y-72601016D01*
X67682990Y-72587707D01*
X67728258Y-72550512D01*
X67791756Y-72493528D01*
X67868961Y-72420849D01*
X67955349Y-72336571D01*
X67983601Y-72308416D01*
X68275713Y-72015816D01*
X68053369Y-71689504D01*
X67985798Y-71589297D01*
X67926493Y-71499363D01*
X67878783Y-71424910D01*
X67845993Y-71371151D01*
X67831452Y-71343294D01*
X67831026Y-71341312D01*
X67838692Y-71315055D01*
X67859311Y-71262237D01*
X67889315Y-71191710D01*
X67910375Y-71144493D01*
X67949752Y-71054094D01*
X67986835Y-70962766D01*
X68015585Y-70885600D01*
X68023395Y-70862092D01*
X68045583Y-70799316D01*
X68067273Y-70750811D01*
X68079187Y-70732479D01*
X68105477Y-70721259D01*
X68162858Y-70705354D01*
X68243882Y-70686567D01*
X68341105Y-70666699D01*
X68384615Y-70658532D01*
X68495104Y-70638229D01*
X68601084Y-70618570D01*
X68692199Y-70601488D01*
X68758092Y-70588918D01*
X68770500Y-70586491D01*
X68873077Y-70566245D01*
X68873077Y-70139101D01*
X68872847Y-69998646D01*
X68871901Y-69892379D01*
X68869859Y-69815413D01*
X68866338Y-69762860D01*
X68860957Y-69729833D01*
X68853334Y-69711445D01*
X68843088Y-69702808D01*
X68838885Y-69701207D01*
X68813530Y-69695527D01*
X68757516Y-69684195D01*
X68678036Y-69668579D01*
X68582288Y-69650047D01*
X68477467Y-69629969D01*
X68370768Y-69609712D01*
X68269387Y-69590646D01*
X68180521Y-69574139D01*
X68111363Y-69561559D01*
X68069111Y-69554275D01*
X68059710Y-69553016D01*
X68051193Y-69536163D01*
X68032340Y-69491270D01*
X68006676Y-69426830D01*
X67996877Y-69401592D01*
X67957352Y-69304086D01*
X67910808Y-69196359D01*
X67869123Y-69105572D01*
X67838450Y-69036153D01*
X67818044Y-68979110D01*
X67811232Y-68944177D01*
X67812318Y-68939495D01*
X67826715Y-68917391D01*
X67859588Y-68868231D01*
X67907410Y-68797248D01*
X67966652Y-68709678D01*
X68033785Y-68610757D01*
X68047059Y-68591230D01*
X68124954Y-68475540D01*
X68182213Y-68387444D01*
X68221119Y-68322886D01*
X68243956Y-68277811D01*
X68253006Y-68248163D01*
X68250552Y-68229885D01*
X68250489Y-68229769D01*
X68231173Y-68205761D01*
X68188449Y-68159347D01*
X68126949Y-68095337D01*
X68051302Y-68018545D01*
X67966139Y-67933782D01*
X67956535Y-67924322D01*
X67849210Y-67820389D01*
X67766385Y-67744075D01*
X67706395Y-67693971D01*
X67667577Y-67668670D01*
X67650480Y-67665404D01*
X67625527Y-67679650D01*
X67573745Y-67712556D01*
X67500480Y-67760608D01*
X67411080Y-67820290D01*
X67310889Y-67888088D01*
X67287499Y-67904039D01*
X66955407Y-68130820D01*
X66805435Y-68062753D01*
X66714230Y-68023085D01*
X66616331Y-67983191D01*
X66532169Y-67951383D01*
X66528462Y-67950074D01*
X66462631Y-67925976D01*
X66411884Y-67905600D01*
X66387158Y-67893336D01*
X66387116Y-67893301D01*
X66379271Y-67871134D01*
X66365934Y-67816617D01*
X66348430Y-67735880D01*
X66328083Y-67635050D01*
X66306218Y-67520256D01*
X66304429Y-67510578D01*
X66282496Y-67392304D01*
X66262360Y-67284942D01*
X66245320Y-67195317D01*
X66232672Y-67130251D01*
X66225716Y-67096568D01*
X66225594Y-67096054D01*
X66221361Y-67081725D01*
X66213129Y-67070907D01*
X66195967Y-67063106D01*
X66164942Y-67057829D01*
X66115122Y-67054582D01*
X66041576Y-67052872D01*
X65939371Y-67052207D01*
X65803575Y-67052093D01*
X65786000Y-67052092D01*
X65646122Y-67052176D01*
D13*
X93853000Y-77470000D03*
X96393000Y-77470000D03*
X93853000Y-80010000D03*
X96393000Y-80010000D03*
X93853000Y-82550000D03*
X96393000Y-82550000D03*
X93853000Y-85090000D03*
X96393000Y-85090000D03*
X93853000Y-87630000D03*
D14*
X96393000Y-87630000D03*
D15*
X76835000Y-96901000D03*
D16*
X79375000Y-96901000D03*
X84328000Y-94361000D03*
D15*
X86868000Y-96901000D03*
X86868000Y-94361000D03*
D16*
X86868000Y-91821000D03*
D15*
X96393000Y-96901000D03*
X93853000Y-96901000D03*
D16*
X91313000Y-96901000D03*
D14*
X58674000Y-93980000D03*
D13*
X56134000Y-93980000D03*
X58674000Y-91440000D03*
X56134000Y-91440000D03*
X58674000Y-88900000D03*
X56134000Y-88900000D03*
X58674000Y-86360000D03*
X56134000Y-86360000D03*
X58674000Y-83820000D03*
X56134000Y-83820000D03*
X58674000Y-81280000D03*
X56134000Y-81280000D03*
X58674000Y-78740000D03*
X56134000Y-78740000D03*
X58674000Y-76200000D03*
X56134000Y-76200000D03*
X58674000Y-73660000D03*
X56134000Y-73660000D03*
X58674000Y-71120000D03*
X56134000Y-71120000D03*
D16*
X65278000Y-86360000D03*
D15*
X65278000Y-88900000D03*
X65278000Y-91440000D03*
D16*
X65278000Y-96901000D03*
D15*
X67818000Y-96901000D03*
X70358000Y-96901000D03*
X86868000Y-85090000D03*
X84328000Y-85090000D03*
X86868000Y-82550000D03*
X84328000Y-82550000D03*
X86868000Y-80010000D03*
D16*
X84328000Y-80010000D03*
D17*
X87884000Y-67691000D03*
X94615000Y-67691000D03*
D18*
X90271600Y-73609200D03*
D17*
X82423000Y-70866000D03*
X82423000Y-71945500D03*
X82423000Y-67500500D03*
X82423000Y-66421000D03*
X69977000Y-67500500D03*
X69977000Y-66421000D03*
X69977000Y-70866000D03*
X69977000Y-71945500D03*
X76200000Y-87820500D03*
X78105000Y-79946500D03*
X66992500Y-76708000D03*
X74744704Y-79316300D03*
X74295000Y-82232500D03*
X68961000Y-81915000D03*
X70485000Y-81915000D03*
X80650000Y-68389500D03*
X71750000Y-68389500D03*
X71750000Y-69405500D03*
X80650000Y-69405500D03*
X73533000Y-72015000D03*
X86106000Y-88273531D03*
X78168500Y-81280000D03*
D11*
X94615000Y-67691000D02*
X87884000Y-67691000D01*
D19*
X82423000Y-71945500D02*
X82423000Y-70866000D01*
X82423000Y-66421000D02*
X82423000Y-67500500D01*
X69977000Y-66421000D02*
X69977000Y-67500500D01*
X69977000Y-71945500D02*
X69977000Y-70866000D01*
X86868000Y-91821000D02*
X88519000Y-93472000D01*
X77684999Y-97750999D02*
X76835000Y-96901000D01*
X88519000Y-93472000D02*
X88519000Y-97663000D01*
X88519000Y-97663000D02*
X87439500Y-98742500D01*
X87439500Y-98742500D02*
X78676500Y-98742500D01*
X78676500Y-98742500D02*
X77684999Y-97750999D01*
D11*
X93853000Y-77470000D02*
X92519500Y-78803500D01*
X92519500Y-78803500D02*
X92519500Y-80645000D01*
X68770500Y-83947000D02*
X61023500Y-76200000D01*
X92519500Y-80645000D02*
X91814501Y-81349999D01*
X91814501Y-81349999D02*
X83559501Y-81349999D01*
X83559501Y-81349999D02*
X82994500Y-81915000D01*
X82994500Y-81915000D02*
X82994500Y-83248500D01*
X82994500Y-83248500D02*
X82296000Y-83947000D01*
X61023500Y-76200000D02*
X59895314Y-76200000D01*
X82296000Y-83947000D02*
X68770500Y-83947000D01*
X59895314Y-76200000D02*
X58674000Y-76200000D01*
X95123000Y-81280000D02*
X95123000Y-88156130D01*
X93853000Y-80010000D02*
X95123000Y-81280000D01*
X94379130Y-88900000D02*
X93027500Y-88900000D01*
X60013999Y-87560001D02*
X59537599Y-88036401D01*
X93027500Y-88900000D02*
X91551021Y-87423521D01*
X67921449Y-86447051D02*
X66808499Y-87560001D01*
X78319050Y-86447050D02*
X67921449Y-86447051D01*
X95123000Y-88156130D02*
X94379130Y-88900000D01*
X91551021Y-87423521D02*
X79295520Y-87423520D01*
X79295520Y-87423520D02*
X78319050Y-86447050D01*
X59537599Y-88036401D02*
X58674000Y-88900000D01*
X66808499Y-87560001D02*
X60013999Y-87560001D01*
X93853000Y-82550000D02*
X92527489Y-83875511D01*
X92527489Y-83875511D02*
X83192989Y-83875511D01*
X83192989Y-83875511D02*
X82621490Y-84447010D01*
X82621490Y-84447010D02*
X68563388Y-84447010D01*
X68563388Y-84447010D02*
X62856378Y-78740000D01*
X62856378Y-78740000D02*
X59895314Y-78740000D01*
X59895314Y-78740000D02*
X58674000Y-78740000D01*
X93853000Y-85090000D02*
X92519500Y-86423500D01*
X92519500Y-86423500D02*
X79709744Y-86423500D01*
X79709744Y-86423500D02*
X78733273Y-85447029D01*
X78733273Y-85447029D02*
X68149163Y-85447029D01*
X68149163Y-85447029D02*
X66522134Y-83820000D01*
X66522134Y-83820000D02*
X59895314Y-83820000D01*
X59895314Y-83820000D02*
X58674000Y-83820000D01*
X67942051Y-85947039D02*
X66704012Y-84709000D01*
X91925196Y-86923510D02*
X79502632Y-86923510D01*
X79502632Y-86923510D02*
X78526162Y-85947040D01*
X93853000Y-87630000D02*
X92631686Y-87630000D01*
X92631686Y-87630000D02*
X91925196Y-86923510D01*
X59537599Y-85496401D02*
X58674000Y-86360000D01*
X66704012Y-84709000D02*
X60325000Y-84709000D01*
X60325000Y-84709000D02*
X59537599Y-85496401D01*
X78526162Y-85947040D02*
X67942051Y-85947039D01*
X68356276Y-84947020D02*
X64689256Y-81280000D01*
X84328000Y-85090000D02*
X83125919Y-85090000D01*
X83125919Y-85090000D02*
X82982939Y-84947020D01*
X64689256Y-81280000D02*
X59895314Y-81280000D01*
X59895314Y-81280000D02*
X58674000Y-81280000D01*
X82982939Y-84947020D02*
X68356276Y-84947020D01*
X58674000Y-91440000D02*
X60007500Y-90106500D01*
X78111939Y-86947061D02*
X79112378Y-87947500D01*
X60007500Y-90106500D02*
X65797998Y-90106500D01*
X65797998Y-90106500D02*
X68957439Y-86947061D01*
X68957439Y-86947061D02*
X78111939Y-86947061D01*
X79112378Y-87947500D02*
X85072863Y-87947500D01*
X85072863Y-87947500D02*
X85398894Y-88273531D01*
X85398894Y-88273531D02*
X86106000Y-88273531D01*
X78168500Y-81280000D02*
X79438500Y-80010000D01*
X79438500Y-80010000D02*
X84328000Y-80010000D01*
D20*
G36*
X99620000Y-98985000D02*
X88448580Y-98985000D01*
X89144787Y-98288792D01*
X89144790Y-98288790D01*
X89336633Y-98001675D01*
X89336634Y-98001674D01*
X89404001Y-97663000D01*
X89404000Y-97662995D01*
X89404000Y-96051000D01*
X89815560Y-96051000D01*
X89815560Y-97751000D01*
X89864843Y-97998765D01*
X90005191Y-98208809D01*
X90215235Y-98349157D01*
X90463000Y-98398440D01*
X92163000Y-98398440D01*
X92410765Y-98349157D01*
X92620809Y-98208809D01*
X92761157Y-97998765D01*
X92773597Y-97936223D01*
X92802946Y-97980147D01*
X93284715Y-98302054D01*
X93853000Y-98415093D01*
X94421285Y-98302054D01*
X94903054Y-97980147D01*
X95123000Y-97650974D01*
X95342946Y-97980147D01*
X95824715Y-98302054D01*
X96393000Y-98415093D01*
X96961285Y-98302054D01*
X97443054Y-97980147D01*
X97764961Y-97498378D01*
X97878000Y-96930093D01*
X97878000Y-96871907D01*
X97764961Y-96303622D01*
X97443054Y-95821853D01*
X96961285Y-95499946D01*
X96393000Y-95386907D01*
X95824715Y-95499946D01*
X95342946Y-95821853D01*
X95123000Y-96151026D01*
X94903054Y-95821853D01*
X94421285Y-95499946D01*
X93853000Y-95386907D01*
X93284715Y-95499946D01*
X92802946Y-95821853D01*
X92773597Y-95865777D01*
X92761157Y-95803235D01*
X92620809Y-95593191D01*
X92410765Y-95452843D01*
X92163000Y-95403560D01*
X90463000Y-95403560D01*
X90215235Y-95452843D01*
X90005191Y-95593191D01*
X89864843Y-95803235D01*
X89815560Y-96051000D01*
X89404000Y-96051000D01*
X89404000Y-93472005D01*
X89404001Y-93472000D01*
X89336634Y-93133326D01*
X89240225Y-92989039D01*
X89144790Y-92846210D01*
X89144787Y-92846208D01*
X88365440Y-92066861D01*
X88365440Y-90971000D01*
X88316157Y-90723235D01*
X88175809Y-90513191D01*
X87965765Y-90372843D01*
X87718000Y-90323560D01*
X86018000Y-90323560D01*
X85770235Y-90372843D01*
X85560191Y-90513191D01*
X85419843Y-90723235D01*
X85370560Y-90971000D01*
X85370560Y-92671000D01*
X85418373Y-92911373D01*
X85178000Y-92863560D01*
X83478000Y-92863560D01*
X83230235Y-92912843D01*
X83020191Y-93053191D01*
X82879843Y-93263235D01*
X82830560Y-93511000D01*
X82830560Y-95211000D01*
X82879843Y-95458765D01*
X83020191Y-95668809D01*
X83230235Y-95809157D01*
X83478000Y-95858440D01*
X85178000Y-95858440D01*
X85425765Y-95809157D01*
X85635809Y-95668809D01*
X85776157Y-95458765D01*
X85786383Y-95407357D01*
X85788853Y-95411054D01*
X86129553Y-95638702D01*
X85986642Y-95705817D01*
X85596355Y-96134076D01*
X85426524Y-96544110D01*
X85547845Y-96774000D01*
X86741000Y-96774000D01*
X86741000Y-96754000D01*
X86995000Y-96754000D01*
X86995000Y-96774000D01*
X87015000Y-96774000D01*
X87015000Y-97028000D01*
X86995000Y-97028000D01*
X86995000Y-97048000D01*
X86741000Y-97048000D01*
X86741000Y-97028000D01*
X85547845Y-97028000D01*
X85426524Y-97257890D01*
X85596355Y-97667924D01*
X85769122Y-97857500D01*
X80851256Y-97857500D01*
X80872440Y-97751000D01*
X80872440Y-96051000D01*
X80823157Y-95803235D01*
X80682809Y-95593191D01*
X80472765Y-95452843D01*
X80225000Y-95403560D01*
X78525000Y-95403560D01*
X78277235Y-95452843D01*
X78067191Y-95593191D01*
X77926843Y-95803235D01*
X77914403Y-95865777D01*
X77885054Y-95821853D01*
X77403285Y-95499946D01*
X76835000Y-95386907D01*
X76266715Y-95499946D01*
X75784946Y-95821853D01*
X75463039Y-96303622D01*
X75350000Y-96871907D01*
X75350000Y-96930093D01*
X75463039Y-97498378D01*
X75784946Y-97980147D01*
X76266715Y-98302054D01*
X76835000Y-98415093D01*
X77053960Y-98371539D01*
X77059207Y-98376786D01*
X77059209Y-98376789D01*
X77667421Y-98985000D01*
X63768428Y-98985000D01*
X63768428Y-96051000D01*
X63780560Y-96051000D01*
X63780560Y-97751000D01*
X63829843Y-97998765D01*
X63970191Y-98208809D01*
X64180235Y-98349157D01*
X64428000Y-98398440D01*
X66128000Y-98398440D01*
X66375765Y-98349157D01*
X66585809Y-98208809D01*
X66726157Y-97998765D01*
X66738597Y-97936223D01*
X66767946Y-97980147D01*
X67249715Y-98302054D01*
X67818000Y-98415093D01*
X68386285Y-98302054D01*
X68868054Y-97980147D01*
X69088000Y-97650974D01*
X69307946Y-97980147D01*
X69789715Y-98302054D01*
X70358000Y-98415093D01*
X70926285Y-98302054D01*
X71408054Y-97980147D01*
X71729961Y-97498378D01*
X71843000Y-96930093D01*
X71843000Y-96871907D01*
X71729961Y-96303622D01*
X71408054Y-95821853D01*
X70926285Y-95499946D01*
X70358000Y-95386907D01*
X69789715Y-95499946D01*
X69307946Y-95821853D01*
X69088000Y-96151026D01*
X68868054Y-95821853D01*
X68386285Y-95499946D01*
X67818000Y-95386907D01*
X67249715Y-95499946D01*
X66767946Y-95821853D01*
X66738597Y-95865777D01*
X66726157Y-95803235D01*
X66585809Y-95593191D01*
X66375765Y-95452843D01*
X66128000Y-95403560D01*
X64428000Y-95403560D01*
X64180235Y-95452843D01*
X63970191Y-95593191D01*
X63829843Y-95803235D01*
X63780560Y-96051000D01*
X63768428Y-96051000D01*
X63768428Y-95887000D01*
X52907000Y-95887000D01*
X52907000Y-93950641D01*
X54635400Y-93950641D01*
X54635400Y-94009359D01*
X54749474Y-94582848D01*
X55074330Y-95069029D01*
X55560511Y-95393885D01*
X56134000Y-95507959D01*
X56707489Y-95393885D01*
X57193670Y-95069029D01*
X57204559Y-95052733D01*
X57212243Y-95091365D01*
X57352591Y-95301409D01*
X57562635Y-95441757D01*
X57810400Y-95491040D01*
X59537600Y-95491040D01*
X59785365Y-95441757D01*
X59995409Y-95301409D01*
X60135757Y-95091365D01*
X60185040Y-94843600D01*
X60185040Y-93116400D01*
X60135757Y-92868635D01*
X59995409Y-92658591D01*
X59785365Y-92518243D01*
X59746096Y-92510432D01*
X60058526Y-92042848D01*
X60172600Y-91469359D01*
X60172600Y-91410641D01*
X60113024Y-91111134D01*
X60332658Y-90891500D01*
X63873011Y-90891500D01*
X63763907Y-91440000D01*
X63876946Y-92008285D01*
X64198853Y-92490054D01*
X64680622Y-92811961D01*
X65248907Y-92925000D01*
X65307093Y-92925000D01*
X65875378Y-92811961D01*
X66357147Y-92490054D01*
X66679054Y-92008285D01*
X66792093Y-91440000D01*
X66679054Y-90871715D01*
X66464318Y-90550338D01*
X69282597Y-87732061D01*
X77786781Y-87732061D01*
X78557299Y-88502579D01*
X78811972Y-88672745D01*
X79112378Y-88732500D01*
X84747706Y-88732500D01*
X84843813Y-88828607D01*
X84843815Y-88828610D01*
X85098488Y-88998776D01*
X85257901Y-89030486D01*
X85462235Y-89235176D01*
X85879244Y-89408334D01*
X86330775Y-89408728D01*
X86748086Y-89236298D01*
X87067645Y-88917296D01*
X87240803Y-88500287D01*
X87241058Y-88208521D01*
X91225863Y-88208521D01*
X92472421Y-89455079D01*
X92727094Y-89625245D01*
X93027500Y-89685001D01*
X93027505Y-89685000D01*
X94379130Y-89685000D01*
X94679537Y-89625245D01*
X94934209Y-89455079D01*
X95294894Y-89094394D01*
X95529400Y-89141040D01*
X97256600Y-89141040D01*
X97504365Y-89091757D01*
X97714409Y-88951409D01*
X97854757Y-88741365D01*
X97904040Y-88493600D01*
X97904040Y-86766400D01*
X97854757Y-86518635D01*
X97714409Y-86308591D01*
X97504365Y-86168243D01*
X97412050Y-86149881D01*
X97599821Y-85978490D01*
X97847968Y-85449027D01*
X97727469Y-85217000D01*
X96520000Y-85217000D01*
X96520000Y-85237000D01*
X96266000Y-85237000D01*
X96266000Y-85217000D01*
X96246000Y-85217000D01*
X96246000Y-84963000D01*
X96266000Y-84963000D01*
X96266000Y-84943000D01*
X96520000Y-84943000D01*
X96520000Y-84963000D01*
X97727469Y-84963000D01*
X97847968Y-84730973D01*
X97599821Y-84201510D01*
X97181839Y-83819992D01*
X97452670Y-83639029D01*
X97777526Y-83152848D01*
X97891600Y-82579359D01*
X97891600Y-82520641D01*
X97777526Y-81947152D01*
X97452670Y-81460971D01*
X97181828Y-81280000D01*
X97452670Y-81099029D01*
X97777526Y-80612848D01*
X97891600Y-80039359D01*
X97891600Y-79980641D01*
X97777526Y-79407152D01*
X97452670Y-78920971D01*
X97181828Y-78740000D01*
X97452670Y-78559029D01*
X97777526Y-78072848D01*
X97891600Y-77499359D01*
X97891600Y-77440641D01*
X97777526Y-76867152D01*
X97452670Y-76380971D01*
X96966489Y-76056115D01*
X96393000Y-75942041D01*
X95819511Y-76056115D01*
X95333330Y-76380971D01*
X95123000Y-76695752D01*
X94912670Y-76380971D01*
X94426489Y-76056115D01*
X93853000Y-75942041D01*
X93279511Y-76056115D01*
X92793330Y-76380971D01*
X92468474Y-76867152D01*
X92354400Y-77440641D01*
X92354400Y-77499359D01*
X92413976Y-77798866D01*
X91964421Y-78248421D01*
X91794255Y-78503093D01*
X91754652Y-78702191D01*
X91734500Y-78803500D01*
X91734500Y-80319842D01*
X91489343Y-80564999D01*
X88271697Y-80564999D01*
X88382093Y-80010000D01*
X88269054Y-79441715D01*
X87947147Y-78959946D01*
X87465378Y-78638039D01*
X86897093Y-78525000D01*
X86838907Y-78525000D01*
X86270622Y-78638039D01*
X85788853Y-78959946D01*
X85786383Y-78963643D01*
X85776157Y-78912235D01*
X85635809Y-78702191D01*
X85425765Y-78561843D01*
X85178000Y-78512560D01*
X83478000Y-78512560D01*
X83230235Y-78561843D01*
X83020191Y-78702191D01*
X82879843Y-78912235D01*
X82830560Y-79160000D01*
X82830560Y-79225000D01*
X79438500Y-79225000D01*
X79138093Y-79284755D01*
X78883421Y-79454921D01*
X78193321Y-80145021D01*
X77943725Y-80144803D01*
X77526414Y-80317233D01*
X77206855Y-80636235D01*
X77033697Y-81053244D01*
X77033303Y-81504775D01*
X77205733Y-81922086D01*
X77524735Y-82241645D01*
X77941744Y-82414803D01*
X78393275Y-82415197D01*
X78810586Y-82242767D01*
X79130145Y-81923765D01*
X79303303Y-81506756D01*
X79303523Y-81255135D01*
X79763658Y-80795000D01*
X82830560Y-80795000D01*
X82830560Y-80860000D01*
X82848608Y-80950734D01*
X82439421Y-81359921D01*
X82269255Y-81614593D01*
X82269255Y-81614594D01*
X82209500Y-81915000D01*
X82209500Y-82923342D01*
X81970842Y-83162000D01*
X69095657Y-83162000D01*
X61578579Y-75644921D01*
X61323907Y-75474755D01*
X61023500Y-75415000D01*
X59936816Y-75415000D01*
X59733670Y-75110971D01*
X59462828Y-74930000D01*
X59733670Y-74749029D01*
X60058526Y-74262848D01*
X60139677Y-73854871D01*
X60749846Y-73854871D01*
X60749846Y-73938584D01*
X60755562Y-73967320D01*
X60752468Y-73996452D01*
X60757640Y-74053418D01*
X60785492Y-74147821D01*
X60796875Y-74203197D01*
X60797345Y-74210202D01*
X60799003Y-74213552D01*
X60805312Y-74244241D01*
X60825571Y-74292280D01*
X60871673Y-74360330D01*
X60908142Y-74433992D01*
X60950603Y-74489149D01*
X60966676Y-74503200D01*
X60977386Y-74521667D01*
X60983697Y-74528835D01*
X60995156Y-74537592D01*
X61002938Y-74549735D01*
X61050169Y-74598806D01*
X61110401Y-74640738D01*
X61162993Y-74691917D01*
X61203592Y-74718252D01*
X61246024Y-74735155D01*
X61255111Y-74741481D01*
X61270188Y-74744781D01*
X61300625Y-74756905D01*
X61303362Y-74759132D01*
X61310909Y-74761387D01*
X61403393Y-74803857D01*
X61454186Y-74815972D01*
X61499338Y-74817679D01*
X61542628Y-74830612D01*
X61584737Y-74834580D01*
X61610778Y-74831904D01*
X61636385Y-74837348D01*
X61711703Y-74838336D01*
X61788066Y-74824185D01*
X61865686Y-74821612D01*
X61919302Y-74809087D01*
X61953672Y-74793497D01*
X61957238Y-74792836D01*
X61962124Y-74789663D01*
X61973254Y-74784615D01*
X61976894Y-74784352D01*
X62001706Y-74771911D01*
X62084714Y-74745222D01*
X62118162Y-74726625D01*
X62137748Y-74710001D01*
X62146716Y-74705933D01*
X62158583Y-74693253D01*
X62160700Y-74692191D01*
X62215415Y-74736311D01*
X62235769Y-74746966D01*
X62244100Y-74749415D01*
X62247995Y-74752207D01*
X62255457Y-74753948D01*
X62266935Y-74762219D01*
X62268113Y-74762756D01*
X62276989Y-74764850D01*
X62284536Y-74769973D01*
X62323731Y-74786545D01*
X62353997Y-74792796D01*
X62381105Y-74807633D01*
X62400524Y-74813735D01*
X62446688Y-74818745D01*
X62490199Y-74834959D01*
X62548068Y-74832875D01*
X62568286Y-74837050D01*
X62585318Y-74833791D01*
X62648781Y-74840679D01*
X62692865Y-74827783D01*
X62698568Y-74830182D01*
X62771418Y-74830579D01*
X62802754Y-74837050D01*
X62819784Y-74833792D01*
X62883243Y-74840679D01*
X62911119Y-74832524D01*
X62940300Y-74839734D01*
X62993956Y-74842197D01*
X63045180Y-74834430D01*
X63053056Y-74834948D01*
X63062181Y-74831852D01*
X63067676Y-74831019D01*
X63142229Y-74831723D01*
X63238783Y-74813464D01*
X63289356Y-74793073D01*
X63291036Y-74794150D01*
X63408465Y-74815184D01*
X63525484Y-74838294D01*
X63531150Y-74837159D01*
X63536839Y-74838178D01*
X63587959Y-74837201D01*
X63620404Y-74830100D01*
X63653525Y-74832572D01*
X63671194Y-74830408D01*
X63720932Y-74824736D01*
X63724365Y-74824465D01*
X63757509Y-74827844D01*
X63774431Y-74829947D01*
X63789188Y-74828872D01*
X63803430Y-74832882D01*
X63862146Y-74837477D01*
X63965299Y-74825222D01*
X64069039Y-74819882D01*
X64108497Y-74809900D01*
X64116340Y-74806168D01*
X64125001Y-74805490D01*
X64172807Y-74781157D01*
X64257960Y-74814963D01*
X64351181Y-74832078D01*
X64461906Y-74830442D01*
X64572590Y-74833787D01*
X64665939Y-74818134D01*
X64756142Y-74783925D01*
X64849058Y-74758000D01*
X64904646Y-74729873D01*
X64946611Y-74696980D01*
X64956663Y-74703882D01*
X65003766Y-74724095D01*
X65044914Y-74754656D01*
X65055140Y-74759501D01*
X65079644Y-74765657D01*
X65101040Y-74779095D01*
X65144468Y-74795663D01*
X65193271Y-74803946D01*
X65238729Y-74823545D01*
X65264293Y-74829013D01*
X65319020Y-74829799D01*
X65372220Y-74842643D01*
X65442670Y-74831576D01*
X65513983Y-74832601D01*
X65529240Y-74826537D01*
X65572086Y-74839716D01*
X65573286Y-74839839D01*
X65615515Y-74835845D01*
X65656738Y-74842750D01*
X65694143Y-74834120D01*
X65734190Y-74835974D01*
X65738757Y-74834325D01*
X65757344Y-74838607D01*
X65825239Y-74840648D01*
X65877860Y-74831816D01*
X65931116Y-74835044D01*
X66001035Y-74825490D01*
X66062625Y-74804246D01*
X66089802Y-74800347D01*
X66098847Y-74803367D01*
X66113717Y-74805249D01*
X66127063Y-74812070D01*
X66151040Y-74818864D01*
X66199438Y-74822733D01*
X66244840Y-74837973D01*
X66256888Y-74837142D01*
X66268554Y-74840566D01*
X66269259Y-74840629D01*
X66334913Y-74833562D01*
X66341662Y-74834102D01*
X66346586Y-74834725D01*
X66347236Y-74834547D01*
X66399961Y-74838762D01*
X66445067Y-74824167D01*
X66493963Y-74820796D01*
X66505133Y-74815240D01*
X66517540Y-74813905D01*
X66535302Y-74804203D01*
X66543563Y-74805249D01*
X66556909Y-74812070D01*
X66580886Y-74818864D01*
X66639209Y-74823526D01*
X66694614Y-74840212D01*
X66696577Y-74840015D01*
X66698480Y-74840573D01*
X66699186Y-74840636D01*
X66764799Y-74833565D01*
X66771508Y-74834102D01*
X66776432Y-74834725D01*
X66777082Y-74834547D01*
X66829807Y-74838762D01*
X66884229Y-74821153D01*
X66943077Y-74815238D01*
X66945137Y-74814132D01*
X66947463Y-74813881D01*
X67006654Y-74781541D01*
X67067396Y-74761887D01*
X67091677Y-74741200D01*
X67233813Y-74804918D01*
X67354720Y-74832601D01*
X67476272Y-74860623D01*
X67476754Y-74860542D01*
X67477229Y-74860651D01*
X67599533Y-74839956D01*
X67711716Y-74821147D01*
X67829788Y-74841047D01*
X67948986Y-74862578D01*
X67952722Y-74861766D01*
X67956495Y-74862402D01*
X68074576Y-74835285D01*
X68168907Y-74814786D01*
X68266313Y-74825579D01*
X68373952Y-74843027D01*
X68469296Y-74839627D01*
X68581000Y-74813237D01*
X68693511Y-74790440D01*
X68727335Y-74776288D01*
X68734055Y-74783274D01*
X68747448Y-74809935D01*
X68765536Y-74833152D01*
X68766319Y-74833829D01*
X68766785Y-74834749D01*
X68860683Y-74915363D01*
X68863247Y-74917579D01*
X68886492Y-74941743D01*
X68896050Y-74945921D01*
X68954488Y-74996414D01*
X68955469Y-74996739D01*
X68956253Y-74997412D01*
X68990889Y-75016926D01*
X69011243Y-75023597D01*
X69028381Y-75036447D01*
X69036416Y-75040299D01*
X69036419Y-75040301D01*
X69075344Y-75058983D01*
X69098663Y-75064966D01*
X69105117Y-75069099D01*
X69110893Y-75073350D01*
X69112297Y-75073696D01*
X69118940Y-75077950D01*
X69149077Y-75089750D01*
X69251918Y-75108129D01*
X69353344Y-75133142D01*
X69375753Y-75134161D01*
X69387548Y-75132367D01*
X69394898Y-75133681D01*
X69431075Y-75125749D01*
X69491372Y-75116580D01*
X69607408Y-75101914D01*
X69614529Y-75097852D01*
X69622630Y-75096620D01*
X69688563Y-75056774D01*
X69716629Y-75048564D01*
X69754960Y-75017740D01*
X69824311Y-74978177D01*
X69840052Y-74964516D01*
X69871387Y-74924114D01*
X69911229Y-74892075D01*
X69944562Y-74831180D01*
X70019655Y-74830641D01*
X70125388Y-74808820D01*
X70161503Y-74793556D01*
X70165386Y-74793463D01*
X70193803Y-74780883D01*
X70256031Y-74766837D01*
X70285456Y-74753755D01*
X70329886Y-74722391D01*
X70355403Y-74711606D01*
X70359363Y-74707589D01*
X70393726Y-74692376D01*
X70451029Y-74652060D01*
X70495923Y-74604951D01*
X70548896Y-74567169D01*
X70599187Y-74513714D01*
X70623689Y-74474506D01*
X70657104Y-74442554D01*
X70661857Y-74435774D01*
X70671974Y-74412816D01*
X70688710Y-74394127D01*
X70708029Y-74361453D01*
X70725577Y-74311469D01*
X70731526Y-74301949D01*
X70732135Y-74298313D01*
X70758206Y-74255489D01*
X70770976Y-74220562D01*
X70780244Y-74160922D01*
X70801448Y-74104414D01*
X70808992Y-74058434D01*
X70807822Y-74023755D01*
X70816460Y-73990148D01*
X70820100Y-73924318D01*
X70818088Y-73910155D01*
X70821036Y-73896157D01*
X70822095Y-73801678D01*
X70821476Y-73798375D01*
X70822135Y-73795079D01*
X70822154Y-73773897D01*
X70821646Y-73771333D01*
X70822138Y-73768766D01*
X70822090Y-73762025D01*
X70822082Y-73761986D01*
X70822089Y-73761949D01*
X70821409Y-73668016D01*
X70819032Y-73656501D01*
X70820823Y-73644880D01*
X70817768Y-73574537D01*
X70810619Y-73545293D01*
X70812421Y-73515243D01*
X70805729Y-73466500D01*
X70787115Y-73412652D01*
X70780446Y-73356076D01*
X70768808Y-73320201D01*
X70737525Y-73264280D01*
X70717553Y-73203397D01*
X70699661Y-73171657D01*
X70683361Y-73152681D01*
X70673756Y-73129590D01*
X70669801Y-73123689D01*
X70645663Y-73099622D01*
X70629330Y-73069702D01*
X70562871Y-72990158D01*
X70486573Y-72928657D01*
X70415815Y-72860868D01*
X70343397Y-72814692D01*
X70235835Y-72772815D01*
X70129590Y-72727728D01*
X70041426Y-72709398D01*
X69985145Y-72708912D01*
X69930296Y-72696285D01*
X69900359Y-72695389D01*
X69844398Y-72704790D01*
X69787722Y-72701968D01*
X69675623Y-72718521D01*
X69574357Y-72754680D01*
X69503691Y-72775593D01*
X69482815Y-72766115D01*
X69384330Y-72743073D01*
X69287855Y-72712664D01*
X69180519Y-72700919D01*
X69105868Y-72707457D01*
X69031127Y-72702114D01*
X68937337Y-72713897D01*
X68835301Y-72747861D01*
X68743869Y-72772789D01*
X68741956Y-72771629D01*
X68651212Y-72738623D01*
X68548446Y-72722829D01*
X68487717Y-72709310D01*
X68728639Y-72467986D01*
X68765064Y-72413373D01*
X68811058Y-72366537D01*
X68833672Y-72310509D01*
X68867200Y-72260240D01*
X68879953Y-72195843D01*
X68904522Y-72134972D01*
X68903974Y-72074554D01*
X68915712Y-72015282D01*
X68902852Y-71950909D01*
X68902256Y-71885267D01*
X68878628Y-71829657D01*
X68866791Y-71770405D01*
X68830275Y-71715853D01*
X68804605Y-71655437D01*
X68583133Y-71330404D01*
X68548912Y-71279654D01*
X68549174Y-71279009D01*
X68610771Y-71267690D01*
X68611282Y-71267487D01*
X68611831Y-71267494D01*
X68717811Y-71247835D01*
X68718389Y-71247604D01*
X68719015Y-71247611D01*
X68810129Y-71230529D01*
X68811091Y-71230143D01*
X68812125Y-71230151D01*
X68878018Y-71217581D01*
X68879425Y-71217011D01*
X68880948Y-71217016D01*
X68893356Y-71214589D01*
X68893872Y-71214377D01*
X68894428Y-71214378D01*
X68997005Y-71194132D01*
X69055712Y-71169917D01*
X69117994Y-71157528D01*
X69170013Y-71122770D01*
X69227853Y-71098912D01*
X69272824Y-71054073D01*
X69325625Y-71018793D01*
X69360385Y-70966771D01*
X69404690Y-70922597D01*
X69429078Y-70863965D01*
X69464360Y-70811162D01*
X69476566Y-70749798D01*
X69500594Y-70692032D01*
X69500688Y-70628528D01*
X69513077Y-70566245D01*
X69513077Y-70139101D01*
X69512973Y-70138577D01*
X69513076Y-70138053D01*
X69512846Y-69997598D01*
X69512380Y-69995277D01*
X69512822Y-69992949D01*
X69511876Y-69886682D01*
X69510706Y-69881062D01*
X69511676Y-69875405D01*
X69509634Y-69798439D01*
X69506733Y-69785641D01*
X69508427Y-69772630D01*
X69504906Y-69720077D01*
X69496943Y-69690529D01*
X69498009Y-69659943D01*
X69493110Y-69629873D01*
X72914812Y-69629873D01*
X73079646Y-70028800D01*
X73384595Y-70334282D01*
X73783233Y-70499811D01*
X74214873Y-70500188D01*
X74613800Y-70335354D01*
X74919282Y-70030405D01*
X75084811Y-69631767D01*
X75084812Y-69629873D01*
X77314812Y-69629873D01*
X77479646Y-70028800D01*
X77784595Y-70334282D01*
X78183233Y-70499811D01*
X78614873Y-70500188D01*
X79013800Y-70335354D01*
X79319282Y-70030405D01*
X79484811Y-69631767D01*
X79485188Y-69200127D01*
X79320354Y-68801200D01*
X79015405Y-68495718D01*
X78616767Y-68330189D01*
X78185127Y-68329812D01*
X77786200Y-68494646D01*
X77480718Y-68799595D01*
X77315189Y-69198233D01*
X77314812Y-69629873D01*
X75084812Y-69629873D01*
X75085188Y-69200127D01*
X74920354Y-68801200D01*
X74615405Y-68495718D01*
X74216767Y-68330189D01*
X73785127Y-68329812D01*
X73386200Y-68494646D01*
X73080718Y-68799595D01*
X72915189Y-69198233D01*
X72914812Y-69629873D01*
X69493110Y-69629873D01*
X69492628Y-69626917D01*
X69466654Y-69557460D01*
X69452166Y-69484738D01*
X69444544Y-69466351D01*
X69429302Y-69443554D01*
X69421688Y-69417211D01*
X69407623Y-69399605D01*
X69405161Y-69393021D01*
X69385656Y-69372107D01*
X69383727Y-69369693D01*
X69379415Y-69358531D01*
X69356092Y-69334059D01*
X69305747Y-69258762D01*
X69290230Y-69248400D01*
X69282440Y-69237438D01*
X69273685Y-69231945D01*
X69265827Y-69222109D01*
X69255580Y-69213472D01*
X69225189Y-69196709D01*
X69207133Y-69177764D01*
X69139847Y-69147980D01*
X69139761Y-69147925D01*
X69098074Y-69120089D01*
X69094148Y-69119309D01*
X69070908Y-69104729D01*
X69066704Y-69103128D01*
X69050580Y-69100400D01*
X69036921Y-69092866D01*
X69008048Y-69089638D01*
X68978789Y-69076686D01*
X68953435Y-69071006D01*
X68946675Y-69070843D01*
X68940435Y-69068235D01*
X68884421Y-69056903D01*
X68882592Y-69056897D01*
X68880903Y-69056202D01*
X68801422Y-69040586D01*
X68800504Y-69040588D01*
X68799651Y-69040240D01*
X68703903Y-69021708D01*
X68703273Y-69021711D01*
X68702689Y-69021474D01*
X68597867Y-69001396D01*
X68597334Y-69001400D01*
X68596840Y-69001200D01*
X68548504Y-68992023D01*
X68563350Y-68970147D01*
X68576347Y-68951028D01*
X68576912Y-68949693D01*
X68577938Y-68948675D01*
X68655833Y-68832985D01*
X68657874Y-68828106D01*
X68661567Y-68824318D01*
X68718826Y-68736222D01*
X68722924Y-68725961D01*
X68730366Y-68717790D01*
X68769272Y-68653232D01*
X68777341Y-68630850D01*
X68792027Y-68612133D01*
X68814864Y-68567058D01*
X68829813Y-68513586D01*
X68856074Y-68464659D01*
X68865123Y-68435011D01*
X68866324Y-68423033D01*
X68871621Y-68412222D01*
X68875538Y-68350023D01*
X68882096Y-68326564D01*
X68880962Y-68317169D01*
X68886768Y-68298678D01*
X68883023Y-68256457D01*
X68890032Y-68186541D01*
X68886558Y-68175018D01*
X68887315Y-68163001D01*
X68884861Y-68144723D01*
X68869003Y-68098398D01*
X68864705Y-68049939D01*
X68833200Y-67989595D01*
X68832231Y-67986479D01*
X68832080Y-67985509D01*
X68831775Y-67985009D01*
X68812960Y-67924439D01*
X68812897Y-67924323D01*
X68806980Y-67917211D01*
X68806489Y-67915775D01*
X86748803Y-67915775D01*
X86921233Y-68333086D01*
X87240235Y-68652645D01*
X87657244Y-68825803D01*
X88108775Y-68826197D01*
X88526086Y-68653767D01*
X88704163Y-68476000D01*
X93794898Y-68476000D01*
X93971235Y-68652645D01*
X94388244Y-68825803D01*
X94839775Y-68826197D01*
X95257086Y-68653767D01*
X95576645Y-68334765D01*
X95749803Y-67917756D01*
X95750197Y-67466225D01*
X95577767Y-67048914D01*
X95258765Y-66729355D01*
X94841756Y-66556197D01*
X94390225Y-66555803D01*
X93972914Y-66728233D01*
X93794837Y-66906000D01*
X88704102Y-66906000D01*
X88527765Y-66729355D01*
X88110756Y-66556197D01*
X87659225Y-66555803D01*
X87241914Y-66728233D01*
X86922355Y-67047235D01*
X86749197Y-67464244D01*
X86748803Y-67915775D01*
X68806489Y-67915775D01*
X68803987Y-67908466D01*
X68771749Y-67871895D01*
X68749133Y-67828578D01*
X68729817Y-67804570D01*
X68713281Y-67790728D01*
X68702052Y-67772318D01*
X68659328Y-67725904D01*
X68653707Y-67721802D01*
X68649956Y-67715938D01*
X68588455Y-67651928D01*
X68585119Y-67649601D01*
X68582884Y-67646201D01*
X68507237Y-67569409D01*
X68504577Y-67567602D01*
X68502784Y-67564933D01*
X68417621Y-67480170D01*
X68416208Y-67479231D01*
X68415256Y-67477829D01*
X68405652Y-67468368D01*
X68403336Y-67466846D01*
X68401760Y-67464567D01*
X68294435Y-67360634D01*
X68287642Y-67356251D01*
X68282880Y-67349719D01*
X68200055Y-67273405D01*
X68186565Y-67265168D01*
X68176645Y-67252866D01*
X68116656Y-67202762D01*
X68083152Y-67184481D01*
X68055860Y-67157805D01*
X68017042Y-67132504D01*
X67907166Y-67088455D01*
X67897449Y-67083153D01*
X67892803Y-67082655D01*
X67869895Y-67073369D01*
X67819115Y-67048021D01*
X67804889Y-67047019D01*
X67787663Y-67040037D01*
X67770566Y-67036771D01*
X67670160Y-67037534D01*
X67570015Y-67030483D01*
X67546087Y-67038476D01*
X67520858Y-67038668D01*
X67428397Y-67077792D01*
X67333167Y-67109605D01*
X67308214Y-67123851D01*
X67297444Y-67133204D01*
X67290884Y-67135980D01*
X67290612Y-67136256D01*
X67282270Y-67139489D01*
X67230488Y-67172395D01*
X67227098Y-67175633D01*
X67222749Y-67177391D01*
X67149484Y-67225443D01*
X67147590Y-67227305D01*
X67145134Y-67228321D01*
X67055734Y-67288003D01*
X67054287Y-67289449D01*
X67052403Y-67290242D01*
X66952212Y-67358040D01*
X66951385Y-67358877D01*
X66950303Y-67359337D01*
X66929877Y-67373267D01*
X66911767Y-67275610D01*
X66911521Y-67274993D01*
X66911528Y-67274328D01*
X66891392Y-67166966D01*
X66891090Y-67166214D01*
X66891097Y-67165403D01*
X66874057Y-67075778D01*
X66873555Y-67074537D01*
X66873561Y-67073195D01*
X66860913Y-67008129D01*
X66859474Y-67004611D01*
X66859446Y-67000814D01*
X66852490Y-66967131D01*
X66848767Y-66958325D01*
X66848416Y-66948767D01*
X66848294Y-66948254D01*
X66841070Y-66932478D01*
X66840215Y-66918569D01*
X66839608Y-66917326D01*
X66839372Y-66914735D01*
X66835139Y-66900406D01*
X66814971Y-66862005D01*
X66812380Y-66846191D01*
X66777747Y-66790346D01*
X66755247Y-66737128D01*
X66748642Y-66730619D01*
X66744333Y-66721208D01*
X66743490Y-66720425D01*
X66730671Y-66694164D01*
X66722439Y-66683346D01*
X66720016Y-66681204D01*
X66719030Y-66679326D01*
X66699376Y-66662956D01*
X66697978Y-66661719D01*
X66680770Y-66633972D01*
X66605131Y-66579632D01*
X66535357Y-66517943D01*
X66504482Y-66507324D01*
X66477966Y-66488274D01*
X66460803Y-66480473D01*
X66380415Y-66461626D01*
X66303283Y-66432168D01*
X66272257Y-66426891D01*
X66238852Y-66427822D01*
X66206566Y-66419184D01*
X66156745Y-66415937D01*
X66143267Y-66417716D01*
X66129999Y-66414755D01*
X66056452Y-66413045D01*
X66051080Y-66413984D01*
X66045740Y-66412886D01*
X65943535Y-66412221D01*
X65941722Y-66412569D01*
X65939908Y-66412207D01*
X65804112Y-66412093D01*
X65803861Y-66412143D01*
X65803611Y-66412093D01*
X65786036Y-66412092D01*
X65785826Y-66412134D01*
X65785616Y-66412092D01*
X65645738Y-66412176D01*
X65644178Y-66412487D01*
X65642618Y-66412186D01*
X65536883Y-66412765D01*
X65532097Y-66413744D01*
X65527285Y-66412889D01*
X65450765Y-66414456D01*
X65438751Y-66417103D01*
X65426566Y-66415410D01*
X65374326Y-66418460D01*
X65345130Y-66426060D01*
X65314990Y-66424710D01*
X65282100Y-66429734D01*
X65211724Y-66455258D01*
X65138188Y-66469322D01*
X65119714Y-66476815D01*
X65097373Y-66491506D01*
X65071616Y-66498677D01*
X65054019Y-66512454D01*
X65047347Y-66514874D01*
X65025991Y-66534398D01*
X64993724Y-66559661D01*
X64911066Y-66614014D01*
X64896048Y-66636135D01*
X64874995Y-66652618D01*
X64866005Y-66663074D01*
X64864601Y-66665562D01*
X64862364Y-66667345D01*
X64839684Y-66708364D01*
X64828793Y-66718446D01*
X64823503Y-66729942D01*
X64817185Y-66736158D01*
X64798981Y-66779112D01*
X64770803Y-66820617D01*
X64767177Y-66838168D01*
X64743261Y-66880540D01*
X64742916Y-66883378D01*
X64741532Y-66885880D01*
X64737096Y-66899788D01*
X64734413Y-66923564D01*
X64724412Y-66945299D01*
X64723981Y-66947101D01*
X64723600Y-66956978D01*
X64719744Y-66966077D01*
X64713004Y-66998568D01*
X64712971Y-67002582D01*
X64711451Y-67006296D01*
X64698976Y-67070403D01*
X64698982Y-67071779D01*
X64698467Y-67073052D01*
X64681556Y-67161950D01*
X64681563Y-67162766D01*
X64681258Y-67163525D01*
X64661206Y-67270393D01*
X64661213Y-67271061D01*
X64660965Y-67271683D01*
X64642119Y-67373271D01*
X64542004Y-67305331D01*
X64540173Y-67304557D01*
X64538770Y-67303151D01*
X64446487Y-67241344D01*
X64444222Y-67240403D01*
X64442476Y-67238679D01*
X64365130Y-67187715D01*
X64361441Y-67186215D01*
X64358573Y-67183452D01*
X64301513Y-67146846D01*
X64291544Y-67142933D01*
X64283596Y-67135765D01*
X64252166Y-67117032D01*
X64244739Y-67114395D01*
X64240038Y-67110295D01*
X64215971Y-67102197D01*
X64194747Y-67086648D01*
X64191763Y-67085258D01*
X64098469Y-67062469D01*
X64016839Y-67033490D01*
X64012451Y-67033717D01*
X64003361Y-67030658D01*
X63975909Y-67032531D01*
X63949180Y-67026002D01*
X63852161Y-67040975D01*
X63791009Y-67045147D01*
X63767455Y-67046363D01*
X63767038Y-67046561D01*
X63760418Y-67046703D01*
X63758987Y-67047332D01*
X63754225Y-67047657D01*
X63731383Y-67053843D01*
X63714516Y-67062217D01*
X63702386Y-67064089D01*
X63664962Y-67086819D01*
X63632687Y-67102843D01*
X63531809Y-67147180D01*
X63489148Y-67177024D01*
X63467324Y-67199802D01*
X63439819Y-67215247D01*
X63375673Y-67270160D01*
X63367156Y-67280989D01*
X63355436Y-67288240D01*
X63268143Y-67369627D01*
X63264218Y-67375078D01*
X63258583Y-67378727D01*
X63169469Y-67465315D01*
X63167437Y-67468263D01*
X63164455Y-67470241D01*
X63078549Y-67555566D01*
X63076785Y-67558186D01*
X63074168Y-67559959D01*
X62997282Y-67637820D01*
X62995138Y-67641073D01*
X62991939Y-67643296D01*
X62928702Y-67708885D01*
X62925235Y-67714284D01*
X62920043Y-67718046D01*
X62875083Y-67766554D01*
X62865633Y-67781930D01*
X62851631Y-67793313D01*
X62829578Y-67819933D01*
X62806231Y-67863130D01*
X62773275Y-67899537D01*
X62772455Y-67900907D01*
X62770923Y-67905196D01*
X62767916Y-67908613D01*
X62754876Y-67946806D01*
X62753497Y-67948500D01*
X62747882Y-67967290D01*
X62744356Y-67977616D01*
X62710847Y-68039616D01*
X62705943Y-68087157D01*
X62688473Y-68136077D01*
X62688699Y-68140624D01*
X62687228Y-68144933D01*
X62684790Y-68163201D01*
X62685589Y-68175731D01*
X62681994Y-68187760D01*
X62688763Y-68253696D01*
X62685223Y-68288014D01*
X62692159Y-68311266D01*
X62690262Y-68327131D01*
X62696707Y-68350091D01*
X62700681Y-68412410D01*
X62706214Y-68423680D01*
X62707496Y-68436170D01*
X62716680Y-68466002D01*
X62742858Y-68514495D01*
X62757752Y-68567554D01*
X62780828Y-68612979D01*
X62795400Y-68631510D01*
X62803404Y-68653683D01*
X62842641Y-68718733D01*
X62850024Y-68726834D01*
X62854092Y-68737014D01*
X62911759Y-68825714D01*
X62915413Y-68829461D01*
X62917433Y-68834290D01*
X62994308Y-68948476D01*
X62995195Y-68949357D01*
X62995682Y-68950509D01*
X63023814Y-68991951D01*
X62931270Y-69009584D01*
X62930752Y-69009794D01*
X62930194Y-69009790D01*
X62828211Y-69029402D01*
X62827552Y-69029670D01*
X62826842Y-69029667D01*
X62736874Y-69047172D01*
X62735792Y-69047615D01*
X62734623Y-69047614D01*
X62663863Y-69061645D01*
X62661304Y-69062703D01*
X62658536Y-69062725D01*
X62614184Y-69071912D01*
X62605146Y-69075739D01*
X62595337Y-69076113D01*
X62584458Y-69078711D01*
X62563891Y-69088162D01*
X62560179Y-69088382D01*
X62502328Y-69116454D01*
X62502023Y-69116594D01*
X62415964Y-69145315D01*
X62404727Y-69151726D01*
X62384726Y-69169086D01*
X62384239Y-69169292D01*
X62382777Y-69170777D01*
X62381269Y-69172086D01*
X62357555Y-69182984D01*
X62351292Y-69189743D01*
X62335516Y-69197398D01*
X62279659Y-69260278D01*
X62216139Y-69315409D01*
X62203104Y-69341503D01*
X62189477Y-69354524D01*
X62183104Y-69368971D01*
X62169673Y-69384091D01*
X62161190Y-69398570D01*
X62144175Y-69447665D01*
X62140617Y-69452067D01*
X62130136Y-69487573D01*
X62104544Y-69538803D01*
X62103848Y-69548644D01*
X62088694Y-69582999D01*
X62082585Y-69610435D01*
X62082221Y-69626421D01*
X62079416Y-69634516D01*
X62080641Y-69655236D01*
X62069917Y-69691565D01*
X62065799Y-69736843D01*
X62067641Y-69754216D01*
X62063603Y-69771216D01*
X62061094Y-69839225D01*
X62062308Y-69846774D01*
X62060716Y-69854254D01*
X62059436Y-69949881D01*
X62060030Y-69953089D01*
X62059383Y-69956284D01*
X62058950Y-70084417D01*
X62059134Y-70085358D01*
X62058946Y-70086300D01*
X62058923Y-70138821D01*
X62058951Y-70138961D01*
X62058923Y-70139101D01*
X62058923Y-70566245D01*
X62071312Y-70628528D01*
X62071406Y-70692032D01*
X62095434Y-70749798D01*
X62107640Y-70811162D01*
X62142922Y-70863965D01*
X62167310Y-70922597D01*
X62211615Y-70966771D01*
X62246375Y-71018793D01*
X62299176Y-71054073D01*
X62344147Y-71098912D01*
X62401987Y-71122770D01*
X62454006Y-71157528D01*
X62516288Y-71169917D01*
X62574995Y-71194132D01*
X62677572Y-71214378D01*
X62679140Y-71214376D01*
X62680593Y-71214967D01*
X62737662Y-71225945D01*
X62738985Y-71225937D01*
X62740217Y-71226432D01*
X62825379Y-71242457D01*
X62826067Y-71242450D01*
X62826703Y-71242704D01*
X62929601Y-71261842D01*
X62930150Y-71261835D01*
X62930662Y-71262039D01*
X63022162Y-71278898D01*
X63022737Y-71280337D01*
X62767214Y-71656198D01*
X62741736Y-71716339D01*
X62705410Y-71770607D01*
X62693508Y-71830183D01*
X62669806Y-71886132D01*
X62669283Y-71951445D01*
X62656489Y-72015484D01*
X62668292Y-72075082D01*
X62667805Y-72135840D01*
X62692313Y-72196376D01*
X62705001Y-72260442D01*
X62738715Y-72310989D01*
X62761515Y-72367306D01*
X62807325Y-72413857D01*
X62843563Y-72468188D01*
X63133986Y-72759095D01*
X63073645Y-72744750D01*
X63026249Y-72742993D01*
X62972240Y-72751670D01*
X62958131Y-72750930D01*
X62955755Y-72751771D01*
X62908836Y-72749451D01*
X62804963Y-72764825D01*
X62720752Y-72794926D01*
X62704030Y-72798850D01*
X62703054Y-72798873D01*
X62702056Y-72799314D01*
X62665822Y-72807818D01*
X62620356Y-72790930D01*
X62530857Y-72776550D01*
X62443452Y-72752528D01*
X62349570Y-72745770D01*
X62266283Y-72756192D01*
X62182352Y-72755712D01*
X62093926Y-72772776D01*
X62042533Y-72793720D01*
X62016734Y-72795809D01*
X61996718Y-72806064D01*
X61949771Y-72788657D01*
X61844758Y-72771848D01*
X61740909Y-72748881D01*
X61646113Y-72746861D01*
X61554075Y-72763138D01*
X61460878Y-72770150D01*
X61369177Y-72795672D01*
X61281633Y-72839899D01*
X61190643Y-72876508D01*
X61113339Y-72927031D01*
X61044395Y-72994587D01*
X60969644Y-73055657D01*
X60932357Y-73100886D01*
X60880493Y-73197404D01*
X60824001Y-73291257D01*
X60794462Y-73373330D01*
X60779799Y-73470927D01*
X60757064Y-73566959D01*
X60754718Y-73631903D01*
X60759735Y-73662943D01*
X60755496Y-73694098D01*
X60760810Y-73780936D01*
X60762942Y-73789033D01*
X60749846Y-73854871D01*
X60139677Y-73854871D01*
X60172600Y-73689359D01*
X60172600Y-73630641D01*
X60058526Y-73057152D01*
X59733670Y-72570971D01*
X59462828Y-72390000D01*
X59733670Y-72209029D01*
X60058526Y-71722848D01*
X60172600Y-71149359D01*
X60172600Y-71090641D01*
X60058526Y-70517152D01*
X59733670Y-70030971D01*
X59247489Y-69706115D01*
X58674000Y-69592041D01*
X58100511Y-69706115D01*
X57614330Y-70030971D01*
X57398336Y-70354228D01*
X57340821Y-70231510D01*
X56908947Y-69837312D01*
X56493026Y-69665042D01*
X56261000Y-69786183D01*
X56261000Y-70993000D01*
X56281000Y-70993000D01*
X56281000Y-71247000D01*
X56261000Y-71247000D01*
X56261000Y-73533000D01*
X56281000Y-73533000D01*
X56281000Y-73787000D01*
X56261000Y-73787000D01*
X56261000Y-76073000D01*
X56281000Y-76073000D01*
X56281000Y-76327000D01*
X56261000Y-76327000D01*
X56261000Y-78613000D01*
X56281000Y-78613000D01*
X56281000Y-78867000D01*
X56261000Y-78867000D01*
X56261000Y-81153000D01*
X56281000Y-81153000D01*
X56281000Y-81407000D01*
X56261000Y-81407000D01*
X56261000Y-83693000D01*
X56281000Y-83693000D01*
X56281000Y-83947000D01*
X56261000Y-83947000D01*
X56261000Y-86233000D01*
X56281000Y-86233000D01*
X56281000Y-86487000D01*
X56261000Y-86487000D01*
X56261000Y-88773000D01*
X56281000Y-88773000D01*
X56281000Y-89027000D01*
X56261000Y-89027000D01*
X56261000Y-91313000D01*
X56281000Y-91313000D01*
X56281000Y-91567000D01*
X56261000Y-91567000D01*
X56261000Y-91587000D01*
X56007000Y-91587000D01*
X56007000Y-91567000D01*
X54799531Y-91567000D01*
X54679032Y-91799027D01*
X54927179Y-92328490D01*
X55345161Y-92710008D01*
X55074330Y-92890971D01*
X54749474Y-93377152D01*
X54635400Y-93950641D01*
X52907000Y-93950641D01*
X52907000Y-89259027D01*
X54679032Y-89259027D01*
X54927179Y-89788490D01*
X55345152Y-90170000D01*
X54927179Y-90551510D01*
X54679032Y-91080973D01*
X54799531Y-91313000D01*
X56007000Y-91313000D01*
X56007000Y-89027000D01*
X54799531Y-89027000D01*
X54679032Y-89259027D01*
X52907000Y-89259027D01*
X52907000Y-86719027D01*
X54679032Y-86719027D01*
X54927179Y-87248490D01*
X55345152Y-87630000D01*
X54927179Y-88011510D01*
X54679032Y-88540973D01*
X54799531Y-88773000D01*
X56007000Y-88773000D01*
X56007000Y-86487000D01*
X54799531Y-86487000D01*
X54679032Y-86719027D01*
X52907000Y-86719027D01*
X52907000Y-84179027D01*
X54679032Y-84179027D01*
X54927179Y-84708490D01*
X55345152Y-85090000D01*
X54927179Y-85471510D01*
X54679032Y-86000973D01*
X54799531Y-86233000D01*
X56007000Y-86233000D01*
X56007000Y-83947000D01*
X54799531Y-83947000D01*
X54679032Y-84179027D01*
X52907000Y-84179027D01*
X52907000Y-81639027D01*
X54679032Y-81639027D01*
X54927179Y-82168490D01*
X55345152Y-82550000D01*
X54927179Y-82931510D01*
X54679032Y-83460973D01*
X54799531Y-83693000D01*
X56007000Y-83693000D01*
X56007000Y-81407000D01*
X54799531Y-81407000D01*
X54679032Y-81639027D01*
X52907000Y-81639027D01*
X52907000Y-79099027D01*
X54679032Y-79099027D01*
X54927179Y-79628490D01*
X55345152Y-80010000D01*
X54927179Y-80391510D01*
X54679032Y-80920973D01*
X54799531Y-81153000D01*
X56007000Y-81153000D01*
X56007000Y-78867000D01*
X54799531Y-78867000D01*
X54679032Y-79099027D01*
X52907000Y-79099027D01*
X52907000Y-76559027D01*
X54679032Y-76559027D01*
X54927179Y-77088490D01*
X55345152Y-77470000D01*
X54927179Y-77851510D01*
X54679032Y-78380973D01*
X54799531Y-78613000D01*
X56007000Y-78613000D01*
X56007000Y-76327000D01*
X54799531Y-76327000D01*
X54679032Y-76559027D01*
X52907000Y-76559027D01*
X52907000Y-74019027D01*
X54679032Y-74019027D01*
X54927179Y-74548490D01*
X55345152Y-74930000D01*
X54927179Y-75311510D01*
X54679032Y-75840973D01*
X54799531Y-76073000D01*
X56007000Y-76073000D01*
X56007000Y-73787000D01*
X54799531Y-73787000D01*
X54679032Y-74019027D01*
X52907000Y-74019027D01*
X52907000Y-71479027D01*
X54679032Y-71479027D01*
X54927179Y-72008490D01*
X55345152Y-72390000D01*
X54927179Y-72771510D01*
X54679032Y-73300973D01*
X54799531Y-73533000D01*
X56007000Y-73533000D01*
X56007000Y-71247000D01*
X54799531Y-71247000D01*
X54679032Y-71479027D01*
X52907000Y-71479027D01*
X52907000Y-70760973D01*
X54679032Y-70760973D01*
X54799531Y-70993000D01*
X56007000Y-70993000D01*
X56007000Y-69786183D01*
X55774974Y-69665042D01*
X55359053Y-69837312D01*
X54927179Y-70231510D01*
X54679032Y-70760973D01*
X52907000Y-70760973D01*
X52907000Y-66115000D01*
X99620000Y-66115000D01*
X99620000Y-98985000D01*
X99620000Y-98985000D01*
G37*
X99620000Y-98985000D02*
X88448580Y-98985000D01*
X89144787Y-98288792D01*
X89144790Y-98288790D01*
X89336633Y-98001675D01*
X89336634Y-98001674D01*
X89404001Y-97663000D01*
X89404000Y-97662995D01*
X89404000Y-96051000D01*
X89815560Y-96051000D01*
X89815560Y-97751000D01*
X89864843Y-97998765D01*
X90005191Y-98208809D01*
X90215235Y-98349157D01*
X90463000Y-98398440D01*
X92163000Y-98398440D01*
X92410765Y-98349157D01*
X92620809Y-98208809D01*
X92761157Y-97998765D01*
X92773597Y-97936223D01*
X92802946Y-97980147D01*
X93284715Y-98302054D01*
X93853000Y-98415093D01*
X94421285Y-98302054D01*
X94903054Y-97980147D01*
X95123000Y-97650974D01*
X95342946Y-97980147D01*
X95824715Y-98302054D01*
X96393000Y-98415093D01*
X96961285Y-98302054D01*
X97443054Y-97980147D01*
X97764961Y-97498378D01*
X97878000Y-96930093D01*
X97878000Y-96871907D01*
X97764961Y-96303622D01*
X97443054Y-95821853D01*
X96961285Y-95499946D01*
X96393000Y-95386907D01*
X95824715Y-95499946D01*
X95342946Y-95821853D01*
X95123000Y-96151026D01*
X94903054Y-95821853D01*
X94421285Y-95499946D01*
X93853000Y-95386907D01*
X93284715Y-95499946D01*
X92802946Y-95821853D01*
X92773597Y-95865777D01*
X92761157Y-95803235D01*
X92620809Y-95593191D01*
X92410765Y-95452843D01*
X92163000Y-95403560D01*
X90463000Y-95403560D01*
X90215235Y-95452843D01*
X90005191Y-95593191D01*
X89864843Y-95803235D01*
X89815560Y-96051000D01*
X89404000Y-96051000D01*
X89404000Y-93472005D01*
X89404001Y-93472000D01*
X89336634Y-93133326D01*
X89240225Y-92989039D01*
X89144790Y-92846210D01*
X89144787Y-92846208D01*
X88365440Y-92066861D01*
X88365440Y-90971000D01*
X88316157Y-90723235D01*
X88175809Y-90513191D01*
X87965765Y-90372843D01*
X87718000Y-90323560D01*
X86018000Y-90323560D01*
X85770235Y-90372843D01*
X85560191Y-90513191D01*
X85419843Y-90723235D01*
X85370560Y-90971000D01*
X85370560Y-92671000D01*
X85418373Y-92911373D01*
X85178000Y-92863560D01*
X83478000Y-92863560D01*
X83230235Y-92912843D01*
X83020191Y-93053191D01*
X82879843Y-93263235D01*
X82830560Y-93511000D01*
X82830560Y-95211000D01*
X82879843Y-95458765D01*
X83020191Y-95668809D01*
X83230235Y-95809157D01*
X83478000Y-95858440D01*
X85178000Y-95858440D01*
X85425765Y-95809157D01*
X85635809Y-95668809D01*
X85776157Y-95458765D01*
X85786383Y-95407357D01*
X85788853Y-95411054D01*
X86129553Y-95638702D01*
X85986642Y-95705817D01*
X85596355Y-96134076D01*
X85426524Y-96544110D01*
X85547845Y-96774000D01*
X86741000Y-96774000D01*
X86741000Y-96754000D01*
X86995000Y-96754000D01*
X86995000Y-96774000D01*
X87015000Y-96774000D01*
X87015000Y-97028000D01*
X86995000Y-97028000D01*
X86995000Y-97048000D01*
X86741000Y-97048000D01*
X86741000Y-97028000D01*
X85547845Y-97028000D01*
X85426524Y-97257890D01*
X85596355Y-97667924D01*
X85769122Y-97857500D01*
X80851256Y-97857500D01*
X80872440Y-97751000D01*
X80872440Y-96051000D01*
X80823157Y-95803235D01*
X80682809Y-95593191D01*
X80472765Y-95452843D01*
X80225000Y-95403560D01*
X78525000Y-95403560D01*
X78277235Y-95452843D01*
X78067191Y-95593191D01*
X77926843Y-95803235D01*
X77914403Y-95865777D01*
X77885054Y-95821853D01*
X77403285Y-95499946D01*
X76835000Y-95386907D01*
X76266715Y-95499946D01*
X75784946Y-95821853D01*
X75463039Y-96303622D01*
X75350000Y-96871907D01*
X75350000Y-96930093D01*
X75463039Y-97498378D01*
X75784946Y-97980147D01*
X76266715Y-98302054D01*
X76835000Y-98415093D01*
X77053960Y-98371539D01*
X77059207Y-98376786D01*
X77059209Y-98376789D01*
X77667421Y-98985000D01*
X63768428Y-98985000D01*
X63768428Y-96051000D01*
X63780560Y-96051000D01*
X63780560Y-97751000D01*
X63829843Y-97998765D01*
X63970191Y-98208809D01*
X64180235Y-98349157D01*
X64428000Y-98398440D01*
X66128000Y-98398440D01*
X66375765Y-98349157D01*
X66585809Y-98208809D01*
X66726157Y-97998765D01*
X66738597Y-97936223D01*
X66767946Y-97980147D01*
X67249715Y-98302054D01*
X67818000Y-98415093D01*
X68386285Y-98302054D01*
X68868054Y-97980147D01*
X69088000Y-97650974D01*
X69307946Y-97980147D01*
X69789715Y-98302054D01*
X70358000Y-98415093D01*
X70926285Y-98302054D01*
X71408054Y-97980147D01*
X71729961Y-97498378D01*
X71843000Y-96930093D01*
X71843000Y-96871907D01*
X71729961Y-96303622D01*
X71408054Y-95821853D01*
X70926285Y-95499946D01*
X70358000Y-95386907D01*
X69789715Y-95499946D01*
X69307946Y-95821853D01*
X69088000Y-96151026D01*
X68868054Y-95821853D01*
X68386285Y-95499946D01*
X67818000Y-95386907D01*
X67249715Y-95499946D01*
X66767946Y-95821853D01*
X66738597Y-95865777D01*
X66726157Y-95803235D01*
X66585809Y-95593191D01*
X66375765Y-95452843D01*
X66128000Y-95403560D01*
X64428000Y-95403560D01*
X64180235Y-95452843D01*
X63970191Y-95593191D01*
X63829843Y-95803235D01*
X63780560Y-96051000D01*
X63768428Y-96051000D01*
X63768428Y-95887000D01*
X52907000Y-95887000D01*
X52907000Y-93950641D01*
X54635400Y-93950641D01*
X54635400Y-94009359D01*
X54749474Y-94582848D01*
X55074330Y-95069029D01*
X55560511Y-95393885D01*
X56134000Y-95507959D01*
X56707489Y-95393885D01*
X57193670Y-95069029D01*
X57204559Y-95052733D01*
X57212243Y-95091365D01*
X57352591Y-95301409D01*
X57562635Y-95441757D01*
X57810400Y-95491040D01*
X59537600Y-95491040D01*
X59785365Y-95441757D01*
X59995409Y-95301409D01*
X60135757Y-95091365D01*
X60185040Y-94843600D01*
X60185040Y-93116400D01*
X60135757Y-92868635D01*
X59995409Y-92658591D01*
X59785365Y-92518243D01*
X59746096Y-92510432D01*
X60058526Y-92042848D01*
X60172600Y-91469359D01*
X60172600Y-91410641D01*
X60113024Y-91111134D01*
X60332658Y-90891500D01*
X63873011Y-90891500D01*
X63763907Y-91440000D01*
X63876946Y-92008285D01*
X64198853Y-92490054D01*
X64680622Y-92811961D01*
X65248907Y-92925000D01*
X65307093Y-92925000D01*
X65875378Y-92811961D01*
X66357147Y-92490054D01*
X66679054Y-92008285D01*
X66792093Y-91440000D01*
X66679054Y-90871715D01*
X66464318Y-90550338D01*
X69282597Y-87732061D01*
X77786781Y-87732061D01*
X78557299Y-88502579D01*
X78811972Y-88672745D01*
X79112378Y-88732500D01*
X84747706Y-88732500D01*
X84843813Y-88828607D01*
X84843815Y-88828610D01*
X85098488Y-88998776D01*
X85257901Y-89030486D01*
X85462235Y-89235176D01*
X85879244Y-89408334D01*
X86330775Y-89408728D01*
X86748086Y-89236298D01*
X87067645Y-88917296D01*
X87240803Y-88500287D01*
X87241058Y-88208521D01*
X91225863Y-88208521D01*
X92472421Y-89455079D01*
X92727094Y-89625245D01*
X93027500Y-89685001D01*
X93027505Y-89685000D01*
X94379130Y-89685000D01*
X94679537Y-89625245D01*
X94934209Y-89455079D01*
X95294894Y-89094394D01*
X95529400Y-89141040D01*
X97256600Y-89141040D01*
X97504365Y-89091757D01*
X97714409Y-88951409D01*
X97854757Y-88741365D01*
X97904040Y-88493600D01*
X97904040Y-86766400D01*
X97854757Y-86518635D01*
X97714409Y-86308591D01*
X97504365Y-86168243D01*
X97412050Y-86149881D01*
X97599821Y-85978490D01*
X97847968Y-85449027D01*
X97727469Y-85217000D01*
X96520000Y-85217000D01*
X96520000Y-85237000D01*
X96266000Y-85237000D01*
X96266000Y-85217000D01*
X96246000Y-85217000D01*
X96246000Y-84963000D01*
X96266000Y-84963000D01*
X96266000Y-84943000D01*
X96520000Y-84943000D01*
X96520000Y-84963000D01*
X97727469Y-84963000D01*
X97847968Y-84730973D01*
X97599821Y-84201510D01*
X97181839Y-83819992D01*
X97452670Y-83639029D01*
X97777526Y-83152848D01*
X97891600Y-82579359D01*
X97891600Y-82520641D01*
X97777526Y-81947152D01*
X97452670Y-81460971D01*
X97181828Y-81280000D01*
X97452670Y-81099029D01*
X97777526Y-80612848D01*
X97891600Y-80039359D01*
X97891600Y-79980641D01*
X97777526Y-79407152D01*
X97452670Y-78920971D01*
X97181828Y-78740000D01*
X97452670Y-78559029D01*
X97777526Y-78072848D01*
X97891600Y-77499359D01*
X97891600Y-77440641D01*
X97777526Y-76867152D01*
X97452670Y-76380971D01*
X96966489Y-76056115D01*
X96393000Y-75942041D01*
X95819511Y-76056115D01*
X95333330Y-76380971D01*
X95123000Y-76695752D01*
X94912670Y-76380971D01*
X94426489Y-76056115D01*
X93853000Y-75942041D01*
X93279511Y-76056115D01*
X92793330Y-76380971D01*
X92468474Y-76867152D01*
X92354400Y-77440641D01*
X92354400Y-77499359D01*
X92413976Y-77798866D01*
X91964421Y-78248421D01*
X91794255Y-78503093D01*
X91754652Y-78702191D01*
X91734500Y-78803500D01*
X91734500Y-80319842D01*
X91489343Y-80564999D01*
X88271697Y-80564999D01*
X88382093Y-80010000D01*
X88269054Y-79441715D01*
X87947147Y-78959946D01*
X87465378Y-78638039D01*
X86897093Y-78525000D01*
X86838907Y-78525000D01*
X86270622Y-78638039D01*
X85788853Y-78959946D01*
X85786383Y-78963643D01*
X85776157Y-78912235D01*
X85635809Y-78702191D01*
X85425765Y-78561843D01*
X85178000Y-78512560D01*
X83478000Y-78512560D01*
X83230235Y-78561843D01*
X83020191Y-78702191D01*
X82879843Y-78912235D01*
X82830560Y-79160000D01*
X82830560Y-79225000D01*
X79438500Y-79225000D01*
X79138093Y-79284755D01*
X78883421Y-79454921D01*
X78193321Y-80145021D01*
X77943725Y-80144803D01*
X77526414Y-80317233D01*
X77206855Y-80636235D01*
X77033697Y-81053244D01*
X77033303Y-81504775D01*
X77205733Y-81922086D01*
X77524735Y-82241645D01*
X77941744Y-82414803D01*
X78393275Y-82415197D01*
X78810586Y-82242767D01*
X79130145Y-81923765D01*
X79303303Y-81506756D01*
X79303523Y-81255135D01*
X79763658Y-80795000D01*
X82830560Y-80795000D01*
X82830560Y-80860000D01*
X82848608Y-80950734D01*
X82439421Y-81359921D01*
X82269255Y-81614593D01*
X82269255Y-81614594D01*
X82209500Y-81915000D01*
X82209500Y-82923342D01*
X81970842Y-83162000D01*
X69095657Y-83162000D01*
X61578579Y-75644921D01*
X61323907Y-75474755D01*
X61023500Y-75415000D01*
X59936816Y-75415000D01*
X59733670Y-75110971D01*
X59462828Y-74930000D01*
X59733670Y-74749029D01*
X60058526Y-74262848D01*
X60139677Y-73854871D01*
X60749846Y-73854871D01*
X60749846Y-73938584D01*
X60755562Y-73967320D01*
X60752468Y-73996452D01*
X60757640Y-74053418D01*
X60785492Y-74147821D01*
X60796875Y-74203197D01*
X60797345Y-74210202D01*
X60799003Y-74213552D01*
X60805312Y-74244241D01*
X60825571Y-74292280D01*
X60871673Y-74360330D01*
X60908142Y-74433992D01*
X60950603Y-74489149D01*
X60966676Y-74503200D01*
X60977386Y-74521667D01*
X60983697Y-74528835D01*
X60995156Y-74537592D01*
X61002938Y-74549735D01*
X61050169Y-74598806D01*
X61110401Y-74640738D01*
X61162993Y-74691917D01*
X61203592Y-74718252D01*
X61246024Y-74735155D01*
X61255111Y-74741481D01*
X61270188Y-74744781D01*
X61300625Y-74756905D01*
X61303362Y-74759132D01*
X61310909Y-74761387D01*
X61403393Y-74803857D01*
X61454186Y-74815972D01*
X61499338Y-74817679D01*
X61542628Y-74830612D01*
X61584737Y-74834580D01*
X61610778Y-74831904D01*
X61636385Y-74837348D01*
X61711703Y-74838336D01*
X61788066Y-74824185D01*
X61865686Y-74821612D01*
X61919302Y-74809087D01*
X61953672Y-74793497D01*
X61957238Y-74792836D01*
X61962124Y-74789663D01*
X61973254Y-74784615D01*
X61976894Y-74784352D01*
X62001706Y-74771911D01*
X62084714Y-74745222D01*
X62118162Y-74726625D01*
X62137748Y-74710001D01*
X62146716Y-74705933D01*
X62158583Y-74693253D01*
X62160700Y-74692191D01*
X62215415Y-74736311D01*
X62235769Y-74746966D01*
X62244100Y-74749415D01*
X62247995Y-74752207D01*
X62255457Y-74753948D01*
X62266935Y-74762219D01*
X62268113Y-74762756D01*
X62276989Y-74764850D01*
X62284536Y-74769973D01*
X62323731Y-74786545D01*
X62353997Y-74792796D01*
X62381105Y-74807633D01*
X62400524Y-74813735D01*
X62446688Y-74818745D01*
X62490199Y-74834959D01*
X62548068Y-74832875D01*
X62568286Y-74837050D01*
X62585318Y-74833791D01*
X62648781Y-74840679D01*
X62692865Y-74827783D01*
X62698568Y-74830182D01*
X62771418Y-74830579D01*
X62802754Y-74837050D01*
X62819784Y-74833792D01*
X62883243Y-74840679D01*
X62911119Y-74832524D01*
X62940300Y-74839734D01*
X62993956Y-74842197D01*
X63045180Y-74834430D01*
X63053056Y-74834948D01*
X63062181Y-74831852D01*
X63067676Y-74831019D01*
X63142229Y-74831723D01*
X63238783Y-74813464D01*
X63289356Y-74793073D01*
X63291036Y-74794150D01*
X63408465Y-74815184D01*
X63525484Y-74838294D01*
X63531150Y-74837159D01*
X63536839Y-74838178D01*
X63587959Y-74837201D01*
X63620404Y-74830100D01*
X63653525Y-74832572D01*
X63671194Y-74830408D01*
X63720932Y-74824736D01*
X63724365Y-74824465D01*
X63757509Y-74827844D01*
X63774431Y-74829947D01*
X63789188Y-74828872D01*
X63803430Y-74832882D01*
X63862146Y-74837477D01*
X63965299Y-74825222D01*
X64069039Y-74819882D01*
X64108497Y-74809900D01*
X64116340Y-74806168D01*
X64125001Y-74805490D01*
X64172807Y-74781157D01*
X64257960Y-74814963D01*
X64351181Y-74832078D01*
X64461906Y-74830442D01*
X64572590Y-74833787D01*
X64665939Y-74818134D01*
X64756142Y-74783925D01*
X64849058Y-74758000D01*
X64904646Y-74729873D01*
X64946611Y-74696980D01*
X64956663Y-74703882D01*
X65003766Y-74724095D01*
X65044914Y-74754656D01*
X65055140Y-74759501D01*
X65079644Y-74765657D01*
X65101040Y-74779095D01*
X65144468Y-74795663D01*
X65193271Y-74803946D01*
X65238729Y-74823545D01*
X65264293Y-74829013D01*
X65319020Y-74829799D01*
X65372220Y-74842643D01*
X65442670Y-74831576D01*
X65513983Y-74832601D01*
X65529240Y-74826537D01*
X65572086Y-74839716D01*
X65573286Y-74839839D01*
X65615515Y-74835845D01*
X65656738Y-74842750D01*
X65694143Y-74834120D01*
X65734190Y-74835974D01*
X65738757Y-74834325D01*
X65757344Y-74838607D01*
X65825239Y-74840648D01*
X65877860Y-74831816D01*
X65931116Y-74835044D01*
X66001035Y-74825490D01*
X66062625Y-74804246D01*
X66089802Y-74800347D01*
X66098847Y-74803367D01*
X66113717Y-74805249D01*
X66127063Y-74812070D01*
X66151040Y-74818864D01*
X66199438Y-74822733D01*
X66244840Y-74837973D01*
X66256888Y-74837142D01*
X66268554Y-74840566D01*
X66269259Y-74840629D01*
X66334913Y-74833562D01*
X66341662Y-74834102D01*
X66346586Y-74834725D01*
X66347236Y-74834547D01*
X66399961Y-74838762D01*
X66445067Y-74824167D01*
X66493963Y-74820796D01*
X66505133Y-74815240D01*
X66517540Y-74813905D01*
X66535302Y-74804203D01*
X66543563Y-74805249D01*
X66556909Y-74812070D01*
X66580886Y-74818864D01*
X66639209Y-74823526D01*
X66694614Y-74840212D01*
X66696577Y-74840015D01*
X66698480Y-74840573D01*
X66699186Y-74840636D01*
X66764799Y-74833565D01*
X66771508Y-74834102D01*
X66776432Y-74834725D01*
X66777082Y-74834547D01*
X66829807Y-74838762D01*
X66884229Y-74821153D01*
X66943077Y-74815238D01*
X66945137Y-74814132D01*
X66947463Y-74813881D01*
X67006654Y-74781541D01*
X67067396Y-74761887D01*
X67091677Y-74741200D01*
X67233813Y-74804918D01*
X67354720Y-74832601D01*
X67476272Y-74860623D01*
X67476754Y-74860542D01*
X67477229Y-74860651D01*
X67599533Y-74839956D01*
X67711716Y-74821147D01*
X67829788Y-74841047D01*
X67948986Y-74862578D01*
X67952722Y-74861766D01*
X67956495Y-74862402D01*
X68074576Y-74835285D01*
X68168907Y-74814786D01*
X68266313Y-74825579D01*
X68373952Y-74843027D01*
X68469296Y-74839627D01*
X68581000Y-74813237D01*
X68693511Y-74790440D01*
X68727335Y-74776288D01*
X68734055Y-74783274D01*
X68747448Y-74809935D01*
X68765536Y-74833152D01*
X68766319Y-74833829D01*
X68766785Y-74834749D01*
X68860683Y-74915363D01*
X68863247Y-74917579D01*
X68886492Y-74941743D01*
X68896050Y-74945921D01*
X68954488Y-74996414D01*
X68955469Y-74996739D01*
X68956253Y-74997412D01*
X68990889Y-75016926D01*
X69011243Y-75023597D01*
X69028381Y-75036447D01*
X69036416Y-75040299D01*
X69036419Y-75040301D01*
X69075344Y-75058983D01*
X69098663Y-75064966D01*
X69105117Y-75069099D01*
X69110893Y-75073350D01*
X69112297Y-75073696D01*
X69118940Y-75077950D01*
X69149077Y-75089750D01*
X69251918Y-75108129D01*
X69353344Y-75133142D01*
X69375753Y-75134161D01*
X69387548Y-75132367D01*
X69394898Y-75133681D01*
X69431075Y-75125749D01*
X69491372Y-75116580D01*
X69607408Y-75101914D01*
X69614529Y-75097852D01*
X69622630Y-75096620D01*
X69688563Y-75056774D01*
X69716629Y-75048564D01*
X69754960Y-75017740D01*
X69824311Y-74978177D01*
X69840052Y-74964516D01*
X69871387Y-74924114D01*
X69911229Y-74892075D01*
X69944562Y-74831180D01*
X70019655Y-74830641D01*
X70125388Y-74808820D01*
X70161503Y-74793556D01*
X70165386Y-74793463D01*
X70193803Y-74780883D01*
X70256031Y-74766837D01*
X70285456Y-74753755D01*
X70329886Y-74722391D01*
X70355403Y-74711606D01*
X70359363Y-74707589D01*
X70393726Y-74692376D01*
X70451029Y-74652060D01*
X70495923Y-74604951D01*
X70548896Y-74567169D01*
X70599187Y-74513714D01*
X70623689Y-74474506D01*
X70657104Y-74442554D01*
X70661857Y-74435774D01*
X70671974Y-74412816D01*
X70688710Y-74394127D01*
X70708029Y-74361453D01*
X70725577Y-74311469D01*
X70731526Y-74301949D01*
X70732135Y-74298313D01*
X70758206Y-74255489D01*
X70770976Y-74220562D01*
X70780244Y-74160922D01*
X70801448Y-74104414D01*
X70808992Y-74058434D01*
X70807822Y-74023755D01*
X70816460Y-73990148D01*
X70820100Y-73924318D01*
X70818088Y-73910155D01*
X70821036Y-73896157D01*
X70822095Y-73801678D01*
X70821476Y-73798375D01*
X70822135Y-73795079D01*
X70822154Y-73773897D01*
X70821646Y-73771333D01*
X70822138Y-73768766D01*
X70822090Y-73762025D01*
X70822082Y-73761986D01*
X70822089Y-73761949D01*
X70821409Y-73668016D01*
X70819032Y-73656501D01*
X70820823Y-73644880D01*
X70817768Y-73574537D01*
X70810619Y-73545293D01*
X70812421Y-73515243D01*
X70805729Y-73466500D01*
X70787115Y-73412652D01*
X70780446Y-73356076D01*
X70768808Y-73320201D01*
X70737525Y-73264280D01*
X70717553Y-73203397D01*
X70699661Y-73171657D01*
X70683361Y-73152681D01*
X70673756Y-73129590D01*
X70669801Y-73123689D01*
X70645663Y-73099622D01*
X70629330Y-73069702D01*
X70562871Y-72990158D01*
X70486573Y-72928657D01*
X70415815Y-72860868D01*
X70343397Y-72814692D01*
X70235835Y-72772815D01*
X70129590Y-72727728D01*
X70041426Y-72709398D01*
X69985145Y-72708912D01*
X69930296Y-72696285D01*
X69900359Y-72695389D01*
X69844398Y-72704790D01*
X69787722Y-72701968D01*
X69675623Y-72718521D01*
X69574357Y-72754680D01*
X69503691Y-72775593D01*
X69482815Y-72766115D01*
X69384330Y-72743073D01*
X69287855Y-72712664D01*
X69180519Y-72700919D01*
X69105868Y-72707457D01*
X69031127Y-72702114D01*
X68937337Y-72713897D01*
X68835301Y-72747861D01*
X68743869Y-72772789D01*
X68741956Y-72771629D01*
X68651212Y-72738623D01*
X68548446Y-72722829D01*
X68487717Y-72709310D01*
X68728639Y-72467986D01*
X68765064Y-72413373D01*
X68811058Y-72366537D01*
X68833672Y-72310509D01*
X68867200Y-72260240D01*
X68879953Y-72195843D01*
X68904522Y-72134972D01*
X68903974Y-72074554D01*
X68915712Y-72015282D01*
X68902852Y-71950909D01*
X68902256Y-71885267D01*
X68878628Y-71829657D01*
X68866791Y-71770405D01*
X68830275Y-71715853D01*
X68804605Y-71655437D01*
X68583133Y-71330404D01*
X68548912Y-71279654D01*
X68549174Y-71279009D01*
X68610771Y-71267690D01*
X68611282Y-71267487D01*
X68611831Y-71267494D01*
X68717811Y-71247835D01*
X68718389Y-71247604D01*
X68719015Y-71247611D01*
X68810129Y-71230529D01*
X68811091Y-71230143D01*
X68812125Y-71230151D01*
X68878018Y-71217581D01*
X68879425Y-71217011D01*
X68880948Y-71217016D01*
X68893356Y-71214589D01*
X68893872Y-71214377D01*
X68894428Y-71214378D01*
X68997005Y-71194132D01*
X69055712Y-71169917D01*
X69117994Y-71157528D01*
X69170013Y-71122770D01*
X69227853Y-71098912D01*
X69272824Y-71054073D01*
X69325625Y-71018793D01*
X69360385Y-70966771D01*
X69404690Y-70922597D01*
X69429078Y-70863965D01*
X69464360Y-70811162D01*
X69476566Y-70749798D01*
X69500594Y-70692032D01*
X69500688Y-70628528D01*
X69513077Y-70566245D01*
X69513077Y-70139101D01*
X69512973Y-70138577D01*
X69513076Y-70138053D01*
X69512846Y-69997598D01*
X69512380Y-69995277D01*
X69512822Y-69992949D01*
X69511876Y-69886682D01*
X69510706Y-69881062D01*
X69511676Y-69875405D01*
X69509634Y-69798439D01*
X69506733Y-69785641D01*
X69508427Y-69772630D01*
X69504906Y-69720077D01*
X69496943Y-69690529D01*
X69498009Y-69659943D01*
X69493110Y-69629873D01*
X72914812Y-69629873D01*
X73079646Y-70028800D01*
X73384595Y-70334282D01*
X73783233Y-70499811D01*
X74214873Y-70500188D01*
X74613800Y-70335354D01*
X74919282Y-70030405D01*
X75084811Y-69631767D01*
X75084812Y-69629873D01*
X77314812Y-69629873D01*
X77479646Y-70028800D01*
X77784595Y-70334282D01*
X78183233Y-70499811D01*
X78614873Y-70500188D01*
X79013800Y-70335354D01*
X79319282Y-70030405D01*
X79484811Y-69631767D01*
X79485188Y-69200127D01*
X79320354Y-68801200D01*
X79015405Y-68495718D01*
X78616767Y-68330189D01*
X78185127Y-68329812D01*
X77786200Y-68494646D01*
X77480718Y-68799595D01*
X77315189Y-69198233D01*
X77314812Y-69629873D01*
X75084812Y-69629873D01*
X75085188Y-69200127D01*
X74920354Y-68801200D01*
X74615405Y-68495718D01*
X74216767Y-68330189D01*
X73785127Y-68329812D01*
X73386200Y-68494646D01*
X73080718Y-68799595D01*
X72915189Y-69198233D01*
X72914812Y-69629873D01*
X69493110Y-69629873D01*
X69492628Y-69626917D01*
X69466654Y-69557460D01*
X69452166Y-69484738D01*
X69444544Y-69466351D01*
X69429302Y-69443554D01*
X69421688Y-69417211D01*
X69407623Y-69399605D01*
X69405161Y-69393021D01*
X69385656Y-69372107D01*
X69383727Y-69369693D01*
X69379415Y-69358531D01*
X69356092Y-69334059D01*
X69305747Y-69258762D01*
X69290230Y-69248400D01*
X69282440Y-69237438D01*
X69273685Y-69231945D01*
X69265827Y-69222109D01*
X69255580Y-69213472D01*
X69225189Y-69196709D01*
X69207133Y-69177764D01*
X69139847Y-69147980D01*
X69139761Y-69147925D01*
X69098074Y-69120089D01*
X69094148Y-69119309D01*
X69070908Y-69104729D01*
X69066704Y-69103128D01*
X69050580Y-69100400D01*
X69036921Y-69092866D01*
X69008048Y-69089638D01*
X68978789Y-69076686D01*
X68953435Y-69071006D01*
X68946675Y-69070843D01*
X68940435Y-69068235D01*
X68884421Y-69056903D01*
X68882592Y-69056897D01*
X68880903Y-69056202D01*
X68801422Y-69040586D01*
X68800504Y-69040588D01*
X68799651Y-69040240D01*
X68703903Y-69021708D01*
X68703273Y-69021711D01*
X68702689Y-69021474D01*
X68597867Y-69001396D01*
X68597334Y-69001400D01*
X68596840Y-69001200D01*
X68548504Y-68992023D01*
X68563350Y-68970147D01*
X68576347Y-68951028D01*
X68576912Y-68949693D01*
X68577938Y-68948675D01*
X68655833Y-68832985D01*
X68657874Y-68828106D01*
X68661567Y-68824318D01*
X68718826Y-68736222D01*
X68722924Y-68725961D01*
X68730366Y-68717790D01*
X68769272Y-68653232D01*
X68777341Y-68630850D01*
X68792027Y-68612133D01*
X68814864Y-68567058D01*
X68829813Y-68513586D01*
X68856074Y-68464659D01*
X68865123Y-68435011D01*
X68866324Y-68423033D01*
X68871621Y-68412222D01*
X68875538Y-68350023D01*
X68882096Y-68326564D01*
X68880962Y-68317169D01*
X68886768Y-68298678D01*
X68883023Y-68256457D01*
X68890032Y-68186541D01*
X68886558Y-68175018D01*
X68887315Y-68163001D01*
X68884861Y-68144723D01*
X68869003Y-68098398D01*
X68864705Y-68049939D01*
X68833200Y-67989595D01*
X68832231Y-67986479D01*
X68832080Y-67985509D01*
X68831775Y-67985009D01*
X68812960Y-67924439D01*
X68812897Y-67924323D01*
X68806980Y-67917211D01*
X68806489Y-67915775D01*
X86748803Y-67915775D01*
X86921233Y-68333086D01*
X87240235Y-68652645D01*
X87657244Y-68825803D01*
X88108775Y-68826197D01*
X88526086Y-68653767D01*
X88704163Y-68476000D01*
X93794898Y-68476000D01*
X93971235Y-68652645D01*
X94388244Y-68825803D01*
X94839775Y-68826197D01*
X95257086Y-68653767D01*
X95576645Y-68334765D01*
X95749803Y-67917756D01*
X95750197Y-67466225D01*
X95577767Y-67048914D01*
X95258765Y-66729355D01*
X94841756Y-66556197D01*
X94390225Y-66555803D01*
X93972914Y-66728233D01*
X93794837Y-66906000D01*
X88704102Y-66906000D01*
X88527765Y-66729355D01*
X88110756Y-66556197D01*
X87659225Y-66555803D01*
X87241914Y-66728233D01*
X86922355Y-67047235D01*
X86749197Y-67464244D01*
X86748803Y-67915775D01*
X68806489Y-67915775D01*
X68803987Y-67908466D01*
X68771749Y-67871895D01*
X68749133Y-67828578D01*
X68729817Y-67804570D01*
X68713281Y-67790728D01*
X68702052Y-67772318D01*
X68659328Y-67725904D01*
X68653707Y-67721802D01*
X68649956Y-67715938D01*
X68588455Y-67651928D01*
X68585119Y-67649601D01*
X68582884Y-67646201D01*
X68507237Y-67569409D01*
X68504577Y-67567602D01*
X68502784Y-67564933D01*
X68417621Y-67480170D01*
X68416208Y-67479231D01*
X68415256Y-67477829D01*
X68405652Y-67468368D01*
X68403336Y-67466846D01*
X68401760Y-67464567D01*
X68294435Y-67360634D01*
X68287642Y-67356251D01*
X68282880Y-67349719D01*
X68200055Y-67273405D01*
X68186565Y-67265168D01*
X68176645Y-67252866D01*
X68116656Y-67202762D01*
X68083152Y-67184481D01*
X68055860Y-67157805D01*
X68017042Y-67132504D01*
X67907166Y-67088455D01*
X67897449Y-67083153D01*
X67892803Y-67082655D01*
X67869895Y-67073369D01*
X67819115Y-67048021D01*
X67804889Y-67047019D01*
X67787663Y-67040037D01*
X67770566Y-67036771D01*
X67670160Y-67037534D01*
X67570015Y-67030483D01*
X67546087Y-67038476D01*
X67520858Y-67038668D01*
X67428397Y-67077792D01*
X67333167Y-67109605D01*
X67308214Y-67123851D01*
X67297444Y-67133204D01*
X67290884Y-67135980D01*
X67290612Y-67136256D01*
X67282270Y-67139489D01*
X67230488Y-67172395D01*
X67227098Y-67175633D01*
X67222749Y-67177391D01*
X67149484Y-67225443D01*
X67147590Y-67227305D01*
X67145134Y-67228321D01*
X67055734Y-67288003D01*
X67054287Y-67289449D01*
X67052403Y-67290242D01*
X66952212Y-67358040D01*
X66951385Y-67358877D01*
X66950303Y-67359337D01*
X66929877Y-67373267D01*
X66911767Y-67275610D01*
X66911521Y-67274993D01*
X66911528Y-67274328D01*
X66891392Y-67166966D01*
X66891090Y-67166214D01*
X66891097Y-67165403D01*
X66874057Y-67075778D01*
X66873555Y-67074537D01*
X66873561Y-67073195D01*
X66860913Y-67008129D01*
X66859474Y-67004611D01*
X66859446Y-67000814D01*
X66852490Y-66967131D01*
X66848767Y-66958325D01*
X66848416Y-66948767D01*
X66848294Y-66948254D01*
X66841070Y-66932478D01*
X66840215Y-66918569D01*
X66839608Y-66917326D01*
X66839372Y-66914735D01*
X66835139Y-66900406D01*
X66814971Y-66862005D01*
X66812380Y-66846191D01*
X66777747Y-66790346D01*
X66755247Y-66737128D01*
X66748642Y-66730619D01*
X66744333Y-66721208D01*
X66743490Y-66720425D01*
X66730671Y-66694164D01*
X66722439Y-66683346D01*
X66720016Y-66681204D01*
X66719030Y-66679326D01*
X66699376Y-66662956D01*
X66697978Y-66661719D01*
X66680770Y-66633972D01*
X66605131Y-66579632D01*
X66535357Y-66517943D01*
X66504482Y-66507324D01*
X66477966Y-66488274D01*
X66460803Y-66480473D01*
X66380415Y-66461626D01*
X66303283Y-66432168D01*
X66272257Y-66426891D01*
X66238852Y-66427822D01*
X66206566Y-66419184D01*
X66156745Y-66415937D01*
X66143267Y-66417716D01*
X66129999Y-66414755D01*
X66056452Y-66413045D01*
X66051080Y-66413984D01*
X66045740Y-66412886D01*
X65943535Y-66412221D01*
X65941722Y-66412569D01*
X65939908Y-66412207D01*
X65804112Y-66412093D01*
X65803861Y-66412143D01*
X65803611Y-66412093D01*
X65786036Y-66412092D01*
X65785826Y-66412134D01*
X65785616Y-66412092D01*
X65645738Y-66412176D01*
X65644178Y-66412487D01*
X65642618Y-66412186D01*
X65536883Y-66412765D01*
X65532097Y-66413744D01*
X65527285Y-66412889D01*
X65450765Y-66414456D01*
X65438751Y-66417103D01*
X65426566Y-66415410D01*
X65374326Y-66418460D01*
X65345130Y-66426060D01*
X65314990Y-66424710D01*
X65282100Y-66429734D01*
X65211724Y-66455258D01*
X65138188Y-66469322D01*
X65119714Y-66476815D01*
X65097373Y-66491506D01*
X65071616Y-66498677D01*
X65054019Y-66512454D01*
X65047347Y-66514874D01*
X65025991Y-66534398D01*
X64993724Y-66559661D01*
X64911066Y-66614014D01*
X64896048Y-66636135D01*
X64874995Y-66652618D01*
X64866005Y-66663074D01*
X64864601Y-66665562D01*
X64862364Y-66667345D01*
X64839684Y-66708364D01*
X64828793Y-66718446D01*
X64823503Y-66729942D01*
X64817185Y-66736158D01*
X64798981Y-66779112D01*
X64770803Y-66820617D01*
X64767177Y-66838168D01*
X64743261Y-66880540D01*
X64742916Y-66883378D01*
X64741532Y-66885880D01*
X64737096Y-66899788D01*
X64734413Y-66923564D01*
X64724412Y-66945299D01*
X64723981Y-66947101D01*
X64723600Y-66956978D01*
X64719744Y-66966077D01*
X64713004Y-66998568D01*
X64712971Y-67002582D01*
X64711451Y-67006296D01*
X64698976Y-67070403D01*
X64698982Y-67071779D01*
X64698467Y-67073052D01*
X64681556Y-67161950D01*
X64681563Y-67162766D01*
X64681258Y-67163525D01*
X64661206Y-67270393D01*
X64661213Y-67271061D01*
X64660965Y-67271683D01*
X64642119Y-67373271D01*
X64542004Y-67305331D01*
X64540173Y-67304557D01*
X64538770Y-67303151D01*
X64446487Y-67241344D01*
X64444222Y-67240403D01*
X64442476Y-67238679D01*
X64365130Y-67187715D01*
X64361441Y-67186215D01*
X64358573Y-67183452D01*
X64301513Y-67146846D01*
X64291544Y-67142933D01*
X64283596Y-67135765D01*
X64252166Y-67117032D01*
X64244739Y-67114395D01*
X64240038Y-67110295D01*
X64215971Y-67102197D01*
X64194747Y-67086648D01*
X64191763Y-67085258D01*
X64098469Y-67062469D01*
X64016839Y-67033490D01*
X64012451Y-67033717D01*
X64003361Y-67030658D01*
X63975909Y-67032531D01*
X63949180Y-67026002D01*
X63852161Y-67040975D01*
X63791009Y-67045147D01*
X63767455Y-67046363D01*
X63767038Y-67046561D01*
X63760418Y-67046703D01*
X63758987Y-67047332D01*
X63754225Y-67047657D01*
X63731383Y-67053843D01*
X63714516Y-67062217D01*
X63702386Y-67064089D01*
X63664962Y-67086819D01*
X63632687Y-67102843D01*
X63531809Y-67147180D01*
X63489148Y-67177024D01*
X63467324Y-67199802D01*
X63439819Y-67215247D01*
X63375673Y-67270160D01*
X63367156Y-67280989D01*
X63355436Y-67288240D01*
X63268143Y-67369627D01*
X63264218Y-67375078D01*
X63258583Y-67378727D01*
X63169469Y-67465315D01*
X63167437Y-67468263D01*
X63164455Y-67470241D01*
X63078549Y-67555566D01*
X63076785Y-67558186D01*
X63074168Y-67559959D01*
X62997282Y-67637820D01*
X62995138Y-67641073D01*
X62991939Y-67643296D01*
X62928702Y-67708885D01*
X62925235Y-67714284D01*
X62920043Y-67718046D01*
X62875083Y-67766554D01*
X62865633Y-67781930D01*
X62851631Y-67793313D01*
X62829578Y-67819933D01*
X62806231Y-67863130D01*
X62773275Y-67899537D01*
X62772455Y-67900907D01*
X62770923Y-67905196D01*
X62767916Y-67908613D01*
X62754876Y-67946806D01*
X62753497Y-67948500D01*
X62747882Y-67967290D01*
X62744356Y-67977616D01*
X62710847Y-68039616D01*
X62705943Y-68087157D01*
X62688473Y-68136077D01*
X62688699Y-68140624D01*
X62687228Y-68144933D01*
X62684790Y-68163201D01*
X62685589Y-68175731D01*
X62681994Y-68187760D01*
X62688763Y-68253696D01*
X62685223Y-68288014D01*
X62692159Y-68311266D01*
X62690262Y-68327131D01*
X62696707Y-68350091D01*
X62700681Y-68412410D01*
X62706214Y-68423680D01*
X62707496Y-68436170D01*
X62716680Y-68466002D01*
X62742858Y-68514495D01*
X62757752Y-68567554D01*
X62780828Y-68612979D01*
X62795400Y-68631510D01*
X62803404Y-68653683D01*
X62842641Y-68718733D01*
X62850024Y-68726834D01*
X62854092Y-68737014D01*
X62911759Y-68825714D01*
X62915413Y-68829461D01*
X62917433Y-68834290D01*
X62994308Y-68948476D01*
X62995195Y-68949357D01*
X62995682Y-68950509D01*
X63023814Y-68991951D01*
X62931270Y-69009584D01*
X62930752Y-69009794D01*
X62930194Y-69009790D01*
X62828211Y-69029402D01*
X62827552Y-69029670D01*
X62826842Y-69029667D01*
X62736874Y-69047172D01*
X62735792Y-69047615D01*
X62734623Y-69047614D01*
X62663863Y-69061645D01*
X62661304Y-69062703D01*
X62658536Y-69062725D01*
X62614184Y-69071912D01*
X62605146Y-69075739D01*
X62595337Y-69076113D01*
X62584458Y-69078711D01*
X62563891Y-69088162D01*
X62560179Y-69088382D01*
X62502328Y-69116454D01*
X62502023Y-69116594D01*
X62415964Y-69145315D01*
X62404727Y-69151726D01*
X62384726Y-69169086D01*
X62384239Y-69169292D01*
X62382777Y-69170777D01*
X62381269Y-69172086D01*
X62357555Y-69182984D01*
X62351292Y-69189743D01*
X62335516Y-69197398D01*
X62279659Y-69260278D01*
X62216139Y-69315409D01*
X62203104Y-69341503D01*
X62189477Y-69354524D01*
X62183104Y-69368971D01*
X62169673Y-69384091D01*
X62161190Y-69398570D01*
X62144175Y-69447665D01*
X62140617Y-69452067D01*
X62130136Y-69487573D01*
X62104544Y-69538803D01*
X62103848Y-69548644D01*
X62088694Y-69582999D01*
X62082585Y-69610435D01*
X62082221Y-69626421D01*
X62079416Y-69634516D01*
X62080641Y-69655236D01*
X62069917Y-69691565D01*
X62065799Y-69736843D01*
X62067641Y-69754216D01*
X62063603Y-69771216D01*
X62061094Y-69839225D01*
X62062308Y-69846774D01*
X62060716Y-69854254D01*
X62059436Y-69949881D01*
X62060030Y-69953089D01*
X62059383Y-69956284D01*
X62058950Y-70084417D01*
X62059134Y-70085358D01*
X62058946Y-70086300D01*
X62058923Y-70138821D01*
X62058951Y-70138961D01*
X62058923Y-70139101D01*
X62058923Y-70566245D01*
X62071312Y-70628528D01*
X62071406Y-70692032D01*
X62095434Y-70749798D01*
X62107640Y-70811162D01*
X62142922Y-70863965D01*
X62167310Y-70922597D01*
X62211615Y-70966771D01*
X62246375Y-71018793D01*
X62299176Y-71054073D01*
X62344147Y-71098912D01*
X62401987Y-71122770D01*
X62454006Y-71157528D01*
X62516288Y-71169917D01*
X62574995Y-71194132D01*
X62677572Y-71214378D01*
X62679140Y-71214376D01*
X62680593Y-71214967D01*
X62737662Y-71225945D01*
X62738985Y-71225937D01*
X62740217Y-71226432D01*
X62825379Y-71242457D01*
X62826067Y-71242450D01*
X62826703Y-71242704D01*
X62929601Y-71261842D01*
X62930150Y-71261835D01*
X62930662Y-71262039D01*
X63022162Y-71278898D01*
X63022737Y-71280337D01*
X62767214Y-71656198D01*
X62741736Y-71716339D01*
X62705410Y-71770607D01*
X62693508Y-71830183D01*
X62669806Y-71886132D01*
X62669283Y-71951445D01*
X62656489Y-72015484D01*
X62668292Y-72075082D01*
X62667805Y-72135840D01*
X62692313Y-72196376D01*
X62705001Y-72260442D01*
X62738715Y-72310989D01*
X62761515Y-72367306D01*
X62807325Y-72413857D01*
X62843563Y-72468188D01*
X63133986Y-72759095D01*
X63073645Y-72744750D01*
X63026249Y-72742993D01*
X62972240Y-72751670D01*
X62958131Y-72750930D01*
X62955755Y-72751771D01*
X62908836Y-72749451D01*
X62804963Y-72764825D01*
X62720752Y-72794926D01*
X62704030Y-72798850D01*
X62703054Y-72798873D01*
X62702056Y-72799314D01*
X62665822Y-72807818D01*
X62620356Y-72790930D01*
X62530857Y-72776550D01*
X62443452Y-72752528D01*
X62349570Y-72745770D01*
X62266283Y-72756192D01*
X62182352Y-72755712D01*
X62093926Y-72772776D01*
X62042533Y-72793720D01*
X62016734Y-72795809D01*
X61996718Y-72806064D01*
X61949771Y-72788657D01*
X61844758Y-72771848D01*
X61740909Y-72748881D01*
X61646113Y-72746861D01*
X61554075Y-72763138D01*
X61460878Y-72770150D01*
X61369177Y-72795672D01*
X61281633Y-72839899D01*
X61190643Y-72876508D01*
X61113339Y-72927031D01*
X61044395Y-72994587D01*
X60969644Y-73055657D01*
X60932357Y-73100886D01*
X60880493Y-73197404D01*
X60824001Y-73291257D01*
X60794462Y-73373330D01*
X60779799Y-73470927D01*
X60757064Y-73566959D01*
X60754718Y-73631903D01*
X60759735Y-73662943D01*
X60755496Y-73694098D01*
X60760810Y-73780936D01*
X60762942Y-73789033D01*
X60749846Y-73854871D01*
X60139677Y-73854871D01*
X60172600Y-73689359D01*
X60172600Y-73630641D01*
X60058526Y-73057152D01*
X59733670Y-72570971D01*
X59462828Y-72390000D01*
X59733670Y-72209029D01*
X60058526Y-71722848D01*
X60172600Y-71149359D01*
X60172600Y-71090641D01*
X60058526Y-70517152D01*
X59733670Y-70030971D01*
X59247489Y-69706115D01*
X58674000Y-69592041D01*
X58100511Y-69706115D01*
X57614330Y-70030971D01*
X57398336Y-70354228D01*
X57340821Y-70231510D01*
X56908947Y-69837312D01*
X56493026Y-69665042D01*
X56261000Y-69786183D01*
X56261000Y-70993000D01*
X56281000Y-70993000D01*
X56281000Y-71247000D01*
X56261000Y-71247000D01*
X56261000Y-73533000D01*
X56281000Y-73533000D01*
X56281000Y-73787000D01*
X56261000Y-73787000D01*
X56261000Y-76073000D01*
X56281000Y-76073000D01*
X56281000Y-76327000D01*
X56261000Y-76327000D01*
X56261000Y-78613000D01*
X56281000Y-78613000D01*
X56281000Y-78867000D01*
X56261000Y-78867000D01*
X56261000Y-81153000D01*
X56281000Y-81153000D01*
X56281000Y-81407000D01*
X56261000Y-81407000D01*
X56261000Y-83693000D01*
X56281000Y-83693000D01*
X56281000Y-83947000D01*
X56261000Y-83947000D01*
X56261000Y-86233000D01*
X56281000Y-86233000D01*
X56281000Y-86487000D01*
X56261000Y-86487000D01*
X56261000Y-88773000D01*
X56281000Y-88773000D01*
X56281000Y-89027000D01*
X56261000Y-89027000D01*
X56261000Y-91313000D01*
X56281000Y-91313000D01*
X56281000Y-91567000D01*
X56261000Y-91567000D01*
X56261000Y-91587000D01*
X56007000Y-91587000D01*
X56007000Y-91567000D01*
X54799531Y-91567000D01*
X54679032Y-91799027D01*
X54927179Y-92328490D01*
X55345161Y-92710008D01*
X55074330Y-92890971D01*
X54749474Y-93377152D01*
X54635400Y-93950641D01*
X52907000Y-93950641D01*
X52907000Y-89259027D01*
X54679032Y-89259027D01*
X54927179Y-89788490D01*
X55345152Y-90170000D01*
X54927179Y-90551510D01*
X54679032Y-91080973D01*
X54799531Y-91313000D01*
X56007000Y-91313000D01*
X56007000Y-89027000D01*
X54799531Y-89027000D01*
X54679032Y-89259027D01*
X52907000Y-89259027D01*
X52907000Y-86719027D01*
X54679032Y-86719027D01*
X54927179Y-87248490D01*
X55345152Y-87630000D01*
X54927179Y-88011510D01*
X54679032Y-88540973D01*
X54799531Y-88773000D01*
X56007000Y-88773000D01*
X56007000Y-86487000D01*
X54799531Y-86487000D01*
X54679032Y-86719027D01*
X52907000Y-86719027D01*
X52907000Y-84179027D01*
X54679032Y-84179027D01*
X54927179Y-84708490D01*
X55345152Y-85090000D01*
X54927179Y-85471510D01*
X54679032Y-86000973D01*
X54799531Y-86233000D01*
X56007000Y-86233000D01*
X56007000Y-83947000D01*
X54799531Y-83947000D01*
X54679032Y-84179027D01*
X52907000Y-84179027D01*
X52907000Y-81639027D01*
X54679032Y-81639027D01*
X54927179Y-82168490D01*
X55345152Y-82550000D01*
X54927179Y-82931510D01*
X54679032Y-83460973D01*
X54799531Y-83693000D01*
X56007000Y-83693000D01*
X56007000Y-81407000D01*
X54799531Y-81407000D01*
X54679032Y-81639027D01*
X52907000Y-81639027D01*
X52907000Y-79099027D01*
X54679032Y-79099027D01*
X54927179Y-79628490D01*
X55345152Y-80010000D01*
X54927179Y-80391510D01*
X54679032Y-80920973D01*
X54799531Y-81153000D01*
X56007000Y-81153000D01*
X56007000Y-78867000D01*
X54799531Y-78867000D01*
X54679032Y-79099027D01*
X52907000Y-79099027D01*
X52907000Y-76559027D01*
X54679032Y-76559027D01*
X54927179Y-77088490D01*
X55345152Y-77470000D01*
X54927179Y-77851510D01*
X54679032Y-78380973D01*
X54799531Y-78613000D01*
X56007000Y-78613000D01*
X56007000Y-76327000D01*
X54799531Y-76327000D01*
X54679032Y-76559027D01*
X52907000Y-76559027D01*
X52907000Y-74019027D01*
X54679032Y-74019027D01*
X54927179Y-74548490D01*
X55345152Y-74930000D01*
X54927179Y-75311510D01*
X54679032Y-75840973D01*
X54799531Y-76073000D01*
X56007000Y-76073000D01*
X56007000Y-73787000D01*
X54799531Y-73787000D01*
X54679032Y-74019027D01*
X52907000Y-74019027D01*
X52907000Y-71479027D01*
X54679032Y-71479027D01*
X54927179Y-72008490D01*
X55345152Y-72390000D01*
X54927179Y-72771510D01*
X54679032Y-73300973D01*
X54799531Y-73533000D01*
X56007000Y-73533000D01*
X56007000Y-71247000D01*
X54799531Y-71247000D01*
X54679032Y-71479027D01*
X52907000Y-71479027D01*
X52907000Y-70760973D01*
X54679032Y-70760973D01*
X54799531Y-70993000D01*
X56007000Y-70993000D01*
X56007000Y-69786183D01*
X55774974Y-69665042D01*
X55359053Y-69837312D01*
X54927179Y-70231510D01*
X54679032Y-70760973D01*
X52907000Y-70760973D01*
X52907000Y-66115000D01*
X99620000Y-66115000D01*
X99620000Y-98985000D01*
M02*
