G04 #@! TF.GenerationSoftware,KiCad,Pcbnew,(2017-01-09 revision c2fb336)-makepkg*
G04 #@! TF.CreationDate,2017-04-23T15:55:18+02:00*
G04 #@! TF.ProjectId,jtagTc2050Adaptor,6A74616754633230353041646170746F,rev?*
G04 #@! TF.FileFunction,Legend,Bot*
G04 #@! TF.FilePolarity,Positive*
%FSLAX46Y46*%
G04 Gerber Fmt 4.6, Leading zero omitted, Abs format (unit mm)*
G04 Created by KiCad (PCBNEW (2017-01-09 revision c2fb336)-makepkg) date 04/23/17 15:55:18*
%MOMM*%
%LPD*%
G01*
G04 APERTURE LIST*
%ADD10C,0.100000*%
%ADD11C,0.200000*%
%ADD12C,0.300000*%
%ADD13C,0.010000*%
G04 APERTURE END LIST*
D10*
D11*
X66484500Y-86360000D02*
X66865500Y-86360000D01*
X66865500Y-91440000D02*
X66484500Y-91440000D01*
X65278000Y-95694500D02*
X65278000Y-95313500D01*
X70358000Y-95694500D02*
X70358000Y-95313500D01*
X78105000Y-96075500D02*
X78105000Y-95377000D01*
X85661500Y-96837500D02*
X85407500Y-96837500D01*
X86868000Y-90487500D02*
X86868000Y-90106500D01*
X84328000Y-93091000D02*
X84328000Y-92710000D01*
D12*
X84621642Y-91459857D02*
X85121642Y-91459857D01*
X85121642Y-92245571D02*
X85121642Y-90745571D01*
X84407357Y-90745571D01*
X84050214Y-90745571D02*
X83193071Y-90745571D01*
X83621642Y-92245571D02*
X83621642Y-90745571D01*
X84200857Y-96151000D02*
X84343714Y-96079571D01*
X84558000Y-96079571D01*
X84772285Y-96151000D01*
X84915142Y-96293857D01*
X84986571Y-96436714D01*
X85058000Y-96722428D01*
X85058000Y-96936714D01*
X84986571Y-97222428D01*
X84915142Y-97365285D01*
X84772285Y-97508142D01*
X84558000Y-97579571D01*
X84415142Y-97579571D01*
X84200857Y-97508142D01*
X84129428Y-97436714D01*
X84129428Y-96936714D01*
X84415142Y-96936714D01*
X83486571Y-97579571D02*
X83486571Y-96079571D01*
X82629428Y-97579571D01*
X82629428Y-96079571D01*
X81915142Y-97579571D02*
X81915142Y-96079571D01*
X81558000Y-96079571D01*
X81343714Y-96151000D01*
X81200857Y-96293857D01*
X81129428Y-96436714D01*
X81058000Y-96722428D01*
X81058000Y-96936714D01*
X81129428Y-97222428D01*
X81200857Y-97365285D01*
X81343714Y-97508142D01*
X81558000Y-97579571D01*
X81915142Y-97579571D01*
X88868000Y-88078571D02*
X88368000Y-89578571D01*
X87868000Y-88078571D01*
X86510857Y-89435714D02*
X86582285Y-89507142D01*
X86796571Y-89578571D01*
X86939428Y-89578571D01*
X87153714Y-89507142D01*
X87296571Y-89364285D01*
X87368000Y-89221428D01*
X87439428Y-88935714D01*
X87439428Y-88721428D01*
X87368000Y-88435714D01*
X87296571Y-88292857D01*
X87153714Y-88150000D01*
X86939428Y-88078571D01*
X86796571Y-88078571D01*
X86582285Y-88150000D01*
X86510857Y-88221428D01*
X85010857Y-89435714D02*
X85082285Y-89507142D01*
X85296571Y-89578571D01*
X85439428Y-89578571D01*
X85653714Y-89507142D01*
X85796571Y-89364285D01*
X85868000Y-89221428D01*
X85939428Y-88935714D01*
X85939428Y-88721428D01*
X85868000Y-88435714D01*
X85796571Y-88292857D01*
X85653714Y-88150000D01*
X85439428Y-88078571D01*
X85296571Y-88078571D01*
X85082285Y-88150000D01*
X85010857Y-88221428D01*
X99173657Y-90407371D02*
X99173657Y-91907371D01*
X99173657Y-90478800D02*
X99030800Y-90407371D01*
X98745085Y-90407371D01*
X98602228Y-90478800D01*
X98530800Y-90550228D01*
X98459371Y-90693085D01*
X98459371Y-91121657D01*
X98530800Y-91264514D01*
X98602228Y-91335942D01*
X98745085Y-91407371D01*
X99030800Y-91407371D01*
X99173657Y-91335942D01*
X97816514Y-91407371D02*
X97816514Y-90407371D01*
X97816514Y-90693085D02*
X97745085Y-90550228D01*
X97673657Y-90478800D01*
X97530800Y-90407371D01*
X97387942Y-90407371D01*
X96673657Y-91407371D02*
X96816514Y-91335942D01*
X96887942Y-91264514D01*
X96959371Y-91121657D01*
X96959371Y-90693085D01*
X96887942Y-90550228D01*
X96816514Y-90478800D01*
X96673657Y-90407371D01*
X96459371Y-90407371D01*
X96316514Y-90478800D01*
X96245085Y-90550228D01*
X96173657Y-90693085D01*
X96173657Y-91121657D01*
X96245085Y-91264514D01*
X96316514Y-91335942D01*
X96459371Y-91407371D01*
X96673657Y-91407371D01*
X94887942Y-90407371D02*
X94887942Y-91621657D01*
X94959371Y-91764514D01*
X95030800Y-91835942D01*
X95173657Y-91907371D01*
X95387942Y-91907371D01*
X95530800Y-91835942D01*
X94887942Y-91335942D02*
X95030800Y-91407371D01*
X95316514Y-91407371D01*
X95459371Y-91335942D01*
X95530800Y-91264514D01*
X95602228Y-91121657D01*
X95602228Y-90693085D01*
X95530800Y-90550228D01*
X95459371Y-90478800D01*
X95316514Y-90407371D01*
X95030800Y-90407371D01*
X94887942Y-90478800D01*
X94173657Y-91407371D02*
X94173657Y-90407371D01*
X94173657Y-90550228D02*
X94102228Y-90478800D01*
X93959371Y-90407371D01*
X93745085Y-90407371D01*
X93602228Y-90478800D01*
X93530800Y-90621657D01*
X93530800Y-91407371D01*
X93530800Y-90621657D02*
X93459371Y-90478800D01*
X93316514Y-90407371D01*
X93102228Y-90407371D01*
X92959371Y-90478800D01*
X92887942Y-90621657D01*
X92887942Y-91407371D01*
X91959371Y-91407371D02*
X92102228Y-91335942D01*
X92173657Y-91264514D01*
X92245085Y-91121657D01*
X92245085Y-90693085D01*
X92173657Y-90550228D01*
X92102228Y-90478800D01*
X91959371Y-90407371D01*
X91745085Y-90407371D01*
X91602228Y-90478800D01*
X91530800Y-90550228D01*
X91459371Y-90693085D01*
X91459371Y-91121657D01*
X91530800Y-91264514D01*
X91602228Y-91335942D01*
X91745085Y-91407371D01*
X91959371Y-91407371D01*
X90173657Y-91407371D02*
X90173657Y-89907371D01*
X90173657Y-91335942D02*
X90316514Y-91407371D01*
X90602228Y-91407371D01*
X90745085Y-91335942D01*
X90816514Y-91264514D01*
X90887942Y-91121657D01*
X90887942Y-90693085D01*
X90816514Y-90550228D01*
X90745085Y-90478800D01*
X90602228Y-90407371D01*
X90316514Y-90407371D01*
X90173657Y-90478800D01*
X88887942Y-91335942D02*
X89030800Y-91407371D01*
X89316514Y-91407371D01*
X89459371Y-91335942D01*
X89530800Y-91193085D01*
X89530800Y-90621657D01*
X89459371Y-90478800D01*
X89316514Y-90407371D01*
X89030800Y-90407371D01*
X88887942Y-90478800D01*
X88816514Y-90621657D01*
X88816514Y-90764514D01*
X89530800Y-90907371D01*
D11*
X91287600Y-95605600D02*
X91287600Y-91948000D01*
X96393000Y-95631000D02*
X96393000Y-94869000D01*
D12*
X99237371Y-93825142D02*
X99023085Y-93896571D01*
X98665942Y-93896571D01*
X98523085Y-93825142D01*
X98451657Y-93753714D01*
X98380228Y-93610857D01*
X98380228Y-93468000D01*
X98451657Y-93325142D01*
X98523085Y-93253714D01*
X98665942Y-93182285D01*
X98951657Y-93110857D01*
X99094514Y-93039428D01*
X99165942Y-92968000D01*
X99237371Y-92825142D01*
X99237371Y-92682285D01*
X99165942Y-92539428D01*
X99094514Y-92468000D01*
X98951657Y-92396571D01*
X98594514Y-92396571D01*
X98380228Y-92468000D01*
X97094514Y-92896571D02*
X97094514Y-93896571D01*
X97737371Y-92896571D02*
X97737371Y-93682285D01*
X97665942Y-93825142D01*
X97523085Y-93896571D01*
X97308800Y-93896571D01*
X97165942Y-93825142D01*
X97094514Y-93753714D01*
X96380228Y-92896571D02*
X96380228Y-94396571D01*
X96380228Y-92968000D02*
X96237371Y-92896571D01*
X95951657Y-92896571D01*
X95808800Y-92968000D01*
X95737371Y-93039428D01*
X95665942Y-93182285D01*
X95665942Y-93610857D01*
X95737371Y-93753714D01*
X95808800Y-93825142D01*
X95951657Y-93896571D01*
X96237371Y-93896571D01*
X96380228Y-93825142D01*
X95023085Y-92896571D02*
X95023085Y-94396571D01*
X95023085Y-92968000D02*
X94880228Y-92896571D01*
X94594514Y-92896571D01*
X94451657Y-92968000D01*
X94380228Y-93039428D01*
X94308800Y-93182285D01*
X94308800Y-93610857D01*
X94380228Y-93753714D01*
X94451657Y-93825142D01*
X94594514Y-93896571D01*
X94880228Y-93896571D01*
X95023085Y-93825142D01*
X93451657Y-93896571D02*
X93594514Y-93825142D01*
X93665942Y-93682285D01*
X93665942Y-92396571D01*
X93023085Y-92896571D02*
X92665942Y-93896571D01*
X92308800Y-92896571D02*
X92665942Y-93896571D01*
X92808800Y-94253714D01*
X92880228Y-94325142D01*
X93023085Y-94396571D01*
X72215142Y-93476071D02*
X71286571Y-93476071D01*
X71786571Y-94047500D01*
X71572285Y-94047500D01*
X71429428Y-94118928D01*
X71358000Y-94190357D01*
X71286571Y-94333214D01*
X71286571Y-94690357D01*
X71358000Y-94833214D01*
X71429428Y-94904642D01*
X71572285Y-94976071D01*
X72000857Y-94976071D01*
X72143714Y-94904642D01*
X72215142Y-94833214D01*
X70858000Y-93476071D02*
X70358000Y-94976071D01*
X69858000Y-93476071D01*
X69500857Y-93476071D02*
X68572285Y-93476071D01*
X69072285Y-94047500D01*
X68858000Y-94047500D01*
X68715142Y-94118928D01*
X68643714Y-94190357D01*
X68572285Y-94333214D01*
X68572285Y-94690357D01*
X68643714Y-94833214D01*
X68715142Y-94904642D01*
X68858000Y-94976071D01*
X69286571Y-94976071D01*
X69429428Y-94904642D01*
X69500857Y-94833214D01*
X65563714Y-93476071D02*
X66278000Y-93476071D01*
X66349428Y-94190357D01*
X66278000Y-94118928D01*
X66135142Y-94047500D01*
X65778000Y-94047500D01*
X65635142Y-94118928D01*
X65563714Y-94190357D01*
X65492285Y-94333214D01*
X65492285Y-94690357D01*
X65563714Y-94833214D01*
X65635142Y-94904642D01*
X65778000Y-94976071D01*
X66135142Y-94976071D01*
X66278000Y-94904642D01*
X66349428Y-94833214D01*
X65063714Y-93476071D02*
X64563714Y-94976071D01*
X64063714Y-93476071D01*
X81351000Y-90804071D02*
X80851000Y-92304071D01*
X80351000Y-90804071D01*
X78993857Y-92161214D02*
X79065285Y-92232642D01*
X79279571Y-92304071D01*
X79422428Y-92304071D01*
X79636714Y-92232642D01*
X79779571Y-92089785D01*
X79851000Y-91946928D01*
X79922428Y-91661214D01*
X79922428Y-91446928D01*
X79851000Y-91161214D01*
X79779571Y-91018357D01*
X79636714Y-90875500D01*
X79422428Y-90804071D01*
X79279571Y-90804071D01*
X79065285Y-90875500D01*
X78993857Y-90946928D01*
X77493857Y-92161214D02*
X77565285Y-92232642D01*
X77779571Y-92304071D01*
X77922428Y-92304071D01*
X78136714Y-92232642D01*
X78279571Y-92089785D01*
X78351000Y-91946928D01*
X78422428Y-91661214D01*
X78422428Y-91446928D01*
X78351000Y-91161214D01*
X78279571Y-91018357D01*
X78136714Y-90875500D01*
X77922428Y-90804071D01*
X77779571Y-90804071D01*
X77565285Y-90875500D01*
X77493857Y-90946928D01*
X75708142Y-91518357D02*
X74565285Y-91518357D01*
X74565285Y-91946928D02*
X75708142Y-91946928D01*
X81279571Y-94782642D02*
X81065285Y-94854071D01*
X80708142Y-94854071D01*
X80565285Y-94782642D01*
X80493857Y-94711214D01*
X80422428Y-94568357D01*
X80422428Y-94425500D01*
X80493857Y-94282642D01*
X80565285Y-94211214D01*
X80708142Y-94139785D01*
X80993857Y-94068357D01*
X81136714Y-93996928D01*
X81208142Y-93925500D01*
X81279571Y-93782642D01*
X81279571Y-93639785D01*
X81208142Y-93496928D01*
X81136714Y-93425500D01*
X80993857Y-93354071D01*
X80636714Y-93354071D01*
X80422428Y-93425500D01*
X79136714Y-93854071D02*
X79136714Y-94854071D01*
X79779571Y-93854071D02*
X79779571Y-94639785D01*
X79708142Y-94782642D01*
X79565285Y-94854071D01*
X79351000Y-94854071D01*
X79208142Y-94782642D01*
X79136714Y-94711214D01*
X78422428Y-93854071D02*
X78422428Y-95354071D01*
X78422428Y-93925500D02*
X78279571Y-93854071D01*
X77993857Y-93854071D01*
X77851000Y-93925500D01*
X77779571Y-93996928D01*
X77708142Y-94139785D01*
X77708142Y-94568357D01*
X77779571Y-94711214D01*
X77851000Y-94782642D01*
X77993857Y-94854071D01*
X78279571Y-94854071D01*
X78422428Y-94782642D01*
X77065285Y-93854071D02*
X77065285Y-95354071D01*
X77065285Y-93925500D02*
X76922428Y-93854071D01*
X76636714Y-93854071D01*
X76493857Y-93925500D01*
X76422428Y-93996928D01*
X76351000Y-94139785D01*
X76351000Y-94568357D01*
X76422428Y-94711214D01*
X76493857Y-94782642D01*
X76636714Y-94854071D01*
X76922428Y-94854071D01*
X77065285Y-94782642D01*
X75493857Y-94854071D02*
X75636714Y-94782642D01*
X75708142Y-94639785D01*
X75708142Y-93354071D01*
X75065285Y-93854071D02*
X74708142Y-94854071D01*
X74351000Y-93854071D02*
X74708142Y-94854071D01*
X74851000Y-95211214D01*
X74922428Y-95282642D01*
X75065285Y-95354071D01*
X68599428Y-80009071D02*
X67742285Y-80009071D01*
X68170857Y-81509071D02*
X68170857Y-80009071D01*
X66599428Y-81509071D02*
X66599428Y-80723357D01*
X66670857Y-80580500D01*
X66813714Y-80509071D01*
X67099428Y-80509071D01*
X67242285Y-80580500D01*
X66599428Y-81437642D02*
X66742285Y-81509071D01*
X67099428Y-81509071D01*
X67242285Y-81437642D01*
X67313714Y-81294785D01*
X67313714Y-81151928D01*
X67242285Y-81009071D01*
X67099428Y-80937642D01*
X66742285Y-80937642D01*
X66599428Y-80866214D01*
X65885142Y-81509071D02*
X65885142Y-80509071D01*
X65885142Y-80794785D02*
X65813714Y-80651928D01*
X65742285Y-80580500D01*
X65599428Y-80509071D01*
X65456571Y-80509071D01*
X64313714Y-80509071D02*
X64313714Y-81723357D01*
X64385142Y-81866214D01*
X64456571Y-81937642D01*
X64599428Y-82009071D01*
X64813714Y-82009071D01*
X64956571Y-81937642D01*
X64313714Y-81437642D02*
X64456571Y-81509071D01*
X64742285Y-81509071D01*
X64885142Y-81437642D01*
X64956571Y-81366214D01*
X65028000Y-81223357D01*
X65028000Y-80794785D01*
X64956571Y-80651928D01*
X64885142Y-80580500D01*
X64742285Y-80509071D01*
X64456571Y-80509071D01*
X64313714Y-80580500D01*
X63028000Y-81437642D02*
X63170857Y-81509071D01*
X63456571Y-81509071D01*
X63599428Y-81437642D01*
X63670857Y-81294785D01*
X63670857Y-80723357D01*
X63599428Y-80580500D01*
X63456571Y-80509071D01*
X63170857Y-80509071D01*
X63028000Y-80580500D01*
X62956571Y-80723357D01*
X62956571Y-80866214D01*
X63670857Y-81009071D01*
X62528000Y-80509071D02*
X61956571Y-80509071D01*
X62313714Y-80009071D02*
X62313714Y-81294785D01*
X62242285Y-81437642D01*
X62099428Y-81509071D01*
X61956571Y-81509071D01*
X68706571Y-83987642D02*
X68492285Y-84059071D01*
X68135142Y-84059071D01*
X67992285Y-83987642D01*
X67920857Y-83916214D01*
X67849428Y-83773357D01*
X67849428Y-83630500D01*
X67920857Y-83487642D01*
X67992285Y-83416214D01*
X68135142Y-83344785D01*
X68420857Y-83273357D01*
X68563714Y-83201928D01*
X68635142Y-83130500D01*
X68706571Y-82987642D01*
X68706571Y-82844785D01*
X68635142Y-82701928D01*
X68563714Y-82630500D01*
X68420857Y-82559071D01*
X68063714Y-82559071D01*
X67849428Y-82630500D01*
X66563714Y-83059071D02*
X66563714Y-84059071D01*
X67206571Y-83059071D02*
X67206571Y-83844785D01*
X67135142Y-83987642D01*
X66992285Y-84059071D01*
X66778000Y-84059071D01*
X66635142Y-83987642D01*
X66563714Y-83916214D01*
X65849428Y-83059071D02*
X65849428Y-84559071D01*
X65849428Y-83130500D02*
X65706571Y-83059071D01*
X65420857Y-83059071D01*
X65278000Y-83130500D01*
X65206571Y-83201928D01*
X65135142Y-83344785D01*
X65135142Y-83773357D01*
X65206571Y-83916214D01*
X65278000Y-83987642D01*
X65420857Y-84059071D01*
X65706571Y-84059071D01*
X65849428Y-83987642D01*
X64492285Y-83059071D02*
X64492285Y-84559071D01*
X64492285Y-83130500D02*
X64349428Y-83059071D01*
X64063714Y-83059071D01*
X63920857Y-83130500D01*
X63849428Y-83201928D01*
X63778000Y-83344785D01*
X63778000Y-83773357D01*
X63849428Y-83916214D01*
X63920857Y-83987642D01*
X64063714Y-84059071D01*
X64349428Y-84059071D01*
X64492285Y-83987642D01*
X62920857Y-84059071D02*
X63063714Y-83987642D01*
X63135142Y-83844785D01*
X63135142Y-82559071D01*
X62492285Y-83059071D02*
X62135142Y-84059071D01*
X61778000Y-83059071D02*
X62135142Y-84059071D01*
X62278000Y-84416214D01*
X62349428Y-84487642D01*
X62492285Y-84559071D01*
X70980857Y-90618571D02*
X70980857Y-91832857D01*
X70909428Y-91975714D01*
X70838000Y-92047142D01*
X70695142Y-92118571D01*
X70409428Y-92118571D01*
X70266571Y-92047142D01*
X70195142Y-91975714D01*
X70123714Y-91832857D01*
X70123714Y-90618571D01*
X69480857Y-92047142D02*
X69266571Y-92118571D01*
X68909428Y-92118571D01*
X68766571Y-92047142D01*
X68695142Y-91975714D01*
X68623714Y-91832857D01*
X68623714Y-91690000D01*
X68695142Y-91547142D01*
X68766571Y-91475714D01*
X68909428Y-91404285D01*
X69195142Y-91332857D01*
X69338000Y-91261428D01*
X69409428Y-91190000D01*
X69480857Y-91047142D01*
X69480857Y-90904285D01*
X69409428Y-90761428D01*
X69338000Y-90690000D01*
X69195142Y-90618571D01*
X68838000Y-90618571D01*
X68623714Y-90690000D01*
X67480857Y-91332857D02*
X67266571Y-91404285D01*
X67195142Y-91475714D01*
X67123714Y-91618571D01*
X67123714Y-91832857D01*
X67195142Y-91975714D01*
X67266571Y-92047142D01*
X67409428Y-92118571D01*
X67980857Y-92118571D01*
X67980857Y-90618571D01*
X67480857Y-90618571D01*
X67338000Y-90690000D01*
X67266571Y-90761428D01*
X67195142Y-90904285D01*
X67195142Y-91047142D01*
X67266571Y-91190000D01*
X67338000Y-91261428D01*
X67480857Y-91332857D01*
X67980857Y-91332857D01*
X70965000Y-85602071D02*
X70965000Y-86673500D01*
X71036428Y-86887785D01*
X71179285Y-87030642D01*
X71393571Y-87102071D01*
X71536428Y-87102071D01*
X70465000Y-85602071D02*
X69607857Y-85602071D01*
X70036428Y-87102071D02*
X70036428Y-85602071D01*
X69179285Y-86673500D02*
X68465000Y-86673500D01*
X69322142Y-87102071D02*
X68822142Y-85602071D01*
X68322142Y-87102071D01*
X67036428Y-85673500D02*
X67179285Y-85602071D01*
X67393571Y-85602071D01*
X67607857Y-85673500D01*
X67750714Y-85816357D01*
X67822142Y-85959214D01*
X67893571Y-86244928D01*
X67893571Y-86459214D01*
X67822142Y-86744928D01*
X67750714Y-86887785D01*
X67607857Y-87030642D01*
X67393571Y-87102071D01*
X67250714Y-87102071D01*
X67036428Y-87030642D01*
X66965000Y-86959214D01*
X66965000Y-86459214D01*
X67250714Y-86459214D01*
D11*
X88646000Y-81280000D02*
X88646000Y-86487000D01*
X88201500Y-83820000D02*
X88201500Y-78676500D01*
X88201500Y-83820000D02*
X82550000Y-83820000D01*
X82994500Y-81280000D02*
X88646000Y-81280000D01*
X82994500Y-86487000D02*
X88646000Y-86487000D01*
X82550000Y-78676500D02*
X88201500Y-78676500D01*
X82994500Y-81280000D02*
X82994500Y-86487000D01*
X82550000Y-78676500D02*
X82550000Y-83820000D01*
D12*
X81125071Y-79212214D02*
X81196500Y-79283642D01*
X81410785Y-79355071D01*
X81553642Y-79355071D01*
X81767928Y-79283642D01*
X81910785Y-79140785D01*
X81982214Y-78997928D01*
X82053642Y-78712214D01*
X82053642Y-78497928D01*
X81982214Y-78212214D01*
X81910785Y-78069357D01*
X81767928Y-77926500D01*
X81553642Y-77855071D01*
X81410785Y-77855071D01*
X81196500Y-77926500D01*
X81125071Y-77997928D01*
X80196500Y-77855071D02*
X79910785Y-77855071D01*
X79767928Y-77926500D01*
X79625071Y-78069357D01*
X79553642Y-78355071D01*
X79553642Y-78855071D01*
X79625071Y-79140785D01*
X79767928Y-79283642D01*
X79910785Y-79355071D01*
X80196500Y-79355071D01*
X80339357Y-79283642D01*
X80482214Y-79140785D01*
X80553642Y-78855071D01*
X80553642Y-78355071D01*
X80482214Y-78069357D01*
X80339357Y-77926500D01*
X80196500Y-77855071D01*
X78910785Y-79355071D02*
X78910785Y-77855071D01*
X78410785Y-78926500D01*
X77910785Y-77855071D01*
X77910785Y-79355071D01*
X82553714Y-87030642D02*
X82339428Y-87102071D01*
X81982285Y-87102071D01*
X81839428Y-87030642D01*
X81768000Y-86959214D01*
X81696571Y-86816357D01*
X81696571Y-86673500D01*
X81768000Y-86530642D01*
X81839428Y-86459214D01*
X81982285Y-86387785D01*
X82268000Y-86316357D01*
X82410857Y-86244928D01*
X82482285Y-86173500D01*
X82553714Y-86030642D01*
X82553714Y-85887785D01*
X82482285Y-85744928D01*
X82410857Y-85673500D01*
X82268000Y-85602071D01*
X81910857Y-85602071D01*
X81696571Y-85673500D01*
X81196571Y-85602071D02*
X80839428Y-87102071D01*
X80553714Y-86030642D01*
X80268000Y-87102071D01*
X79910857Y-85602071D01*
X79339428Y-87102071D02*
X79339428Y-85602071D01*
X78982285Y-85602071D01*
X78768000Y-85673500D01*
X78625142Y-85816357D01*
X78553714Y-85959214D01*
X78482285Y-86244928D01*
X78482285Y-86459214D01*
X78553714Y-86744928D01*
X78625142Y-86887785D01*
X78768000Y-87030642D01*
X78982285Y-87102071D01*
X79339428Y-87102071D01*
D13*
G36*
X95173037Y-68807099D02*
X95151245Y-68814376D01*
X95132814Y-68830820D01*
X95117465Y-68859597D01*
X95104919Y-68903874D01*
X95094895Y-68966818D01*
X95087117Y-69051594D01*
X95081304Y-69161371D01*
X95077177Y-69299314D01*
X95074457Y-69468591D01*
X95072865Y-69672368D01*
X95072123Y-69913811D01*
X95071950Y-70196087D01*
X95072068Y-70522364D01*
X95072197Y-70895807D01*
X95072200Y-70954900D01*
X95072278Y-71330284D01*
X95072551Y-71658111D01*
X95073082Y-71941621D01*
X95073931Y-72184058D01*
X95075160Y-72388661D01*
X95076831Y-72558674D01*
X95079005Y-72697339D01*
X95081743Y-72807896D01*
X95085108Y-72893588D01*
X95089159Y-72957657D01*
X95093959Y-73003344D01*
X95099569Y-73033892D01*
X95106051Y-73052541D01*
X95112115Y-73061285D01*
X95123191Y-73068392D01*
X95143399Y-73074613D01*
X95175910Y-73080006D01*
X95223897Y-73084629D01*
X95290533Y-73088540D01*
X95378990Y-73091796D01*
X95492440Y-73094456D01*
X95634056Y-73096575D01*
X95807010Y-73098213D01*
X96014476Y-73099428D01*
X96259624Y-73100276D01*
X96545629Y-73100815D01*
X96875661Y-73101103D01*
X97252895Y-73101198D01*
X97307401Y-73101200D01*
X97691224Y-73101126D01*
X98027420Y-73100867D01*
X98319161Y-73100365D01*
X98569619Y-73099562D01*
X98781968Y-73098400D01*
X98959379Y-73096822D01*
X99105025Y-73094771D01*
X99222078Y-73092187D01*
X99313712Y-73089015D01*
X99383097Y-73085195D01*
X99433408Y-73080671D01*
X99467816Y-73075385D01*
X99489493Y-73069279D01*
X99501613Y-73062295D01*
X99502686Y-73061285D01*
X99509935Y-73050027D01*
X99516262Y-73029552D01*
X99521728Y-72996619D01*
X99526394Y-72947986D01*
X99530322Y-72880411D01*
X99533574Y-72790652D01*
X99536210Y-72675468D01*
X99538293Y-72531617D01*
X99539883Y-72355856D01*
X99541042Y-72144944D01*
X99541832Y-71895639D01*
X99542314Y-71604700D01*
X99542549Y-71268884D01*
X99542600Y-70954900D01*
X99542523Y-70579515D01*
X99542250Y-70251688D01*
X99541719Y-69968178D01*
X99540870Y-69725741D01*
X99539641Y-69521138D01*
X99538452Y-69400129D01*
X99263201Y-69400129D01*
X99252763Y-69425038D01*
X99226456Y-69479244D01*
X99212401Y-69507099D01*
X99201468Y-69530174D01*
X99192226Y-69555820D01*
X99184533Y-69588259D01*
X99178248Y-69631708D01*
X99173228Y-69690388D01*
X99169332Y-69768517D01*
X99166417Y-69870317D01*
X99164343Y-70000005D01*
X99162966Y-70161801D01*
X99162146Y-70359925D01*
X99161741Y-70598597D01*
X99161609Y-70882035D01*
X99161601Y-71018690D01*
X99161961Y-71282126D01*
X99162998Y-71530437D01*
X99164644Y-71758956D01*
X99166832Y-71963018D01*
X99169497Y-72137958D01*
X99172570Y-72279111D01*
X99175985Y-72381810D01*
X99179676Y-72441391D01*
X99182176Y-72454770D01*
X99206600Y-72494536D01*
X99232432Y-72548750D01*
X99262111Y-72618600D01*
X98735606Y-72618211D01*
X98580433Y-72617249D01*
X98446050Y-72614781D01*
X98339401Y-72611074D01*
X98267430Y-72606392D01*
X98237081Y-72601000D01*
X98237306Y-72599161D01*
X98267255Y-72565226D01*
X98303068Y-72507026D01*
X98307156Y-72499211D01*
X98322082Y-72461921D01*
X98333093Y-72411667D01*
X98340731Y-72340956D01*
X98345534Y-72242298D01*
X98348044Y-72108200D01*
X98348799Y-71931172D01*
X98348800Y-71921361D01*
X98347567Y-71743747D01*
X98344004Y-71601276D01*
X98338322Y-71498127D01*
X98330728Y-71438478D01*
X98323986Y-71424800D01*
X98294486Y-71444170D01*
X98256759Y-71491144D01*
X98254485Y-71494650D01*
X98213907Y-71551668D01*
X98179701Y-71589900D01*
X98149253Y-71627032D01*
X98109317Y-71689366D01*
X98095729Y-71713233D01*
X98053580Y-71780330D01*
X97990873Y-71869120D01*
X97919808Y-71962464D01*
X97905858Y-71979933D01*
X97797739Y-72122744D01*
X97707262Y-72259367D01*
X97639011Y-72381749D01*
X97597569Y-72481840D01*
X97586800Y-72540323D01*
X97586800Y-72618600D01*
X96460345Y-72618600D01*
X96472471Y-72604888D01*
X96316800Y-72604888D01*
X96292701Y-72609157D01*
X96225604Y-72612885D01*
X96123311Y-72615848D01*
X95993622Y-72617826D01*
X95844339Y-72618596D01*
X95834200Y-72618600D01*
X95657433Y-72617808D01*
X95526299Y-72615206D01*
X95435653Y-72610456D01*
X95380350Y-72603218D01*
X95355244Y-72593152D01*
X95352408Y-72586850D01*
X95367362Y-72542954D01*
X95390508Y-72505795D01*
X95399702Y-72487092D01*
X95407298Y-72454595D01*
X95413441Y-72403898D01*
X95418273Y-72330596D01*
X95421936Y-72230283D01*
X95424574Y-72098554D01*
X95426330Y-71931004D01*
X95427347Y-71723227D01*
X95427767Y-71470818D01*
X95427800Y-71356445D01*
X95427800Y-70256400D01*
X96292705Y-70256400D01*
X96253953Y-70331338D01*
X96243922Y-70357215D01*
X96235733Y-70395492D01*
X96229208Y-70451007D01*
X96224174Y-70528597D01*
X96220453Y-70633100D01*
X96217871Y-70769354D01*
X96216252Y-70942197D01*
X96215421Y-71156467D01*
X96215200Y-71399150D01*
X96215314Y-71650840D01*
X96215815Y-71856911D01*
X96216945Y-72022547D01*
X96218945Y-72152927D01*
X96222055Y-72253235D01*
X96226517Y-72328651D01*
X96232571Y-72384357D01*
X96240459Y-72425535D01*
X96250421Y-72457367D01*
X96262699Y-72485035D01*
X96266000Y-72491600D01*
X96296910Y-72555036D01*
X96314920Y-72597510D01*
X96316800Y-72604888D01*
X96472471Y-72604888D01*
X96521923Y-72548970D01*
X96565845Y-72499666D01*
X96594027Y-72468690D01*
X96596200Y-72466420D01*
X96653955Y-72403305D01*
X96725437Y-72319089D01*
X96800503Y-72226465D01*
X96869009Y-72138125D01*
X96920812Y-72066761D01*
X96941024Y-72034947D01*
X96981245Y-71970984D01*
X97044738Y-71879699D01*
X97122596Y-71773080D01*
X97205913Y-71663115D01*
X97285783Y-71561790D01*
X97348127Y-71487007D01*
X97408571Y-71409948D01*
X97465241Y-71326343D01*
X97469422Y-71319450D01*
X97596763Y-71121336D01*
X97692406Y-70990756D01*
X97762364Y-70899612D01*
X97680932Y-70812160D01*
X97610740Y-70733061D01*
X97520685Y-70626292D01*
X97421343Y-70504851D01*
X97323293Y-70381739D01*
X97237111Y-70269955D01*
X97208249Y-70231215D01*
X96903459Y-69851292D01*
X96664121Y-69594187D01*
X96465341Y-69392800D01*
X97010653Y-69392800D01*
X97195850Y-69392923D01*
X97336402Y-69394261D01*
X97438463Y-69398267D01*
X97508188Y-69406393D01*
X97551731Y-69420091D01*
X97575247Y-69440816D01*
X97584889Y-69470018D01*
X97586814Y-69509151D01*
X97586800Y-69528790D01*
X97602388Y-69582242D01*
X97641459Y-69649521D01*
X97659101Y-69672762D01*
X97717748Y-69750068D01*
X97780510Y-69840986D01*
X97802598Y-69875400D01*
X97845848Y-69942164D01*
X97879488Y-69989331D01*
X97891161Y-70002400D01*
X97920955Y-70031739D01*
X97970155Y-70087418D01*
X98029878Y-70158508D01*
X98091238Y-70234081D01*
X98145353Y-70303208D01*
X98183337Y-70354961D01*
X98196400Y-70377883D01*
X98213218Y-70407374D01*
X98255254Y-70455117D01*
X98272601Y-70472300D01*
X98348801Y-70545304D01*
X98348800Y-70125488D01*
X98347207Y-69942702D01*
X98341505Y-69799876D01*
X98330307Y-69686240D01*
X98312228Y-69591029D01*
X98285882Y-69503475D01*
X98260236Y-69437250D01*
X98257006Y-69422171D01*
X98265751Y-69410938D01*
X98292695Y-69402991D01*
X98344062Y-69397767D01*
X98426076Y-69394703D01*
X98544961Y-69393238D01*
X98706940Y-69392810D01*
X98752483Y-69392800D01*
X98907317Y-69393146D01*
X99043278Y-69394112D01*
X99152783Y-69395590D01*
X99228249Y-69397471D01*
X99262092Y-69399645D01*
X99263201Y-69400129D01*
X99538452Y-69400129D01*
X99537970Y-69351125D01*
X99535796Y-69212460D01*
X99533058Y-69101903D01*
X99529693Y-69016211D01*
X99525642Y-68952142D01*
X99520842Y-68906455D01*
X99515232Y-68875907D01*
X99508750Y-68857258D01*
X99502686Y-68848514D01*
X99490222Y-68840334D01*
X99467963Y-68833338D01*
X99432209Y-68827434D01*
X99379259Y-68822533D01*
X99305412Y-68818544D01*
X99206969Y-68815378D01*
X99080227Y-68812944D01*
X98921487Y-68811152D01*
X98727047Y-68809911D01*
X98493207Y-68809133D01*
X98216265Y-68808726D01*
X97892522Y-68808600D01*
X96266000Y-68808600D01*
X96266000Y-68904818D01*
X96245921Y-69020735D01*
X96192875Y-69139400D01*
X96117646Y-69240391D01*
X96065394Y-69284644D01*
X95951854Y-69331770D01*
X95820900Y-69342036D01*
X95686772Y-69318318D01*
X95563710Y-69263489D01*
X95465952Y-69180423D01*
X95450600Y-69160547D01*
X95403594Y-69059828D01*
X95381961Y-68944277D01*
X95370710Y-68808599D01*
X95261370Y-68808600D01*
X95227820Y-68807377D01*
X95198469Y-68805821D01*
X95173037Y-68807099D01*
X95173037Y-68807099D01*
G37*
X95173037Y-68807099D02*
X95151245Y-68814376D01*
X95132814Y-68830820D01*
X95117465Y-68859597D01*
X95104919Y-68903874D01*
X95094895Y-68966818D01*
X95087117Y-69051594D01*
X95081304Y-69161371D01*
X95077177Y-69299314D01*
X95074457Y-69468591D01*
X95072865Y-69672368D01*
X95072123Y-69913811D01*
X95071950Y-70196087D01*
X95072068Y-70522364D01*
X95072197Y-70895807D01*
X95072200Y-70954900D01*
X95072278Y-71330284D01*
X95072551Y-71658111D01*
X95073082Y-71941621D01*
X95073931Y-72184058D01*
X95075160Y-72388661D01*
X95076831Y-72558674D01*
X95079005Y-72697339D01*
X95081743Y-72807896D01*
X95085108Y-72893588D01*
X95089159Y-72957657D01*
X95093959Y-73003344D01*
X95099569Y-73033892D01*
X95106051Y-73052541D01*
X95112115Y-73061285D01*
X95123191Y-73068392D01*
X95143399Y-73074613D01*
X95175910Y-73080006D01*
X95223897Y-73084629D01*
X95290533Y-73088540D01*
X95378990Y-73091796D01*
X95492440Y-73094456D01*
X95634056Y-73096575D01*
X95807010Y-73098213D01*
X96014476Y-73099428D01*
X96259624Y-73100276D01*
X96545629Y-73100815D01*
X96875661Y-73101103D01*
X97252895Y-73101198D01*
X97307401Y-73101200D01*
X97691224Y-73101126D01*
X98027420Y-73100867D01*
X98319161Y-73100365D01*
X98569619Y-73099562D01*
X98781968Y-73098400D01*
X98959379Y-73096822D01*
X99105025Y-73094771D01*
X99222078Y-73092187D01*
X99313712Y-73089015D01*
X99383097Y-73085195D01*
X99433408Y-73080671D01*
X99467816Y-73075385D01*
X99489493Y-73069279D01*
X99501613Y-73062295D01*
X99502686Y-73061285D01*
X99509935Y-73050027D01*
X99516262Y-73029552D01*
X99521728Y-72996619D01*
X99526394Y-72947986D01*
X99530322Y-72880411D01*
X99533574Y-72790652D01*
X99536210Y-72675468D01*
X99538293Y-72531617D01*
X99539883Y-72355856D01*
X99541042Y-72144944D01*
X99541832Y-71895639D01*
X99542314Y-71604700D01*
X99542549Y-71268884D01*
X99542600Y-70954900D01*
X99542523Y-70579515D01*
X99542250Y-70251688D01*
X99541719Y-69968178D01*
X99540870Y-69725741D01*
X99539641Y-69521138D01*
X99538452Y-69400129D01*
X99263201Y-69400129D01*
X99252763Y-69425038D01*
X99226456Y-69479244D01*
X99212401Y-69507099D01*
X99201468Y-69530174D01*
X99192226Y-69555820D01*
X99184533Y-69588259D01*
X99178248Y-69631708D01*
X99173228Y-69690388D01*
X99169332Y-69768517D01*
X99166417Y-69870317D01*
X99164343Y-70000005D01*
X99162966Y-70161801D01*
X99162146Y-70359925D01*
X99161741Y-70598597D01*
X99161609Y-70882035D01*
X99161601Y-71018690D01*
X99161961Y-71282126D01*
X99162998Y-71530437D01*
X99164644Y-71758956D01*
X99166832Y-71963018D01*
X99169497Y-72137958D01*
X99172570Y-72279111D01*
X99175985Y-72381810D01*
X99179676Y-72441391D01*
X99182176Y-72454770D01*
X99206600Y-72494536D01*
X99232432Y-72548750D01*
X99262111Y-72618600D01*
X98735606Y-72618211D01*
X98580433Y-72617249D01*
X98446050Y-72614781D01*
X98339401Y-72611074D01*
X98267430Y-72606392D01*
X98237081Y-72601000D01*
X98237306Y-72599161D01*
X98267255Y-72565226D01*
X98303068Y-72507026D01*
X98307156Y-72499211D01*
X98322082Y-72461921D01*
X98333093Y-72411667D01*
X98340731Y-72340956D01*
X98345534Y-72242298D01*
X98348044Y-72108200D01*
X98348799Y-71931172D01*
X98348800Y-71921361D01*
X98347567Y-71743747D01*
X98344004Y-71601276D01*
X98338322Y-71498127D01*
X98330728Y-71438478D01*
X98323986Y-71424800D01*
X98294486Y-71444170D01*
X98256759Y-71491144D01*
X98254485Y-71494650D01*
X98213907Y-71551668D01*
X98179701Y-71589900D01*
X98149253Y-71627032D01*
X98109317Y-71689366D01*
X98095729Y-71713233D01*
X98053580Y-71780330D01*
X97990873Y-71869120D01*
X97919808Y-71962464D01*
X97905858Y-71979933D01*
X97797739Y-72122744D01*
X97707262Y-72259367D01*
X97639011Y-72381749D01*
X97597569Y-72481840D01*
X97586800Y-72540323D01*
X97586800Y-72618600D01*
X96460345Y-72618600D01*
X96472471Y-72604888D01*
X96316800Y-72604888D01*
X96292701Y-72609157D01*
X96225604Y-72612885D01*
X96123311Y-72615848D01*
X95993622Y-72617826D01*
X95844339Y-72618596D01*
X95834200Y-72618600D01*
X95657433Y-72617808D01*
X95526299Y-72615206D01*
X95435653Y-72610456D01*
X95380350Y-72603218D01*
X95355244Y-72593152D01*
X95352408Y-72586850D01*
X95367362Y-72542954D01*
X95390508Y-72505795D01*
X95399702Y-72487092D01*
X95407298Y-72454595D01*
X95413441Y-72403898D01*
X95418273Y-72330596D01*
X95421936Y-72230283D01*
X95424574Y-72098554D01*
X95426330Y-71931004D01*
X95427347Y-71723227D01*
X95427767Y-71470818D01*
X95427800Y-71356445D01*
X95427800Y-70256400D01*
X96292705Y-70256400D01*
X96253953Y-70331338D01*
X96243922Y-70357215D01*
X96235733Y-70395492D01*
X96229208Y-70451007D01*
X96224174Y-70528597D01*
X96220453Y-70633100D01*
X96217871Y-70769354D01*
X96216252Y-70942197D01*
X96215421Y-71156467D01*
X96215200Y-71399150D01*
X96215314Y-71650840D01*
X96215815Y-71856911D01*
X96216945Y-72022547D01*
X96218945Y-72152927D01*
X96222055Y-72253235D01*
X96226517Y-72328651D01*
X96232571Y-72384357D01*
X96240459Y-72425535D01*
X96250421Y-72457367D01*
X96262699Y-72485035D01*
X96266000Y-72491600D01*
X96296910Y-72555036D01*
X96314920Y-72597510D01*
X96316800Y-72604888D01*
X96472471Y-72604888D01*
X96521923Y-72548970D01*
X96565845Y-72499666D01*
X96594027Y-72468690D01*
X96596200Y-72466420D01*
X96653955Y-72403305D01*
X96725437Y-72319089D01*
X96800503Y-72226465D01*
X96869009Y-72138125D01*
X96920812Y-72066761D01*
X96941024Y-72034947D01*
X96981245Y-71970984D01*
X97044738Y-71879699D01*
X97122596Y-71773080D01*
X97205913Y-71663115D01*
X97285783Y-71561790D01*
X97348127Y-71487007D01*
X97408571Y-71409948D01*
X97465241Y-71326343D01*
X97469422Y-71319450D01*
X97596763Y-71121336D01*
X97692406Y-70990756D01*
X97762364Y-70899612D01*
X97680932Y-70812160D01*
X97610740Y-70733061D01*
X97520685Y-70626292D01*
X97421343Y-70504851D01*
X97323293Y-70381739D01*
X97237111Y-70269955D01*
X97208249Y-70231215D01*
X96903459Y-69851292D01*
X96664121Y-69594187D01*
X96465341Y-69392800D01*
X97010653Y-69392800D01*
X97195850Y-69392923D01*
X97336402Y-69394261D01*
X97438463Y-69398267D01*
X97508188Y-69406393D01*
X97551731Y-69420091D01*
X97575247Y-69440816D01*
X97584889Y-69470018D01*
X97586814Y-69509151D01*
X97586800Y-69528790D01*
X97602388Y-69582242D01*
X97641459Y-69649521D01*
X97659101Y-69672762D01*
X97717748Y-69750068D01*
X97780510Y-69840986D01*
X97802598Y-69875400D01*
X97845848Y-69942164D01*
X97879488Y-69989331D01*
X97891161Y-70002400D01*
X97920955Y-70031739D01*
X97970155Y-70087418D01*
X98029878Y-70158508D01*
X98091238Y-70234081D01*
X98145353Y-70303208D01*
X98183337Y-70354961D01*
X98196400Y-70377883D01*
X98213218Y-70407374D01*
X98255254Y-70455117D01*
X98272601Y-70472300D01*
X98348801Y-70545304D01*
X98348800Y-70125488D01*
X98347207Y-69942702D01*
X98341505Y-69799876D01*
X98330307Y-69686240D01*
X98312228Y-69591029D01*
X98285882Y-69503475D01*
X98260236Y-69437250D01*
X98257006Y-69422171D01*
X98265751Y-69410938D01*
X98292695Y-69402991D01*
X98344062Y-69397767D01*
X98426076Y-69394703D01*
X98544961Y-69393238D01*
X98706940Y-69392810D01*
X98752483Y-69392800D01*
X98907317Y-69393146D01*
X99043278Y-69394112D01*
X99152783Y-69395590D01*
X99228249Y-69397471D01*
X99262092Y-69399645D01*
X99263201Y-69400129D01*
X99538452Y-69400129D01*
X99537970Y-69351125D01*
X99535796Y-69212460D01*
X99533058Y-69101903D01*
X99529693Y-69016211D01*
X99525642Y-68952142D01*
X99520842Y-68906455D01*
X99515232Y-68875907D01*
X99508750Y-68857258D01*
X99502686Y-68848514D01*
X99490222Y-68840334D01*
X99467963Y-68833338D01*
X99432209Y-68827434D01*
X99379259Y-68822533D01*
X99305412Y-68818544D01*
X99206969Y-68815378D01*
X99080227Y-68812944D01*
X98921487Y-68811152D01*
X98727047Y-68809911D01*
X98493207Y-68809133D01*
X98216265Y-68808726D01*
X97892522Y-68808600D01*
X96266000Y-68808600D01*
X96266000Y-68904818D01*
X96245921Y-69020735D01*
X96192875Y-69139400D01*
X96117646Y-69240391D01*
X96065394Y-69284644D01*
X95951854Y-69331770D01*
X95820900Y-69342036D01*
X95686772Y-69318318D01*
X95563710Y-69263489D01*
X95465952Y-69180423D01*
X95450600Y-69160547D01*
X95403594Y-69059828D01*
X95381961Y-68944277D01*
X95370710Y-68808599D01*
X95261370Y-68808600D01*
X95227820Y-68807377D01*
X95198469Y-68805821D01*
X95173037Y-68807099D01*
G36*
X93079724Y-69370741D02*
X93038489Y-69380543D01*
X92967521Y-69403229D01*
X92872227Y-69439363D01*
X92764879Y-69483587D01*
X92657747Y-69530547D01*
X92563102Y-69574887D01*
X92493215Y-69611251D01*
X92462336Y-69631998D01*
X92472026Y-69654982D01*
X92504364Y-69709908D01*
X92552936Y-69787051D01*
X92611326Y-69876688D01*
X92673119Y-69969095D01*
X92731898Y-70054551D01*
X92781248Y-70123330D01*
X92813723Y-70164559D01*
X92842164Y-70162024D01*
X92894319Y-70131735D01*
X92937993Y-70097712D01*
X93083102Y-70005626D01*
X93247913Y-69959959D01*
X93406302Y-69958684D01*
X93577002Y-69999302D01*
X93721141Y-70082527D01*
X93838155Y-70207325D01*
X93927481Y-70372660D01*
X93988557Y-70577497D01*
X94020819Y-70820801D01*
X94023974Y-71094600D01*
X94002533Y-71342226D01*
X93957416Y-71548141D01*
X93886770Y-71716505D01*
X93788743Y-71851480D01*
X93661483Y-71957226D01*
X93631821Y-71975551D01*
X93554627Y-72015815D01*
X93483162Y-72037276D01*
X93395373Y-72045076D01*
X93332300Y-72045409D01*
X93172583Y-72029754D01*
X93033853Y-71981792D01*
X92899775Y-71895013D01*
X92849554Y-71853063D01*
X92795308Y-71808562D01*
X92758986Y-71784625D01*
X92751345Y-71783369D01*
X92729184Y-71816688D01*
X92689902Y-71880733D01*
X92639170Y-71965748D01*
X92582657Y-72061975D01*
X92526034Y-72159657D01*
X92474969Y-72249036D01*
X92435135Y-72320356D01*
X92412199Y-72363860D01*
X92408947Y-72372580D01*
X92434182Y-72385954D01*
X92492056Y-72416653D01*
X92570338Y-72458186D01*
X92574943Y-72460630D01*
X92737253Y-72541012D01*
X92880188Y-72596328D01*
X93022128Y-72631386D01*
X93181453Y-72650993D01*
X93332300Y-72658740D01*
X93525115Y-72659969D01*
X93677150Y-72650513D01*
X93767964Y-72634965D01*
X94000199Y-72550118D01*
X94213241Y-72421118D01*
X94403034Y-72252306D01*
X94565522Y-72048023D01*
X94696648Y-71812609D01*
X94792356Y-71550405D01*
X94796852Y-71534032D01*
X94833150Y-71347426D01*
X94852055Y-71133320D01*
X94853577Y-70909657D01*
X94837731Y-70694382D01*
X94804528Y-70505440D01*
X94796103Y-70473444D01*
X94694339Y-70199835D01*
X94551668Y-69953868D01*
X94370596Y-69739053D01*
X94153630Y-69558895D01*
X94132400Y-69544482D01*
X93954756Y-69451904D01*
X93746702Y-69386148D01*
X93522202Y-69349307D01*
X93295222Y-69343473D01*
X93079724Y-69370741D01*
X93079724Y-69370741D01*
G37*
X93079724Y-69370741D02*
X93038489Y-69380543D01*
X92967521Y-69403229D01*
X92872227Y-69439363D01*
X92764879Y-69483587D01*
X92657747Y-69530547D01*
X92563102Y-69574887D01*
X92493215Y-69611251D01*
X92462336Y-69631998D01*
X92472026Y-69654982D01*
X92504364Y-69709908D01*
X92552936Y-69787051D01*
X92611326Y-69876688D01*
X92673119Y-69969095D01*
X92731898Y-70054551D01*
X92781248Y-70123330D01*
X92813723Y-70164559D01*
X92842164Y-70162024D01*
X92894319Y-70131735D01*
X92937993Y-70097712D01*
X93083102Y-70005626D01*
X93247913Y-69959959D01*
X93406302Y-69958684D01*
X93577002Y-69999302D01*
X93721141Y-70082527D01*
X93838155Y-70207325D01*
X93927481Y-70372660D01*
X93988557Y-70577497D01*
X94020819Y-70820801D01*
X94023974Y-71094600D01*
X94002533Y-71342226D01*
X93957416Y-71548141D01*
X93886770Y-71716505D01*
X93788743Y-71851480D01*
X93661483Y-71957226D01*
X93631821Y-71975551D01*
X93554627Y-72015815D01*
X93483162Y-72037276D01*
X93395373Y-72045076D01*
X93332300Y-72045409D01*
X93172583Y-72029754D01*
X93033853Y-71981792D01*
X92899775Y-71895013D01*
X92849554Y-71853063D01*
X92795308Y-71808562D01*
X92758986Y-71784625D01*
X92751345Y-71783369D01*
X92729184Y-71816688D01*
X92689902Y-71880733D01*
X92639170Y-71965748D01*
X92582657Y-72061975D01*
X92526034Y-72159657D01*
X92474969Y-72249036D01*
X92435135Y-72320356D01*
X92412199Y-72363860D01*
X92408947Y-72372580D01*
X92434182Y-72385954D01*
X92492056Y-72416653D01*
X92570338Y-72458186D01*
X92574943Y-72460630D01*
X92737253Y-72541012D01*
X92880188Y-72596328D01*
X93022128Y-72631386D01*
X93181453Y-72650993D01*
X93332300Y-72658740D01*
X93525115Y-72659969D01*
X93677150Y-72650513D01*
X93767964Y-72634965D01*
X94000199Y-72550118D01*
X94213241Y-72421118D01*
X94403034Y-72252306D01*
X94565522Y-72048023D01*
X94696648Y-71812609D01*
X94792356Y-71550405D01*
X94796852Y-71534032D01*
X94833150Y-71347426D01*
X94852055Y-71133320D01*
X94853577Y-70909657D01*
X94837731Y-70694382D01*
X94804528Y-70505440D01*
X94796103Y-70473444D01*
X94694339Y-70199835D01*
X94551668Y-69953868D01*
X94370596Y-69739053D01*
X94153630Y-69558895D01*
X94132400Y-69544482D01*
X93954756Y-69451904D01*
X93746702Y-69386148D01*
X93522202Y-69349307D01*
X93295222Y-69343473D01*
X93079724Y-69370741D01*
G36*
X90996780Y-70216759D02*
X90820824Y-70256664D01*
X90701887Y-70301295D01*
X90609302Y-70357178D01*
X90526621Y-70430760D01*
X90473483Y-70485588D01*
X90430004Y-70537229D01*
X90395109Y-70591392D01*
X90367724Y-70653787D01*
X90346776Y-70730123D01*
X90331191Y-70826110D01*
X90319896Y-70947458D01*
X90311815Y-71099875D01*
X90305877Y-71289070D01*
X90301006Y-71520755D01*
X90298851Y-71641877D01*
X90294593Y-71873834D01*
X90290470Y-72060451D01*
X90286124Y-72207185D01*
X90281197Y-72319495D01*
X90275332Y-72402837D01*
X90268169Y-72462669D01*
X90259351Y-72504449D01*
X90248520Y-72533634D01*
X90239265Y-72549927D01*
X90194229Y-72618600D01*
X91004982Y-72618600D01*
X91020900Y-72465098D01*
X91120298Y-72532883D01*
X91276454Y-72611654D01*
X91457308Y-72657578D01*
X91647105Y-72668537D01*
X91830091Y-72642411D01*
X91863566Y-72632836D01*
X92049971Y-72550512D01*
X92200880Y-72432985D01*
X92313748Y-72283721D01*
X92386025Y-72106186D01*
X92415165Y-71903843D01*
X92415612Y-71882000D01*
X92414948Y-71852945D01*
X91686693Y-71852945D01*
X91682437Y-71942284D01*
X91672310Y-71972902D01*
X91609621Y-72053489D01*
X91514677Y-72107881D01*
X91401073Y-72131752D01*
X91282404Y-72120778D01*
X91244804Y-72108908D01*
X91157617Y-72067368D01*
X91101976Y-72014766D01*
X91071506Y-71939680D01*
X91059834Y-71830689D01*
X91059000Y-71775972D01*
X91059000Y-71577200D01*
X91224916Y-71577200D01*
X91388653Y-71592224D01*
X91527272Y-71635133D01*
X91622724Y-71695955D01*
X91665331Y-71762698D01*
X91686693Y-71852945D01*
X92414948Y-71852945D01*
X92412997Y-71767673D01*
X92399349Y-71680374D01*
X92369850Y-71596711D01*
X92346518Y-71546615D01*
X92242177Y-71390036D01*
X92097796Y-71264158D01*
X91914031Y-71169278D01*
X91691538Y-71105691D01*
X91430974Y-71073695D01*
X91290606Y-71069641D01*
X91052312Y-71069200D01*
X91066204Y-70965628D01*
X91102138Y-70852360D01*
X91174056Y-70773907D01*
X91280676Y-70730563D01*
X91420713Y-70722623D01*
X91592884Y-70750380D01*
X91769891Y-70804544D01*
X91854349Y-70831813D01*
X91919342Y-70846773D01*
X91951205Y-70846308D01*
X91951538Y-70845989D01*
X91969124Y-70814272D01*
X91999220Y-70748312D01*
X92036498Y-70661145D01*
X92075627Y-70565804D01*
X92111278Y-70475325D01*
X92138120Y-70402740D01*
X92150825Y-70361085D01*
X92151200Y-70357702D01*
X92129410Y-70339017D01*
X92085953Y-70332600D01*
X92034369Y-70326437D01*
X91947550Y-70309824D01*
X91839297Y-70285575D01*
X91762103Y-70266573D01*
X91496304Y-70215760D01*
X91237624Y-70199118D01*
X90996780Y-70216759D01*
X90996780Y-70216759D01*
G37*
X90996780Y-70216759D02*
X90820824Y-70256664D01*
X90701887Y-70301295D01*
X90609302Y-70357178D01*
X90526621Y-70430760D01*
X90473483Y-70485588D01*
X90430004Y-70537229D01*
X90395109Y-70591392D01*
X90367724Y-70653787D01*
X90346776Y-70730123D01*
X90331191Y-70826110D01*
X90319896Y-70947458D01*
X90311815Y-71099875D01*
X90305877Y-71289070D01*
X90301006Y-71520755D01*
X90298851Y-71641877D01*
X90294593Y-71873834D01*
X90290470Y-72060451D01*
X90286124Y-72207185D01*
X90281197Y-72319495D01*
X90275332Y-72402837D01*
X90268169Y-72462669D01*
X90259351Y-72504449D01*
X90248520Y-72533634D01*
X90239265Y-72549927D01*
X90194229Y-72618600D01*
X91004982Y-72618600D01*
X91020900Y-72465098D01*
X91120298Y-72532883D01*
X91276454Y-72611654D01*
X91457308Y-72657578D01*
X91647105Y-72668537D01*
X91830091Y-72642411D01*
X91863566Y-72632836D01*
X92049971Y-72550512D01*
X92200880Y-72432985D01*
X92313748Y-72283721D01*
X92386025Y-72106186D01*
X92415165Y-71903843D01*
X92415612Y-71882000D01*
X92414948Y-71852945D01*
X91686693Y-71852945D01*
X91682437Y-71942284D01*
X91672310Y-71972902D01*
X91609621Y-72053489D01*
X91514677Y-72107881D01*
X91401073Y-72131752D01*
X91282404Y-72120778D01*
X91244804Y-72108908D01*
X91157617Y-72067368D01*
X91101976Y-72014766D01*
X91071506Y-71939680D01*
X91059834Y-71830689D01*
X91059000Y-71775972D01*
X91059000Y-71577200D01*
X91224916Y-71577200D01*
X91388653Y-71592224D01*
X91527272Y-71635133D01*
X91622724Y-71695955D01*
X91665331Y-71762698D01*
X91686693Y-71852945D01*
X92414948Y-71852945D01*
X92412997Y-71767673D01*
X92399349Y-71680374D01*
X92369850Y-71596711D01*
X92346518Y-71546615D01*
X92242177Y-71390036D01*
X92097796Y-71264158D01*
X91914031Y-71169278D01*
X91691538Y-71105691D01*
X91430974Y-71073695D01*
X91290606Y-71069641D01*
X91052312Y-71069200D01*
X91066204Y-70965628D01*
X91102138Y-70852360D01*
X91174056Y-70773907D01*
X91280676Y-70730563D01*
X91420713Y-70722623D01*
X91592884Y-70750380D01*
X91769891Y-70804544D01*
X91854349Y-70831813D01*
X91919342Y-70846773D01*
X91951205Y-70846308D01*
X91951538Y-70845989D01*
X91969124Y-70814272D01*
X91999220Y-70748312D01*
X92036498Y-70661145D01*
X92075627Y-70565804D01*
X92111278Y-70475325D01*
X92138120Y-70402740D01*
X92150825Y-70361085D01*
X92151200Y-70357702D01*
X92129410Y-70339017D01*
X92085953Y-70332600D01*
X92034369Y-70326437D01*
X91947550Y-70309824D01*
X91839297Y-70285575D01*
X91762103Y-70266573D01*
X91496304Y-70215760D01*
X91237624Y-70199118D01*
X90996780Y-70216759D01*
G36*
X87776936Y-70821550D02*
X87775394Y-71151452D01*
X87773834Y-71434381D01*
X87772139Y-71674161D01*
X87770192Y-71874619D01*
X87767877Y-72039581D01*
X87765078Y-72172872D01*
X87761676Y-72278318D01*
X87757556Y-72359745D01*
X87752601Y-72420980D01*
X87746693Y-72465847D01*
X87739717Y-72498174D01*
X87731555Y-72521785D01*
X87724598Y-72536050D01*
X87679496Y-72618600D01*
X88493600Y-72618600D01*
X88493600Y-72542400D01*
X88496959Y-72488852D01*
X88505049Y-72466204D01*
X88505173Y-72466200D01*
X88531291Y-72479184D01*
X88583674Y-72511937D01*
X88610497Y-72529821D01*
X88742797Y-72597047D01*
X88902463Y-72643989D01*
X89071378Y-72667738D01*
X89231423Y-72665384D01*
X89331800Y-72645647D01*
X89515862Y-72564339D01*
X89680990Y-72442600D01*
X89815883Y-72289910D01*
X89877245Y-72188094D01*
X89944669Y-72030429D01*
X89988545Y-71864351D01*
X90011686Y-71675803D01*
X90017159Y-71489313D01*
X90016398Y-71475600D01*
X89216264Y-71475600D01*
X89211766Y-71651295D01*
X89198151Y-71784814D01*
X89172923Y-71884349D01*
X89133588Y-71958091D01*
X89077649Y-72014231D01*
X89045384Y-72036570D01*
X88938979Y-72074564D01*
X88813256Y-72071576D01*
X88678197Y-72028128D01*
X88653901Y-72016173D01*
X88557100Y-71965957D01*
X88550258Y-71416887D01*
X88543415Y-70867816D01*
X88610509Y-70823854D01*
X88674040Y-70797107D01*
X88763732Y-70776444D01*
X88821767Y-70769465D01*
X88910145Y-70766370D01*
X88969109Y-70776495D01*
X89019415Y-70805083D01*
X89045473Y-70825968D01*
X89112817Y-70899567D01*
X89161736Y-70995137D01*
X89194059Y-71119634D01*
X89211613Y-71280011D01*
X89216264Y-71475600D01*
X90016398Y-71475600D01*
X90000725Y-71193365D01*
X89952858Y-70933534D01*
X89874229Y-70710909D01*
X89765511Y-70526580D01*
X89627375Y-70381637D01*
X89460494Y-70277168D01*
X89265540Y-70214264D01*
X89226230Y-70207235D01*
X89110697Y-70198975D01*
X88983337Y-70205829D01*
X88856739Y-70225252D01*
X88743488Y-70254699D01*
X88656172Y-70291625D01*
X88608138Y-70332215D01*
X88587273Y-70356682D01*
X88571230Y-70351592D01*
X88559475Y-70313057D01*
X88551476Y-70237188D01*
X88546698Y-70120101D01*
X88544607Y-69957906D01*
X88544400Y-69868070D01*
X88544923Y-69693973D01*
X88546931Y-69562617D01*
X88551089Y-69465950D01*
X88558057Y-69395919D01*
X88568499Y-69344473D01*
X88583078Y-69303558D01*
X88592462Y-69283870D01*
X88640524Y-69189600D01*
X87784172Y-69189600D01*
X87776936Y-70821550D01*
X87776936Y-70821550D01*
G37*
X87776936Y-70821550D02*
X87775394Y-71151452D01*
X87773834Y-71434381D01*
X87772139Y-71674161D01*
X87770192Y-71874619D01*
X87767877Y-72039581D01*
X87765078Y-72172872D01*
X87761676Y-72278318D01*
X87757556Y-72359745D01*
X87752601Y-72420980D01*
X87746693Y-72465847D01*
X87739717Y-72498174D01*
X87731555Y-72521785D01*
X87724598Y-72536050D01*
X87679496Y-72618600D01*
X88493600Y-72618600D01*
X88493600Y-72542400D01*
X88496959Y-72488852D01*
X88505049Y-72466204D01*
X88505173Y-72466200D01*
X88531291Y-72479184D01*
X88583674Y-72511937D01*
X88610497Y-72529821D01*
X88742797Y-72597047D01*
X88902463Y-72643989D01*
X89071378Y-72667738D01*
X89231423Y-72665384D01*
X89331800Y-72645647D01*
X89515862Y-72564339D01*
X89680990Y-72442600D01*
X89815883Y-72289910D01*
X89877245Y-72188094D01*
X89944669Y-72030429D01*
X89988545Y-71864351D01*
X90011686Y-71675803D01*
X90017159Y-71489313D01*
X90016398Y-71475600D01*
X89216264Y-71475600D01*
X89211766Y-71651295D01*
X89198151Y-71784814D01*
X89172923Y-71884349D01*
X89133588Y-71958091D01*
X89077649Y-72014231D01*
X89045384Y-72036570D01*
X88938979Y-72074564D01*
X88813256Y-72071576D01*
X88678197Y-72028128D01*
X88653901Y-72016173D01*
X88557100Y-71965957D01*
X88550258Y-71416887D01*
X88543415Y-70867816D01*
X88610509Y-70823854D01*
X88674040Y-70797107D01*
X88763732Y-70776444D01*
X88821767Y-70769465D01*
X88910145Y-70766370D01*
X88969109Y-70776495D01*
X89019415Y-70805083D01*
X89045473Y-70825968D01*
X89112817Y-70899567D01*
X89161736Y-70995137D01*
X89194059Y-71119634D01*
X89211613Y-71280011D01*
X89216264Y-71475600D01*
X90016398Y-71475600D01*
X90000725Y-71193365D01*
X89952858Y-70933534D01*
X89874229Y-70710909D01*
X89765511Y-70526580D01*
X89627375Y-70381637D01*
X89460494Y-70277168D01*
X89265540Y-70214264D01*
X89226230Y-70207235D01*
X89110697Y-70198975D01*
X88983337Y-70205829D01*
X88856739Y-70225252D01*
X88743488Y-70254699D01*
X88656172Y-70291625D01*
X88608138Y-70332215D01*
X88587273Y-70356682D01*
X88571230Y-70351592D01*
X88559475Y-70313057D01*
X88551476Y-70237188D01*
X88546698Y-70120101D01*
X88544607Y-69957906D01*
X88544400Y-69868070D01*
X88544923Y-69693973D01*
X88546931Y-69562617D01*
X88551089Y-69465950D01*
X88558057Y-69395919D01*
X88568499Y-69344473D01*
X88583078Y-69303558D01*
X88592462Y-69283870D01*
X88640524Y-69189600D01*
X87784172Y-69189600D01*
X87776936Y-70821550D01*
M02*
