%FSLAX45Y45*%
G04 Gerber Fmt 4.5, Leading zero omitted, Abs format (unit mm)*
G04 Created by KiCad (PCBNEW (2017-01-09 revision c2fb336)-makepkg) date 04/23/17 15:55:25*
%MOMM*%
%LPD*%
G01*
G04 APERTURE LIST*
%ADD10C,0.127000*%
%ADD11C,0.150000*%
%ADD12C,0.200000*%
%ADD13C,0.300000*%
G04 APERTURE END LIST*
D10*
D11*
X10033000Y-6540500D02*
X5219700Y-6540500D01*
X10033000Y-9969500D02*
X10033000Y-6540500D01*
X5219700Y-9969500D02*
X10033000Y-9969500D01*
X5219700Y-6540500D02*
X5219700Y-9969500D01*
D12*
X9007160Y-7340920D02*
X9047160Y-7380920D01*
X9047160Y-7340920D02*
X9007160Y-7380920D01*
X6724250Y-7670800D02*
G75*
G03X6724250Y-7670800I-25000J0D01*
G01*
X6921100Y-8191500D02*
G75*
G03X6921100Y-8191500I-25000J0D01*
G01*
X7022700Y-6642100D02*
G75*
G03X7022700Y-6642100I-25000J0D01*
G01*
X7022700Y-6750050D02*
G75*
G03X7022700Y-6750050I-25000J0D01*
G01*
X7022700Y-7086600D02*
G75*
G03X7022700Y-7086600I-25000J0D01*
G01*
X7022700Y-7194550D02*
G75*
G03X7022700Y-7194550I-25000J0D01*
G01*
X7073500Y-8191500D02*
G75*
G03X7073500Y-8191500I-25000J0D01*
G01*
X7200000Y-6838950D02*
G75*
G03X7200000Y-6838950I-25000J0D01*
G01*
X7200000Y-6940550D02*
G75*
G03X7200000Y-6940550I-25000J0D01*
G01*
X7378300Y-7201500D02*
G75*
G03X7378300Y-7201500I-25000J0D01*
G01*
X7454500Y-8223250D02*
G75*
G03X7454500Y-8223250I-25000J0D01*
G01*
X7499470Y-7931630D02*
G75*
G03X7499470Y-7931630I-25000J0D01*
G01*
X7645000Y-8782050D02*
G75*
G03X7645000Y-8782050I-25000J0D01*
G01*
X7835500Y-7994650D02*
G75*
G03X7835500Y-7994650I-25000J0D01*
G01*
X7841850Y-8128000D02*
G75*
G03X7841850Y-8128000I-25000J0D01*
G01*
X8090000Y-6838950D02*
G75*
G03X8090000Y-6838950I-25000J0D01*
G01*
X8090000Y-6940550D02*
G75*
G03X8090000Y-6940550I-25000J0D01*
G01*
X8267300Y-6642100D02*
G75*
G03X8267300Y-6642100I-25000J0D01*
G01*
X8267300Y-6750050D02*
G75*
G03X8267300Y-6750050I-25000J0D01*
G01*
X8267300Y-7086600D02*
G75*
G03X8267300Y-7086600I-25000J0D01*
G01*
X8267300Y-7194550D02*
G75*
G03X8267300Y-7194550I-25000J0D01*
G01*
X8635600Y-8827353D02*
G75*
G03X8635600Y-8827353I-25000J0D01*
G01*
X8813400Y-6769100D02*
G75*
G03X8813400Y-6769100I-25000J0D01*
G01*
X9486500Y-6769100D02*
G75*
G03X9486500Y-6769100I-25000J0D01*
G01*
X6527800Y-8586000D02*
X6527800Y-8686000D01*
X6477800Y-8636000D02*
X6577800Y-8636000D01*
X6527800Y-8840000D02*
X6527800Y-8940000D01*
X6477800Y-8890000D02*
X6577800Y-8890000D01*
X6527800Y-9094000D02*
X6527800Y-9194000D01*
X6477800Y-9144000D02*
X6577800Y-9144000D01*
X6527800Y-9640100D02*
X6527800Y-9740100D01*
X6477800Y-9690100D02*
X6577800Y-9690100D01*
X6781800Y-9640100D02*
X6781800Y-9740100D01*
X6731800Y-9690100D02*
X6831800Y-9690100D01*
X7035800Y-9640100D02*
X7035800Y-9740100D01*
X6985800Y-9690100D02*
X7085800Y-9690100D01*
X7683500Y-9640100D02*
X7683500Y-9740100D01*
X7633500Y-9690100D02*
X7733500Y-9690100D01*
X7937500Y-9640100D02*
X7937500Y-9740100D01*
X7887500Y-9690100D02*
X7987500Y-9690100D01*
X8432800Y-7951000D02*
X8432800Y-8051000D01*
X8382800Y-8001000D02*
X8482800Y-8001000D01*
X8432800Y-8205000D02*
X8432800Y-8305000D01*
X8382800Y-8255000D02*
X8482800Y-8255000D01*
X8432800Y-8459000D02*
X8432800Y-8559000D01*
X8382800Y-8509000D02*
X8482800Y-8509000D01*
X8432800Y-9386100D02*
X8432800Y-9486100D01*
X8382800Y-9436100D02*
X8482800Y-9436100D01*
X8686800Y-7951000D02*
X8686800Y-8051000D01*
X8636800Y-8001000D02*
X8736800Y-8001000D01*
X8686800Y-8205000D02*
X8686800Y-8305000D01*
X8636800Y-8255000D02*
X8736800Y-8255000D01*
X8686800Y-8459000D02*
X8686800Y-8559000D01*
X8636800Y-8509000D02*
X8736800Y-8509000D01*
X8686800Y-9132100D02*
X8686800Y-9232100D01*
X8636800Y-9182100D02*
X8736800Y-9182100D01*
X8686800Y-9386100D02*
X8686800Y-9486100D01*
X8636800Y-9436100D02*
X8736800Y-9436100D01*
X8686800Y-9640100D02*
X8686800Y-9740100D01*
X8636800Y-9690100D02*
X8736800Y-9690100D01*
X9131300Y-9640100D02*
X9131300Y-9740100D01*
X9081300Y-9690100D02*
X9181300Y-9690100D01*
X9385300Y-9640100D02*
X9385300Y-9740100D01*
X9335300Y-9690100D02*
X9435300Y-9690100D01*
X9639300Y-9640100D02*
X9639300Y-9740100D01*
X9589300Y-9690100D02*
X9689300Y-9690100D01*
X5649321Y-7147921D02*
X5649321Y-7076079D01*
X5577479Y-7076079D01*
X5577479Y-7147921D01*
X5649321Y-7147921D01*
X5649321Y-7401921D02*
X5649321Y-7330079D01*
X5577479Y-7330079D01*
X5577479Y-7401921D01*
X5649321Y-7401921D01*
X5649321Y-7655921D02*
X5649321Y-7584079D01*
X5577479Y-7584079D01*
X5577479Y-7655921D01*
X5649321Y-7655921D01*
X5649321Y-7909921D02*
X5649321Y-7838079D01*
X5577479Y-7838079D01*
X5577479Y-7909921D01*
X5649321Y-7909921D01*
X5649321Y-8163921D02*
X5649321Y-8092079D01*
X5577479Y-8092079D01*
X5577479Y-8163921D01*
X5649321Y-8163921D01*
X5649321Y-8417921D02*
X5649321Y-8346079D01*
X5577479Y-8346079D01*
X5577479Y-8417921D01*
X5649321Y-8417921D01*
X5649321Y-8671921D02*
X5649321Y-8600079D01*
X5577479Y-8600079D01*
X5577479Y-8671921D01*
X5649321Y-8671921D01*
X5649321Y-8925921D02*
X5649321Y-8854079D01*
X5577479Y-8854079D01*
X5577479Y-8925921D01*
X5649321Y-8925921D01*
X5649321Y-9179921D02*
X5649321Y-9108079D01*
X5577479Y-9108079D01*
X5577479Y-9179921D01*
X5649321Y-9179921D01*
X5649321Y-9433921D02*
X5649321Y-9362079D01*
X5577479Y-9362079D01*
X5577479Y-9433921D01*
X5649321Y-9433921D01*
X5903321Y-7147921D02*
X5903321Y-7076079D01*
X5831479Y-7076079D01*
X5831479Y-7147921D01*
X5903321Y-7147921D01*
X5903321Y-7401921D02*
X5903321Y-7330079D01*
X5831479Y-7330079D01*
X5831479Y-7401921D01*
X5903321Y-7401921D01*
X5903321Y-7655921D02*
X5903321Y-7584079D01*
X5831479Y-7584079D01*
X5831479Y-7655921D01*
X5903321Y-7655921D01*
X5903321Y-7909921D02*
X5903321Y-7838079D01*
X5831479Y-7838079D01*
X5831479Y-7909921D01*
X5903321Y-7909921D01*
X5903321Y-8163921D02*
X5903321Y-8092079D01*
X5831479Y-8092079D01*
X5831479Y-8163921D01*
X5903321Y-8163921D01*
X5903321Y-8417921D02*
X5903321Y-8346079D01*
X5831479Y-8346079D01*
X5831479Y-8417921D01*
X5903321Y-8417921D01*
X5903321Y-8671921D02*
X5903321Y-8600079D01*
X5831479Y-8600079D01*
X5831479Y-8671921D01*
X5903321Y-8671921D01*
X5903321Y-8925921D02*
X5903321Y-8854079D01*
X5831479Y-8854079D01*
X5831479Y-8925921D01*
X5903321Y-8925921D01*
X5903321Y-9179921D02*
X5903321Y-9108079D01*
X5831479Y-9108079D01*
X5831479Y-9179921D01*
X5903321Y-9179921D01*
X5903321Y-9433921D02*
X5903321Y-9362079D01*
X5831479Y-9362079D01*
X5831479Y-9433921D01*
X5903321Y-9433921D01*
X9421221Y-7782921D02*
X9421221Y-7711079D01*
X9349379Y-7711079D01*
X9349379Y-7782921D01*
X9421221Y-7782921D01*
X9421221Y-8036921D02*
X9421221Y-7965079D01*
X9349379Y-7965079D01*
X9349379Y-8036921D01*
X9421221Y-8036921D01*
X9421221Y-8290921D02*
X9421221Y-8219079D01*
X9349379Y-8219079D01*
X9349379Y-8290921D01*
X9421221Y-8290921D01*
X9421221Y-8544921D02*
X9421221Y-8473079D01*
X9349379Y-8473079D01*
X9349379Y-8544921D01*
X9421221Y-8544921D01*
X9421221Y-8798921D02*
X9421221Y-8727079D01*
X9349379Y-8727079D01*
X9349379Y-8798921D01*
X9421221Y-8798921D01*
X9675221Y-7782921D02*
X9675221Y-7711079D01*
X9603379Y-7711079D01*
X9603379Y-7782921D01*
X9675221Y-7782921D01*
X9675221Y-8036921D02*
X9675221Y-7965079D01*
X9603379Y-7965079D01*
X9603379Y-8036921D01*
X9675221Y-8036921D01*
X9675221Y-8290921D02*
X9675221Y-8219079D01*
X9603379Y-8219079D01*
X9603379Y-8290921D01*
X9675221Y-8290921D01*
X9675221Y-8544921D02*
X9675221Y-8473079D01*
X9603379Y-8473079D01*
X9603379Y-8544921D01*
X9675221Y-8544921D01*
X9675221Y-8798921D02*
X9675221Y-8727079D01*
X9603379Y-8727079D01*
X9603379Y-8798921D01*
X9675221Y-8798921D01*
X7400000Y-6986500D02*
X7445000Y-6941500D01*
X7400000Y-6896500D01*
X7355000Y-6941500D01*
X7400000Y-6986500D01*
X7840000Y-6986500D02*
X7885000Y-6941500D01*
X7840000Y-6896500D01*
X7795000Y-6941500D01*
X7840000Y-6986500D01*
D13*
X5498628Y-10442714D02*
X5498628Y-10142714D01*
X5570057Y-10142714D01*
X5612914Y-10157000D01*
X5641486Y-10185572D01*
X5655771Y-10214143D01*
X5670057Y-10271286D01*
X5670057Y-10314143D01*
X5655771Y-10371286D01*
X5641486Y-10399857D01*
X5612914Y-10428429D01*
X5570057Y-10442714D01*
X5498628Y-10442714D01*
X5798628Y-10442714D02*
X5798628Y-10242714D01*
X5798628Y-10299857D02*
X5812914Y-10271286D01*
X5827200Y-10257000D01*
X5855771Y-10242714D01*
X5884343Y-10242714D01*
X5984343Y-10442714D02*
X5984343Y-10242714D01*
X5984343Y-10142714D02*
X5970057Y-10157000D01*
X5984343Y-10171286D01*
X5998628Y-10157000D01*
X5984343Y-10142714D01*
X5984343Y-10171286D01*
X6170057Y-10442714D02*
X6141486Y-10428429D01*
X6127200Y-10399857D01*
X6127200Y-10142714D01*
X6327200Y-10442714D02*
X6298628Y-10428429D01*
X6284343Y-10399857D01*
X6284343Y-10142714D01*
X6670057Y-10442714D02*
X6670057Y-10142714D01*
X6770057Y-10357000D01*
X6870057Y-10142714D01*
X6870057Y-10442714D01*
X7141486Y-10442714D02*
X7141486Y-10285572D01*
X7127200Y-10257000D01*
X7098628Y-10242714D01*
X7041486Y-10242714D01*
X7012914Y-10257000D01*
X7141486Y-10428429D02*
X7112914Y-10442714D01*
X7041486Y-10442714D01*
X7012914Y-10428429D01*
X6998628Y-10399857D01*
X6998628Y-10371286D01*
X7012914Y-10342714D01*
X7041486Y-10328429D01*
X7112914Y-10328429D01*
X7141486Y-10314143D01*
X7284343Y-10242714D02*
X7284343Y-10542714D01*
X7284343Y-10257000D02*
X7312914Y-10242714D01*
X7370057Y-10242714D01*
X7398628Y-10257000D01*
X7412914Y-10271286D01*
X7427200Y-10299857D01*
X7427200Y-10385572D01*
X7412914Y-10414143D01*
X7398628Y-10428429D01*
X7370057Y-10442714D01*
X7312914Y-10442714D01*
X7284343Y-10428429D01*
X7555771Y-10414143D02*
X7570057Y-10428429D01*
X7555771Y-10442714D01*
X7541486Y-10428429D01*
X7555771Y-10414143D01*
X7555771Y-10442714D01*
X7555771Y-10257000D02*
X7570057Y-10271286D01*
X7555771Y-10285572D01*
X7541486Y-10271286D01*
X7555771Y-10257000D01*
X7555771Y-10285572D01*
X5172200Y-10917000D02*
X5212200Y-10957000D01*
X5212200Y-10917000D02*
X5172200Y-10957000D01*
X5555771Y-10772714D02*
X5584343Y-10772714D01*
X5612914Y-10787000D01*
X5627200Y-10801286D01*
X5641486Y-10829857D01*
X5655771Y-10887000D01*
X5655771Y-10958429D01*
X5641486Y-11015572D01*
X5627200Y-11044143D01*
X5612914Y-11058429D01*
X5584343Y-11072714D01*
X5555771Y-11072714D01*
X5527200Y-11058429D01*
X5512914Y-11044143D01*
X5498628Y-11015572D01*
X5484343Y-10958429D01*
X5484343Y-10887000D01*
X5498628Y-10829857D01*
X5512914Y-10801286D01*
X5527200Y-10787000D01*
X5555771Y-10772714D01*
X5784343Y-11044143D02*
X5798628Y-11058429D01*
X5784343Y-11072714D01*
X5770057Y-11058429D01*
X5784343Y-11044143D01*
X5784343Y-11072714D01*
X6055771Y-10872714D02*
X6055771Y-11072714D01*
X5984343Y-10758429D02*
X5912914Y-10972714D01*
X6098628Y-10972714D01*
X6270057Y-10772714D02*
X6298628Y-10772714D01*
X6327200Y-10787000D01*
X6341486Y-10801286D01*
X6355771Y-10829857D01*
X6370057Y-10887000D01*
X6370057Y-10958429D01*
X6355771Y-11015572D01*
X6341486Y-11044143D01*
X6327200Y-11058429D01*
X6298628Y-11072714D01*
X6270057Y-11072714D01*
X6241486Y-11058429D01*
X6227200Y-11044143D01*
X6212914Y-11015572D01*
X6198628Y-10958429D01*
X6198628Y-10887000D01*
X6212914Y-10829857D01*
X6227200Y-10801286D01*
X6241486Y-10787000D01*
X6270057Y-10772714D01*
X6498628Y-11072714D02*
X6498628Y-10872714D01*
X6498628Y-10901286D02*
X6512914Y-10887000D01*
X6541486Y-10872714D01*
X6584343Y-10872714D01*
X6612914Y-10887000D01*
X6627200Y-10915572D01*
X6627200Y-11072714D01*
X6627200Y-10915572D02*
X6641486Y-10887000D01*
X6670057Y-10872714D01*
X6712914Y-10872714D01*
X6741486Y-10887000D01*
X6755771Y-10915572D01*
X6755771Y-11072714D01*
X6898628Y-11072714D02*
X6898628Y-10872714D01*
X6898628Y-10901286D02*
X6912914Y-10887000D01*
X6941486Y-10872714D01*
X6984343Y-10872714D01*
X7012914Y-10887000D01*
X7027200Y-10915572D01*
X7027200Y-11072714D01*
X7027200Y-10915572D02*
X7041486Y-10887000D01*
X7070057Y-10872714D01*
X7112914Y-10872714D01*
X7141486Y-10887000D01*
X7155771Y-10915572D01*
X7155771Y-11072714D01*
X7741486Y-10758429D02*
X7484343Y-11144143D01*
X8127200Y-10772714D02*
X8155771Y-10772714D01*
X8184343Y-10787000D01*
X8198628Y-10801286D01*
X8212914Y-10829857D01*
X8227200Y-10887000D01*
X8227200Y-10958429D01*
X8212914Y-11015572D01*
X8198628Y-11044143D01*
X8184343Y-11058429D01*
X8155771Y-11072714D01*
X8127200Y-11072714D01*
X8098628Y-11058429D01*
X8084343Y-11044143D01*
X8070057Y-11015572D01*
X8055771Y-10958429D01*
X8055771Y-10887000D01*
X8070057Y-10829857D01*
X8084343Y-10801286D01*
X8098628Y-10787000D01*
X8127200Y-10772714D01*
X8355771Y-11044143D02*
X8370057Y-11058429D01*
X8355771Y-11072714D01*
X8341486Y-11058429D01*
X8355771Y-11044143D01*
X8355771Y-11072714D01*
X8555771Y-10772714D02*
X8584343Y-10772714D01*
X8612914Y-10787000D01*
X8627200Y-10801286D01*
X8641486Y-10829857D01*
X8655771Y-10887000D01*
X8655771Y-10958429D01*
X8641486Y-11015572D01*
X8627200Y-11044143D01*
X8612914Y-11058429D01*
X8584343Y-11072714D01*
X8555771Y-11072714D01*
X8527200Y-11058429D01*
X8512914Y-11044143D01*
X8498628Y-11015572D01*
X8484343Y-10958429D01*
X8484343Y-10887000D01*
X8498628Y-10829857D01*
X8512914Y-10801286D01*
X8527200Y-10787000D01*
X8555771Y-10772714D01*
X8941486Y-11072714D02*
X8770057Y-11072714D01*
X8855771Y-11072714D02*
X8855771Y-10772714D01*
X8827200Y-10815572D01*
X8798628Y-10844143D01*
X8770057Y-10858429D01*
X9198628Y-10772714D02*
X9141486Y-10772714D01*
X9112914Y-10787000D01*
X9098628Y-10801286D01*
X9070057Y-10844143D01*
X9055771Y-10901286D01*
X9055771Y-11015572D01*
X9070057Y-11044143D01*
X9084343Y-11058429D01*
X9112914Y-11072714D01*
X9170057Y-11072714D01*
X9198628Y-11058429D01*
X9212914Y-11044143D01*
X9227200Y-11015572D01*
X9227200Y-10944143D01*
X9212914Y-10915572D01*
X9198628Y-10901286D01*
X9170057Y-10887000D01*
X9112914Y-10887000D01*
X9084343Y-10901286D01*
X9070057Y-10915572D01*
X9055771Y-10944143D01*
X9341486Y-10772714D02*
X9341486Y-10829857D01*
X9455771Y-10772714D02*
X9455771Y-10829857D01*
X9898628Y-11187000D02*
X9884343Y-11172714D01*
X9855771Y-11129857D01*
X9841486Y-11101286D01*
X9827200Y-11058429D01*
X9812914Y-10987000D01*
X9812914Y-10929857D01*
X9827200Y-10858429D01*
X9841486Y-10815572D01*
X9855771Y-10787000D01*
X9884343Y-10744143D01*
X9898628Y-10729857D01*
X10170057Y-11072714D02*
X9998628Y-11072714D01*
X10084343Y-11072714D02*
X10084343Y-10772714D01*
X10055771Y-10815572D01*
X10027200Y-10844143D01*
X9998628Y-10858429D01*
X10527200Y-11072714D02*
X10527200Y-10772714D01*
X10655771Y-11072714D02*
X10655771Y-10915572D01*
X10641486Y-10887000D01*
X10612914Y-10872714D01*
X10570057Y-10872714D01*
X10541486Y-10887000D01*
X10527200Y-10901286D01*
X10841486Y-11072714D02*
X10812914Y-11058429D01*
X10798628Y-11044143D01*
X10784343Y-11015572D01*
X10784343Y-10929857D01*
X10798628Y-10901286D01*
X10812914Y-10887000D01*
X10841486Y-10872714D01*
X10884343Y-10872714D01*
X10912914Y-10887000D01*
X10927200Y-10901286D01*
X10941486Y-10929857D01*
X10941486Y-11015572D01*
X10927200Y-11044143D01*
X10912914Y-11058429D01*
X10884343Y-11072714D01*
X10841486Y-11072714D01*
X11112914Y-11072714D02*
X11084343Y-11058429D01*
X11070057Y-11029857D01*
X11070057Y-10772714D01*
X11341486Y-11058429D02*
X11312914Y-11072714D01*
X11255771Y-11072714D01*
X11227200Y-11058429D01*
X11212914Y-11029857D01*
X11212914Y-10915572D01*
X11227200Y-10887000D01*
X11255771Y-10872714D01*
X11312914Y-10872714D01*
X11341486Y-10887000D01*
X11355771Y-10915572D01*
X11355771Y-10944143D01*
X11212914Y-10972714D01*
X11455771Y-11187000D02*
X11470057Y-11172714D01*
X11498628Y-11129857D01*
X11512914Y-11101286D01*
X11527200Y-11058429D01*
X11541486Y-10987000D01*
X11541486Y-10929857D01*
X11527200Y-10858429D01*
X11512914Y-10815572D01*
X11498628Y-10787000D01*
X11470057Y-10744143D01*
X11455771Y-10729857D01*
X5212200Y-11333000D02*
G75*
G03X5212200Y-11333000I-25000J0D01*
G01*
X5555771Y-11168714D02*
X5584343Y-11168714D01*
X5612914Y-11183000D01*
X5627200Y-11197286D01*
X5641486Y-11225857D01*
X5655771Y-11283000D01*
X5655771Y-11354429D01*
X5641486Y-11411571D01*
X5627200Y-11440143D01*
X5612914Y-11454429D01*
X5584343Y-11468714D01*
X5555771Y-11468714D01*
X5527200Y-11454429D01*
X5512914Y-11440143D01*
X5498628Y-11411571D01*
X5484343Y-11354429D01*
X5484343Y-11283000D01*
X5498628Y-11225857D01*
X5512914Y-11197286D01*
X5527200Y-11183000D01*
X5555771Y-11168714D01*
X5784343Y-11440143D02*
X5798628Y-11454429D01*
X5784343Y-11468714D01*
X5770057Y-11454429D01*
X5784343Y-11440143D01*
X5784343Y-11468714D01*
X6070057Y-11168714D02*
X5927200Y-11168714D01*
X5912914Y-11311571D01*
X5927200Y-11297286D01*
X5955771Y-11283000D01*
X6027200Y-11283000D01*
X6055771Y-11297286D01*
X6070057Y-11311571D01*
X6084343Y-11340143D01*
X6084343Y-11411571D01*
X6070057Y-11440143D01*
X6055771Y-11454429D01*
X6027200Y-11468714D01*
X5955771Y-11468714D01*
X5927200Y-11454429D01*
X5912914Y-11440143D01*
X6270057Y-11168714D02*
X6298628Y-11168714D01*
X6327200Y-11183000D01*
X6341486Y-11197286D01*
X6355771Y-11225857D01*
X6370057Y-11283000D01*
X6370057Y-11354429D01*
X6355771Y-11411571D01*
X6341486Y-11440143D01*
X6327200Y-11454429D01*
X6298628Y-11468714D01*
X6270057Y-11468714D01*
X6241486Y-11454429D01*
X6227200Y-11440143D01*
X6212914Y-11411571D01*
X6198628Y-11354429D01*
X6198628Y-11283000D01*
X6212914Y-11225857D01*
X6227200Y-11197286D01*
X6241486Y-11183000D01*
X6270057Y-11168714D01*
X6498628Y-11468714D02*
X6498628Y-11268714D01*
X6498628Y-11297286D02*
X6512914Y-11283000D01*
X6541486Y-11268714D01*
X6584343Y-11268714D01*
X6612914Y-11283000D01*
X6627200Y-11311571D01*
X6627200Y-11468714D01*
X6627200Y-11311571D02*
X6641486Y-11283000D01*
X6670057Y-11268714D01*
X6712914Y-11268714D01*
X6741486Y-11283000D01*
X6755771Y-11311571D01*
X6755771Y-11468714D01*
X6898628Y-11468714D02*
X6898628Y-11268714D01*
X6898628Y-11297286D02*
X6912914Y-11283000D01*
X6941486Y-11268714D01*
X6984343Y-11268714D01*
X7012914Y-11283000D01*
X7027200Y-11311571D01*
X7027200Y-11468714D01*
X7027200Y-11311571D02*
X7041486Y-11283000D01*
X7070057Y-11268714D01*
X7112914Y-11268714D01*
X7141486Y-11283000D01*
X7155771Y-11311571D01*
X7155771Y-11468714D01*
X7741486Y-11154429D02*
X7484343Y-11540143D01*
X8127200Y-11168714D02*
X8155771Y-11168714D01*
X8184343Y-11183000D01*
X8198628Y-11197286D01*
X8212914Y-11225857D01*
X8227200Y-11283000D01*
X8227200Y-11354429D01*
X8212914Y-11411571D01*
X8198628Y-11440143D01*
X8184343Y-11454429D01*
X8155771Y-11468714D01*
X8127200Y-11468714D01*
X8098628Y-11454429D01*
X8084343Y-11440143D01*
X8070057Y-11411571D01*
X8055771Y-11354429D01*
X8055771Y-11283000D01*
X8070057Y-11225857D01*
X8084343Y-11197286D01*
X8098628Y-11183000D01*
X8127200Y-11168714D01*
X8355771Y-11440143D02*
X8370057Y-11454429D01*
X8355771Y-11468714D01*
X8341486Y-11454429D01*
X8355771Y-11440143D01*
X8355771Y-11468714D01*
X8555771Y-11168714D02*
X8584343Y-11168714D01*
X8612914Y-11183000D01*
X8627200Y-11197286D01*
X8641486Y-11225857D01*
X8655771Y-11283000D01*
X8655771Y-11354429D01*
X8641486Y-11411571D01*
X8627200Y-11440143D01*
X8612914Y-11454429D01*
X8584343Y-11468714D01*
X8555771Y-11468714D01*
X8527200Y-11454429D01*
X8512914Y-11440143D01*
X8498628Y-11411571D01*
X8484343Y-11354429D01*
X8484343Y-11283000D01*
X8498628Y-11225857D01*
X8512914Y-11197286D01*
X8527200Y-11183000D01*
X8555771Y-11168714D01*
X8770057Y-11197286D02*
X8784343Y-11183000D01*
X8812914Y-11168714D01*
X8884343Y-11168714D01*
X8912914Y-11183000D01*
X8927200Y-11197286D01*
X8941486Y-11225857D01*
X8941486Y-11254429D01*
X8927200Y-11297286D01*
X8755771Y-11468714D01*
X8941486Y-11468714D01*
X9127200Y-11168714D02*
X9155771Y-11168714D01*
X9184343Y-11183000D01*
X9198628Y-11197286D01*
X9212914Y-11225857D01*
X9227200Y-11283000D01*
X9227200Y-11354429D01*
X9212914Y-11411571D01*
X9198628Y-11440143D01*
X9184343Y-11454429D01*
X9155771Y-11468714D01*
X9127200Y-11468714D01*
X9098628Y-11454429D01*
X9084343Y-11440143D01*
X9070057Y-11411571D01*
X9055771Y-11354429D01*
X9055771Y-11283000D01*
X9070057Y-11225857D01*
X9084343Y-11197286D01*
X9098628Y-11183000D01*
X9127200Y-11168714D01*
X9341486Y-11168714D02*
X9341486Y-11225857D01*
X9455771Y-11168714D02*
X9455771Y-11225857D01*
X9898628Y-11583000D02*
X9884343Y-11568714D01*
X9855771Y-11525857D01*
X9841486Y-11497286D01*
X9827200Y-11454429D01*
X9812914Y-11383000D01*
X9812914Y-11325857D01*
X9827200Y-11254429D01*
X9841486Y-11211571D01*
X9855771Y-11183000D01*
X9884343Y-11140143D01*
X9898628Y-11125857D01*
X9998628Y-11197286D02*
X10012914Y-11183000D01*
X10041486Y-11168714D01*
X10112914Y-11168714D01*
X10141486Y-11183000D01*
X10155771Y-11197286D01*
X10170057Y-11225857D01*
X10170057Y-11254429D01*
X10155771Y-11297286D01*
X9984343Y-11468714D01*
X10170057Y-11468714D01*
X10427200Y-11268714D02*
X10427200Y-11468714D01*
X10355771Y-11154429D02*
X10284343Y-11368714D01*
X10470057Y-11368714D01*
X10812914Y-11468714D02*
X10812914Y-11168714D01*
X10941486Y-11468714D02*
X10941486Y-11311571D01*
X10927200Y-11283000D01*
X10898628Y-11268714D01*
X10855771Y-11268714D01*
X10827200Y-11283000D01*
X10812914Y-11297286D01*
X11127200Y-11468714D02*
X11098628Y-11454429D01*
X11084343Y-11440143D01*
X11070057Y-11411571D01*
X11070057Y-11325857D01*
X11084343Y-11297286D01*
X11098628Y-11283000D01*
X11127200Y-11268714D01*
X11170057Y-11268714D01*
X11198628Y-11283000D01*
X11212914Y-11297286D01*
X11227200Y-11325857D01*
X11227200Y-11411571D01*
X11212914Y-11440143D01*
X11198628Y-11454429D01*
X11170057Y-11468714D01*
X11127200Y-11468714D01*
X11398628Y-11468714D02*
X11370057Y-11454429D01*
X11355771Y-11425857D01*
X11355771Y-11168714D01*
X11627200Y-11454429D02*
X11598628Y-11468714D01*
X11541486Y-11468714D01*
X11512914Y-11454429D01*
X11498628Y-11425857D01*
X11498628Y-11311571D01*
X11512914Y-11283000D01*
X11541486Y-11268714D01*
X11598628Y-11268714D01*
X11627200Y-11283000D01*
X11641486Y-11311571D01*
X11641486Y-11340143D01*
X11498628Y-11368714D01*
X11755771Y-11454429D02*
X11784343Y-11468714D01*
X11841486Y-11468714D01*
X11870057Y-11454429D01*
X11884343Y-11425857D01*
X11884343Y-11411571D01*
X11870057Y-11383000D01*
X11841486Y-11368714D01*
X11798628Y-11368714D01*
X11770057Y-11354429D01*
X11755771Y-11325857D01*
X11755771Y-11311571D01*
X11770057Y-11283000D01*
X11798628Y-11268714D01*
X11841486Y-11268714D01*
X11870057Y-11283000D01*
X11984343Y-11583000D02*
X11998628Y-11568714D01*
X12027200Y-11525857D01*
X12041486Y-11497286D01*
X12055771Y-11454429D01*
X12070057Y-11383000D01*
X12070057Y-11325857D01*
X12055771Y-11254429D01*
X12041486Y-11211571D01*
X12027200Y-11183000D01*
X11998628Y-11140143D01*
X11984343Y-11125857D01*
X5162200Y-11679000D02*
X5162200Y-11779000D01*
X5112200Y-11729000D02*
X5212200Y-11729000D01*
X5655771Y-11864714D02*
X5484343Y-11864714D01*
X5570057Y-11864714D02*
X5570057Y-11564714D01*
X5541486Y-11607571D01*
X5512914Y-11636143D01*
X5484343Y-11650429D01*
X5784343Y-11836143D02*
X5798628Y-11850429D01*
X5784343Y-11864714D01*
X5770057Y-11850429D01*
X5784343Y-11836143D01*
X5784343Y-11864714D01*
X5984343Y-11564714D02*
X6012914Y-11564714D01*
X6041486Y-11579000D01*
X6055771Y-11593286D01*
X6070057Y-11621857D01*
X6084343Y-11679000D01*
X6084343Y-11750429D01*
X6070057Y-11807571D01*
X6055771Y-11836143D01*
X6041486Y-11850429D01*
X6012914Y-11864714D01*
X5984343Y-11864714D01*
X5955771Y-11850429D01*
X5941486Y-11836143D01*
X5927200Y-11807571D01*
X5912914Y-11750429D01*
X5912914Y-11679000D01*
X5927200Y-11621857D01*
X5941486Y-11593286D01*
X5955771Y-11579000D01*
X5984343Y-11564714D01*
X6270057Y-11564714D02*
X6298628Y-11564714D01*
X6327200Y-11579000D01*
X6341486Y-11593286D01*
X6355771Y-11621857D01*
X6370057Y-11679000D01*
X6370057Y-11750429D01*
X6355771Y-11807571D01*
X6341486Y-11836143D01*
X6327200Y-11850429D01*
X6298628Y-11864714D01*
X6270057Y-11864714D01*
X6241486Y-11850429D01*
X6227200Y-11836143D01*
X6212914Y-11807571D01*
X6198628Y-11750429D01*
X6198628Y-11679000D01*
X6212914Y-11621857D01*
X6227200Y-11593286D01*
X6241486Y-11579000D01*
X6270057Y-11564714D01*
X6498628Y-11864714D02*
X6498628Y-11664714D01*
X6498628Y-11693286D02*
X6512914Y-11679000D01*
X6541486Y-11664714D01*
X6584343Y-11664714D01*
X6612914Y-11679000D01*
X6627200Y-11707571D01*
X6627200Y-11864714D01*
X6627200Y-11707571D02*
X6641486Y-11679000D01*
X6670057Y-11664714D01*
X6712914Y-11664714D01*
X6741486Y-11679000D01*
X6755771Y-11707571D01*
X6755771Y-11864714D01*
X6898628Y-11864714D02*
X6898628Y-11664714D01*
X6898628Y-11693286D02*
X6912914Y-11679000D01*
X6941486Y-11664714D01*
X6984343Y-11664714D01*
X7012914Y-11679000D01*
X7027200Y-11707571D01*
X7027200Y-11864714D01*
X7027200Y-11707571D02*
X7041486Y-11679000D01*
X7070057Y-11664714D01*
X7112914Y-11664714D01*
X7141486Y-11679000D01*
X7155771Y-11707571D01*
X7155771Y-11864714D01*
X7741486Y-11550429D02*
X7484343Y-11936143D01*
X8127200Y-11564714D02*
X8155771Y-11564714D01*
X8184343Y-11579000D01*
X8198628Y-11593286D01*
X8212914Y-11621857D01*
X8227200Y-11679000D01*
X8227200Y-11750429D01*
X8212914Y-11807571D01*
X8198628Y-11836143D01*
X8184343Y-11850429D01*
X8155771Y-11864714D01*
X8127200Y-11864714D01*
X8098628Y-11850429D01*
X8084343Y-11836143D01*
X8070057Y-11807571D01*
X8055771Y-11750429D01*
X8055771Y-11679000D01*
X8070057Y-11621857D01*
X8084343Y-11593286D01*
X8098628Y-11579000D01*
X8127200Y-11564714D01*
X8355771Y-11836143D02*
X8370057Y-11850429D01*
X8355771Y-11864714D01*
X8341486Y-11850429D01*
X8355771Y-11836143D01*
X8355771Y-11864714D01*
X8555771Y-11564714D02*
X8584343Y-11564714D01*
X8612914Y-11579000D01*
X8627200Y-11593286D01*
X8641486Y-11621857D01*
X8655771Y-11679000D01*
X8655771Y-11750429D01*
X8641486Y-11807571D01*
X8627200Y-11836143D01*
X8612914Y-11850429D01*
X8584343Y-11864714D01*
X8555771Y-11864714D01*
X8527200Y-11850429D01*
X8512914Y-11836143D01*
X8498628Y-11807571D01*
X8484343Y-11750429D01*
X8484343Y-11679000D01*
X8498628Y-11621857D01*
X8512914Y-11593286D01*
X8527200Y-11579000D01*
X8555771Y-11564714D01*
X8755771Y-11564714D02*
X8941486Y-11564714D01*
X8841486Y-11679000D01*
X8884343Y-11679000D01*
X8912914Y-11693286D01*
X8927200Y-11707571D01*
X8941486Y-11736143D01*
X8941486Y-11807571D01*
X8927200Y-11836143D01*
X8912914Y-11850429D01*
X8884343Y-11864714D01*
X8798628Y-11864714D01*
X8770057Y-11850429D01*
X8755771Y-11836143D01*
X9084343Y-11864714D02*
X9141486Y-11864714D01*
X9170057Y-11850429D01*
X9184343Y-11836143D01*
X9212914Y-11793286D01*
X9227200Y-11736143D01*
X9227200Y-11621857D01*
X9212914Y-11593286D01*
X9198628Y-11579000D01*
X9170057Y-11564714D01*
X9112914Y-11564714D01*
X9084343Y-11579000D01*
X9070057Y-11593286D01*
X9055771Y-11621857D01*
X9055771Y-11693286D01*
X9070057Y-11721857D01*
X9084343Y-11736143D01*
X9112914Y-11750429D01*
X9170057Y-11750429D01*
X9198628Y-11736143D01*
X9212914Y-11721857D01*
X9227200Y-11693286D01*
X9341486Y-11564714D02*
X9341486Y-11621857D01*
X9455771Y-11564714D02*
X9455771Y-11621857D01*
X9898628Y-11979000D02*
X9884343Y-11964714D01*
X9855771Y-11921857D01*
X9841486Y-11893286D01*
X9827200Y-11850429D01*
X9812914Y-11779000D01*
X9812914Y-11721857D01*
X9827200Y-11650429D01*
X9841486Y-11607571D01*
X9855771Y-11579000D01*
X9884343Y-11536143D01*
X9898628Y-11521857D01*
X9998628Y-11593286D02*
X10012914Y-11579000D01*
X10041486Y-11564714D01*
X10112914Y-11564714D01*
X10141486Y-11579000D01*
X10155771Y-11593286D01*
X10170057Y-11621857D01*
X10170057Y-11650429D01*
X10155771Y-11693286D01*
X9984343Y-11864714D01*
X10170057Y-11864714D01*
X10455771Y-11864714D02*
X10284343Y-11864714D01*
X10370057Y-11864714D02*
X10370057Y-11564714D01*
X10341486Y-11607571D01*
X10312914Y-11636143D01*
X10284343Y-11650429D01*
X10812914Y-11864714D02*
X10812914Y-11564714D01*
X10941486Y-11864714D02*
X10941486Y-11707571D01*
X10927200Y-11679000D01*
X10898628Y-11664714D01*
X10855771Y-11664714D01*
X10827200Y-11679000D01*
X10812914Y-11693286D01*
X11127200Y-11864714D02*
X11098628Y-11850429D01*
X11084343Y-11836143D01*
X11070057Y-11807571D01*
X11070057Y-11721857D01*
X11084343Y-11693286D01*
X11098628Y-11679000D01*
X11127200Y-11664714D01*
X11170057Y-11664714D01*
X11198628Y-11679000D01*
X11212914Y-11693286D01*
X11227200Y-11721857D01*
X11227200Y-11807571D01*
X11212914Y-11836143D01*
X11198628Y-11850429D01*
X11170057Y-11864714D01*
X11127200Y-11864714D01*
X11398628Y-11864714D02*
X11370057Y-11850429D01*
X11355771Y-11821857D01*
X11355771Y-11564714D01*
X11627200Y-11850429D02*
X11598628Y-11864714D01*
X11541486Y-11864714D01*
X11512914Y-11850429D01*
X11498628Y-11821857D01*
X11498628Y-11707571D01*
X11512914Y-11679000D01*
X11541486Y-11664714D01*
X11598628Y-11664714D01*
X11627200Y-11679000D01*
X11641486Y-11707571D01*
X11641486Y-11736143D01*
X11498628Y-11764714D01*
X11755771Y-11850429D02*
X11784343Y-11864714D01*
X11841486Y-11864714D01*
X11870057Y-11850429D01*
X11884343Y-11821857D01*
X11884343Y-11807571D01*
X11870057Y-11779000D01*
X11841486Y-11764714D01*
X11798628Y-11764714D01*
X11770057Y-11750429D01*
X11755771Y-11721857D01*
X11755771Y-11707571D01*
X11770057Y-11679000D01*
X11798628Y-11664714D01*
X11841486Y-11664714D01*
X11870057Y-11679000D01*
X11984343Y-11979000D02*
X11998628Y-11964714D01*
X12027200Y-11921857D01*
X12041486Y-11893286D01*
X12055771Y-11850429D01*
X12070057Y-11779000D01*
X12070057Y-11721857D01*
X12055771Y-11650429D01*
X12041486Y-11607571D01*
X12027200Y-11579000D01*
X11998628Y-11536143D01*
X11984343Y-11521857D01*
X5197321Y-12160921D02*
X5197321Y-12089079D01*
X5125479Y-12089079D01*
X5125479Y-12160921D01*
X5197321Y-12160921D01*
X5655771Y-12260714D02*
X5484343Y-12260714D01*
X5570057Y-12260714D02*
X5570057Y-11960714D01*
X5541486Y-12003571D01*
X5512914Y-12032143D01*
X5484343Y-12046429D01*
X5784343Y-12232143D02*
X5798628Y-12246429D01*
X5784343Y-12260714D01*
X5770057Y-12246429D01*
X5784343Y-12232143D01*
X5784343Y-12260714D01*
X5984343Y-11960714D02*
X6012914Y-11960714D01*
X6041486Y-11975000D01*
X6055771Y-11989286D01*
X6070057Y-12017857D01*
X6084343Y-12075000D01*
X6084343Y-12146429D01*
X6070057Y-12203571D01*
X6055771Y-12232143D01*
X6041486Y-12246429D01*
X6012914Y-12260714D01*
X5984343Y-12260714D01*
X5955771Y-12246429D01*
X5941486Y-12232143D01*
X5927200Y-12203571D01*
X5912914Y-12146429D01*
X5912914Y-12075000D01*
X5927200Y-12017857D01*
X5941486Y-11989286D01*
X5955771Y-11975000D01*
X5984343Y-11960714D01*
X6198628Y-11989286D02*
X6212914Y-11975000D01*
X6241486Y-11960714D01*
X6312914Y-11960714D01*
X6341486Y-11975000D01*
X6355771Y-11989286D01*
X6370057Y-12017857D01*
X6370057Y-12046429D01*
X6355771Y-12089286D01*
X6184343Y-12260714D01*
X6370057Y-12260714D01*
X6498628Y-12260714D02*
X6498628Y-12060714D01*
X6498628Y-12089286D02*
X6512914Y-12075000D01*
X6541486Y-12060714D01*
X6584343Y-12060714D01*
X6612914Y-12075000D01*
X6627200Y-12103571D01*
X6627200Y-12260714D01*
X6627200Y-12103571D02*
X6641486Y-12075000D01*
X6670057Y-12060714D01*
X6712914Y-12060714D01*
X6741486Y-12075000D01*
X6755771Y-12103571D01*
X6755771Y-12260714D01*
X6898628Y-12260714D02*
X6898628Y-12060714D01*
X6898628Y-12089286D02*
X6912914Y-12075000D01*
X6941486Y-12060714D01*
X6984343Y-12060714D01*
X7012914Y-12075000D01*
X7027200Y-12103571D01*
X7027200Y-12260714D01*
X7027200Y-12103571D02*
X7041486Y-12075000D01*
X7070057Y-12060714D01*
X7112914Y-12060714D01*
X7141486Y-12075000D01*
X7155771Y-12103571D01*
X7155771Y-12260714D01*
X7741486Y-11946429D02*
X7484343Y-12332143D01*
X8127200Y-11960714D02*
X8155771Y-11960714D01*
X8184343Y-11975000D01*
X8198628Y-11989286D01*
X8212914Y-12017857D01*
X8227200Y-12075000D01*
X8227200Y-12146429D01*
X8212914Y-12203571D01*
X8198628Y-12232143D01*
X8184343Y-12246429D01*
X8155771Y-12260714D01*
X8127200Y-12260714D01*
X8098628Y-12246429D01*
X8084343Y-12232143D01*
X8070057Y-12203571D01*
X8055771Y-12146429D01*
X8055771Y-12075000D01*
X8070057Y-12017857D01*
X8084343Y-11989286D01*
X8098628Y-11975000D01*
X8127200Y-11960714D01*
X8355771Y-12232143D02*
X8370057Y-12246429D01*
X8355771Y-12260714D01*
X8341486Y-12246429D01*
X8355771Y-12232143D01*
X8355771Y-12260714D01*
X8555771Y-11960714D02*
X8584343Y-11960714D01*
X8612914Y-11975000D01*
X8627200Y-11989286D01*
X8641486Y-12017857D01*
X8655771Y-12075000D01*
X8655771Y-12146429D01*
X8641486Y-12203571D01*
X8627200Y-12232143D01*
X8612914Y-12246429D01*
X8584343Y-12260714D01*
X8555771Y-12260714D01*
X8527200Y-12246429D01*
X8512914Y-12232143D01*
X8498628Y-12203571D01*
X8484343Y-12146429D01*
X8484343Y-12075000D01*
X8498628Y-12017857D01*
X8512914Y-11989286D01*
X8527200Y-11975000D01*
X8555771Y-11960714D01*
X8912914Y-12060714D02*
X8912914Y-12260714D01*
X8841486Y-11946429D02*
X8770057Y-12160714D01*
X8955771Y-12160714D01*
X9127200Y-11960714D02*
X9155771Y-11960714D01*
X9184343Y-11975000D01*
X9198628Y-11989286D01*
X9212914Y-12017857D01*
X9227200Y-12075000D01*
X9227200Y-12146429D01*
X9212914Y-12203571D01*
X9198628Y-12232143D01*
X9184343Y-12246429D01*
X9155771Y-12260714D01*
X9127200Y-12260714D01*
X9098628Y-12246429D01*
X9084343Y-12232143D01*
X9070057Y-12203571D01*
X9055771Y-12146429D01*
X9055771Y-12075000D01*
X9070057Y-12017857D01*
X9084343Y-11989286D01*
X9098628Y-11975000D01*
X9127200Y-11960714D01*
X9341486Y-11960714D02*
X9341486Y-12017857D01*
X9455771Y-11960714D02*
X9455771Y-12017857D01*
X9898628Y-12375000D02*
X9884343Y-12360714D01*
X9855771Y-12317857D01*
X9841486Y-12289286D01*
X9827200Y-12246429D01*
X9812914Y-12175000D01*
X9812914Y-12117857D01*
X9827200Y-12046429D01*
X9841486Y-12003571D01*
X9855771Y-11975000D01*
X9884343Y-11932143D01*
X9898628Y-11917857D01*
X9984343Y-11960714D02*
X10170057Y-11960714D01*
X10070057Y-12075000D01*
X10112914Y-12075000D01*
X10141486Y-12089286D01*
X10155771Y-12103571D01*
X10170057Y-12132143D01*
X10170057Y-12203571D01*
X10155771Y-12232143D01*
X10141486Y-12246429D01*
X10112914Y-12260714D01*
X10027200Y-12260714D01*
X9998628Y-12246429D01*
X9984343Y-12232143D01*
X10355771Y-11960714D02*
X10384343Y-11960714D01*
X10412914Y-11975000D01*
X10427200Y-11989286D01*
X10441486Y-12017857D01*
X10455771Y-12075000D01*
X10455771Y-12146429D01*
X10441486Y-12203571D01*
X10427200Y-12232143D01*
X10412914Y-12246429D01*
X10384343Y-12260714D01*
X10355771Y-12260714D01*
X10327200Y-12246429D01*
X10312914Y-12232143D01*
X10298628Y-12203571D01*
X10284343Y-12146429D01*
X10284343Y-12075000D01*
X10298628Y-12017857D01*
X10312914Y-11989286D01*
X10327200Y-11975000D01*
X10355771Y-11960714D01*
X10812914Y-12260714D02*
X10812914Y-11960714D01*
X10941486Y-12260714D02*
X10941486Y-12103571D01*
X10927200Y-12075000D01*
X10898628Y-12060714D01*
X10855771Y-12060714D01*
X10827200Y-12075000D01*
X10812914Y-12089286D01*
X11127200Y-12260714D02*
X11098628Y-12246429D01*
X11084343Y-12232143D01*
X11070057Y-12203571D01*
X11070057Y-12117857D01*
X11084343Y-12089286D01*
X11098628Y-12075000D01*
X11127200Y-12060714D01*
X11170057Y-12060714D01*
X11198628Y-12075000D01*
X11212914Y-12089286D01*
X11227200Y-12117857D01*
X11227200Y-12203571D01*
X11212914Y-12232143D01*
X11198628Y-12246429D01*
X11170057Y-12260714D01*
X11127200Y-12260714D01*
X11398628Y-12260714D02*
X11370057Y-12246429D01*
X11355771Y-12217857D01*
X11355771Y-11960714D01*
X11627200Y-12246429D02*
X11598628Y-12260714D01*
X11541486Y-12260714D01*
X11512914Y-12246429D01*
X11498628Y-12217857D01*
X11498628Y-12103571D01*
X11512914Y-12075000D01*
X11541486Y-12060714D01*
X11598628Y-12060714D01*
X11627200Y-12075000D01*
X11641486Y-12103571D01*
X11641486Y-12132143D01*
X11498628Y-12160714D01*
X11755771Y-12246429D02*
X11784343Y-12260714D01*
X11841486Y-12260714D01*
X11870057Y-12246429D01*
X11884343Y-12217857D01*
X11884343Y-12203571D01*
X11870057Y-12175000D01*
X11841486Y-12160714D01*
X11798628Y-12160714D01*
X11770057Y-12146429D01*
X11755771Y-12117857D01*
X11755771Y-12103571D01*
X11770057Y-12075000D01*
X11798628Y-12060714D01*
X11841486Y-12060714D01*
X11870057Y-12075000D01*
X11984343Y-12375000D02*
X11998628Y-12360714D01*
X12027200Y-12317857D01*
X12041486Y-12289286D01*
X12055771Y-12246429D01*
X12070057Y-12175000D01*
X12070057Y-12117857D01*
X12055771Y-12046429D01*
X12041486Y-12003571D01*
X12027200Y-11975000D01*
X11998628Y-11932143D01*
X11984343Y-11917857D01*
X5167200Y-12566000D02*
X5212200Y-12521000D01*
X5167200Y-12476000D01*
X5122200Y-12521000D01*
X5167200Y-12566000D01*
X5555771Y-12356714D02*
X5584343Y-12356714D01*
X5612914Y-12371000D01*
X5627200Y-12385286D01*
X5641486Y-12413857D01*
X5655771Y-12471000D01*
X5655771Y-12542429D01*
X5641486Y-12599571D01*
X5627200Y-12628143D01*
X5612914Y-12642429D01*
X5584343Y-12656714D01*
X5555771Y-12656714D01*
X5527200Y-12642429D01*
X5512914Y-12628143D01*
X5498628Y-12599571D01*
X5484343Y-12542429D01*
X5484343Y-12471000D01*
X5498628Y-12413857D01*
X5512914Y-12385286D01*
X5527200Y-12371000D01*
X5555771Y-12356714D01*
X5784343Y-12628143D02*
X5798628Y-12642429D01*
X5784343Y-12656714D01*
X5770057Y-12642429D01*
X5784343Y-12628143D01*
X5784343Y-12656714D01*
X5941486Y-12656714D02*
X5998628Y-12656714D01*
X6027200Y-12642429D01*
X6041486Y-12628143D01*
X6070057Y-12585286D01*
X6084343Y-12528143D01*
X6084343Y-12413857D01*
X6070057Y-12385286D01*
X6055771Y-12371000D01*
X6027200Y-12356714D01*
X5970057Y-12356714D01*
X5941486Y-12371000D01*
X5927200Y-12385286D01*
X5912914Y-12413857D01*
X5912914Y-12485286D01*
X5927200Y-12513857D01*
X5941486Y-12528143D01*
X5970057Y-12542429D01*
X6027200Y-12542429D01*
X6055771Y-12528143D01*
X6070057Y-12513857D01*
X6084343Y-12485286D01*
X6270057Y-12356714D02*
X6298628Y-12356714D01*
X6327200Y-12371000D01*
X6341486Y-12385286D01*
X6355771Y-12413857D01*
X6370057Y-12471000D01*
X6370057Y-12542429D01*
X6355771Y-12599571D01*
X6341486Y-12628143D01*
X6327200Y-12642429D01*
X6298628Y-12656714D01*
X6270057Y-12656714D01*
X6241486Y-12642429D01*
X6227200Y-12628143D01*
X6212914Y-12599571D01*
X6198628Y-12542429D01*
X6198628Y-12471000D01*
X6212914Y-12413857D01*
X6227200Y-12385286D01*
X6241486Y-12371000D01*
X6270057Y-12356714D01*
X6498628Y-12656714D02*
X6498628Y-12456714D01*
X6498628Y-12485286D02*
X6512914Y-12471000D01*
X6541486Y-12456714D01*
X6584343Y-12456714D01*
X6612914Y-12471000D01*
X6627200Y-12499571D01*
X6627200Y-12656714D01*
X6627200Y-12499571D02*
X6641486Y-12471000D01*
X6670057Y-12456714D01*
X6712914Y-12456714D01*
X6741486Y-12471000D01*
X6755771Y-12499571D01*
X6755771Y-12656714D01*
X6898628Y-12656714D02*
X6898628Y-12456714D01*
X6898628Y-12485286D02*
X6912914Y-12471000D01*
X6941486Y-12456714D01*
X6984343Y-12456714D01*
X7012914Y-12471000D01*
X7027200Y-12499571D01*
X7027200Y-12656714D01*
X7027200Y-12499571D02*
X7041486Y-12471000D01*
X7070057Y-12456714D01*
X7112914Y-12456714D01*
X7141486Y-12471000D01*
X7155771Y-12499571D01*
X7155771Y-12656714D01*
X7741486Y-12342429D02*
X7484343Y-12728143D01*
X8127200Y-12356714D02*
X8155771Y-12356714D01*
X8184343Y-12371000D01*
X8198628Y-12385286D01*
X8212914Y-12413857D01*
X8227200Y-12471000D01*
X8227200Y-12542429D01*
X8212914Y-12599571D01*
X8198628Y-12628143D01*
X8184343Y-12642429D01*
X8155771Y-12656714D01*
X8127200Y-12656714D01*
X8098628Y-12642429D01*
X8084343Y-12628143D01*
X8070057Y-12599571D01*
X8055771Y-12542429D01*
X8055771Y-12471000D01*
X8070057Y-12413857D01*
X8084343Y-12385286D01*
X8098628Y-12371000D01*
X8127200Y-12356714D01*
X8355771Y-12628143D02*
X8370057Y-12642429D01*
X8355771Y-12656714D01*
X8341486Y-12642429D01*
X8355771Y-12628143D01*
X8355771Y-12656714D01*
X8555771Y-12356714D02*
X8584343Y-12356714D01*
X8612914Y-12371000D01*
X8627200Y-12385286D01*
X8641486Y-12413857D01*
X8655771Y-12471000D01*
X8655771Y-12542429D01*
X8641486Y-12599571D01*
X8627200Y-12628143D01*
X8612914Y-12642429D01*
X8584343Y-12656714D01*
X8555771Y-12656714D01*
X8527200Y-12642429D01*
X8512914Y-12628143D01*
X8498628Y-12599571D01*
X8484343Y-12542429D01*
X8484343Y-12471000D01*
X8498628Y-12413857D01*
X8512914Y-12385286D01*
X8527200Y-12371000D01*
X8555771Y-12356714D01*
X8755771Y-12356714D02*
X8941486Y-12356714D01*
X8841486Y-12471000D01*
X8884343Y-12471000D01*
X8912914Y-12485286D01*
X8927200Y-12499571D01*
X8941486Y-12528143D01*
X8941486Y-12599571D01*
X8927200Y-12628143D01*
X8912914Y-12642429D01*
X8884343Y-12656714D01*
X8798628Y-12656714D01*
X8770057Y-12642429D01*
X8755771Y-12628143D01*
X9212914Y-12356714D02*
X9070057Y-12356714D01*
X9055771Y-12499571D01*
X9070057Y-12485286D01*
X9098628Y-12471000D01*
X9170057Y-12471000D01*
X9198628Y-12485286D01*
X9212914Y-12499571D01*
X9227200Y-12528143D01*
X9227200Y-12599571D01*
X9212914Y-12628143D01*
X9198628Y-12642429D01*
X9170057Y-12656714D01*
X9098628Y-12656714D01*
X9070057Y-12642429D01*
X9055771Y-12628143D01*
X9341486Y-12356714D02*
X9341486Y-12413857D01*
X9455771Y-12356714D02*
X9455771Y-12413857D01*
X9898628Y-12771000D02*
X9884343Y-12756714D01*
X9855771Y-12713857D01*
X9841486Y-12685286D01*
X9827200Y-12642429D01*
X9812914Y-12571000D01*
X9812914Y-12513857D01*
X9827200Y-12442429D01*
X9841486Y-12399571D01*
X9855771Y-12371000D01*
X9884343Y-12328143D01*
X9898628Y-12313857D01*
X9998628Y-12385286D02*
X10012914Y-12371000D01*
X10041486Y-12356714D01*
X10112914Y-12356714D01*
X10141486Y-12371000D01*
X10155771Y-12385286D01*
X10170057Y-12413857D01*
X10170057Y-12442429D01*
X10155771Y-12485286D01*
X9984343Y-12656714D01*
X10170057Y-12656714D01*
X10527200Y-12656714D02*
X10527200Y-12356714D01*
X10655771Y-12656714D02*
X10655771Y-12499571D01*
X10641486Y-12471000D01*
X10612914Y-12456714D01*
X10570057Y-12456714D01*
X10541486Y-12471000D01*
X10527200Y-12485286D01*
X10841486Y-12656714D02*
X10812914Y-12642429D01*
X10798628Y-12628143D01*
X10784343Y-12599571D01*
X10784343Y-12513857D01*
X10798628Y-12485286D01*
X10812914Y-12471000D01*
X10841486Y-12456714D01*
X10884343Y-12456714D01*
X10912914Y-12471000D01*
X10927200Y-12485286D01*
X10941486Y-12513857D01*
X10941486Y-12599571D01*
X10927200Y-12628143D01*
X10912914Y-12642429D01*
X10884343Y-12656714D01*
X10841486Y-12656714D01*
X11112914Y-12656714D02*
X11084343Y-12642429D01*
X11070057Y-12613857D01*
X11070057Y-12356714D01*
X11341486Y-12642429D02*
X11312914Y-12656714D01*
X11255771Y-12656714D01*
X11227200Y-12642429D01*
X11212914Y-12613857D01*
X11212914Y-12499571D01*
X11227200Y-12471000D01*
X11255771Y-12456714D01*
X11312914Y-12456714D01*
X11341486Y-12471000D01*
X11355771Y-12499571D01*
X11355771Y-12528143D01*
X11212914Y-12556714D01*
X11470057Y-12642429D02*
X11498628Y-12656714D01*
X11555771Y-12656714D01*
X11584343Y-12642429D01*
X11598628Y-12613857D01*
X11598628Y-12599571D01*
X11584343Y-12571000D01*
X11555771Y-12556714D01*
X11512914Y-12556714D01*
X11484343Y-12542429D01*
X11470057Y-12513857D01*
X11470057Y-12499571D01*
X11484343Y-12471000D01*
X11512914Y-12456714D01*
X11555771Y-12456714D01*
X11584343Y-12471000D01*
X11698628Y-12771000D02*
X11712914Y-12756714D01*
X11741486Y-12713857D01*
X11755771Y-12685286D01*
X11770057Y-12642429D01*
X11784343Y-12571000D01*
X11784343Y-12513857D01*
X11770057Y-12442429D01*
X11755771Y-12399571D01*
X11741486Y-12371000D01*
X11712914Y-12328143D01*
X11698628Y-12313857D01*
X12241486Y-12771000D02*
X12227200Y-12756714D01*
X12198628Y-12713857D01*
X12184343Y-12685286D01*
X12170057Y-12642429D01*
X12155771Y-12571000D01*
X12155771Y-12513857D01*
X12170057Y-12442429D01*
X12184343Y-12399571D01*
X12198628Y-12371000D01*
X12227200Y-12328143D01*
X12241486Y-12313857D01*
X12355771Y-12456714D02*
X12355771Y-12656714D01*
X12355771Y-12485286D02*
X12370057Y-12471000D01*
X12398628Y-12456714D01*
X12441486Y-12456714D01*
X12470057Y-12471000D01*
X12484343Y-12499571D01*
X12484343Y-12656714D01*
X12670057Y-12656714D02*
X12641486Y-12642429D01*
X12627200Y-12628143D01*
X12612914Y-12599571D01*
X12612914Y-12513857D01*
X12627200Y-12485286D01*
X12641486Y-12471000D01*
X12670057Y-12456714D01*
X12712914Y-12456714D01*
X12741486Y-12471000D01*
X12755771Y-12485286D01*
X12770057Y-12513857D01*
X12770057Y-12599571D01*
X12755771Y-12628143D01*
X12741486Y-12642429D01*
X12712914Y-12656714D01*
X12670057Y-12656714D01*
X12855771Y-12456714D02*
X12970057Y-12456714D01*
X12898628Y-12356714D02*
X12898628Y-12613857D01*
X12912914Y-12642429D01*
X12941486Y-12656714D01*
X12970057Y-12656714D01*
X13298628Y-12456714D02*
X13298628Y-12756714D01*
X13298628Y-12471000D02*
X13327200Y-12456714D01*
X13384343Y-12456714D01*
X13412914Y-12471000D01*
X13427200Y-12485286D01*
X13441486Y-12513857D01*
X13441486Y-12599571D01*
X13427200Y-12628143D01*
X13412914Y-12642429D01*
X13384343Y-12656714D01*
X13327200Y-12656714D01*
X13298628Y-12642429D01*
X13612914Y-12656714D02*
X13584343Y-12642429D01*
X13570057Y-12613857D01*
X13570057Y-12356714D01*
X13855771Y-12656714D02*
X13855771Y-12499571D01*
X13841486Y-12471000D01*
X13812914Y-12456714D01*
X13755771Y-12456714D01*
X13727200Y-12471000D01*
X13855771Y-12642429D02*
X13827200Y-12656714D01*
X13755771Y-12656714D01*
X13727200Y-12642429D01*
X13712914Y-12613857D01*
X13712914Y-12585286D01*
X13727200Y-12556714D01*
X13755771Y-12542429D01*
X13827200Y-12542429D01*
X13855771Y-12528143D01*
X13955771Y-12456714D02*
X14070057Y-12456714D01*
X13998628Y-12356714D02*
X13998628Y-12613857D01*
X14012914Y-12642429D01*
X14041486Y-12656714D01*
X14070057Y-12656714D01*
X14284343Y-12642429D02*
X14255771Y-12656714D01*
X14198628Y-12656714D01*
X14170057Y-12642429D01*
X14155771Y-12613857D01*
X14155771Y-12499571D01*
X14170057Y-12471000D01*
X14198628Y-12456714D01*
X14255771Y-12456714D01*
X14284343Y-12471000D01*
X14298628Y-12499571D01*
X14298628Y-12528143D01*
X14155771Y-12556714D01*
X14555771Y-12656714D02*
X14555771Y-12356714D01*
X14555771Y-12642429D02*
X14527200Y-12656714D01*
X14470057Y-12656714D01*
X14441486Y-12642429D01*
X14427200Y-12628143D01*
X14412914Y-12599571D01*
X14412914Y-12513857D01*
X14427200Y-12485286D01*
X14441486Y-12471000D01*
X14470057Y-12456714D01*
X14527200Y-12456714D01*
X14555771Y-12471000D01*
X14670057Y-12771000D02*
X14684343Y-12756714D01*
X14712914Y-12713857D01*
X14727200Y-12685286D01*
X14741486Y-12642429D01*
X14755771Y-12571000D01*
X14755771Y-12513857D01*
X14741486Y-12442429D01*
X14727200Y-12399571D01*
X14712914Y-12371000D01*
X14684343Y-12328143D01*
X14670057Y-12313857D01*
M02*
