G04 #@! TF.GenerationSoftware,KiCad,Pcbnew,(2017-01-09 revision c2fb336)-makepkg*
G04 #@! TF.CreationDate,2017-04-23T15:55:18+02:00*
G04 #@! TF.ProjectId,jtagTc2050Adaptor,6A74616754633230353041646170746F,rev?*
G04 #@! TF.FileFunction,Legend,Top*
G04 #@! TF.FilePolarity,Positive*
%FSLAX46Y46*%
G04 Gerber Fmt 4.6, Leading zero omitted, Abs format (unit mm)*
G04 Created by KiCad (PCBNEW (2017-01-09 revision c2fb336)-makepkg) date 04/23/17 15:55:18*
%MOMM*%
%LPD*%
G01*
G04 APERTURE LIST*
%ADD10C,0.100000*%
%ADD11C,0.200000*%
%ADD12C,0.120000*%
%ADD13C,0.150000*%
G04 APERTURE END LIST*
D10*
D11*
X93718166Y-71191380D02*
X93718166Y-70191380D01*
X94099119Y-70191380D01*
X94194357Y-70239000D01*
X94241976Y-70286619D01*
X94289595Y-70381857D01*
X94289595Y-70524714D01*
X94241976Y-70619952D01*
X94194357Y-70667571D01*
X94099119Y-70715190D01*
X93718166Y-70715190D01*
X94622928Y-70191380D02*
X94861023Y-71191380D01*
X95051500Y-70477095D01*
X95241976Y-71191380D01*
X95480071Y-70191380D01*
X93726095Y-68159380D02*
X94297523Y-68159380D01*
X94011809Y-69159380D02*
X94011809Y-68159380D01*
X94535619Y-68159380D02*
X95202285Y-69159380D01*
X95202285Y-68159380D02*
X94535619Y-69159380D01*
X94321333Y-67127380D02*
X93988000Y-66651190D01*
X93749904Y-67127380D02*
X93749904Y-66127380D01*
X94130857Y-66127380D01*
X94226095Y-66175000D01*
X94273714Y-66222619D01*
X94321333Y-66317857D01*
X94321333Y-66460714D01*
X94273714Y-66555952D01*
X94226095Y-66603571D01*
X94130857Y-66651190D01*
X93749904Y-66651190D01*
X94654666Y-66127380D02*
X95321333Y-67127380D01*
X95321333Y-66127380D02*
X94654666Y-67127380D01*
D12*
X71085000Y-79279000D02*
X71085000Y-79979000D01*
X69885000Y-79979000D02*
X69885000Y-79279000D01*
X68361000Y-79979000D02*
X68361000Y-79279000D01*
X69561000Y-79279000D02*
X69561000Y-79979000D01*
X81188000Y-81310000D02*
X81188000Y-80610000D01*
X82388000Y-80610000D02*
X82388000Y-81310000D01*
X69692000Y-77308000D02*
X68992000Y-77308000D01*
X68992000Y-76108000D02*
X69692000Y-76108000D01*
X70709000Y-92681500D02*
X71409000Y-92681500D01*
X71409000Y-93881500D02*
X70709000Y-93881500D01*
X70706500Y-91094000D02*
X71406500Y-91094000D01*
X71406500Y-92294000D02*
X70706500Y-92294000D01*
X70706500Y-89506500D02*
X71406500Y-89506500D01*
X71406500Y-90706500D02*
X70706500Y-90706500D01*
X71406500Y-89119000D02*
X70706500Y-89119000D01*
X70706500Y-87919000D02*
X71406500Y-87919000D01*
X99923000Y-92960000D02*
X90323000Y-92960000D01*
X99923000Y-72140000D02*
X99923000Y-92960000D01*
X90323000Y-72140000D02*
X99923000Y-72140000D01*
X90323000Y-92960000D02*
X90323000Y-72140000D01*
X80705000Y-95571000D02*
X80705000Y-96901000D01*
X79375000Y-95571000D02*
X80705000Y-95571000D01*
X78105000Y-98231000D02*
X78105000Y-95571000D01*
X75505000Y-98231000D02*
X78105000Y-98231000D01*
X75505000Y-95571000D02*
X75505000Y-98231000D01*
X78105000Y-95571000D02*
X75505000Y-95571000D01*
X82998000Y-93031000D02*
X84328000Y-93031000D01*
X82998000Y-94361000D02*
X82998000Y-93031000D01*
X85658000Y-95631000D02*
X82998000Y-95631000D01*
X85658000Y-95691000D02*
X85658000Y-95631000D01*
X82998000Y-95691000D02*
X85658000Y-95691000D01*
X82998000Y-95631000D02*
X82998000Y-95691000D01*
X85538000Y-90491000D02*
X86868000Y-90491000D01*
X85538000Y-91821000D02*
X85538000Y-90491000D01*
X88198000Y-93091000D02*
X85538000Y-93091000D01*
X88198000Y-98231000D02*
X88198000Y-93091000D01*
X85538000Y-98231000D02*
X88198000Y-98231000D01*
X85538000Y-93091000D02*
X85538000Y-98231000D01*
X89983000Y-98231000D02*
X89983000Y-96901000D01*
X91313000Y-98231000D02*
X89983000Y-98231000D01*
X92583000Y-95571000D02*
X92583000Y-98231000D01*
X97723000Y-95571000D02*
X92583000Y-95571000D01*
X97723000Y-98231000D02*
X97723000Y-95571000D01*
X92583000Y-98231000D02*
X97723000Y-98231000D01*
X80050000Y-73165000D02*
X80050000Y-63965000D01*
X72350000Y-73165000D02*
X80050000Y-73165000D01*
X72350000Y-63965000D02*
X72350000Y-73165000D01*
X80050000Y-63965000D02*
X72350000Y-63965000D01*
X80050000Y-64965000D02*
X72350000Y-64965000D01*
X52604000Y-99310000D02*
X52604000Y-65790000D01*
X52604000Y-65790000D02*
X62204000Y-65790000D01*
X62204000Y-65790000D02*
X62204000Y-99310000D01*
X62204000Y-99310000D02*
X52604000Y-99310000D01*
X63948000Y-87630000D02*
X63948000Y-92770000D01*
X63948000Y-92770000D02*
X66608000Y-92770000D01*
X66608000Y-92770000D02*
X66608000Y-87630000D01*
X66608000Y-87630000D02*
X63948000Y-87630000D01*
X63948000Y-86360000D02*
X63948000Y-85030000D01*
X63948000Y-85030000D02*
X65278000Y-85030000D01*
X66548000Y-98231000D02*
X71688000Y-98231000D01*
X71688000Y-98231000D02*
X71688000Y-95571000D01*
X71688000Y-95571000D02*
X66548000Y-95571000D01*
X66548000Y-95571000D02*
X66548000Y-98231000D01*
X65278000Y-98231000D02*
X63948000Y-98231000D01*
X63948000Y-98231000D02*
X63948000Y-96901000D01*
D13*
X79075000Y-84379000D02*
X80675000Y-84379000D01*
X79075000Y-74304000D02*
X73325000Y-74304000D01*
X79075000Y-84954000D02*
X73325000Y-84954000D01*
X79075000Y-74304000D02*
X79075000Y-74954000D01*
X73325000Y-74304000D02*
X73325000Y-74954000D01*
X73325000Y-84954000D02*
X73325000Y-84304000D01*
X79075000Y-84954000D02*
X79075000Y-84379000D01*
D12*
X73433500Y-86696500D02*
X79443500Y-86696500D01*
X75683500Y-93516500D02*
X79443500Y-93516500D01*
X79443500Y-86696500D02*
X79443500Y-87956500D01*
X79443500Y-93516500D02*
X79443500Y-92256500D01*
X95863000Y-65975000D02*
X98663000Y-65975000D01*
X95863000Y-67375000D02*
X98663000Y-67375000D01*
X95863000Y-65975000D02*
X95863000Y-67375000D01*
X95863000Y-68007000D02*
X95863000Y-69407000D01*
X95863000Y-69407000D02*
X98663000Y-69407000D01*
X95863000Y-68007000D02*
X98663000Y-68007000D01*
X95863000Y-70039000D02*
X98663000Y-70039000D01*
X95863000Y-71439000D02*
X98663000Y-71439000D01*
X95863000Y-70039000D02*
X95863000Y-71439000D01*
X91940000Y-67355000D02*
X90940000Y-67355000D01*
X90940000Y-65995000D02*
X91940000Y-65995000D01*
X90940000Y-68027000D02*
X91940000Y-68027000D01*
X91940000Y-69387000D02*
X90940000Y-69387000D01*
X91940000Y-71419000D02*
X90940000Y-71419000D01*
X90940000Y-70059000D02*
X91940000Y-70059000D01*
X82998000Y-78680000D02*
X84328000Y-78680000D01*
X82998000Y-80010000D02*
X82998000Y-78680000D01*
X85598000Y-81280000D02*
X82998000Y-81280000D01*
X85598000Y-78680000D02*
X85598000Y-81280000D01*
X88198000Y-78680000D02*
X85598000Y-78680000D01*
X88198000Y-86420000D02*
X88198000Y-78680000D01*
X82998000Y-86420000D02*
X88198000Y-86420000D01*
X82998000Y-81280000D02*
X82998000Y-86420000D01*
D13*
X70842142Y-83288166D02*
X70889761Y-83335785D01*
X70937380Y-83478642D01*
X70937380Y-83573880D01*
X70889761Y-83716738D01*
X70794523Y-83811976D01*
X70699285Y-83859595D01*
X70508809Y-83907214D01*
X70365952Y-83907214D01*
X70175476Y-83859595D01*
X70080238Y-83811976D01*
X69985000Y-83716738D01*
X69937380Y-83573880D01*
X69937380Y-83478642D01*
X69985000Y-83335785D01*
X70032619Y-83288166D01*
X70937380Y-82335785D02*
X70937380Y-82907214D01*
X70937380Y-82621500D02*
X69937380Y-82621500D01*
X70080238Y-82716738D01*
X70175476Y-82811976D01*
X70223095Y-82907214D01*
X69318142Y-83288166D02*
X69365761Y-83335785D01*
X69413380Y-83478642D01*
X69413380Y-83573880D01*
X69365761Y-83716738D01*
X69270523Y-83811976D01*
X69175285Y-83859595D01*
X68984809Y-83907214D01*
X68841952Y-83907214D01*
X68651476Y-83859595D01*
X68556238Y-83811976D01*
X68461000Y-83716738D01*
X68413380Y-83573880D01*
X68413380Y-83478642D01*
X68461000Y-83335785D01*
X68508619Y-83288166D01*
X68508619Y-82907214D02*
X68461000Y-82859595D01*
X68413380Y-82764357D01*
X68413380Y-82526261D01*
X68461000Y-82431023D01*
X68508619Y-82383404D01*
X68603857Y-82335785D01*
X68699095Y-82335785D01*
X68841952Y-82383404D01*
X69413380Y-82954833D01*
X69413380Y-82335785D01*
X82145142Y-83923166D02*
X82192761Y-83970785D01*
X82240380Y-84113642D01*
X82240380Y-84208880D01*
X82192761Y-84351738D01*
X82097523Y-84446976D01*
X82002285Y-84494595D01*
X81811809Y-84542214D01*
X81668952Y-84542214D01*
X81478476Y-84494595D01*
X81383238Y-84446976D01*
X81288000Y-84351738D01*
X81240380Y-84208880D01*
X81240380Y-84113642D01*
X81288000Y-83970785D01*
X81335619Y-83923166D01*
X81240380Y-83589833D02*
X81240380Y-82970785D01*
X81621333Y-83304119D01*
X81621333Y-83161261D01*
X81668952Y-83066023D01*
X81716571Y-83018404D01*
X81811809Y-82970785D01*
X82049904Y-82970785D01*
X82145142Y-83018404D01*
X82192761Y-83066023D01*
X82240380Y-83161261D01*
X82240380Y-83446976D01*
X82192761Y-83542214D01*
X82145142Y-83589833D01*
X67651333Y-75795142D02*
X67603714Y-75842761D01*
X67460857Y-75890380D01*
X67365619Y-75890380D01*
X67222761Y-75842761D01*
X67127523Y-75747523D01*
X67079904Y-75652285D01*
X67032285Y-75461809D01*
X67032285Y-75318952D01*
X67079904Y-75128476D01*
X67127523Y-75033238D01*
X67222761Y-74938000D01*
X67365619Y-74890380D01*
X67460857Y-74890380D01*
X67603714Y-74938000D01*
X67651333Y-74985619D01*
X68508476Y-75223714D02*
X68508476Y-75890380D01*
X68270380Y-74842761D02*
X68032285Y-75557047D01*
X68651333Y-75557047D01*
X68032333Y-93638642D02*
X67984714Y-93686261D01*
X67841857Y-93733880D01*
X67746619Y-93733880D01*
X67603761Y-93686261D01*
X67508523Y-93591023D01*
X67460904Y-93495785D01*
X67413285Y-93305309D01*
X67413285Y-93162452D01*
X67460904Y-92971976D01*
X67508523Y-92876738D01*
X67603761Y-92781500D01*
X67746619Y-92733880D01*
X67841857Y-92733880D01*
X67984714Y-92781500D01*
X68032333Y-92829119D01*
X68937095Y-92733880D02*
X68460904Y-92733880D01*
X68413285Y-93210071D01*
X68460904Y-93162452D01*
X68556142Y-93114833D01*
X68794238Y-93114833D01*
X68889476Y-93162452D01*
X68937095Y-93210071D01*
X68984714Y-93305309D01*
X68984714Y-93543404D01*
X68937095Y-93638642D01*
X68889476Y-93686261D01*
X68794238Y-93733880D01*
X68556142Y-93733880D01*
X68460904Y-93686261D01*
X68413285Y-93638642D01*
X68032333Y-92051142D02*
X67984714Y-92098761D01*
X67841857Y-92146380D01*
X67746619Y-92146380D01*
X67603761Y-92098761D01*
X67508523Y-92003523D01*
X67460904Y-91908285D01*
X67413285Y-91717809D01*
X67413285Y-91574952D01*
X67460904Y-91384476D01*
X67508523Y-91289238D01*
X67603761Y-91194000D01*
X67746619Y-91146380D01*
X67841857Y-91146380D01*
X67984714Y-91194000D01*
X68032333Y-91241619D01*
X68889476Y-91146380D02*
X68699000Y-91146380D01*
X68603761Y-91194000D01*
X68556142Y-91241619D01*
X68460904Y-91384476D01*
X68413285Y-91574952D01*
X68413285Y-91955904D01*
X68460904Y-92051142D01*
X68508523Y-92098761D01*
X68603761Y-92146380D01*
X68794238Y-92146380D01*
X68889476Y-92098761D01*
X68937095Y-92051142D01*
X68984714Y-91955904D01*
X68984714Y-91717809D01*
X68937095Y-91622571D01*
X68889476Y-91574952D01*
X68794238Y-91527333D01*
X68603761Y-91527333D01*
X68508523Y-91574952D01*
X68460904Y-91622571D01*
X68413285Y-91717809D01*
X68032333Y-90463642D02*
X67984714Y-90511261D01*
X67841857Y-90558880D01*
X67746619Y-90558880D01*
X67603761Y-90511261D01*
X67508523Y-90416023D01*
X67460904Y-90320785D01*
X67413285Y-90130309D01*
X67413285Y-89987452D01*
X67460904Y-89796976D01*
X67508523Y-89701738D01*
X67603761Y-89606500D01*
X67746619Y-89558880D01*
X67841857Y-89558880D01*
X67984714Y-89606500D01*
X68032333Y-89654119D01*
X68365666Y-89558880D02*
X69032333Y-89558880D01*
X68603761Y-90558880D01*
X68032333Y-88876142D02*
X67984714Y-88923761D01*
X67841857Y-88971380D01*
X67746619Y-88971380D01*
X67603761Y-88923761D01*
X67508523Y-88828523D01*
X67460904Y-88733285D01*
X67413285Y-88542809D01*
X67413285Y-88399952D01*
X67460904Y-88209476D01*
X67508523Y-88114238D01*
X67603761Y-88019000D01*
X67746619Y-87971380D01*
X67841857Y-87971380D01*
X67984714Y-88019000D01*
X68032333Y-88066619D01*
X68603761Y-88399952D02*
X68508523Y-88352333D01*
X68460904Y-88304714D01*
X68413285Y-88209476D01*
X68413285Y-88161857D01*
X68460904Y-88066619D01*
X68508523Y-88019000D01*
X68603761Y-87971380D01*
X68794238Y-87971380D01*
X68889476Y-88019000D01*
X68937095Y-88066619D01*
X68984714Y-88161857D01*
X68984714Y-88209476D01*
X68937095Y-88304714D01*
X68889476Y-88352333D01*
X68794238Y-88399952D01*
X68603761Y-88399952D01*
X68508523Y-88447571D01*
X68460904Y-88495190D01*
X68413285Y-88590428D01*
X68413285Y-88780904D01*
X68460904Y-88876142D01*
X68508523Y-88923761D01*
X68603761Y-88971380D01*
X68794238Y-88971380D01*
X68889476Y-88923761D01*
X68937095Y-88876142D01*
X68984714Y-88780904D01*
X68984714Y-88590428D01*
X68937095Y-88495190D01*
X68889476Y-88447571D01*
X68794238Y-88399952D01*
X89638142Y-75191785D02*
X89685761Y-75239404D01*
X89733380Y-75382261D01*
X89733380Y-75477500D01*
X89685761Y-75620357D01*
X89590523Y-75715595D01*
X89495285Y-75763214D01*
X89304809Y-75810833D01*
X89161952Y-75810833D01*
X88971476Y-75763214D01*
X88876238Y-75715595D01*
X88781000Y-75620357D01*
X88733380Y-75477500D01*
X88733380Y-75382261D01*
X88781000Y-75239404D01*
X88828619Y-75191785D01*
X88733380Y-74572738D02*
X88733380Y-74382261D01*
X88781000Y-74287023D01*
X88876238Y-74191785D01*
X89066714Y-74144166D01*
X89400047Y-74144166D01*
X89590523Y-74191785D01*
X89685761Y-74287023D01*
X89733380Y-74382261D01*
X89733380Y-74572738D01*
X89685761Y-74667976D01*
X89590523Y-74763214D01*
X89400047Y-74810833D01*
X89066714Y-74810833D01*
X88876238Y-74763214D01*
X88781000Y-74667976D01*
X88733380Y-74572738D01*
X89733380Y-73715595D02*
X88733380Y-73715595D01*
X89733380Y-73144166D01*
X88733380Y-73144166D01*
X89733380Y-72144166D02*
X89733380Y-72715595D01*
X89733380Y-72429880D02*
X88733380Y-72429880D01*
X88876238Y-72525119D01*
X88971476Y-72620357D01*
X89019095Y-72715595D01*
D12*
X98565380Y-87324285D02*
X98565380Y-87895714D01*
X98565380Y-87610000D02*
X97565380Y-87610000D01*
X97708238Y-87705238D01*
X97803476Y-87800476D01*
X97851095Y-87895714D01*
D13*
X75080904Y-94876880D02*
X75080904Y-93876880D01*
X75461857Y-93876880D01*
X75557095Y-93924500D01*
X75604714Y-93972119D01*
X75652333Y-94067357D01*
X75652333Y-94210214D01*
X75604714Y-94305452D01*
X75557095Y-94353071D01*
X75461857Y-94400690D01*
X75080904Y-94400690D01*
X76604714Y-94876880D02*
X76033285Y-94876880D01*
X76319000Y-94876880D02*
X76319000Y-93876880D01*
X76223761Y-94019738D01*
X76128523Y-94114976D01*
X76033285Y-94162595D01*
X83573880Y-92305095D02*
X82573880Y-92305095D01*
X82573880Y-91924142D01*
X82621500Y-91828904D01*
X82669119Y-91781285D01*
X82764357Y-91733666D01*
X82907214Y-91733666D01*
X83002452Y-91781285D01*
X83050071Y-91828904D01*
X83097690Y-91924142D01*
X83097690Y-92305095D01*
X82669119Y-91352714D02*
X82621500Y-91305095D01*
X82573880Y-91209857D01*
X82573880Y-90971761D01*
X82621500Y-90876523D01*
X82669119Y-90828904D01*
X82764357Y-90781285D01*
X82859595Y-90781285D01*
X83002452Y-90828904D01*
X83573880Y-91400333D01*
X83573880Y-90781285D01*
X85288380Y-89765095D02*
X84288380Y-89765095D01*
X84288380Y-89384142D01*
X84336000Y-89288904D01*
X84383619Y-89241285D01*
X84478857Y-89193666D01*
X84621714Y-89193666D01*
X84716952Y-89241285D01*
X84764571Y-89288904D01*
X84812190Y-89384142D01*
X84812190Y-89765095D01*
X84288380Y-88860333D02*
X84288380Y-88241285D01*
X84669333Y-88574619D01*
X84669333Y-88431761D01*
X84716952Y-88336523D01*
X84764571Y-88288904D01*
X84859809Y-88241285D01*
X85097904Y-88241285D01*
X85193142Y-88288904D01*
X85240761Y-88336523D01*
X85288380Y-88431761D01*
X85288380Y-88717476D01*
X85240761Y-88812714D01*
X85193142Y-88860333D01*
X89558904Y-94876880D02*
X89558904Y-93876880D01*
X89939857Y-93876880D01*
X90035095Y-93924500D01*
X90082714Y-93972119D01*
X90130333Y-94067357D01*
X90130333Y-94210214D01*
X90082714Y-94305452D01*
X90035095Y-94353071D01*
X89939857Y-94400690D01*
X89558904Y-94400690D01*
X90987476Y-94210214D02*
X90987476Y-94876880D01*
X90749380Y-93829261D02*
X90511285Y-94543547D01*
X91130333Y-94543547D01*
X69286380Y-67667095D02*
X68286380Y-67667095D01*
X68286380Y-67286142D01*
X68334000Y-67190904D01*
X68381619Y-67143285D01*
X68476857Y-67095666D01*
X68619714Y-67095666D01*
X68714952Y-67143285D01*
X68762571Y-67190904D01*
X68810190Y-67286142D01*
X68810190Y-67667095D01*
X68286380Y-66190904D02*
X68286380Y-66667095D01*
X68762571Y-66714714D01*
X68714952Y-66667095D01*
X68667333Y-66571857D01*
X68667333Y-66333761D01*
X68714952Y-66238523D01*
X68762571Y-66190904D01*
X68857809Y-66143285D01*
X69095904Y-66143285D01*
X69191142Y-66190904D01*
X69238761Y-66238523D01*
X69286380Y-66333761D01*
X69286380Y-66571857D01*
X69238761Y-66667095D01*
X69191142Y-66714714D01*
X63761880Y-67349595D02*
X62761880Y-67349595D01*
X62761880Y-66968642D01*
X62809500Y-66873404D01*
X62857119Y-66825785D01*
X62952357Y-66778166D01*
X63095214Y-66778166D01*
X63190452Y-66825785D01*
X63238071Y-66873404D01*
X63285690Y-66968642D01*
X63285690Y-67349595D01*
X62761880Y-65921023D02*
X62761880Y-66111500D01*
X62809500Y-66206738D01*
X62857119Y-66254357D01*
X62999976Y-66349595D01*
X63190452Y-66397214D01*
X63571404Y-66397214D01*
X63666642Y-66349595D01*
X63714261Y-66301976D01*
X63761880Y-66206738D01*
X63761880Y-66016261D01*
X63714261Y-65921023D01*
X63666642Y-65873404D01*
X63571404Y-65825785D01*
X63333309Y-65825785D01*
X63238071Y-65873404D01*
X63190452Y-65921023D01*
X63142833Y-66016261D01*
X63142833Y-66206738D01*
X63190452Y-66301976D01*
X63238071Y-66349595D01*
X63333309Y-66397214D01*
D12*
X60846380Y-93674285D02*
X60846380Y-94245714D01*
X60846380Y-93960000D02*
X59846380Y-93960000D01*
X59989238Y-94055238D01*
X60084476Y-94150476D01*
X60132095Y-94245714D01*
D13*
X64523880Y-84367595D02*
X63523880Y-84367595D01*
X63523880Y-83986642D01*
X63571500Y-83891404D01*
X63619119Y-83843785D01*
X63714357Y-83796166D01*
X63857214Y-83796166D01*
X63952452Y-83843785D01*
X64000071Y-83891404D01*
X64047690Y-83986642D01*
X64047690Y-84367595D01*
X64523880Y-83319976D02*
X64523880Y-83129500D01*
X64476261Y-83034261D01*
X64428642Y-82986642D01*
X64285785Y-82891404D01*
X64095309Y-82843785D01*
X63714357Y-82843785D01*
X63619119Y-82891404D01*
X63571500Y-82939023D01*
X63523880Y-83034261D01*
X63523880Y-83224738D01*
X63571500Y-83319976D01*
X63619119Y-83367595D01*
X63714357Y-83415214D01*
X63952452Y-83415214D01*
X64047690Y-83367595D01*
X64095309Y-83319976D01*
X64142928Y-83224738D01*
X64142928Y-83034261D01*
X64095309Y-82939023D01*
X64047690Y-82891404D01*
X63952452Y-82843785D01*
X63555714Y-94940380D02*
X63555714Y-93940380D01*
X63936666Y-93940380D01*
X64031904Y-93988000D01*
X64079523Y-94035619D01*
X64127142Y-94130857D01*
X64127142Y-94273714D01*
X64079523Y-94368952D01*
X64031904Y-94416571D01*
X63936666Y-94464190D01*
X63555714Y-94464190D01*
X65079523Y-94940380D02*
X64508095Y-94940380D01*
X64793809Y-94940380D02*
X64793809Y-93940380D01*
X64698571Y-94083238D01*
X64603333Y-94178476D01*
X64508095Y-94226095D01*
X65698571Y-93940380D02*
X65793809Y-93940380D01*
X65889047Y-93988000D01*
X65936666Y-94035619D01*
X65984285Y-94130857D01*
X66031904Y-94321333D01*
X66031904Y-94559428D01*
X65984285Y-94749904D01*
X65936666Y-94845142D01*
X65889047Y-94892761D01*
X65793809Y-94940380D01*
X65698571Y-94940380D01*
X65603333Y-94892761D01*
X65555714Y-94845142D01*
X65508095Y-94749904D01*
X65460476Y-94559428D01*
X65460476Y-94321333D01*
X65508095Y-94130857D01*
X65555714Y-94035619D01*
X65603333Y-93988000D01*
X65698571Y-93940380D01*
X70127880Y-75501404D02*
X70937404Y-75501404D01*
X71032642Y-75453785D01*
X71080261Y-75406166D01*
X71127880Y-75310928D01*
X71127880Y-75120452D01*
X71080261Y-75025214D01*
X71032642Y-74977595D01*
X70937404Y-74929976D01*
X70127880Y-74929976D01*
X71127880Y-73929976D02*
X71127880Y-74501404D01*
X71127880Y-74215690D02*
X70127880Y-74215690D01*
X70270738Y-74310928D01*
X70365976Y-74406166D01*
X70413595Y-74501404D01*
X79883095Y-86447380D02*
X79883095Y-87256904D01*
X79930714Y-87352142D01*
X79978333Y-87399761D01*
X80073571Y-87447380D01*
X80264047Y-87447380D01*
X80359285Y-87399761D01*
X80406904Y-87352142D01*
X80454523Y-87256904D01*
X80454523Y-86447380D01*
X80883095Y-86542619D02*
X80930714Y-86495000D01*
X81025952Y-86447380D01*
X81264047Y-86447380D01*
X81359285Y-86495000D01*
X81406904Y-86542619D01*
X81454523Y-86637857D01*
X81454523Y-86733095D01*
X81406904Y-86875952D01*
X80835476Y-87447380D01*
X81454523Y-87447380D01*
X86828404Y-67127380D02*
X86828404Y-66127380D01*
X87066500Y-66127380D01*
X87209357Y-66175000D01*
X87304595Y-66270238D01*
X87352214Y-66365476D01*
X87399833Y-66555952D01*
X87399833Y-66698809D01*
X87352214Y-66889285D01*
X87304595Y-66984523D01*
X87209357Y-67079761D01*
X87066500Y-67127380D01*
X86828404Y-67127380D01*
X88352214Y-67127380D02*
X87780785Y-67127380D01*
X88066500Y-67127380D02*
X88066500Y-66127380D01*
X87971261Y-66270238D01*
X87876023Y-66365476D01*
X87780785Y-66413095D01*
X86828404Y-69159380D02*
X86828404Y-68159380D01*
X87066500Y-68159380D01*
X87209357Y-68207000D01*
X87304595Y-68302238D01*
X87352214Y-68397476D01*
X87399833Y-68587952D01*
X87399833Y-68730809D01*
X87352214Y-68921285D01*
X87304595Y-69016523D01*
X87209357Y-69111761D01*
X87066500Y-69159380D01*
X86828404Y-69159380D01*
X87780785Y-68254619D02*
X87828404Y-68207000D01*
X87923642Y-68159380D01*
X88161738Y-68159380D01*
X88256976Y-68207000D01*
X88304595Y-68254619D01*
X88352214Y-68349857D01*
X88352214Y-68445095D01*
X88304595Y-68587952D01*
X87733166Y-69159380D01*
X88352214Y-69159380D01*
X86828404Y-71191380D02*
X86828404Y-70191380D01*
X87066500Y-70191380D01*
X87209357Y-70239000D01*
X87304595Y-70334238D01*
X87352214Y-70429476D01*
X87399833Y-70619952D01*
X87399833Y-70762809D01*
X87352214Y-70953285D01*
X87304595Y-71048523D01*
X87209357Y-71143761D01*
X87066500Y-71191380D01*
X86828404Y-71191380D01*
X87733166Y-70191380D02*
X88352214Y-70191380D01*
X88018880Y-70572333D01*
X88161738Y-70572333D01*
X88256976Y-70619952D01*
X88304595Y-70667571D01*
X88352214Y-70762809D01*
X88352214Y-71000904D01*
X88304595Y-71096142D01*
X88256976Y-71143761D01*
X88161738Y-71191380D01*
X87876023Y-71191380D01*
X87780785Y-71143761D01*
X87733166Y-71096142D01*
X85304333Y-67127380D02*
X84971000Y-66651190D01*
X84732904Y-67127380D02*
X84732904Y-66127380D01*
X85113857Y-66127380D01*
X85209095Y-66175000D01*
X85256714Y-66222619D01*
X85304333Y-66317857D01*
X85304333Y-66460714D01*
X85256714Y-66555952D01*
X85209095Y-66603571D01*
X85113857Y-66651190D01*
X84732904Y-66651190D01*
X86256714Y-67127380D02*
X85685285Y-67127380D01*
X85971000Y-67127380D02*
X85971000Y-66127380D01*
X85875761Y-66270238D01*
X85780523Y-66365476D01*
X85685285Y-66413095D01*
X85304333Y-69159380D02*
X84971000Y-68683190D01*
X84732904Y-69159380D02*
X84732904Y-68159380D01*
X85113857Y-68159380D01*
X85209095Y-68207000D01*
X85256714Y-68254619D01*
X85304333Y-68349857D01*
X85304333Y-68492714D01*
X85256714Y-68587952D01*
X85209095Y-68635571D01*
X85113857Y-68683190D01*
X84732904Y-68683190D01*
X85685285Y-68254619D02*
X85732904Y-68207000D01*
X85828142Y-68159380D01*
X86066238Y-68159380D01*
X86161476Y-68207000D01*
X86209095Y-68254619D01*
X86256714Y-68349857D01*
X86256714Y-68445095D01*
X86209095Y-68587952D01*
X85637666Y-69159380D01*
X86256714Y-69159380D01*
X85304333Y-71254880D02*
X84971000Y-70778690D01*
X84732904Y-71254880D02*
X84732904Y-70254880D01*
X85113857Y-70254880D01*
X85209095Y-70302500D01*
X85256714Y-70350119D01*
X85304333Y-70445357D01*
X85304333Y-70588214D01*
X85256714Y-70683452D01*
X85209095Y-70731071D01*
X85113857Y-70778690D01*
X84732904Y-70778690D01*
X85637666Y-70254880D02*
X86256714Y-70254880D01*
X85923380Y-70635833D01*
X86066238Y-70635833D01*
X86161476Y-70683452D01*
X86209095Y-70731071D01*
X86256714Y-70826309D01*
X86256714Y-71064404D01*
X86209095Y-71159642D01*
X86161476Y-71207261D01*
X86066238Y-71254880D01*
X85780523Y-71254880D01*
X85685285Y-71207261D01*
X85637666Y-71159642D01*
X83573880Y-77954095D02*
X82573880Y-77954095D01*
X82573880Y-77573142D01*
X82621500Y-77477904D01*
X82669119Y-77430285D01*
X82764357Y-77382666D01*
X82907214Y-77382666D01*
X83002452Y-77430285D01*
X83050071Y-77477904D01*
X83097690Y-77573142D01*
X83097690Y-77954095D01*
X82573880Y-77049333D02*
X82573880Y-76382666D01*
X83573880Y-76811238D01*
M02*
