G04 #@! TF.GenerationSoftware,KiCad,Pcbnew,(2017-05-12 revision b823d0b78)-makepkg*
G04 #@! TF.CreationDate,2017-05-13T14:09:32+02:00*
G04 #@! TF.ProjectId,jtagTc2050Adaptor,6A74616754633230353041646170746F,1.0*
G04 #@! TF.FileFunction,Soldermask,Top*
G04 #@! TF.FilePolarity,Negative*
%FSLAX46Y46*%
G04 Gerber Fmt 4.6, Leading zero omitted, Abs format (unit mm)*
G04 Created by KiCad (PCBNEW (2017-05-12 revision b823d0b78)-makepkg) date 05/13/17 14:09:32*
%MOMM*%
%LPD*%
G01*
G04 APERTURE LIST*
%ADD10C,0.100000*%
%ADD11R,1.150000X1.600000*%
%ADD12R,1.600000X1.150000*%
%ADD13O,2.127200X2.127200*%
%ADD14R,2.127200X2.127200*%
%ADD15O,2.100000X2.100000*%
%ADD16R,2.100000X2.100000*%
%ADD17C,1.300000*%
%ADD18R,2.400000X2.900000*%
%ADD19R,0.900000X2.700000*%
%ADD20R,2.150000X0.850000*%
%ADD21R,2.400000X1.900000*%
%ADD22R,2.400000X4.200000*%
%ADD23R,1.600000X1.600000*%
%ADD24R,1.600000X1.300000*%
G04 APERTURE END LIST*
D10*
D11*
X70485000Y-78679000D03*
X70485000Y-80579000D03*
X68961000Y-80579000D03*
X68961000Y-78679000D03*
X81788000Y-81910000D03*
X81788000Y-80010000D03*
D12*
X70292000Y-76708000D03*
X68392000Y-76708000D03*
X70109000Y-93281500D03*
X72009000Y-93281500D03*
X70106500Y-91694000D03*
X72006500Y-91694000D03*
X70106500Y-90106500D03*
X72006500Y-90106500D03*
X72006500Y-88519000D03*
X70106500Y-88519000D03*
D13*
X93853000Y-77470000D03*
X96393000Y-77470000D03*
X93853000Y-80010000D03*
X96393000Y-80010000D03*
X93853000Y-82550000D03*
X96393000Y-82550000D03*
X93853000Y-85090000D03*
X96393000Y-85090000D03*
X93853000Y-87630000D03*
D14*
X96393000Y-87630000D03*
D15*
X76835000Y-96901000D03*
D16*
X79375000Y-96901000D03*
X84328000Y-94361000D03*
D15*
X86868000Y-96901000D03*
X86868000Y-94361000D03*
D16*
X86868000Y-91821000D03*
D15*
X96393000Y-96901000D03*
X93853000Y-96901000D03*
D16*
X91313000Y-96901000D03*
D17*
X74000000Y-69415000D03*
X78400000Y-69415000D03*
D18*
X71750000Y-66415000D03*
X71750000Y-71915000D03*
X80650000Y-66415000D03*
X80650000Y-71915000D03*
D19*
X74600000Y-72015000D03*
X75400000Y-72015000D03*
X76200000Y-72015000D03*
X77000000Y-72015000D03*
X77800000Y-72015000D03*
D14*
X58674000Y-93980000D03*
D13*
X56134000Y-93980000D03*
X58674000Y-91440000D03*
X56134000Y-91440000D03*
X58674000Y-88900000D03*
X56134000Y-88900000D03*
X58674000Y-86360000D03*
X56134000Y-86360000D03*
X58674000Y-83820000D03*
X56134000Y-83820000D03*
X58674000Y-81280000D03*
X56134000Y-81280000D03*
X58674000Y-78740000D03*
X56134000Y-78740000D03*
X58674000Y-76200000D03*
X56134000Y-76200000D03*
X58674000Y-73660000D03*
X56134000Y-73660000D03*
X58674000Y-71120000D03*
X56134000Y-71120000D03*
D16*
X65278000Y-86360000D03*
D15*
X65278000Y-88900000D03*
X65278000Y-91440000D03*
D16*
X65278000Y-96901000D03*
D15*
X67818000Y-96901000D03*
X70358000Y-96901000D03*
D20*
X72600000Y-83854000D03*
X72600000Y-83204000D03*
X72600000Y-82554000D03*
X72600000Y-81904000D03*
X72600000Y-81254000D03*
X72600000Y-80604000D03*
X72600000Y-79954000D03*
X72600000Y-79304000D03*
X72600000Y-78654000D03*
X72600000Y-78004000D03*
X72600000Y-77354000D03*
X72600000Y-76704000D03*
X72600000Y-76054000D03*
X72600000Y-75404000D03*
X79800000Y-75404000D03*
X79800000Y-76054000D03*
X79800000Y-76704000D03*
X79800000Y-77354000D03*
X79800000Y-78004000D03*
X79800000Y-78654000D03*
X79800000Y-79304000D03*
X79800000Y-79954000D03*
X79800000Y-80604000D03*
X79800000Y-81254000D03*
X79800000Y-81904000D03*
X79800000Y-82554000D03*
X79800000Y-83204000D03*
X79800000Y-83854000D03*
D21*
X74383500Y-87806500D03*
X74383500Y-92406500D03*
X74383500Y-90106500D03*
D22*
X80683500Y-90106500D03*
D23*
X96563000Y-66675000D03*
X98763000Y-66675000D03*
X98763000Y-68707000D03*
X96563000Y-68707000D03*
X96563000Y-70739000D03*
X98763000Y-70739000D03*
D24*
X90340000Y-66675000D03*
X92540000Y-66675000D03*
X92540000Y-68707000D03*
X90340000Y-68707000D03*
X90340000Y-70739000D03*
X92540000Y-70739000D03*
D15*
X86868000Y-85090000D03*
X84328000Y-85090000D03*
X86868000Y-82550000D03*
X84328000Y-82550000D03*
X86868000Y-80010000D03*
D16*
X84328000Y-80010000D03*
M02*
