M48
;DRILL file {KiCad (2017-01-09 revision c2fb336)-makepkg} date 04/23/17 15:34:30
;FORMAT={-:-/ absolute / inch / decimal}
FMAT,2
INCH,TZ
T1C0.016
T2C0.020
T3C0.031
T4C0.032
T5C0.039
T6C0.040
T7C0.040
T8C0.120
T9C0.035
%
G90
G05
M72
T1
X4.49Y-4.425
T2
X3.1915Y-4.0289
X3.1915Y-4.2389
X3.2025Y-3.6819
X3.2365Y-4.0289
X3.2365Y-4.2389
X3.4015Y-3.5239
X3.4015Y-3.6139
X3.4165Y-4.2389
X3.4215Y-4.0289
X3.4615Y-4.2389
X3.4615Y-4.0289
X3.5615Y-4.0889
X3.5615Y-4.1489
X3.7445Y-4.6839
X3.7505Y-4.8079
X3.8045Y-4.6319
X3.8215Y-4.7689
X3.8279Y-4.0624
X3.8645Y-4.6319
X3.9105Y-4.8539
X3.9165Y-4.6319
X3.98Y-4.495
X4.0265Y-4.2339
X4.0365Y-3.8939
X4.0515Y-4.0295
X4.0525Y-4.4799
X4.0825Y-4.3719
X4.0945Y-4.4799
X4.1265Y-3.8939
X4.1365Y-4.4799
X4.15Y-4.07
X4.1925Y-3.4219
X4.1965Y-3.7639
X4.2265Y-3.5639
X4.3815Y-4.5773
X4.51Y-4.53
X4.5325Y-4.0479
X4.5326Y-3.9888
X4.6205Y-4.4579
X5.0525Y-4.7939
T3
X3.2865Y-3.5339
X3.2865Y-3.6126
X3.8765Y-3.81
X4.0686Y-3.81
X4.4265Y-3.8051
X4.4265Y-3.8839
T4
X4.2505Y-3.6439
X4.3765Y-3.6439
X4.5024Y-3.6439
T5
X4.0665Y-3.4239
X4.0665Y-3.5239
X4.0665Y-3.6239
X4.2765Y-3.4639
X4.3665Y-4.1181
X4.3765Y-3.4639
X4.4665Y-4.1181
X4.4765Y-3.4639
T6
X3.3815Y-4.6339
X3.3815Y-4.7339
X3.4815Y-4.6339
X3.4815Y-4.7339
X3.5815Y-4.6339
X3.5815Y-4.7339
X4.0315Y-4.6339
X4.0315Y-4.7339
X4.1315Y-4.6339
X4.1315Y-4.7339
X4.2315Y-4.6339
X4.2315Y-4.7339
X4.3315Y-4.6339
X4.3315Y-4.7339
X4.4315Y-4.6339
X4.4315Y-4.7339
T7
X4.7065Y-3.9189
X4.7065Y-4.0287
X4.7065Y-4.1339
X4.7065Y-4.2441
X4.7065Y-4.3539
X4.8065Y-3.974
X4.8065Y-4.0839
X4.8065Y-4.189
X4.8065Y-4.2988
T8
X4.8065Y-3.639
X4.8065Y-4.639
T9
X3.3543Y-4.0472
X3.3543Y-4.2205
T0
M30
