G04 #@! TF.GenerationSoftware,KiCad,Pcbnew,(2017-05-12 revision b823d0b78)-makepkg*
G04 #@! TF.CreationDate,2017-05-13T13:58:34+02:00*
G04 #@! TF.ProjectId,avrIspMk2Clone,6176724973704D6B32436C6F6E652E6B,1.0*
G04 #@! TF.FileFunction,Copper,L2,Bot,Signal*
G04 #@! TF.FilePolarity,Positive*
%FSLAX46Y46*%
G04 Gerber Fmt 4.6, Leading zero omitted, Abs format (unit mm)*
G04 Created by KiCad (PCBNEW (2017-05-12 revision b823d0b78)-makepkg) date 05/13/17 13:58:34*
%MOMM*%
%LPD*%
G01*
G04 APERTURE LIST*
%ADD10C,0.100000*%
%ADD11C,0.200000*%
%ADD12O,1.700000X1.700000*%
%ADD13R,1.700000X1.700000*%
%ADD14O,1.727200X1.727200*%
%ADD15R,1.727200X1.727200*%
%ADD16C,1.500000*%
%ADD17R,1.600000X1.600000*%
%ADD18C,1.600000*%
%ADD19R,1.700000X3.300000*%
%ADD20C,3.810000*%
%ADD21R,1.520000X1.520000*%
%ADD22C,1.520000*%
%ADD23C,2.000000*%
%ADD24R,2.000000X2.000000*%
%ADD25R,1.200000X0.750000*%
%ADD26R,0.750000X1.200000*%
%ADD27R,1.200000X0.900000*%
%ADD28C,0.800000*%
%ADD29C,1.000000*%
%ADD30C,0.300000*%
%ADD31C,0.500000*%
%ADD32C,0.254000*%
G04 APERTURE END LIST*
D10*
D11*
X128727428Y-86017380D02*
X128632190Y-86017380D01*
X128536952Y-86065000D01*
X128489333Y-86112619D01*
X128441714Y-86207857D01*
X128394095Y-86398333D01*
X128394095Y-86636428D01*
X128441714Y-86826904D01*
X128489333Y-86922142D01*
X128536952Y-86969761D01*
X128632190Y-87017380D01*
X128727428Y-87017380D01*
X128822666Y-86969761D01*
X128870285Y-86922142D01*
X128917904Y-86826904D01*
X128965523Y-86636428D01*
X128965523Y-86398333D01*
X128917904Y-86207857D01*
X128870285Y-86112619D01*
X128822666Y-86065000D01*
X128727428Y-86017380D01*
X127489333Y-86017380D02*
X127965523Y-86017380D01*
X128013142Y-86493571D01*
X127965523Y-86445952D01*
X127870285Y-86398333D01*
X127632190Y-86398333D01*
X127536952Y-86445952D01*
X127489333Y-86493571D01*
X127441714Y-86588809D01*
X127441714Y-86826904D01*
X127489333Y-86922142D01*
X127536952Y-86969761D01*
X127632190Y-87017380D01*
X127870285Y-87017380D01*
X127965523Y-86969761D01*
X128013142Y-86922142D01*
X126298857Y-85969761D02*
X127156000Y-87255476D01*
X126013142Y-86112619D02*
X125965523Y-86065000D01*
X125870285Y-86017380D01*
X125632190Y-86017380D01*
X125536952Y-86065000D01*
X125489333Y-86112619D01*
X125441714Y-86207857D01*
X125441714Y-86303095D01*
X125489333Y-86445952D01*
X126060761Y-87017380D01*
X125441714Y-87017380D01*
X124822666Y-86017380D02*
X124727428Y-86017380D01*
X124632190Y-86065000D01*
X124584571Y-86112619D01*
X124536952Y-86207857D01*
X124489333Y-86398333D01*
X124489333Y-86636428D01*
X124536952Y-86826904D01*
X124584571Y-86922142D01*
X124632190Y-86969761D01*
X124727428Y-87017380D01*
X124822666Y-87017380D01*
X124917904Y-86969761D01*
X124965523Y-86922142D01*
X125013142Y-86826904D01*
X125060761Y-86636428D01*
X125060761Y-86398333D01*
X125013142Y-86207857D01*
X124965523Y-86112619D01*
X124917904Y-86065000D01*
X124822666Y-86017380D01*
X123536952Y-87017380D02*
X124108380Y-87017380D01*
X123822666Y-87017380D02*
X123822666Y-86017380D01*
X123917904Y-86160238D01*
X124013142Y-86255476D01*
X124108380Y-86303095D01*
X123203619Y-86017380D02*
X122536952Y-86017380D01*
X122965523Y-87017380D01*
X128346476Y-88717380D02*
X128679809Y-88241190D01*
X128917904Y-88717380D02*
X128917904Y-87717380D01*
X128536952Y-87717380D01*
X128441714Y-87765000D01*
X128394095Y-87812619D01*
X128346476Y-87907857D01*
X128346476Y-88050714D01*
X128394095Y-88145952D01*
X128441714Y-88193571D01*
X128536952Y-88241190D01*
X128917904Y-88241190D01*
X127536952Y-88669761D02*
X127632190Y-88717380D01*
X127822666Y-88717380D01*
X127917904Y-88669761D01*
X127965523Y-88574523D01*
X127965523Y-88193571D01*
X127917904Y-88098333D01*
X127822666Y-88050714D01*
X127632190Y-88050714D01*
X127536952Y-88098333D01*
X127489333Y-88193571D01*
X127489333Y-88288809D01*
X127965523Y-88384047D01*
X127156000Y-88050714D02*
X126917904Y-88717380D01*
X126679809Y-88050714D01*
X126298857Y-88622142D02*
X126251238Y-88669761D01*
X126298857Y-88717380D01*
X126346476Y-88669761D01*
X126298857Y-88622142D01*
X126298857Y-88717380D01*
X126298857Y-88098333D02*
X126251238Y-88145952D01*
X126298857Y-88193571D01*
X126346476Y-88145952D01*
X126298857Y-88098333D01*
X126298857Y-88193571D01*
X124536952Y-88717380D02*
X125108380Y-88717380D01*
X124822666Y-88717380D02*
X124822666Y-87717380D01*
X124917904Y-87860238D01*
X125013142Y-87955476D01*
X125108380Y-88003095D01*
X124108380Y-88622142D02*
X124060761Y-88669761D01*
X124108380Y-88717380D01*
X124156000Y-88669761D01*
X124108380Y-88622142D01*
X124108380Y-88717380D01*
X123441714Y-87717380D02*
X123346476Y-87717380D01*
X123251238Y-87765000D01*
X123203619Y-87812619D01*
X123156000Y-87907857D01*
X123108380Y-88098333D01*
X123108380Y-88336428D01*
X123156000Y-88526904D01*
X123203619Y-88622142D01*
X123251238Y-88669761D01*
X123346476Y-88717380D01*
X123441714Y-88717380D01*
X123536952Y-88669761D01*
X123584571Y-88622142D01*
X123632190Y-88526904D01*
X123679809Y-88336428D01*
X123679809Y-88098333D01*
X123632190Y-87907857D01*
X123584571Y-87812619D01*
X123536952Y-87765000D01*
X123441714Y-87717380D01*
X128727428Y-89417380D02*
X128632190Y-89417380D01*
X128536952Y-89465000D01*
X128489333Y-89512619D01*
X128441714Y-89607857D01*
X128394095Y-89798333D01*
X128394095Y-90036428D01*
X128441714Y-90226904D01*
X128489333Y-90322142D01*
X128536952Y-90369761D01*
X128632190Y-90417380D01*
X128727428Y-90417380D01*
X128822666Y-90369761D01*
X128870285Y-90322142D01*
X128917904Y-90226904D01*
X128965523Y-90036428D01*
X128965523Y-89798333D01*
X128917904Y-89607857D01*
X128870285Y-89512619D01*
X128822666Y-89465000D01*
X128727428Y-89417380D01*
X127775047Y-89417380D02*
X127679809Y-89417380D01*
X127584571Y-89465000D01*
X127536952Y-89512619D01*
X127489333Y-89607857D01*
X127441714Y-89798333D01*
X127441714Y-90036428D01*
X127489333Y-90226904D01*
X127536952Y-90322142D01*
X127584571Y-90369761D01*
X127679809Y-90417380D01*
X127775047Y-90417380D01*
X127870285Y-90369761D01*
X127917904Y-90322142D01*
X127965523Y-90226904D01*
X128013142Y-90036428D01*
X128013142Y-89798333D01*
X127965523Y-89607857D01*
X127917904Y-89512619D01*
X127870285Y-89465000D01*
X127775047Y-89417380D01*
X126822666Y-89417380D02*
X126727428Y-89417380D01*
X126632190Y-89465000D01*
X126584571Y-89512619D01*
X126536952Y-89607857D01*
X126489333Y-89798333D01*
X126489333Y-90036428D01*
X126536952Y-90226904D01*
X126584571Y-90322142D01*
X126632190Y-90369761D01*
X126727428Y-90417380D01*
X126822666Y-90417380D01*
X126917904Y-90369761D01*
X126965523Y-90322142D01*
X127013142Y-90226904D01*
X127060761Y-90036428D01*
X127060761Y-89798333D01*
X127013142Y-89607857D01*
X126965523Y-89512619D01*
X126917904Y-89465000D01*
X126822666Y-89417380D01*
X125536952Y-90417380D02*
X126108380Y-90417380D01*
X125822666Y-90417380D02*
X125822666Y-89417380D01*
X125917904Y-89560238D01*
X126013142Y-89655476D01*
X126108380Y-89703095D01*
D12*
X110908000Y-104600000D03*
D13*
X113448000Y-104600000D03*
D14*
X90969000Y-117700000D03*
X90969000Y-120240000D03*
X88429000Y-117700000D03*
X88429000Y-120240000D03*
X85889000Y-117700000D03*
D15*
X85889000Y-120240000D03*
D16*
X98462000Y-96774000D03*
X103342000Y-96774000D03*
D17*
X83476000Y-91760000D03*
D18*
X83476000Y-89760000D03*
D17*
X112432000Y-96650000D03*
D18*
X112432000Y-98650000D03*
D19*
X90461000Y-113465000D03*
X90461000Y-107965000D03*
X90461000Y-101273000D03*
X90461000Y-95773000D03*
D20*
X122084000Y-117830000D03*
X122084000Y-92430000D03*
D21*
X119544000Y-99540000D03*
D22*
X119544000Y-102330000D03*
X119544000Y-105000000D03*
X119544000Y-107800000D03*
X119544000Y-110590000D03*
X122084000Y-100940000D03*
X122084000Y-103730000D03*
X122084000Y-106400000D03*
X122084000Y-109190000D03*
D15*
X102399000Y-120240000D03*
D14*
X102399000Y-117700000D03*
X104939000Y-120240000D03*
X104939000Y-117700000D03*
X107479000Y-120240000D03*
X107479000Y-117700000D03*
X110019000Y-120240000D03*
X110019000Y-117700000D03*
X112559000Y-120240000D03*
X112559000Y-117700000D03*
D12*
X108622000Y-87982000D03*
X111162000Y-87982000D03*
D13*
X113702000Y-87982000D03*
D23*
X107962000Y-92554000D03*
X111162000Y-92554000D03*
D24*
X114362000Y-92554000D03*
D25*
X106300000Y-104600000D03*
X108200000Y-104600000D03*
D26*
X103800000Y-106800000D03*
X103800000Y-104900000D03*
D25*
X102358000Y-94687600D03*
X104258000Y-94687600D03*
X97512000Y-94687600D03*
X99412000Y-94687600D03*
D26*
X101600000Y-104300000D03*
X101600000Y-102400000D03*
D12*
X103288000Y-86966000D03*
X103288000Y-89506000D03*
D13*
X103288000Y-92046000D03*
D27*
X108452000Y-107082800D03*
X106252000Y-107082800D03*
D28*
X114046000Y-112395000D03*
D29*
X104811998Y-98904000D03*
X102526000Y-98904000D03*
X103694400Y-111045200D03*
X128332400Y-121764000D03*
X86905000Y-102333000D03*
X86778000Y-107667000D03*
X86397000Y-91792000D03*
X86397000Y-89506000D03*
X87920990Y-107667000D03*
X87921000Y-102333000D03*
X81063000Y-102333000D03*
X82206000Y-102333000D03*
X81063000Y-107667000D03*
X82206000Y-107667000D03*
X105410000Y-103378000D03*
X102272000Y-107540000D03*
X102907000Y-102350002D03*
X90461000Y-105381000D03*
X90461000Y-103857000D03*
X107352000Y-90522000D03*
X106590000Y-95602000D03*
X106488400Y-86915200D03*
X81342400Y-93519200D03*
X115127843Y-101316639D03*
X101092000Y-114173000D03*
X97228752Y-103185248D03*
X114554000Y-115062004D03*
X97065000Y-121129000D03*
X99478000Y-117649200D03*
X111289000Y-116264000D03*
X95261600Y-122119600D03*
X98157200Y-117649200D03*
X95109201Y-118970000D03*
X96633200Y-117649200D03*
X117359600Y-113229600D03*
X115124400Y-102815600D03*
X99325600Y-123288002D03*
X105066000Y-113788398D03*
X103999200Y-113788400D03*
X102932400Y-113788398D03*
D30*
X108200000Y-104600000D02*
X110908000Y-104600000D01*
X108200000Y-105660000D02*
X108452000Y-105912000D01*
X108452000Y-105912000D02*
X108452000Y-107082800D01*
X108200000Y-104600000D02*
X108200000Y-105660000D01*
D31*
X110646000Y-89506000D02*
X111162000Y-90022000D01*
X111162000Y-90022000D02*
X111162000Y-92554000D01*
X103288000Y-89506000D02*
X110646000Y-89506000D01*
X110646000Y-89506000D02*
X111162000Y-88990000D01*
X111162000Y-88990000D02*
X111162000Y-87982000D01*
X111252000Y-88072000D02*
X111162000Y-87982000D01*
D30*
X104910001Y-102878001D02*
X105410000Y-103378000D01*
X102907000Y-102350002D02*
X104382002Y-102350002D01*
X104382002Y-102350002D02*
X104910001Y-102878001D01*
X101600000Y-102400000D02*
X102857002Y-102400000D01*
X102857002Y-102400000D02*
X102907000Y-102350002D01*
X103800000Y-106800000D02*
X103012000Y-106800000D01*
X103012000Y-106800000D02*
X102272000Y-107540000D01*
X105050800Y-107082800D02*
X104768000Y-106800000D01*
X104768000Y-106800000D02*
X103800000Y-106800000D01*
X106252000Y-107082800D02*
X105050800Y-107082800D01*
D31*
X111162000Y-92554000D02*
X111162000Y-95380000D01*
X111162000Y-95380000D02*
X112432000Y-96650000D01*
D30*
X106102000Y-107082800D02*
X106002000Y-107082800D01*
X104558000Y-94687600D02*
X104558000Y-95558000D01*
X104558000Y-95558000D02*
X103342000Y-96774000D01*
X97212000Y-94687600D02*
X97212000Y-95524000D01*
X97212000Y-95524000D02*
X98462000Y-96774000D01*
X90461000Y-107965000D02*
X90461000Y-105381000D01*
X90461000Y-101273000D02*
X90461000Y-103857000D01*
X107352000Y-90522000D02*
X106336000Y-91538000D01*
X106590000Y-94586000D02*
X106590000Y-95602000D01*
X106336000Y-94332000D02*
X106590000Y-94586000D01*
X106336000Y-91538000D02*
X106336000Y-94332000D01*
X105988401Y-86415201D02*
X106488400Y-86915200D01*
X85094410Y-85652390D02*
X105225590Y-85652390D01*
X81342400Y-93519200D02*
X81342400Y-89404400D01*
X81342400Y-89404400D02*
X85094410Y-85652390D01*
X105225590Y-85652390D02*
X105988401Y-86415201D01*
X116140400Y-102329196D02*
X115127843Y-101316639D01*
X116140400Y-103501400D02*
X116140400Y-102329196D01*
X117639000Y-105000000D02*
X116140400Y-103501400D01*
X119544000Y-105000000D02*
X117639000Y-105000000D01*
X100592001Y-113673001D02*
X101092000Y-114173000D01*
X97228752Y-110309752D02*
X100592001Y-113673001D01*
X97228752Y-103185248D02*
X97228752Y-110309752D01*
X122084000Y-110959432D02*
X122084000Y-110264802D01*
X104939000Y-120240000D02*
X107140011Y-122441011D01*
X122084000Y-110264802D02*
X122084000Y-109190000D01*
X113666255Y-122441011D02*
X115336389Y-120770877D01*
X115336389Y-120770877D02*
X115336389Y-117707043D01*
X107140011Y-122441011D02*
X113666255Y-122441011D01*
X115336389Y-117707043D02*
X122084000Y-110959432D01*
X113846894Y-115062004D02*
X114554000Y-115062004D01*
X112490996Y-115062004D02*
X113846894Y-115062004D01*
X111289000Y-116264000D02*
X112490996Y-115062004D01*
X99478000Y-118716000D02*
X97564999Y-120629001D01*
X99478000Y-117649200D02*
X99478000Y-118716000D01*
X97564999Y-120629001D02*
X97065000Y-121129000D01*
X95261600Y-122119600D02*
X95261600Y-120900400D01*
X95261600Y-120900400D02*
X98157200Y-118004800D01*
X98157200Y-118004800D02*
X98157200Y-117649200D01*
X102399000Y-121403600D02*
X102399000Y-120240000D01*
X113894077Y-122991022D02*
X103986422Y-122991022D01*
X115886400Y-120998699D02*
X113894077Y-122991022D01*
X103986422Y-122991022D02*
X102399000Y-121403600D01*
X115886400Y-117934864D02*
X115886400Y-120998699D01*
X122084000Y-100940000D02*
X123481000Y-102337000D01*
X123481000Y-102337000D02*
X123481000Y-110340264D01*
X123481000Y-110340264D02*
X115886400Y-117934864D01*
X96633200Y-117649200D02*
X95312400Y-118970000D01*
X95312400Y-118970000D02*
X95109201Y-118970000D01*
X115207000Y-104600000D02*
X113448000Y-104600000D01*
X114786378Y-120543055D02*
X114786378Y-117479222D01*
X113438433Y-121891000D02*
X114786378Y-120543055D01*
X119544000Y-111664802D02*
X119544000Y-110590000D01*
X119544000Y-112721600D02*
X119544000Y-111664802D01*
X114786378Y-117479222D02*
X119544000Y-112721600D01*
X107479000Y-120240000D02*
X109130000Y-121891000D01*
X109130000Y-121891000D02*
X113438433Y-121891000D01*
X115207000Y-104600000D02*
X117766000Y-107159000D01*
X117766000Y-107159000D02*
X117766000Y-108810000D01*
X117766000Y-108810000D02*
X119544000Y-110588000D01*
X119544000Y-110588000D02*
X119544000Y-110590000D01*
X104939000Y-117700000D02*
X106202601Y-118963601D01*
X106202601Y-118963601D02*
X113429966Y-118963601D01*
X113429966Y-118963601D02*
X114236367Y-118157200D01*
X114236367Y-118157200D02*
X114236367Y-117251403D01*
X114236367Y-117251403D02*
X117359600Y-114128170D01*
X117359600Y-114128170D02*
X117359600Y-113229600D01*
X115124400Y-102815600D02*
X115124400Y-103522706D01*
X115124400Y-103522706D02*
X119401694Y-107800000D01*
X119401694Y-107800000D02*
X119544000Y-107800000D01*
D31*
X85889000Y-117700000D02*
X83933200Y-119655800D01*
X83933200Y-119655800D02*
X83933200Y-122068800D01*
X83933200Y-122068800D02*
X86066800Y-124202400D01*
X99274798Y-123288002D02*
X99325600Y-123288002D01*
X86066800Y-124202400D02*
X98360400Y-124202400D01*
X98360400Y-124202400D02*
X99274798Y-123288002D01*
X99325600Y-123288002D02*
X100341600Y-122272002D01*
X100341600Y-122272002D02*
X100341600Y-119757400D01*
X100341600Y-119757400D02*
X100443200Y-119655800D01*
X100443200Y-119655800D02*
X102399000Y-117700000D01*
X105066000Y-113788398D02*
X103999202Y-113788398D01*
X103999202Y-113788398D02*
X103999200Y-113788400D01*
X102932400Y-113788398D02*
X103999198Y-113788398D01*
X103999198Y-113788398D02*
X103999200Y-113788400D01*
X102399000Y-114321798D02*
X102432401Y-114288397D01*
X102432401Y-114288397D02*
X102932400Y-113788398D01*
X102399000Y-117700000D02*
X102399000Y-114321798D01*
X113702000Y-90268000D02*
X114362000Y-90928000D01*
X114362000Y-90928000D02*
X114362000Y-92554000D01*
X113702000Y-87982000D02*
X113702000Y-90268000D01*
D32*
G36*
X121689095Y-89889654D02*
X121580979Y-89889560D01*
X120647085Y-90275437D01*
X119931948Y-90989327D01*
X119544441Y-91922546D01*
X119543560Y-92933021D01*
X119929437Y-93866915D01*
X120643327Y-94582052D01*
X121576546Y-94969559D01*
X122587021Y-94970440D01*
X123520915Y-94584563D01*
X124236052Y-93870673D01*
X124623559Y-92937454D01*
X124624440Y-91926979D01*
X124460412Y-91530000D01*
X129290000Y-91530000D01*
X129290000Y-124290000D01*
X99872740Y-124290000D01*
X99967686Y-124250769D01*
X100287245Y-123931767D01*
X100460403Y-123514758D01*
X100460499Y-123404682D01*
X100967387Y-122897794D01*
X100967390Y-122897792D01*
X101159233Y-122610677D01*
X101199653Y-122407474D01*
X101226601Y-122272002D01*
X101226600Y-122271997D01*
X101226600Y-121660974D01*
X101287635Y-121701757D01*
X101535400Y-121751040D01*
X101705181Y-121751040D01*
X101843921Y-121958679D01*
X103431343Y-123546101D01*
X103686016Y-123716267D01*
X103986422Y-123776022D01*
X113894077Y-123776022D01*
X114194484Y-123716267D01*
X114449156Y-123546101D01*
X116441479Y-121553778D01*
X116611645Y-121299106D01*
X116671400Y-120998699D01*
X116671400Y-118333021D01*
X119543560Y-118333021D01*
X119929437Y-119266915D01*
X120643327Y-119982052D01*
X121576546Y-120369559D01*
X122587021Y-120370440D01*
X123520915Y-119984563D01*
X124236052Y-119270673D01*
X124623559Y-118337454D01*
X124624440Y-117326979D01*
X124238563Y-116393085D01*
X123524673Y-115677948D01*
X122591454Y-115290441D01*
X121580979Y-115289560D01*
X120647085Y-115675437D01*
X119931948Y-116389327D01*
X119544441Y-117322546D01*
X119543560Y-118333021D01*
X116671400Y-118333021D01*
X116671400Y-118260022D01*
X124036079Y-110895343D01*
X124206245Y-110640671D01*
X124266000Y-110340264D01*
X124266000Y-102337000D01*
X124236004Y-102186200D01*
X124206245Y-102036593D01*
X124036079Y-101781921D01*
X123477027Y-101222869D01*
X123478758Y-101218700D01*
X123479242Y-100663735D01*
X123267313Y-100150828D01*
X122875236Y-99758066D01*
X122362700Y-99545242D01*
X121807735Y-99544758D01*
X121294828Y-99756687D01*
X120939000Y-100111894D01*
X120939000Y-99825750D01*
X120780250Y-99667000D01*
X119671000Y-99667000D01*
X119671000Y-99687000D01*
X119417000Y-99687000D01*
X119417000Y-99667000D01*
X118307750Y-99667000D01*
X118149000Y-99825750D01*
X118149000Y-100426309D01*
X118245673Y-100659698D01*
X118424301Y-100838327D01*
X118657690Y-100935000D01*
X119258250Y-100935000D01*
X119416998Y-100776252D01*
X119416998Y-100934888D01*
X119267735Y-100934758D01*
X118754828Y-101146687D01*
X118362066Y-101538764D01*
X118149242Y-102051300D01*
X118148758Y-102606265D01*
X118360687Y-103119172D01*
X118752764Y-103511934D01*
X119121662Y-103665114D01*
X118754828Y-103816687D01*
X118362066Y-104208764D01*
X118359477Y-104215000D01*
X117964158Y-104215000D01*
X116925400Y-103176242D01*
X116925400Y-102329196D01*
X116865645Y-102028790D01*
X116695479Y-101774117D01*
X116262822Y-101341460D01*
X116263040Y-101091864D01*
X116090610Y-100674553D01*
X115771608Y-100354994D01*
X115354599Y-100181836D01*
X114903068Y-100181442D01*
X114485757Y-100353872D01*
X114166198Y-100672874D01*
X113993040Y-101089883D01*
X113992646Y-101541414D01*
X114165076Y-101958725D01*
X114270472Y-102064305D01*
X114162755Y-102171835D01*
X113989597Y-102588844D01*
X113989203Y-103040375D01*
X114014897Y-103102560D01*
X112598000Y-103102560D01*
X112350235Y-103151843D01*
X112140191Y-103292191D01*
X111999843Y-103502235D01*
X111987403Y-103564777D01*
X111958054Y-103520853D01*
X111476285Y-103198946D01*
X110908000Y-103085907D01*
X110339715Y-103198946D01*
X109857946Y-103520853D01*
X109661404Y-103815000D01*
X109289754Y-103815000D01*
X109257809Y-103767191D01*
X109047765Y-103626843D01*
X108800000Y-103577560D01*
X107600000Y-103577560D01*
X107352235Y-103626843D01*
X107260898Y-103687873D01*
X107259698Y-103686673D01*
X107026309Y-103590000D01*
X106585750Y-103590000D01*
X106526205Y-103649545D01*
X106544803Y-103604756D01*
X106545197Y-103153225D01*
X106372767Y-102735914D01*
X106053765Y-102416355D01*
X105636756Y-102243197D01*
X105385135Y-102242977D01*
X104937081Y-101794923D01*
X104682409Y-101624757D01*
X104382002Y-101565002D01*
X103727102Y-101565002D01*
X103550765Y-101388357D01*
X103133756Y-101215199D01*
X102682225Y-101214805D01*
X102410311Y-101327158D01*
X102222765Y-101201843D01*
X101975000Y-101152560D01*
X101225000Y-101152560D01*
X100977235Y-101201843D01*
X100767191Y-101342191D01*
X100626843Y-101552235D01*
X100577560Y-101800000D01*
X100577560Y-103000000D01*
X100626843Y-103247765D01*
X100687873Y-103339102D01*
X100686673Y-103340302D01*
X100590000Y-103573691D01*
X100590000Y-104014250D01*
X100748750Y-104173000D01*
X101473000Y-104173000D01*
X101473000Y-104153000D01*
X101727000Y-104153000D01*
X101727000Y-104173000D01*
X102451250Y-104173000D01*
X102610000Y-104014250D01*
X102610000Y-103573691D01*
X102550943Y-103431114D01*
X102680244Y-103484805D01*
X103131775Y-103485199D01*
X103549086Y-103312769D01*
X103727163Y-103135002D01*
X104056844Y-103135002D01*
X104275021Y-103353179D01*
X104274803Y-103602775D01*
X104300514Y-103665000D01*
X104085750Y-103665000D01*
X103927000Y-103823750D01*
X103927000Y-104773000D01*
X104651250Y-104773000D01*
X104810000Y-104614250D01*
X104810000Y-104357818D01*
X105183244Y-104512803D01*
X105634775Y-104513197D01*
X105732059Y-104473000D01*
X106173000Y-104473000D01*
X106173000Y-104453000D01*
X106427000Y-104453000D01*
X106427000Y-104473000D01*
X106447000Y-104473000D01*
X106447000Y-104727000D01*
X106427000Y-104727000D01*
X106427000Y-105451250D01*
X106585750Y-105610000D01*
X107026309Y-105610000D01*
X107259698Y-105513327D01*
X107260898Y-105512127D01*
X107352235Y-105573157D01*
X107415000Y-105585642D01*
X107415000Y-105660000D01*
X107474755Y-105960407D01*
X107549013Y-106071542D01*
X107394191Y-106174991D01*
X107352000Y-106238134D01*
X107309809Y-106174991D01*
X107099765Y-106034643D01*
X106852000Y-105985360D01*
X105652000Y-105985360D01*
X105404235Y-106034643D01*
X105206306Y-106166896D01*
X105068407Y-106074755D01*
X104786368Y-106018654D01*
X104773157Y-105952235D01*
X104712127Y-105860898D01*
X104713327Y-105859698D01*
X104810000Y-105626309D01*
X104810000Y-105185750D01*
X104651250Y-105027000D01*
X103927000Y-105027000D01*
X103927000Y-105047000D01*
X103673000Y-105047000D01*
X103673000Y-105027000D01*
X102948750Y-105027000D01*
X102790000Y-105185750D01*
X102790000Y-105626309D01*
X102886673Y-105859698D01*
X102887873Y-105860898D01*
X102826843Y-105952235D01*
X102806216Y-106055933D01*
X102711593Y-106074755D01*
X102456921Y-106244921D01*
X102296821Y-106405021D01*
X102047225Y-106404803D01*
X101629914Y-106577233D01*
X101310355Y-106896235D01*
X101137197Y-107313244D01*
X101136803Y-107764775D01*
X101309233Y-108182086D01*
X101628235Y-108501645D01*
X102045244Y-108674803D01*
X102496775Y-108675197D01*
X102914086Y-108502767D01*
X103233645Y-108183765D01*
X103300533Y-108022682D01*
X103425000Y-108047440D01*
X104175000Y-108047440D01*
X104422765Y-107998157D01*
X104632809Y-107857809D01*
X104692091Y-107769088D01*
X104750394Y-107808045D01*
X105050800Y-107867801D01*
X105050805Y-107867800D01*
X105112132Y-107867800D01*
X105194191Y-107990609D01*
X105404235Y-108130957D01*
X105652000Y-108180240D01*
X106852000Y-108180240D01*
X107099765Y-108130957D01*
X107309809Y-107990609D01*
X107352000Y-107927466D01*
X107394191Y-107990609D01*
X107604235Y-108130957D01*
X107852000Y-108180240D01*
X109052000Y-108180240D01*
X109299765Y-108130957D01*
X109509809Y-107990609D01*
X109650157Y-107780565D01*
X109699440Y-107532800D01*
X109699440Y-106632800D01*
X109650157Y-106385035D01*
X109509809Y-106174991D01*
X109299765Y-106034643D01*
X109237000Y-106022158D01*
X109237000Y-105912000D01*
X109177245Y-105611594D01*
X109119524Y-105525209D01*
X109257809Y-105432809D01*
X109289754Y-105385000D01*
X109661404Y-105385000D01*
X109857946Y-105679147D01*
X110339715Y-106001054D01*
X110908000Y-106114093D01*
X111476285Y-106001054D01*
X111958054Y-105679147D01*
X111987403Y-105635223D01*
X111999843Y-105697765D01*
X112140191Y-105907809D01*
X112350235Y-106048157D01*
X112598000Y-106097440D01*
X114298000Y-106097440D01*
X114545765Y-106048157D01*
X114755809Y-105907809D01*
X114896157Y-105697765D01*
X114945440Y-105450000D01*
X114945440Y-105448598D01*
X116981000Y-107484157D01*
X116981000Y-108810000D01*
X117040755Y-109110407D01*
X117210921Y-109365079D01*
X118151560Y-110305718D01*
X118149242Y-110311300D01*
X118148758Y-110866265D01*
X118360687Y-111379172D01*
X118752764Y-111771934D01*
X118759000Y-111774523D01*
X118759000Y-112396442D01*
X118394165Y-112761277D01*
X118322367Y-112587514D01*
X118003365Y-112267955D01*
X117586356Y-112094797D01*
X117134825Y-112094403D01*
X116717514Y-112266833D01*
X116397955Y-112585835D01*
X116224797Y-113002844D01*
X116224403Y-113454375D01*
X116396833Y-113871686D01*
X116451332Y-113926281D01*
X115645687Y-114731926D01*
X115516767Y-114419918D01*
X115197765Y-114100359D01*
X114780756Y-113927201D01*
X114329225Y-113926807D01*
X113911914Y-114099237D01*
X113733837Y-114277004D01*
X112490996Y-114277004D01*
X112190589Y-114336759D01*
X111935917Y-114506925D01*
X111313821Y-115129021D01*
X111064225Y-115128803D01*
X110646914Y-115301233D01*
X110327355Y-115620235D01*
X110154197Y-116037244D01*
X110153914Y-116361421D01*
X110146000Y-116365531D01*
X110146000Y-117573000D01*
X112432000Y-117573000D01*
X112432000Y-116365531D01*
X112423916Y-116361333D01*
X112424023Y-116239135D01*
X112816154Y-115847004D01*
X113733898Y-115847004D01*
X113910235Y-116023649D01*
X114223771Y-116153841D01*
X113681288Y-116696324D01*
X113660842Y-116726923D01*
X113447490Y-116493179D01*
X112918027Y-116245032D01*
X112686000Y-116365531D01*
X112686000Y-117573000D01*
X112706000Y-117573000D01*
X112706000Y-117827000D01*
X112686000Y-117827000D01*
X112686000Y-117847000D01*
X112432000Y-117847000D01*
X112432000Y-117827000D01*
X110146000Y-117827000D01*
X110146000Y-117847000D01*
X109892000Y-117847000D01*
X109892000Y-117827000D01*
X109872000Y-117827000D01*
X109872000Y-117573000D01*
X109892000Y-117573000D01*
X109892000Y-116365531D01*
X109659973Y-116245032D01*
X109130510Y-116493179D01*
X108748992Y-116911161D01*
X108568029Y-116640330D01*
X108081848Y-116315474D01*
X107508359Y-116201400D01*
X107449641Y-116201400D01*
X106876152Y-116315474D01*
X106389971Y-116640330D01*
X106209000Y-116911172D01*
X106028029Y-116640330D01*
X105541848Y-116315474D01*
X104968359Y-116201400D01*
X104909641Y-116201400D01*
X104336152Y-116315474D01*
X103849971Y-116640330D01*
X103669000Y-116911172D01*
X103488029Y-116640330D01*
X103284000Y-116504002D01*
X103284000Y-114871192D01*
X103466042Y-114795973D01*
X103772444Y-114923203D01*
X104223975Y-114923597D01*
X104532847Y-114795973D01*
X104839244Y-114923201D01*
X105290775Y-114923595D01*
X105708086Y-114751165D01*
X106027645Y-114432163D01*
X106200803Y-114015154D01*
X106201197Y-113563623D01*
X106028767Y-113146312D01*
X105709765Y-112826753D01*
X105292756Y-112653595D01*
X104841225Y-112653201D01*
X104532353Y-112780825D01*
X104225956Y-112653597D01*
X103774425Y-112653203D01*
X103465558Y-112780825D01*
X103159156Y-112653595D01*
X102707625Y-112653201D01*
X102290314Y-112825631D01*
X101970755Y-113144633D01*
X101882156Y-113358002D01*
X101735765Y-113211355D01*
X101318756Y-113038197D01*
X101067135Y-113037977D01*
X98013752Y-109984594D01*
X98013752Y-104585750D01*
X100590000Y-104585750D01*
X100590000Y-105026309D01*
X100686673Y-105259698D01*
X100865301Y-105438327D01*
X101098690Y-105535000D01*
X101314250Y-105535000D01*
X101473000Y-105376250D01*
X101473000Y-104427000D01*
X101727000Y-104427000D01*
X101727000Y-105376250D01*
X101885750Y-105535000D01*
X102101310Y-105535000D01*
X102334699Y-105438327D01*
X102513327Y-105259698D01*
X102610000Y-105026309D01*
X102610000Y-104885750D01*
X105065000Y-104885750D01*
X105065000Y-105101310D01*
X105161673Y-105334699D01*
X105340302Y-105513327D01*
X105573691Y-105610000D01*
X106014250Y-105610000D01*
X106173000Y-105451250D01*
X106173000Y-104727000D01*
X105223750Y-104727000D01*
X105065000Y-104885750D01*
X102610000Y-104885750D01*
X102610000Y-104585750D01*
X102451250Y-104427000D01*
X101727000Y-104427000D01*
X101473000Y-104427000D01*
X100748750Y-104427000D01*
X100590000Y-104585750D01*
X98013752Y-104585750D01*
X98013752Y-104173691D01*
X102790000Y-104173691D01*
X102790000Y-104614250D01*
X102948750Y-104773000D01*
X103673000Y-104773000D01*
X103673000Y-103823750D01*
X103514250Y-103665000D01*
X103298690Y-103665000D01*
X103065301Y-103761673D01*
X102886673Y-103940302D01*
X102790000Y-104173691D01*
X98013752Y-104173691D01*
X98013752Y-104005350D01*
X98190397Y-103829013D01*
X98363555Y-103412004D01*
X98363949Y-102960473D01*
X98191519Y-102543162D01*
X97872517Y-102223603D01*
X97455508Y-102050445D01*
X97003977Y-102050051D01*
X96586666Y-102222481D01*
X96267107Y-102541483D01*
X96093949Y-102958492D01*
X96093555Y-103410023D01*
X96265985Y-103827334D01*
X96443752Y-104005411D01*
X96443752Y-110309752D01*
X96503507Y-110610159D01*
X96673673Y-110864831D01*
X99957021Y-114148179D01*
X99956803Y-114397775D01*
X100129233Y-114815086D01*
X100448235Y-115134645D01*
X100865244Y-115307803D01*
X101316775Y-115308197D01*
X101514000Y-115226705D01*
X101514000Y-116504002D01*
X101309971Y-116640330D01*
X100985115Y-117126511D01*
X100871041Y-117700000D01*
X100916895Y-117930525D01*
X100263000Y-118584420D01*
X100263000Y-118469302D01*
X100439645Y-118292965D01*
X100612803Y-117875956D01*
X100613197Y-117424425D01*
X100440767Y-117007114D01*
X100121765Y-116687555D01*
X99704756Y-116514397D01*
X99253225Y-116514003D01*
X98835914Y-116686433D01*
X98817848Y-116704467D01*
X98800965Y-116687555D01*
X98383956Y-116514397D01*
X97932425Y-116514003D01*
X97515114Y-116686433D01*
X97395271Y-116806067D01*
X97276965Y-116687555D01*
X96859956Y-116514397D01*
X96408425Y-116514003D01*
X95991114Y-116686433D01*
X95671555Y-117005435D01*
X95498397Y-117422444D01*
X95498177Y-117674065D01*
X95336726Y-117835516D01*
X95335957Y-117835197D01*
X94884426Y-117834803D01*
X94467115Y-118007233D01*
X94147556Y-118326235D01*
X93974398Y-118743244D01*
X93974004Y-119194775D01*
X94146434Y-119612086D01*
X94465436Y-119931645D01*
X94882445Y-120104803D01*
X94946983Y-120104859D01*
X94706521Y-120345321D01*
X94536355Y-120599993D01*
X94520768Y-120678355D01*
X94476600Y-120900400D01*
X94476600Y-121299498D01*
X94299955Y-121475835D01*
X94126797Y-121892844D01*
X94126403Y-122344375D01*
X94298833Y-122761686D01*
X94617835Y-123081245D01*
X95034844Y-123254403D01*
X95486375Y-123254797D01*
X95903686Y-123082367D01*
X96223245Y-122763365D01*
X96396403Y-122346356D01*
X96396648Y-122066015D01*
X96421235Y-122090645D01*
X96838244Y-122263803D01*
X97289775Y-122264197D01*
X97707086Y-122091767D01*
X98026645Y-121772765D01*
X98199803Y-121355756D01*
X98200023Y-121104135D01*
X99456600Y-119847558D01*
X99456600Y-121905423D01*
X99209123Y-122152899D01*
X99100825Y-122152805D01*
X98683514Y-122325235D01*
X98363955Y-122644237D01*
X98190797Y-123061246D01*
X98190745Y-123120475D01*
X97993820Y-123317400D01*
X86433379Y-123317400D01*
X84827694Y-121711714D01*
X85025400Y-121751040D01*
X86752600Y-121751040D01*
X87000365Y-121701757D01*
X87210409Y-121561409D01*
X87350757Y-121351365D01*
X87358568Y-121312096D01*
X87826152Y-121624526D01*
X88399641Y-121738600D01*
X88458359Y-121738600D01*
X89031848Y-121624526D01*
X89518029Y-121299670D01*
X89699000Y-121028828D01*
X89879971Y-121299670D01*
X90366152Y-121624526D01*
X90939641Y-121738600D01*
X90998359Y-121738600D01*
X91571848Y-121624526D01*
X92058029Y-121299670D01*
X92382885Y-120813489D01*
X92496959Y-120240000D01*
X92382885Y-119666511D01*
X92058029Y-119180330D01*
X91734772Y-118964336D01*
X91857490Y-118906821D01*
X92251688Y-118474947D01*
X92423958Y-118059026D01*
X92302817Y-117827000D01*
X91096000Y-117827000D01*
X91096000Y-117847000D01*
X90842000Y-117847000D01*
X90842000Y-117827000D01*
X90822000Y-117827000D01*
X90822000Y-117573000D01*
X90842000Y-117573000D01*
X90842000Y-116365531D01*
X91096000Y-116365531D01*
X91096000Y-117573000D01*
X92302817Y-117573000D01*
X92423958Y-117340974D01*
X92251688Y-116925053D01*
X91857490Y-116493179D01*
X91328027Y-116245032D01*
X91096000Y-116365531D01*
X90842000Y-116365531D01*
X90609973Y-116245032D01*
X90080510Y-116493179D01*
X89698992Y-116911161D01*
X89518029Y-116640330D01*
X89031848Y-116315474D01*
X88458359Y-116201400D01*
X88399641Y-116201400D01*
X87826152Y-116315474D01*
X87339971Y-116640330D01*
X87159000Y-116911172D01*
X86978029Y-116640330D01*
X86491848Y-116315474D01*
X85918359Y-116201400D01*
X85859641Y-116201400D01*
X85286152Y-116315474D01*
X84799971Y-116640330D01*
X84475115Y-117126511D01*
X84361041Y-117700000D01*
X84406895Y-117930525D01*
X83307410Y-119030010D01*
X83115567Y-119317125D01*
X83115567Y-119317126D01*
X83048199Y-119655800D01*
X83048200Y-119655805D01*
X83048200Y-122068795D01*
X83048199Y-122068800D01*
X83103016Y-122344375D01*
X83115567Y-122407475D01*
X83274887Y-122645916D01*
X83307410Y-122694590D01*
X84902821Y-124290000D01*
X80710000Y-124290000D01*
X80710000Y-113750750D01*
X88976000Y-113750750D01*
X88976000Y-115241309D01*
X89072673Y-115474698D01*
X89251301Y-115653327D01*
X89484690Y-115750000D01*
X90175250Y-115750000D01*
X90334000Y-115591250D01*
X90334000Y-113592000D01*
X90588000Y-113592000D01*
X90588000Y-115591250D01*
X90746750Y-115750000D01*
X91437310Y-115750000D01*
X91670699Y-115653327D01*
X91849327Y-115474698D01*
X91946000Y-115241309D01*
X91946000Y-113750750D01*
X91787250Y-113592000D01*
X90588000Y-113592000D01*
X90334000Y-113592000D01*
X89134750Y-113592000D01*
X88976000Y-113750750D01*
X80710000Y-113750750D01*
X80710000Y-111688691D01*
X88976000Y-111688691D01*
X88976000Y-113179250D01*
X89134750Y-113338000D01*
X90334000Y-113338000D01*
X90334000Y-111338750D01*
X90588000Y-111338750D01*
X90588000Y-113338000D01*
X91787250Y-113338000D01*
X91946000Y-113179250D01*
X91946000Y-111688691D01*
X91849327Y-111455302D01*
X91670699Y-111276673D01*
X91437310Y-111180000D01*
X90746750Y-111180000D01*
X90588000Y-111338750D01*
X90334000Y-111338750D01*
X90175250Y-111180000D01*
X89484690Y-111180000D01*
X89251301Y-111276673D01*
X89072673Y-111455302D01*
X88976000Y-111688691D01*
X80710000Y-111688691D01*
X80710000Y-107414873D01*
X84114812Y-107414873D01*
X84279646Y-107813800D01*
X84584595Y-108119282D01*
X84983233Y-108284811D01*
X85414873Y-108285188D01*
X85813800Y-108120354D01*
X86119282Y-107815405D01*
X86284811Y-107416767D01*
X86285188Y-106985127D01*
X86120354Y-106586200D01*
X85815405Y-106280718D01*
X85416767Y-106115189D01*
X84985127Y-106114812D01*
X84586200Y-106279646D01*
X84280718Y-106584595D01*
X84115189Y-106983233D01*
X84114812Y-107414873D01*
X80710000Y-107414873D01*
X80710000Y-103014873D01*
X84114812Y-103014873D01*
X84279646Y-103413800D01*
X84584595Y-103719282D01*
X84983233Y-103884811D01*
X85414873Y-103885188D01*
X85813800Y-103720354D01*
X86119282Y-103415405D01*
X86284811Y-103016767D01*
X86285188Y-102585127D01*
X86120354Y-102186200D01*
X85815405Y-101880718D01*
X85416767Y-101715189D01*
X84985127Y-101714812D01*
X84586200Y-101879646D01*
X84280718Y-102184595D01*
X84115189Y-102583233D01*
X84114812Y-103014873D01*
X80710000Y-103014873D01*
X80710000Y-99623000D01*
X88963560Y-99623000D01*
X88963560Y-102923000D01*
X89012843Y-103170765D01*
X89153191Y-103380809D01*
X89363235Y-103521157D01*
X89370864Y-103522674D01*
X89326197Y-103630244D01*
X89325803Y-104081775D01*
X89498233Y-104499086D01*
X89617867Y-104618929D01*
X89499355Y-104737235D01*
X89326197Y-105154244D01*
X89325803Y-105605775D01*
X89371053Y-105715288D01*
X89363235Y-105716843D01*
X89153191Y-105857191D01*
X89012843Y-106067235D01*
X88963560Y-106315000D01*
X88963560Y-109615000D01*
X89012843Y-109862765D01*
X89153191Y-110072809D01*
X89363235Y-110213157D01*
X89611000Y-110262440D01*
X91311000Y-110262440D01*
X91558765Y-110213157D01*
X91768809Y-110072809D01*
X91909157Y-109862765D01*
X91958440Y-109615000D01*
X91958440Y-106315000D01*
X91909157Y-106067235D01*
X91768809Y-105857191D01*
X91558765Y-105716843D01*
X91551136Y-105715326D01*
X91595803Y-105607756D01*
X91596197Y-105156225D01*
X91423767Y-104738914D01*
X91304133Y-104619071D01*
X91422645Y-104500765D01*
X91595803Y-104083756D01*
X91596197Y-103632225D01*
X91550947Y-103522712D01*
X91558765Y-103521157D01*
X91768809Y-103380809D01*
X91909157Y-103170765D01*
X91958440Y-102923000D01*
X91958440Y-99657745D01*
X111603861Y-99657745D01*
X111677995Y-99903864D01*
X112215223Y-100096965D01*
X112785454Y-100069778D01*
X113186005Y-99903864D01*
X113260139Y-99657745D01*
X112432000Y-98829605D01*
X111603861Y-99657745D01*
X91958440Y-99657745D01*
X91958440Y-99623000D01*
X91909157Y-99375235D01*
X91768809Y-99165191D01*
X91558765Y-99024843D01*
X91311000Y-98975560D01*
X89611000Y-98975560D01*
X89363235Y-99024843D01*
X89153191Y-99165191D01*
X89012843Y-99375235D01*
X88963560Y-99623000D01*
X80710000Y-99623000D01*
X80710000Y-96058750D01*
X88976000Y-96058750D01*
X88976000Y-97549309D01*
X89072673Y-97782698D01*
X89251301Y-97961327D01*
X89484690Y-98058000D01*
X90175250Y-98058000D01*
X90334000Y-97899250D01*
X90334000Y-95900000D01*
X90588000Y-95900000D01*
X90588000Y-97899250D01*
X90746750Y-98058000D01*
X91437310Y-98058000D01*
X91670699Y-97961327D01*
X91849327Y-97782698D01*
X91946000Y-97549309D01*
X91946000Y-96058750D01*
X91787250Y-95900000D01*
X90588000Y-95900000D01*
X90334000Y-95900000D01*
X89134750Y-95900000D01*
X88976000Y-96058750D01*
X80710000Y-96058750D01*
X80710000Y-94485564D01*
X81115644Y-94654003D01*
X81567175Y-94654397D01*
X81984486Y-94481967D01*
X82304045Y-94162965D01*
X82373088Y-93996691D01*
X88976000Y-93996691D01*
X88976000Y-95487250D01*
X89134750Y-95646000D01*
X90334000Y-95646000D01*
X90334000Y-93646750D01*
X90588000Y-93646750D01*
X90588000Y-95646000D01*
X91787250Y-95646000D01*
X91946000Y-95487250D01*
X91946000Y-94312600D01*
X96264560Y-94312600D01*
X96264560Y-95062600D01*
X96313843Y-95310365D01*
X96427000Y-95479715D01*
X96427000Y-95524000D01*
X96486755Y-95824407D01*
X96656921Y-96079079D01*
X97077239Y-96499397D01*
X97076760Y-97048285D01*
X97287169Y-97557515D01*
X97676436Y-97947461D01*
X98185298Y-98158759D01*
X98736285Y-98159240D01*
X99245515Y-97948831D01*
X99635461Y-97559564D01*
X99846759Y-97050702D01*
X99846761Y-97048285D01*
X101956760Y-97048285D01*
X102167169Y-97557515D01*
X102556436Y-97947461D01*
X103065298Y-98158759D01*
X103616285Y-98159240D01*
X104125515Y-97948831D01*
X104515461Y-97559564D01*
X104726759Y-97050702D01*
X104727240Y-96499715D01*
X104727007Y-96499151D01*
X105113079Y-96113079D01*
X105283245Y-95858406D01*
X105343000Y-95558000D01*
X105343000Y-95479715D01*
X105456157Y-95310365D01*
X105505440Y-95062600D01*
X105505440Y-94312600D01*
X105456157Y-94064835D01*
X105315809Y-93854791D01*
X105105765Y-93714443D01*
X104858000Y-93665160D01*
X103658000Y-93665160D01*
X103410235Y-93714443D01*
X103318898Y-93775473D01*
X103317698Y-93774273D01*
X103084309Y-93677600D01*
X102643750Y-93677600D01*
X102485000Y-93836350D01*
X102485000Y-94560600D01*
X102505000Y-94560600D01*
X102505000Y-94814600D01*
X102485000Y-94814600D01*
X102485000Y-95538850D01*
X102551896Y-95605746D01*
X102168539Y-95988436D01*
X101957241Y-96497298D01*
X101956760Y-97048285D01*
X99846761Y-97048285D01*
X99847240Y-96499715D01*
X99636831Y-95990485D01*
X99247564Y-95600539D01*
X99230427Y-95593423D01*
X99285000Y-95538850D01*
X99285000Y-94814600D01*
X99539000Y-94814600D01*
X99539000Y-95538850D01*
X99697750Y-95697600D01*
X100138309Y-95697600D01*
X100371698Y-95600927D01*
X100550327Y-95422299D01*
X100647000Y-95188910D01*
X100647000Y-94973350D01*
X101123000Y-94973350D01*
X101123000Y-95188910D01*
X101219673Y-95422299D01*
X101398302Y-95600927D01*
X101631691Y-95697600D01*
X102072250Y-95697600D01*
X102231000Y-95538850D01*
X102231000Y-94814600D01*
X101281750Y-94814600D01*
X101123000Y-94973350D01*
X100647000Y-94973350D01*
X100488250Y-94814600D01*
X99539000Y-94814600D01*
X99285000Y-94814600D01*
X99265000Y-94814600D01*
X99265000Y-94560600D01*
X99285000Y-94560600D01*
X99285000Y-93836350D01*
X99539000Y-93836350D01*
X99539000Y-94560600D01*
X100488250Y-94560600D01*
X100647000Y-94401850D01*
X100647000Y-94186290D01*
X101123000Y-94186290D01*
X101123000Y-94401850D01*
X101281750Y-94560600D01*
X102231000Y-94560600D01*
X102231000Y-93836350D01*
X102072250Y-93677600D01*
X101631691Y-93677600D01*
X101398302Y-93774273D01*
X101219673Y-93952901D01*
X101123000Y-94186290D01*
X100647000Y-94186290D01*
X100550327Y-93952901D01*
X100371698Y-93774273D01*
X100138309Y-93677600D01*
X99697750Y-93677600D01*
X99539000Y-93836350D01*
X99285000Y-93836350D01*
X99126250Y-93677600D01*
X98685691Y-93677600D01*
X98452302Y-93774273D01*
X98451102Y-93775473D01*
X98359765Y-93714443D01*
X98112000Y-93665160D01*
X96912000Y-93665160D01*
X96664235Y-93714443D01*
X96454191Y-93854791D01*
X96313843Y-94064835D01*
X96264560Y-94312600D01*
X91946000Y-94312600D01*
X91946000Y-93996691D01*
X91849327Y-93763302D01*
X91670699Y-93584673D01*
X91437310Y-93488000D01*
X90746750Y-93488000D01*
X90588000Y-93646750D01*
X90334000Y-93646750D01*
X90175250Y-93488000D01*
X89484690Y-93488000D01*
X89251301Y-93584673D01*
X89072673Y-93763302D01*
X88976000Y-93996691D01*
X82373088Y-93996691D01*
X82477203Y-93745956D01*
X82477597Y-93294425D01*
X82418644Y-93151748D01*
X82428235Y-93158157D01*
X82676000Y-93207440D01*
X84276000Y-93207440D01*
X84523765Y-93158157D01*
X84733809Y-93017809D01*
X84874157Y-92807765D01*
X84923440Y-92560000D01*
X84923440Y-90960000D01*
X84874157Y-90712235D01*
X84734005Y-90502484D01*
X84922965Y-89976777D01*
X84895778Y-89406546D01*
X84729864Y-89005995D01*
X84483745Y-88931861D01*
X83655605Y-89760000D01*
X83669748Y-89774142D01*
X83490143Y-89953748D01*
X83476000Y-89939605D01*
X83461858Y-89953748D01*
X83282252Y-89774142D01*
X83296395Y-89760000D01*
X83282252Y-89745858D01*
X83461858Y-89566252D01*
X83476000Y-89580395D01*
X84304139Y-88752255D01*
X84230005Y-88506136D01*
X83692777Y-88313035D01*
X83536471Y-88320487D01*
X85419568Y-86437390D01*
X101879054Y-86437390D01*
X101773907Y-86966000D01*
X101886946Y-87534285D01*
X102208853Y-88016054D01*
X102538026Y-88236000D01*
X102208853Y-88455946D01*
X101886946Y-88937715D01*
X101773907Y-89506000D01*
X101886946Y-90074285D01*
X102208853Y-90556054D01*
X102252777Y-90585403D01*
X102190235Y-90597843D01*
X101980191Y-90738191D01*
X101839843Y-90948235D01*
X101790560Y-91196000D01*
X101790560Y-92896000D01*
X101839843Y-93143765D01*
X101980191Y-93353809D01*
X102190235Y-93494157D01*
X102438000Y-93543440D01*
X104138000Y-93543440D01*
X104385765Y-93494157D01*
X104595809Y-93353809D01*
X104736157Y-93143765D01*
X104785440Y-92896000D01*
X104785440Y-91196000D01*
X104736157Y-90948235D01*
X104595809Y-90738191D01*
X104385765Y-90597843D01*
X104323223Y-90585403D01*
X104367147Y-90556054D01*
X104477432Y-90391000D01*
X106217113Y-90391000D01*
X106216977Y-90546865D01*
X105780921Y-90982921D01*
X105610755Y-91237593D01*
X105597101Y-91306235D01*
X105551000Y-91538000D01*
X105551000Y-94332000D01*
X105610755Y-94632407D01*
X105748397Y-94838403D01*
X105628355Y-94958235D01*
X105455197Y-95375244D01*
X105454803Y-95826775D01*
X105627233Y-96244086D01*
X105946235Y-96563645D01*
X106363244Y-96736803D01*
X106814775Y-96737197D01*
X107232086Y-96564767D01*
X107551645Y-96245765D01*
X107724803Y-95828756D01*
X107725197Y-95377225D01*
X107552767Y-94959914D01*
X107375000Y-94781837D01*
X107375000Y-94586000D01*
X107315245Y-94285594D01*
X107315245Y-94285593D01*
X107145079Y-94030921D01*
X107121000Y-94006842D01*
X107121000Y-93975139D01*
X107635352Y-94188716D01*
X108285795Y-94189284D01*
X108886943Y-93940894D01*
X109347278Y-93481363D01*
X109562221Y-92963722D01*
X109775106Y-93478943D01*
X110234637Y-93939278D01*
X110277000Y-93956869D01*
X110277000Y-95379995D01*
X110276999Y-95380000D01*
X110329911Y-95646000D01*
X110344367Y-95718675D01*
X110525984Y-95990485D01*
X110536210Y-96005790D01*
X110984560Y-96454140D01*
X110984560Y-97450000D01*
X111033843Y-97697765D01*
X111173995Y-97907516D01*
X110985035Y-98433223D01*
X111012222Y-99003454D01*
X111178136Y-99404005D01*
X111424255Y-99478139D01*
X112252395Y-98650000D01*
X112238252Y-98635858D01*
X112417858Y-98456253D01*
X112432000Y-98470395D01*
X112446143Y-98456253D01*
X112625748Y-98635858D01*
X112611605Y-98650000D01*
X113439745Y-99478139D01*
X113685864Y-99404005D01*
X113878965Y-98866777D01*
X113868806Y-98653691D01*
X118149000Y-98653691D01*
X118149000Y-99254250D01*
X118307750Y-99413000D01*
X119417000Y-99413000D01*
X119417000Y-98303750D01*
X119671000Y-98303750D01*
X119671000Y-99413000D01*
X120780250Y-99413000D01*
X120939000Y-99254250D01*
X120939000Y-98653691D01*
X120842327Y-98420302D01*
X120663699Y-98241673D01*
X120430310Y-98145000D01*
X119829750Y-98145000D01*
X119671000Y-98303750D01*
X119417000Y-98303750D01*
X119258250Y-98145000D01*
X118657690Y-98145000D01*
X118424301Y-98241673D01*
X118245673Y-98420302D01*
X118149000Y-98653691D01*
X113868806Y-98653691D01*
X113851778Y-98296546D01*
X113690395Y-97906933D01*
X113830157Y-97697765D01*
X113879440Y-97450000D01*
X113879440Y-95850000D01*
X113830157Y-95602235D01*
X113689809Y-95392191D01*
X113479765Y-95251843D01*
X113232000Y-95202560D01*
X112236140Y-95202560D01*
X112047000Y-95013420D01*
X112047000Y-93957398D01*
X112086943Y-93940894D01*
X112547278Y-93481363D01*
X112714560Y-93078502D01*
X112714560Y-93554000D01*
X112763843Y-93801765D01*
X112904191Y-94011809D01*
X113114235Y-94152157D01*
X113362000Y-94201440D01*
X115362000Y-94201440D01*
X115609765Y-94152157D01*
X115819809Y-94011809D01*
X115960157Y-93801765D01*
X116009440Y-93554000D01*
X116009440Y-91554000D01*
X115960157Y-91306235D01*
X115819809Y-91096191D01*
X115609765Y-90955843D01*
X115362000Y-90906560D01*
X115242736Y-90906560D01*
X115179633Y-90589326D01*
X115179633Y-90589325D01*
X114987790Y-90302210D01*
X114987787Y-90302208D01*
X114587000Y-89901420D01*
X114587000Y-89472478D01*
X114799765Y-89430157D01*
X115009809Y-89289809D01*
X115150157Y-89079765D01*
X115199440Y-88832000D01*
X115199440Y-87132000D01*
X115150157Y-86884235D01*
X115009809Y-86674191D01*
X114799765Y-86533843D01*
X114552000Y-86484560D01*
X112852000Y-86484560D01*
X112604235Y-86533843D01*
X112394191Y-86674191D01*
X112253843Y-86884235D01*
X112241403Y-86946777D01*
X112212054Y-86902853D01*
X111730285Y-86580946D01*
X111162000Y-86467907D01*
X110593715Y-86580946D01*
X110111946Y-86902853D01*
X109892000Y-87232026D01*
X109672054Y-86902853D01*
X109190285Y-86580946D01*
X108622000Y-86467907D01*
X108053715Y-86580946D01*
X107623442Y-86868445D01*
X107623597Y-86690425D01*
X107451167Y-86273114D01*
X107132165Y-85953555D01*
X106715156Y-85780397D01*
X106463535Y-85780177D01*
X106393358Y-85710000D01*
X121689095Y-85710000D01*
X121689095Y-89889654D01*
X121689095Y-89889654D01*
G37*
X121689095Y-89889654D02*
X121580979Y-89889560D01*
X120647085Y-90275437D01*
X119931948Y-90989327D01*
X119544441Y-91922546D01*
X119543560Y-92933021D01*
X119929437Y-93866915D01*
X120643327Y-94582052D01*
X121576546Y-94969559D01*
X122587021Y-94970440D01*
X123520915Y-94584563D01*
X124236052Y-93870673D01*
X124623559Y-92937454D01*
X124624440Y-91926979D01*
X124460412Y-91530000D01*
X129290000Y-91530000D01*
X129290000Y-124290000D01*
X99872740Y-124290000D01*
X99967686Y-124250769D01*
X100287245Y-123931767D01*
X100460403Y-123514758D01*
X100460499Y-123404682D01*
X100967387Y-122897794D01*
X100967390Y-122897792D01*
X101159233Y-122610677D01*
X101199653Y-122407474D01*
X101226601Y-122272002D01*
X101226600Y-122271997D01*
X101226600Y-121660974D01*
X101287635Y-121701757D01*
X101535400Y-121751040D01*
X101705181Y-121751040D01*
X101843921Y-121958679D01*
X103431343Y-123546101D01*
X103686016Y-123716267D01*
X103986422Y-123776022D01*
X113894077Y-123776022D01*
X114194484Y-123716267D01*
X114449156Y-123546101D01*
X116441479Y-121553778D01*
X116611645Y-121299106D01*
X116671400Y-120998699D01*
X116671400Y-118333021D01*
X119543560Y-118333021D01*
X119929437Y-119266915D01*
X120643327Y-119982052D01*
X121576546Y-120369559D01*
X122587021Y-120370440D01*
X123520915Y-119984563D01*
X124236052Y-119270673D01*
X124623559Y-118337454D01*
X124624440Y-117326979D01*
X124238563Y-116393085D01*
X123524673Y-115677948D01*
X122591454Y-115290441D01*
X121580979Y-115289560D01*
X120647085Y-115675437D01*
X119931948Y-116389327D01*
X119544441Y-117322546D01*
X119543560Y-118333021D01*
X116671400Y-118333021D01*
X116671400Y-118260022D01*
X124036079Y-110895343D01*
X124206245Y-110640671D01*
X124266000Y-110340264D01*
X124266000Y-102337000D01*
X124236004Y-102186200D01*
X124206245Y-102036593D01*
X124036079Y-101781921D01*
X123477027Y-101222869D01*
X123478758Y-101218700D01*
X123479242Y-100663735D01*
X123267313Y-100150828D01*
X122875236Y-99758066D01*
X122362700Y-99545242D01*
X121807735Y-99544758D01*
X121294828Y-99756687D01*
X120939000Y-100111894D01*
X120939000Y-99825750D01*
X120780250Y-99667000D01*
X119671000Y-99667000D01*
X119671000Y-99687000D01*
X119417000Y-99687000D01*
X119417000Y-99667000D01*
X118307750Y-99667000D01*
X118149000Y-99825750D01*
X118149000Y-100426309D01*
X118245673Y-100659698D01*
X118424301Y-100838327D01*
X118657690Y-100935000D01*
X119258250Y-100935000D01*
X119416998Y-100776252D01*
X119416998Y-100934888D01*
X119267735Y-100934758D01*
X118754828Y-101146687D01*
X118362066Y-101538764D01*
X118149242Y-102051300D01*
X118148758Y-102606265D01*
X118360687Y-103119172D01*
X118752764Y-103511934D01*
X119121662Y-103665114D01*
X118754828Y-103816687D01*
X118362066Y-104208764D01*
X118359477Y-104215000D01*
X117964158Y-104215000D01*
X116925400Y-103176242D01*
X116925400Y-102329196D01*
X116865645Y-102028790D01*
X116695479Y-101774117D01*
X116262822Y-101341460D01*
X116263040Y-101091864D01*
X116090610Y-100674553D01*
X115771608Y-100354994D01*
X115354599Y-100181836D01*
X114903068Y-100181442D01*
X114485757Y-100353872D01*
X114166198Y-100672874D01*
X113993040Y-101089883D01*
X113992646Y-101541414D01*
X114165076Y-101958725D01*
X114270472Y-102064305D01*
X114162755Y-102171835D01*
X113989597Y-102588844D01*
X113989203Y-103040375D01*
X114014897Y-103102560D01*
X112598000Y-103102560D01*
X112350235Y-103151843D01*
X112140191Y-103292191D01*
X111999843Y-103502235D01*
X111987403Y-103564777D01*
X111958054Y-103520853D01*
X111476285Y-103198946D01*
X110908000Y-103085907D01*
X110339715Y-103198946D01*
X109857946Y-103520853D01*
X109661404Y-103815000D01*
X109289754Y-103815000D01*
X109257809Y-103767191D01*
X109047765Y-103626843D01*
X108800000Y-103577560D01*
X107600000Y-103577560D01*
X107352235Y-103626843D01*
X107260898Y-103687873D01*
X107259698Y-103686673D01*
X107026309Y-103590000D01*
X106585750Y-103590000D01*
X106526205Y-103649545D01*
X106544803Y-103604756D01*
X106545197Y-103153225D01*
X106372767Y-102735914D01*
X106053765Y-102416355D01*
X105636756Y-102243197D01*
X105385135Y-102242977D01*
X104937081Y-101794923D01*
X104682409Y-101624757D01*
X104382002Y-101565002D01*
X103727102Y-101565002D01*
X103550765Y-101388357D01*
X103133756Y-101215199D01*
X102682225Y-101214805D01*
X102410311Y-101327158D01*
X102222765Y-101201843D01*
X101975000Y-101152560D01*
X101225000Y-101152560D01*
X100977235Y-101201843D01*
X100767191Y-101342191D01*
X100626843Y-101552235D01*
X100577560Y-101800000D01*
X100577560Y-103000000D01*
X100626843Y-103247765D01*
X100687873Y-103339102D01*
X100686673Y-103340302D01*
X100590000Y-103573691D01*
X100590000Y-104014250D01*
X100748750Y-104173000D01*
X101473000Y-104173000D01*
X101473000Y-104153000D01*
X101727000Y-104153000D01*
X101727000Y-104173000D01*
X102451250Y-104173000D01*
X102610000Y-104014250D01*
X102610000Y-103573691D01*
X102550943Y-103431114D01*
X102680244Y-103484805D01*
X103131775Y-103485199D01*
X103549086Y-103312769D01*
X103727163Y-103135002D01*
X104056844Y-103135002D01*
X104275021Y-103353179D01*
X104274803Y-103602775D01*
X104300514Y-103665000D01*
X104085750Y-103665000D01*
X103927000Y-103823750D01*
X103927000Y-104773000D01*
X104651250Y-104773000D01*
X104810000Y-104614250D01*
X104810000Y-104357818D01*
X105183244Y-104512803D01*
X105634775Y-104513197D01*
X105732059Y-104473000D01*
X106173000Y-104473000D01*
X106173000Y-104453000D01*
X106427000Y-104453000D01*
X106427000Y-104473000D01*
X106447000Y-104473000D01*
X106447000Y-104727000D01*
X106427000Y-104727000D01*
X106427000Y-105451250D01*
X106585750Y-105610000D01*
X107026309Y-105610000D01*
X107259698Y-105513327D01*
X107260898Y-105512127D01*
X107352235Y-105573157D01*
X107415000Y-105585642D01*
X107415000Y-105660000D01*
X107474755Y-105960407D01*
X107549013Y-106071542D01*
X107394191Y-106174991D01*
X107352000Y-106238134D01*
X107309809Y-106174991D01*
X107099765Y-106034643D01*
X106852000Y-105985360D01*
X105652000Y-105985360D01*
X105404235Y-106034643D01*
X105206306Y-106166896D01*
X105068407Y-106074755D01*
X104786368Y-106018654D01*
X104773157Y-105952235D01*
X104712127Y-105860898D01*
X104713327Y-105859698D01*
X104810000Y-105626309D01*
X104810000Y-105185750D01*
X104651250Y-105027000D01*
X103927000Y-105027000D01*
X103927000Y-105047000D01*
X103673000Y-105047000D01*
X103673000Y-105027000D01*
X102948750Y-105027000D01*
X102790000Y-105185750D01*
X102790000Y-105626309D01*
X102886673Y-105859698D01*
X102887873Y-105860898D01*
X102826843Y-105952235D01*
X102806216Y-106055933D01*
X102711593Y-106074755D01*
X102456921Y-106244921D01*
X102296821Y-106405021D01*
X102047225Y-106404803D01*
X101629914Y-106577233D01*
X101310355Y-106896235D01*
X101137197Y-107313244D01*
X101136803Y-107764775D01*
X101309233Y-108182086D01*
X101628235Y-108501645D01*
X102045244Y-108674803D01*
X102496775Y-108675197D01*
X102914086Y-108502767D01*
X103233645Y-108183765D01*
X103300533Y-108022682D01*
X103425000Y-108047440D01*
X104175000Y-108047440D01*
X104422765Y-107998157D01*
X104632809Y-107857809D01*
X104692091Y-107769088D01*
X104750394Y-107808045D01*
X105050800Y-107867801D01*
X105050805Y-107867800D01*
X105112132Y-107867800D01*
X105194191Y-107990609D01*
X105404235Y-108130957D01*
X105652000Y-108180240D01*
X106852000Y-108180240D01*
X107099765Y-108130957D01*
X107309809Y-107990609D01*
X107352000Y-107927466D01*
X107394191Y-107990609D01*
X107604235Y-108130957D01*
X107852000Y-108180240D01*
X109052000Y-108180240D01*
X109299765Y-108130957D01*
X109509809Y-107990609D01*
X109650157Y-107780565D01*
X109699440Y-107532800D01*
X109699440Y-106632800D01*
X109650157Y-106385035D01*
X109509809Y-106174991D01*
X109299765Y-106034643D01*
X109237000Y-106022158D01*
X109237000Y-105912000D01*
X109177245Y-105611594D01*
X109119524Y-105525209D01*
X109257809Y-105432809D01*
X109289754Y-105385000D01*
X109661404Y-105385000D01*
X109857946Y-105679147D01*
X110339715Y-106001054D01*
X110908000Y-106114093D01*
X111476285Y-106001054D01*
X111958054Y-105679147D01*
X111987403Y-105635223D01*
X111999843Y-105697765D01*
X112140191Y-105907809D01*
X112350235Y-106048157D01*
X112598000Y-106097440D01*
X114298000Y-106097440D01*
X114545765Y-106048157D01*
X114755809Y-105907809D01*
X114896157Y-105697765D01*
X114945440Y-105450000D01*
X114945440Y-105448598D01*
X116981000Y-107484157D01*
X116981000Y-108810000D01*
X117040755Y-109110407D01*
X117210921Y-109365079D01*
X118151560Y-110305718D01*
X118149242Y-110311300D01*
X118148758Y-110866265D01*
X118360687Y-111379172D01*
X118752764Y-111771934D01*
X118759000Y-111774523D01*
X118759000Y-112396442D01*
X118394165Y-112761277D01*
X118322367Y-112587514D01*
X118003365Y-112267955D01*
X117586356Y-112094797D01*
X117134825Y-112094403D01*
X116717514Y-112266833D01*
X116397955Y-112585835D01*
X116224797Y-113002844D01*
X116224403Y-113454375D01*
X116396833Y-113871686D01*
X116451332Y-113926281D01*
X115645687Y-114731926D01*
X115516767Y-114419918D01*
X115197765Y-114100359D01*
X114780756Y-113927201D01*
X114329225Y-113926807D01*
X113911914Y-114099237D01*
X113733837Y-114277004D01*
X112490996Y-114277004D01*
X112190589Y-114336759D01*
X111935917Y-114506925D01*
X111313821Y-115129021D01*
X111064225Y-115128803D01*
X110646914Y-115301233D01*
X110327355Y-115620235D01*
X110154197Y-116037244D01*
X110153914Y-116361421D01*
X110146000Y-116365531D01*
X110146000Y-117573000D01*
X112432000Y-117573000D01*
X112432000Y-116365531D01*
X112423916Y-116361333D01*
X112424023Y-116239135D01*
X112816154Y-115847004D01*
X113733898Y-115847004D01*
X113910235Y-116023649D01*
X114223771Y-116153841D01*
X113681288Y-116696324D01*
X113660842Y-116726923D01*
X113447490Y-116493179D01*
X112918027Y-116245032D01*
X112686000Y-116365531D01*
X112686000Y-117573000D01*
X112706000Y-117573000D01*
X112706000Y-117827000D01*
X112686000Y-117827000D01*
X112686000Y-117847000D01*
X112432000Y-117847000D01*
X112432000Y-117827000D01*
X110146000Y-117827000D01*
X110146000Y-117847000D01*
X109892000Y-117847000D01*
X109892000Y-117827000D01*
X109872000Y-117827000D01*
X109872000Y-117573000D01*
X109892000Y-117573000D01*
X109892000Y-116365531D01*
X109659973Y-116245032D01*
X109130510Y-116493179D01*
X108748992Y-116911161D01*
X108568029Y-116640330D01*
X108081848Y-116315474D01*
X107508359Y-116201400D01*
X107449641Y-116201400D01*
X106876152Y-116315474D01*
X106389971Y-116640330D01*
X106209000Y-116911172D01*
X106028029Y-116640330D01*
X105541848Y-116315474D01*
X104968359Y-116201400D01*
X104909641Y-116201400D01*
X104336152Y-116315474D01*
X103849971Y-116640330D01*
X103669000Y-116911172D01*
X103488029Y-116640330D01*
X103284000Y-116504002D01*
X103284000Y-114871192D01*
X103466042Y-114795973D01*
X103772444Y-114923203D01*
X104223975Y-114923597D01*
X104532847Y-114795973D01*
X104839244Y-114923201D01*
X105290775Y-114923595D01*
X105708086Y-114751165D01*
X106027645Y-114432163D01*
X106200803Y-114015154D01*
X106201197Y-113563623D01*
X106028767Y-113146312D01*
X105709765Y-112826753D01*
X105292756Y-112653595D01*
X104841225Y-112653201D01*
X104532353Y-112780825D01*
X104225956Y-112653597D01*
X103774425Y-112653203D01*
X103465558Y-112780825D01*
X103159156Y-112653595D01*
X102707625Y-112653201D01*
X102290314Y-112825631D01*
X101970755Y-113144633D01*
X101882156Y-113358002D01*
X101735765Y-113211355D01*
X101318756Y-113038197D01*
X101067135Y-113037977D01*
X98013752Y-109984594D01*
X98013752Y-104585750D01*
X100590000Y-104585750D01*
X100590000Y-105026309D01*
X100686673Y-105259698D01*
X100865301Y-105438327D01*
X101098690Y-105535000D01*
X101314250Y-105535000D01*
X101473000Y-105376250D01*
X101473000Y-104427000D01*
X101727000Y-104427000D01*
X101727000Y-105376250D01*
X101885750Y-105535000D01*
X102101310Y-105535000D01*
X102334699Y-105438327D01*
X102513327Y-105259698D01*
X102610000Y-105026309D01*
X102610000Y-104885750D01*
X105065000Y-104885750D01*
X105065000Y-105101310D01*
X105161673Y-105334699D01*
X105340302Y-105513327D01*
X105573691Y-105610000D01*
X106014250Y-105610000D01*
X106173000Y-105451250D01*
X106173000Y-104727000D01*
X105223750Y-104727000D01*
X105065000Y-104885750D01*
X102610000Y-104885750D01*
X102610000Y-104585750D01*
X102451250Y-104427000D01*
X101727000Y-104427000D01*
X101473000Y-104427000D01*
X100748750Y-104427000D01*
X100590000Y-104585750D01*
X98013752Y-104585750D01*
X98013752Y-104173691D01*
X102790000Y-104173691D01*
X102790000Y-104614250D01*
X102948750Y-104773000D01*
X103673000Y-104773000D01*
X103673000Y-103823750D01*
X103514250Y-103665000D01*
X103298690Y-103665000D01*
X103065301Y-103761673D01*
X102886673Y-103940302D01*
X102790000Y-104173691D01*
X98013752Y-104173691D01*
X98013752Y-104005350D01*
X98190397Y-103829013D01*
X98363555Y-103412004D01*
X98363949Y-102960473D01*
X98191519Y-102543162D01*
X97872517Y-102223603D01*
X97455508Y-102050445D01*
X97003977Y-102050051D01*
X96586666Y-102222481D01*
X96267107Y-102541483D01*
X96093949Y-102958492D01*
X96093555Y-103410023D01*
X96265985Y-103827334D01*
X96443752Y-104005411D01*
X96443752Y-110309752D01*
X96503507Y-110610159D01*
X96673673Y-110864831D01*
X99957021Y-114148179D01*
X99956803Y-114397775D01*
X100129233Y-114815086D01*
X100448235Y-115134645D01*
X100865244Y-115307803D01*
X101316775Y-115308197D01*
X101514000Y-115226705D01*
X101514000Y-116504002D01*
X101309971Y-116640330D01*
X100985115Y-117126511D01*
X100871041Y-117700000D01*
X100916895Y-117930525D01*
X100263000Y-118584420D01*
X100263000Y-118469302D01*
X100439645Y-118292965D01*
X100612803Y-117875956D01*
X100613197Y-117424425D01*
X100440767Y-117007114D01*
X100121765Y-116687555D01*
X99704756Y-116514397D01*
X99253225Y-116514003D01*
X98835914Y-116686433D01*
X98817848Y-116704467D01*
X98800965Y-116687555D01*
X98383956Y-116514397D01*
X97932425Y-116514003D01*
X97515114Y-116686433D01*
X97395271Y-116806067D01*
X97276965Y-116687555D01*
X96859956Y-116514397D01*
X96408425Y-116514003D01*
X95991114Y-116686433D01*
X95671555Y-117005435D01*
X95498397Y-117422444D01*
X95498177Y-117674065D01*
X95336726Y-117835516D01*
X95335957Y-117835197D01*
X94884426Y-117834803D01*
X94467115Y-118007233D01*
X94147556Y-118326235D01*
X93974398Y-118743244D01*
X93974004Y-119194775D01*
X94146434Y-119612086D01*
X94465436Y-119931645D01*
X94882445Y-120104803D01*
X94946983Y-120104859D01*
X94706521Y-120345321D01*
X94536355Y-120599993D01*
X94520768Y-120678355D01*
X94476600Y-120900400D01*
X94476600Y-121299498D01*
X94299955Y-121475835D01*
X94126797Y-121892844D01*
X94126403Y-122344375D01*
X94298833Y-122761686D01*
X94617835Y-123081245D01*
X95034844Y-123254403D01*
X95486375Y-123254797D01*
X95903686Y-123082367D01*
X96223245Y-122763365D01*
X96396403Y-122346356D01*
X96396648Y-122066015D01*
X96421235Y-122090645D01*
X96838244Y-122263803D01*
X97289775Y-122264197D01*
X97707086Y-122091767D01*
X98026645Y-121772765D01*
X98199803Y-121355756D01*
X98200023Y-121104135D01*
X99456600Y-119847558D01*
X99456600Y-121905423D01*
X99209123Y-122152899D01*
X99100825Y-122152805D01*
X98683514Y-122325235D01*
X98363955Y-122644237D01*
X98190797Y-123061246D01*
X98190745Y-123120475D01*
X97993820Y-123317400D01*
X86433379Y-123317400D01*
X84827694Y-121711714D01*
X85025400Y-121751040D01*
X86752600Y-121751040D01*
X87000365Y-121701757D01*
X87210409Y-121561409D01*
X87350757Y-121351365D01*
X87358568Y-121312096D01*
X87826152Y-121624526D01*
X88399641Y-121738600D01*
X88458359Y-121738600D01*
X89031848Y-121624526D01*
X89518029Y-121299670D01*
X89699000Y-121028828D01*
X89879971Y-121299670D01*
X90366152Y-121624526D01*
X90939641Y-121738600D01*
X90998359Y-121738600D01*
X91571848Y-121624526D01*
X92058029Y-121299670D01*
X92382885Y-120813489D01*
X92496959Y-120240000D01*
X92382885Y-119666511D01*
X92058029Y-119180330D01*
X91734772Y-118964336D01*
X91857490Y-118906821D01*
X92251688Y-118474947D01*
X92423958Y-118059026D01*
X92302817Y-117827000D01*
X91096000Y-117827000D01*
X91096000Y-117847000D01*
X90842000Y-117847000D01*
X90842000Y-117827000D01*
X90822000Y-117827000D01*
X90822000Y-117573000D01*
X90842000Y-117573000D01*
X90842000Y-116365531D01*
X91096000Y-116365531D01*
X91096000Y-117573000D01*
X92302817Y-117573000D01*
X92423958Y-117340974D01*
X92251688Y-116925053D01*
X91857490Y-116493179D01*
X91328027Y-116245032D01*
X91096000Y-116365531D01*
X90842000Y-116365531D01*
X90609973Y-116245032D01*
X90080510Y-116493179D01*
X89698992Y-116911161D01*
X89518029Y-116640330D01*
X89031848Y-116315474D01*
X88458359Y-116201400D01*
X88399641Y-116201400D01*
X87826152Y-116315474D01*
X87339971Y-116640330D01*
X87159000Y-116911172D01*
X86978029Y-116640330D01*
X86491848Y-116315474D01*
X85918359Y-116201400D01*
X85859641Y-116201400D01*
X85286152Y-116315474D01*
X84799971Y-116640330D01*
X84475115Y-117126511D01*
X84361041Y-117700000D01*
X84406895Y-117930525D01*
X83307410Y-119030010D01*
X83115567Y-119317125D01*
X83115567Y-119317126D01*
X83048199Y-119655800D01*
X83048200Y-119655805D01*
X83048200Y-122068795D01*
X83048199Y-122068800D01*
X83103016Y-122344375D01*
X83115567Y-122407475D01*
X83274887Y-122645916D01*
X83307410Y-122694590D01*
X84902821Y-124290000D01*
X80710000Y-124290000D01*
X80710000Y-113750750D01*
X88976000Y-113750750D01*
X88976000Y-115241309D01*
X89072673Y-115474698D01*
X89251301Y-115653327D01*
X89484690Y-115750000D01*
X90175250Y-115750000D01*
X90334000Y-115591250D01*
X90334000Y-113592000D01*
X90588000Y-113592000D01*
X90588000Y-115591250D01*
X90746750Y-115750000D01*
X91437310Y-115750000D01*
X91670699Y-115653327D01*
X91849327Y-115474698D01*
X91946000Y-115241309D01*
X91946000Y-113750750D01*
X91787250Y-113592000D01*
X90588000Y-113592000D01*
X90334000Y-113592000D01*
X89134750Y-113592000D01*
X88976000Y-113750750D01*
X80710000Y-113750750D01*
X80710000Y-111688691D01*
X88976000Y-111688691D01*
X88976000Y-113179250D01*
X89134750Y-113338000D01*
X90334000Y-113338000D01*
X90334000Y-111338750D01*
X90588000Y-111338750D01*
X90588000Y-113338000D01*
X91787250Y-113338000D01*
X91946000Y-113179250D01*
X91946000Y-111688691D01*
X91849327Y-111455302D01*
X91670699Y-111276673D01*
X91437310Y-111180000D01*
X90746750Y-111180000D01*
X90588000Y-111338750D01*
X90334000Y-111338750D01*
X90175250Y-111180000D01*
X89484690Y-111180000D01*
X89251301Y-111276673D01*
X89072673Y-111455302D01*
X88976000Y-111688691D01*
X80710000Y-111688691D01*
X80710000Y-107414873D01*
X84114812Y-107414873D01*
X84279646Y-107813800D01*
X84584595Y-108119282D01*
X84983233Y-108284811D01*
X85414873Y-108285188D01*
X85813800Y-108120354D01*
X86119282Y-107815405D01*
X86284811Y-107416767D01*
X86285188Y-106985127D01*
X86120354Y-106586200D01*
X85815405Y-106280718D01*
X85416767Y-106115189D01*
X84985127Y-106114812D01*
X84586200Y-106279646D01*
X84280718Y-106584595D01*
X84115189Y-106983233D01*
X84114812Y-107414873D01*
X80710000Y-107414873D01*
X80710000Y-103014873D01*
X84114812Y-103014873D01*
X84279646Y-103413800D01*
X84584595Y-103719282D01*
X84983233Y-103884811D01*
X85414873Y-103885188D01*
X85813800Y-103720354D01*
X86119282Y-103415405D01*
X86284811Y-103016767D01*
X86285188Y-102585127D01*
X86120354Y-102186200D01*
X85815405Y-101880718D01*
X85416767Y-101715189D01*
X84985127Y-101714812D01*
X84586200Y-101879646D01*
X84280718Y-102184595D01*
X84115189Y-102583233D01*
X84114812Y-103014873D01*
X80710000Y-103014873D01*
X80710000Y-99623000D01*
X88963560Y-99623000D01*
X88963560Y-102923000D01*
X89012843Y-103170765D01*
X89153191Y-103380809D01*
X89363235Y-103521157D01*
X89370864Y-103522674D01*
X89326197Y-103630244D01*
X89325803Y-104081775D01*
X89498233Y-104499086D01*
X89617867Y-104618929D01*
X89499355Y-104737235D01*
X89326197Y-105154244D01*
X89325803Y-105605775D01*
X89371053Y-105715288D01*
X89363235Y-105716843D01*
X89153191Y-105857191D01*
X89012843Y-106067235D01*
X88963560Y-106315000D01*
X88963560Y-109615000D01*
X89012843Y-109862765D01*
X89153191Y-110072809D01*
X89363235Y-110213157D01*
X89611000Y-110262440D01*
X91311000Y-110262440D01*
X91558765Y-110213157D01*
X91768809Y-110072809D01*
X91909157Y-109862765D01*
X91958440Y-109615000D01*
X91958440Y-106315000D01*
X91909157Y-106067235D01*
X91768809Y-105857191D01*
X91558765Y-105716843D01*
X91551136Y-105715326D01*
X91595803Y-105607756D01*
X91596197Y-105156225D01*
X91423767Y-104738914D01*
X91304133Y-104619071D01*
X91422645Y-104500765D01*
X91595803Y-104083756D01*
X91596197Y-103632225D01*
X91550947Y-103522712D01*
X91558765Y-103521157D01*
X91768809Y-103380809D01*
X91909157Y-103170765D01*
X91958440Y-102923000D01*
X91958440Y-99657745D01*
X111603861Y-99657745D01*
X111677995Y-99903864D01*
X112215223Y-100096965D01*
X112785454Y-100069778D01*
X113186005Y-99903864D01*
X113260139Y-99657745D01*
X112432000Y-98829605D01*
X111603861Y-99657745D01*
X91958440Y-99657745D01*
X91958440Y-99623000D01*
X91909157Y-99375235D01*
X91768809Y-99165191D01*
X91558765Y-99024843D01*
X91311000Y-98975560D01*
X89611000Y-98975560D01*
X89363235Y-99024843D01*
X89153191Y-99165191D01*
X89012843Y-99375235D01*
X88963560Y-99623000D01*
X80710000Y-99623000D01*
X80710000Y-96058750D01*
X88976000Y-96058750D01*
X88976000Y-97549309D01*
X89072673Y-97782698D01*
X89251301Y-97961327D01*
X89484690Y-98058000D01*
X90175250Y-98058000D01*
X90334000Y-97899250D01*
X90334000Y-95900000D01*
X90588000Y-95900000D01*
X90588000Y-97899250D01*
X90746750Y-98058000D01*
X91437310Y-98058000D01*
X91670699Y-97961327D01*
X91849327Y-97782698D01*
X91946000Y-97549309D01*
X91946000Y-96058750D01*
X91787250Y-95900000D01*
X90588000Y-95900000D01*
X90334000Y-95900000D01*
X89134750Y-95900000D01*
X88976000Y-96058750D01*
X80710000Y-96058750D01*
X80710000Y-94485564D01*
X81115644Y-94654003D01*
X81567175Y-94654397D01*
X81984486Y-94481967D01*
X82304045Y-94162965D01*
X82373088Y-93996691D01*
X88976000Y-93996691D01*
X88976000Y-95487250D01*
X89134750Y-95646000D01*
X90334000Y-95646000D01*
X90334000Y-93646750D01*
X90588000Y-93646750D01*
X90588000Y-95646000D01*
X91787250Y-95646000D01*
X91946000Y-95487250D01*
X91946000Y-94312600D01*
X96264560Y-94312600D01*
X96264560Y-95062600D01*
X96313843Y-95310365D01*
X96427000Y-95479715D01*
X96427000Y-95524000D01*
X96486755Y-95824407D01*
X96656921Y-96079079D01*
X97077239Y-96499397D01*
X97076760Y-97048285D01*
X97287169Y-97557515D01*
X97676436Y-97947461D01*
X98185298Y-98158759D01*
X98736285Y-98159240D01*
X99245515Y-97948831D01*
X99635461Y-97559564D01*
X99846759Y-97050702D01*
X99846761Y-97048285D01*
X101956760Y-97048285D01*
X102167169Y-97557515D01*
X102556436Y-97947461D01*
X103065298Y-98158759D01*
X103616285Y-98159240D01*
X104125515Y-97948831D01*
X104515461Y-97559564D01*
X104726759Y-97050702D01*
X104727240Y-96499715D01*
X104727007Y-96499151D01*
X105113079Y-96113079D01*
X105283245Y-95858406D01*
X105343000Y-95558000D01*
X105343000Y-95479715D01*
X105456157Y-95310365D01*
X105505440Y-95062600D01*
X105505440Y-94312600D01*
X105456157Y-94064835D01*
X105315809Y-93854791D01*
X105105765Y-93714443D01*
X104858000Y-93665160D01*
X103658000Y-93665160D01*
X103410235Y-93714443D01*
X103318898Y-93775473D01*
X103317698Y-93774273D01*
X103084309Y-93677600D01*
X102643750Y-93677600D01*
X102485000Y-93836350D01*
X102485000Y-94560600D01*
X102505000Y-94560600D01*
X102505000Y-94814600D01*
X102485000Y-94814600D01*
X102485000Y-95538850D01*
X102551896Y-95605746D01*
X102168539Y-95988436D01*
X101957241Y-96497298D01*
X101956760Y-97048285D01*
X99846761Y-97048285D01*
X99847240Y-96499715D01*
X99636831Y-95990485D01*
X99247564Y-95600539D01*
X99230427Y-95593423D01*
X99285000Y-95538850D01*
X99285000Y-94814600D01*
X99539000Y-94814600D01*
X99539000Y-95538850D01*
X99697750Y-95697600D01*
X100138309Y-95697600D01*
X100371698Y-95600927D01*
X100550327Y-95422299D01*
X100647000Y-95188910D01*
X100647000Y-94973350D01*
X101123000Y-94973350D01*
X101123000Y-95188910D01*
X101219673Y-95422299D01*
X101398302Y-95600927D01*
X101631691Y-95697600D01*
X102072250Y-95697600D01*
X102231000Y-95538850D01*
X102231000Y-94814600D01*
X101281750Y-94814600D01*
X101123000Y-94973350D01*
X100647000Y-94973350D01*
X100488250Y-94814600D01*
X99539000Y-94814600D01*
X99285000Y-94814600D01*
X99265000Y-94814600D01*
X99265000Y-94560600D01*
X99285000Y-94560600D01*
X99285000Y-93836350D01*
X99539000Y-93836350D01*
X99539000Y-94560600D01*
X100488250Y-94560600D01*
X100647000Y-94401850D01*
X100647000Y-94186290D01*
X101123000Y-94186290D01*
X101123000Y-94401850D01*
X101281750Y-94560600D01*
X102231000Y-94560600D01*
X102231000Y-93836350D01*
X102072250Y-93677600D01*
X101631691Y-93677600D01*
X101398302Y-93774273D01*
X101219673Y-93952901D01*
X101123000Y-94186290D01*
X100647000Y-94186290D01*
X100550327Y-93952901D01*
X100371698Y-93774273D01*
X100138309Y-93677600D01*
X99697750Y-93677600D01*
X99539000Y-93836350D01*
X99285000Y-93836350D01*
X99126250Y-93677600D01*
X98685691Y-93677600D01*
X98452302Y-93774273D01*
X98451102Y-93775473D01*
X98359765Y-93714443D01*
X98112000Y-93665160D01*
X96912000Y-93665160D01*
X96664235Y-93714443D01*
X96454191Y-93854791D01*
X96313843Y-94064835D01*
X96264560Y-94312600D01*
X91946000Y-94312600D01*
X91946000Y-93996691D01*
X91849327Y-93763302D01*
X91670699Y-93584673D01*
X91437310Y-93488000D01*
X90746750Y-93488000D01*
X90588000Y-93646750D01*
X90334000Y-93646750D01*
X90175250Y-93488000D01*
X89484690Y-93488000D01*
X89251301Y-93584673D01*
X89072673Y-93763302D01*
X88976000Y-93996691D01*
X82373088Y-93996691D01*
X82477203Y-93745956D01*
X82477597Y-93294425D01*
X82418644Y-93151748D01*
X82428235Y-93158157D01*
X82676000Y-93207440D01*
X84276000Y-93207440D01*
X84523765Y-93158157D01*
X84733809Y-93017809D01*
X84874157Y-92807765D01*
X84923440Y-92560000D01*
X84923440Y-90960000D01*
X84874157Y-90712235D01*
X84734005Y-90502484D01*
X84922965Y-89976777D01*
X84895778Y-89406546D01*
X84729864Y-89005995D01*
X84483745Y-88931861D01*
X83655605Y-89760000D01*
X83669748Y-89774142D01*
X83490143Y-89953748D01*
X83476000Y-89939605D01*
X83461858Y-89953748D01*
X83282252Y-89774142D01*
X83296395Y-89760000D01*
X83282252Y-89745858D01*
X83461858Y-89566252D01*
X83476000Y-89580395D01*
X84304139Y-88752255D01*
X84230005Y-88506136D01*
X83692777Y-88313035D01*
X83536471Y-88320487D01*
X85419568Y-86437390D01*
X101879054Y-86437390D01*
X101773907Y-86966000D01*
X101886946Y-87534285D01*
X102208853Y-88016054D01*
X102538026Y-88236000D01*
X102208853Y-88455946D01*
X101886946Y-88937715D01*
X101773907Y-89506000D01*
X101886946Y-90074285D01*
X102208853Y-90556054D01*
X102252777Y-90585403D01*
X102190235Y-90597843D01*
X101980191Y-90738191D01*
X101839843Y-90948235D01*
X101790560Y-91196000D01*
X101790560Y-92896000D01*
X101839843Y-93143765D01*
X101980191Y-93353809D01*
X102190235Y-93494157D01*
X102438000Y-93543440D01*
X104138000Y-93543440D01*
X104385765Y-93494157D01*
X104595809Y-93353809D01*
X104736157Y-93143765D01*
X104785440Y-92896000D01*
X104785440Y-91196000D01*
X104736157Y-90948235D01*
X104595809Y-90738191D01*
X104385765Y-90597843D01*
X104323223Y-90585403D01*
X104367147Y-90556054D01*
X104477432Y-90391000D01*
X106217113Y-90391000D01*
X106216977Y-90546865D01*
X105780921Y-90982921D01*
X105610755Y-91237593D01*
X105597101Y-91306235D01*
X105551000Y-91538000D01*
X105551000Y-94332000D01*
X105610755Y-94632407D01*
X105748397Y-94838403D01*
X105628355Y-94958235D01*
X105455197Y-95375244D01*
X105454803Y-95826775D01*
X105627233Y-96244086D01*
X105946235Y-96563645D01*
X106363244Y-96736803D01*
X106814775Y-96737197D01*
X107232086Y-96564767D01*
X107551645Y-96245765D01*
X107724803Y-95828756D01*
X107725197Y-95377225D01*
X107552767Y-94959914D01*
X107375000Y-94781837D01*
X107375000Y-94586000D01*
X107315245Y-94285594D01*
X107315245Y-94285593D01*
X107145079Y-94030921D01*
X107121000Y-94006842D01*
X107121000Y-93975139D01*
X107635352Y-94188716D01*
X108285795Y-94189284D01*
X108886943Y-93940894D01*
X109347278Y-93481363D01*
X109562221Y-92963722D01*
X109775106Y-93478943D01*
X110234637Y-93939278D01*
X110277000Y-93956869D01*
X110277000Y-95379995D01*
X110276999Y-95380000D01*
X110329911Y-95646000D01*
X110344367Y-95718675D01*
X110525984Y-95990485D01*
X110536210Y-96005790D01*
X110984560Y-96454140D01*
X110984560Y-97450000D01*
X111033843Y-97697765D01*
X111173995Y-97907516D01*
X110985035Y-98433223D01*
X111012222Y-99003454D01*
X111178136Y-99404005D01*
X111424255Y-99478139D01*
X112252395Y-98650000D01*
X112238252Y-98635858D01*
X112417858Y-98456253D01*
X112432000Y-98470395D01*
X112446143Y-98456253D01*
X112625748Y-98635858D01*
X112611605Y-98650000D01*
X113439745Y-99478139D01*
X113685864Y-99404005D01*
X113878965Y-98866777D01*
X113868806Y-98653691D01*
X118149000Y-98653691D01*
X118149000Y-99254250D01*
X118307750Y-99413000D01*
X119417000Y-99413000D01*
X119417000Y-98303750D01*
X119671000Y-98303750D01*
X119671000Y-99413000D01*
X120780250Y-99413000D01*
X120939000Y-99254250D01*
X120939000Y-98653691D01*
X120842327Y-98420302D01*
X120663699Y-98241673D01*
X120430310Y-98145000D01*
X119829750Y-98145000D01*
X119671000Y-98303750D01*
X119417000Y-98303750D01*
X119258250Y-98145000D01*
X118657690Y-98145000D01*
X118424301Y-98241673D01*
X118245673Y-98420302D01*
X118149000Y-98653691D01*
X113868806Y-98653691D01*
X113851778Y-98296546D01*
X113690395Y-97906933D01*
X113830157Y-97697765D01*
X113879440Y-97450000D01*
X113879440Y-95850000D01*
X113830157Y-95602235D01*
X113689809Y-95392191D01*
X113479765Y-95251843D01*
X113232000Y-95202560D01*
X112236140Y-95202560D01*
X112047000Y-95013420D01*
X112047000Y-93957398D01*
X112086943Y-93940894D01*
X112547278Y-93481363D01*
X112714560Y-93078502D01*
X112714560Y-93554000D01*
X112763843Y-93801765D01*
X112904191Y-94011809D01*
X113114235Y-94152157D01*
X113362000Y-94201440D01*
X115362000Y-94201440D01*
X115609765Y-94152157D01*
X115819809Y-94011809D01*
X115960157Y-93801765D01*
X116009440Y-93554000D01*
X116009440Y-91554000D01*
X115960157Y-91306235D01*
X115819809Y-91096191D01*
X115609765Y-90955843D01*
X115362000Y-90906560D01*
X115242736Y-90906560D01*
X115179633Y-90589326D01*
X115179633Y-90589325D01*
X114987790Y-90302210D01*
X114987787Y-90302208D01*
X114587000Y-89901420D01*
X114587000Y-89472478D01*
X114799765Y-89430157D01*
X115009809Y-89289809D01*
X115150157Y-89079765D01*
X115199440Y-88832000D01*
X115199440Y-87132000D01*
X115150157Y-86884235D01*
X115009809Y-86674191D01*
X114799765Y-86533843D01*
X114552000Y-86484560D01*
X112852000Y-86484560D01*
X112604235Y-86533843D01*
X112394191Y-86674191D01*
X112253843Y-86884235D01*
X112241403Y-86946777D01*
X112212054Y-86902853D01*
X111730285Y-86580946D01*
X111162000Y-86467907D01*
X110593715Y-86580946D01*
X110111946Y-86902853D01*
X109892000Y-87232026D01*
X109672054Y-86902853D01*
X109190285Y-86580946D01*
X108622000Y-86467907D01*
X108053715Y-86580946D01*
X107623442Y-86868445D01*
X107623597Y-86690425D01*
X107451167Y-86273114D01*
X107132165Y-85953555D01*
X106715156Y-85780397D01*
X106463535Y-85780177D01*
X106393358Y-85710000D01*
X121689095Y-85710000D01*
X121689095Y-89889654D01*
M02*
