G04 #@! TF.GenerationSoftware,KiCad,Pcbnew,(2017-01-09 revision c2fb336)-makepkg*
G04 #@! TF.CreationDate,2017-04-23T15:34:07+02:00*
G04 #@! TF.ProjectId,avrIspMk2Clone,6176724973704D6B32436C6F6E652E6B,rev?*
G04 #@! TF.FileFunction,Legend,Bot*
G04 #@! TF.FilePolarity,Positive*
%FSLAX46Y46*%
G04 Gerber Fmt 4.6, Leading zero omitted, Abs format (unit mm)*
G04 Created by KiCad (PCBNEW (2017-01-09 revision c2fb336)-makepkg) date 04/23/17 15:34:07*
%MOMM*%
%LPD*%
G01*
G04 APERTURE LIST*
%ADD10C,0.100000*%
%ADD11C,0.010000*%
%ADD12C,0.120000*%
%ADD13C,0.150000*%
G04 APERTURE END LIST*
D10*
D11*
G36*
X83088178Y-115158822D02*
X86608971Y-115158822D01*
X86608971Y-114291198D01*
X83088178Y-114291198D01*
X83088178Y-115158822D01*
X83088178Y-115158822D01*
G37*
X83088178Y-115158822D02*
X86608971Y-115158822D01*
X86608971Y-114291198D01*
X83088178Y-114291198D01*
X83088178Y-115158822D01*
G36*
X82711570Y-109205848D02*
X82712189Y-109292931D01*
X83163914Y-109751891D01*
X83615639Y-110210852D01*
X83615968Y-110421471D01*
X83616297Y-110632089D01*
X83891390Y-110632089D01*
X83898478Y-110685530D01*
X83901162Y-110709888D01*
X83905687Y-110755759D01*
X83911809Y-110820405D01*
X83919288Y-110901091D01*
X83927881Y-110995081D01*
X83937346Y-111099637D01*
X83947442Y-111212025D01*
X83957926Y-111329507D01*
X83968556Y-111449348D01*
X83979091Y-111568811D01*
X83989287Y-111685159D01*
X83998905Y-111795657D01*
X84007700Y-111897569D01*
X84015432Y-111988158D01*
X84021858Y-112064687D01*
X84026737Y-112124421D01*
X84029825Y-112164624D01*
X84030883Y-112182559D01*
X84030882Y-112182644D01*
X84023173Y-112197035D01*
X84000019Y-112226748D01*
X83961105Y-112272131D01*
X83906116Y-112333529D01*
X83834736Y-112411288D01*
X83746651Y-112505754D01*
X83641546Y-112617272D01*
X83519105Y-112746188D01*
X83484690Y-112782287D01*
X82938863Y-113354416D01*
X83027119Y-113442436D01*
X83098515Y-113364758D01*
X83124634Y-113336686D01*
X83165434Y-113293274D01*
X83218223Y-113237366D01*
X83280309Y-113171808D01*
X83349000Y-113099441D01*
X83421604Y-113023112D01*
X83465040Y-112977524D01*
X83546584Y-112892119D01*
X83612496Y-112823710D01*
X83664456Y-112771053D01*
X83704145Y-112732905D01*
X83733243Y-112708020D01*
X83753431Y-112695156D01*
X83766390Y-112693068D01*
X83773800Y-112700513D01*
X83777342Y-112716246D01*
X83778697Y-112739023D01*
X83778879Y-112745239D01*
X83788297Y-112788061D01*
X83811503Y-112839819D01*
X83843864Y-112892328D01*
X83880748Y-112937403D01*
X83895507Y-112951328D01*
X83971233Y-113000047D01*
X84059692Y-113027306D01*
X84137900Y-113033773D01*
X84226532Y-113021576D01*
X84308388Y-112985813D01*
X84380836Y-112927722D01*
X84394203Y-112913262D01*
X84443082Y-112857733D01*
X85288674Y-112857733D01*
X85288674Y-113033773D01*
X85515010Y-113033773D01*
X85515010Y-112951531D01*
X85517850Y-112895386D01*
X85527393Y-112856416D01*
X85538991Y-112835219D01*
X85547277Y-112820052D01*
X85554373Y-112798062D01*
X85560748Y-112765987D01*
X85566872Y-112720569D01*
X85573216Y-112658548D01*
X85580250Y-112576662D01*
X85585066Y-112515746D01*
X85607161Y-112230343D01*
X86149565Y-112779805D01*
X86247637Y-112879228D01*
X86341784Y-112974815D01*
X86430285Y-113064810D01*
X86511420Y-113147457D01*
X86583469Y-113221001D01*
X86644712Y-113283684D01*
X86693427Y-113333752D01*
X86727896Y-113369448D01*
X86746379Y-113388995D01*
X86776743Y-113419944D01*
X86802071Y-113441530D01*
X86815695Y-113448723D01*
X86833095Y-113440297D01*
X86858460Y-113419245D01*
X86867058Y-113410671D01*
X86903514Y-113372620D01*
X86702802Y-113168658D01*
X86651596Y-113116699D01*
X86585569Y-113049820D01*
X86507618Y-112970950D01*
X86420638Y-112883014D01*
X86327526Y-112788941D01*
X86231179Y-112691658D01*
X86134492Y-112594093D01*
X86065134Y-112524145D01*
X85959703Y-112417550D01*
X85871129Y-112327307D01*
X85798281Y-112252192D01*
X85740023Y-112190986D01*
X85695225Y-112142466D01*
X85673021Y-112117129D01*
X85494724Y-112117129D01*
X85472401Y-112402555D01*
X85465669Y-112486219D01*
X85459157Y-112562727D01*
X85453234Y-112628081D01*
X85448268Y-112678281D01*
X85444629Y-112709329D01*
X85443458Y-112716273D01*
X85436838Y-112744565D01*
X84487364Y-112744565D01*
X84481026Y-112665606D01*
X84461890Y-112572315D01*
X84421846Y-112489791D01*
X84363418Y-112421038D01*
X84289129Y-112369063D01*
X84205748Y-112337863D01*
X84178698Y-112323228D01*
X84165156Y-112291819D01*
X84164872Y-112290434D01*
X84163247Y-112277174D01*
X84165256Y-112263595D01*
X84172858Y-112247181D01*
X84188016Y-112225411D01*
X84212688Y-112195767D01*
X84248836Y-112155732D01*
X84298420Y-112102785D01*
X84363401Y-112034409D01*
X84367599Y-112030005D01*
X84437493Y-111956611D01*
X84511800Y-111878437D01*
X84585414Y-111800864D01*
X84653229Y-111729275D01*
X84710140Y-111669051D01*
X84722832Y-111655587D01*
X84771487Y-111604820D01*
X84814709Y-111561375D01*
X84849395Y-111528241D01*
X84872444Y-111508405D01*
X84880182Y-111504046D01*
X84891722Y-111513170D01*
X84918710Y-111538200D01*
X84959021Y-111577052D01*
X85010529Y-111627643D01*
X85071109Y-111687888D01*
X85138636Y-111755704D01*
X85193826Y-111811565D01*
X85494724Y-112117129D01*
X85673021Y-112117129D01*
X85662751Y-112105411D01*
X85641471Y-112078599D01*
X85630251Y-112060808D01*
X85627754Y-112052570D01*
X85628700Y-112034590D01*
X85631573Y-111993892D01*
X85636187Y-111932819D01*
X85642358Y-111853713D01*
X85649898Y-111758914D01*
X85658621Y-111650767D01*
X85668343Y-111531612D01*
X85678876Y-111403791D01*
X85687365Y-111301635D01*
X85735396Y-110725674D01*
X85611805Y-110725674D01*
X85611273Y-110738104D01*
X85608769Y-110773110D01*
X85604496Y-110828215D01*
X85598653Y-110900943D01*
X85591443Y-110988814D01*
X85583066Y-111089351D01*
X85573723Y-111200077D01*
X85564758Y-111305205D01*
X85554602Y-111424483D01*
X85545142Y-111537080D01*
X85536596Y-111640305D01*
X85529179Y-111731473D01*
X85523108Y-111807895D01*
X85518601Y-111866883D01*
X85515873Y-111905749D01*
X85515116Y-111920844D01*
X85513935Y-111930238D01*
X85509256Y-111933966D01*
X85499276Y-111930471D01*
X85482190Y-111918199D01*
X85456196Y-111895594D01*
X85419490Y-111861100D01*
X85370267Y-111813162D01*
X85306726Y-111750224D01*
X85239305Y-111682968D01*
X84963601Y-111407477D01*
X84965533Y-111405406D01*
X84783290Y-111405406D01*
X84774984Y-111416780D01*
X84751733Y-111443563D01*
X84715865Y-111483292D01*
X84669713Y-111533507D01*
X84615606Y-111591746D01*
X84555874Y-111655547D01*
X84492848Y-111722449D01*
X84428858Y-111789990D01*
X84366236Y-111855710D01*
X84307310Y-111917146D01*
X84254412Y-111971837D01*
X84209872Y-112017322D01*
X84176020Y-112051138D01*
X84155188Y-112070826D01*
X84149506Y-112074837D01*
X84147634Y-112061891D01*
X84143746Y-112026134D01*
X84138057Y-111969804D01*
X84130781Y-111895140D01*
X84122131Y-111804380D01*
X84112322Y-111699762D01*
X84101566Y-111583526D01*
X84090079Y-111457908D01*
X84080907Y-111356618D01*
X84069174Y-111225279D01*
X84058335Y-111101552D01*
X84048570Y-110987681D01*
X84040063Y-110885911D01*
X84032995Y-110798487D01*
X84027549Y-110727653D01*
X84023908Y-110675653D01*
X84022253Y-110644732D01*
X84022442Y-110636703D01*
X84032334Y-110643854D01*
X84057524Y-110666841D01*
X84095810Y-110703439D01*
X84144989Y-110751422D01*
X84202861Y-110808566D01*
X84267222Y-110872647D01*
X84335871Y-110941438D01*
X84406605Y-111012716D01*
X84477222Y-111084255D01*
X84545520Y-111153830D01*
X84609296Y-111219217D01*
X84666350Y-111278191D01*
X84714478Y-111328527D01*
X84751478Y-111367999D01*
X84775148Y-111394383D01*
X84783290Y-111405406D01*
X84965533Y-111405406D01*
X85066409Y-111297295D01*
X85118768Y-111241377D01*
X85177535Y-111178948D01*
X85240385Y-111112443D01*
X85304995Y-111044298D01*
X85369042Y-110976948D01*
X85430203Y-110912828D01*
X85486153Y-110854372D01*
X85534570Y-110804018D01*
X85573130Y-110764198D01*
X85599509Y-110737350D01*
X85611384Y-110725908D01*
X85611805Y-110725674D01*
X85735396Y-110725674D01*
X85747401Y-110581726D01*
X86347938Y-109950158D01*
X86948475Y-109318589D01*
X86948034Y-109230315D01*
X86947592Y-109142040D01*
X86850583Y-109245666D01*
X86796291Y-109303463D01*
X86732192Y-109371368D01*
X86660016Y-109447572D01*
X86581492Y-109530269D01*
X86498349Y-109617653D01*
X86412319Y-109707915D01*
X86325130Y-109799250D01*
X86238513Y-109889849D01*
X86154197Y-109977907D01*
X86073912Y-110061615D01*
X85999387Y-110139167D01*
X85932354Y-110208757D01*
X85874541Y-110268576D01*
X85827679Y-110316818D01*
X85793496Y-110351676D01*
X85773724Y-110371343D01*
X85769390Y-110375116D01*
X85769092Y-110361992D01*
X85770731Y-110328389D01*
X85774023Y-110278880D01*
X85778682Y-110218037D01*
X85780682Y-110193732D01*
X85795577Y-110015951D01*
X85678955Y-110015951D01*
X85672934Y-110044243D01*
X85669863Y-110066618D01*
X85665548Y-110108717D01*
X85660488Y-110165178D01*
X85655181Y-110230635D01*
X85653344Y-110254862D01*
X85647927Y-110324421D01*
X85642459Y-110389018D01*
X85637488Y-110442548D01*
X85633561Y-110478910D01*
X85632675Y-110485509D01*
X85629334Y-110499056D01*
X85622101Y-110514914D01*
X85609440Y-110534861D01*
X85589811Y-110560673D01*
X85561678Y-110594129D01*
X85523502Y-110637007D01*
X85473746Y-110691083D01*
X85410871Y-110758136D01*
X85333341Y-110839943D01*
X85254251Y-110922950D01*
X85175564Y-111005094D01*
X85102112Y-111081169D01*
X85035724Y-111149325D01*
X84978227Y-111207712D01*
X84931451Y-111254481D01*
X84897224Y-111287782D01*
X84877373Y-111305767D01*
X84873140Y-111308442D01*
X84862003Y-111298741D01*
X84835971Y-111273441D01*
X84797570Y-111235082D01*
X84749328Y-111186200D01*
X84693770Y-111129334D01*
X84653592Y-111087906D01*
X84443831Y-110871000D01*
X85062337Y-110871000D01*
X85062337Y-110632089D01*
X84307881Y-110632089D01*
X84307881Y-110738542D01*
X84169565Y-110600654D01*
X84071447Y-110502840D01*
X83880357Y-110502840D01*
X83878529Y-110518270D01*
X83869277Y-110526867D01*
X83846950Y-110530613D01*
X83805895Y-110531489D01*
X83798624Y-110531495D01*
X83716891Y-110531495D01*
X83716891Y-110312172D01*
X83798624Y-110393179D01*
X83844730Y-110442428D01*
X83872306Y-110480159D01*
X83880357Y-110502840D01*
X84071447Y-110502840D01*
X84031248Y-110462766D01*
X84031248Y-110339952D01*
X84030863Y-110283450D01*
X84029100Y-110247505D01*
X84025050Y-110227530D01*
X84017801Y-110218937D01*
X84006870Y-110217139D01*
X83994712Y-110214498D01*
X83985727Y-110203912D01*
X83978826Y-110181381D01*
X83972924Y-110142909D01*
X83966935Y-110084498D01*
X83965013Y-110063104D01*
X83960852Y-110015951D01*
X85678955Y-110015951D01*
X85795577Y-110015951D01*
X85955109Y-110015951D01*
X85955109Y-109902782D01*
X85887314Y-109902782D01*
X85847662Y-109901696D01*
X85826116Y-109896454D01*
X85823480Y-109893334D01*
X85684616Y-109893334D01*
X85677308Y-109900462D01*
X85651993Y-109902662D01*
X85634908Y-109902782D01*
X85577881Y-109902782D01*
X85365221Y-109902782D01*
X83950698Y-109902782D01*
X83998542Y-109853786D01*
X84072850Y-109793324D01*
X84164816Y-109746691D01*
X84275998Y-109713249D01*
X84386471Y-109694753D01*
X84458773Y-109686122D01*
X84458773Y-109777040D01*
X85037188Y-109777040D01*
X85037188Y-109673893D01*
X85122065Y-109682496D01*
X85181368Y-109689756D01*
X85244551Y-109699379D01*
X85282386Y-109706252D01*
X85357832Y-109721407D01*
X85361526Y-109812095D01*
X85365221Y-109902782D01*
X85577881Y-109902782D01*
X85577881Y-109852485D01*
X85579544Y-109820976D01*
X85583697Y-109803463D01*
X85585371Y-109802188D01*
X85603987Y-109810254D01*
X85631183Y-109829820D01*
X85658448Y-109853944D01*
X85677267Y-109875682D01*
X85678943Y-109878508D01*
X85684616Y-109893334D01*
X85823480Y-109893334D01*
X85815662Y-109884081D01*
X85811442Y-109870604D01*
X85794219Y-109835627D01*
X85761138Y-109793579D01*
X85717893Y-109750356D01*
X85670174Y-109711854D01*
X85638830Y-109691801D01*
X85603123Y-109669851D01*
X85584819Y-109651411D01*
X85578388Y-109629668D01*
X85577894Y-109616718D01*
X85577894Y-109613575D01*
X84936594Y-109613575D01*
X84936594Y-109676446D01*
X84559367Y-109676446D01*
X84559367Y-109613575D01*
X84936594Y-109613575D01*
X85577894Y-109613575D01*
X85577881Y-109575852D01*
X85472048Y-109575852D01*
X85423355Y-109577029D01*
X85385405Y-109580165D01*
X85364308Y-109584671D01*
X85362023Y-109586495D01*
X85348641Y-109589295D01*
X85316074Y-109588148D01*
X85269916Y-109583393D01*
X85238376Y-109579003D01*
X85181188Y-109570378D01*
X85128886Y-109562591D01*
X85089582Y-109556847D01*
X85078055Y-109555215D01*
X85047937Y-109545888D01*
X85037188Y-109531272D01*
X85033920Y-109525320D01*
X85022230Y-109520778D01*
X84999288Y-109517470D01*
X84962265Y-109515215D01*
X84908332Y-109513834D01*
X84834660Y-109513150D01*
X84747980Y-109512980D01*
X84655471Y-109513077D01*
X84585094Y-109513530D01*
X84533836Y-109514590D01*
X84498680Y-109516503D01*
X84476611Y-109519519D01*
X84464615Y-109523885D01*
X84459676Y-109529849D01*
X84458773Y-109536784D01*
X84451079Y-109558795D01*
X84425879Y-109571321D01*
X84379991Y-109575788D01*
X84371736Y-109575852D01*
X84294027Y-109583868D01*
X84205767Y-109605936D01*
X84114915Y-109639084D01*
X84029430Y-109680339D01*
X83957274Y-109726731D01*
X83947928Y-109734082D01*
X83917467Y-109757998D01*
X83899428Y-109767576D01*
X83886831Y-109764480D01*
X83873900Y-109751704D01*
X83835707Y-109726678D01*
X83786002Y-109717071D01*
X83732476Y-109722067D01*
X83682822Y-109740851D01*
X83644733Y-109772606D01*
X83641975Y-109776297D01*
X83613474Y-109835575D01*
X83608172Y-109896934D01*
X83625482Y-109955427D01*
X83664820Y-110006104D01*
X83669630Y-110010289D01*
X83697560Y-110030167D01*
X83725898Y-110038921D01*
X83765737Y-110039553D01*
X83775689Y-110038992D01*
X83814668Y-110037562D01*
X83834746Y-110040839D01*
X83842015Y-110050728D01*
X83842760Y-110059961D01*
X83844284Y-110086744D01*
X83848065Y-110127025D01*
X83850782Y-110151124D01*
X83854723Y-110189401D01*
X83853084Y-110208996D01*
X83843579Y-110216158D01*
X83826649Y-110217139D01*
X83816608Y-110213901D01*
X83800410Y-110203420D01*
X83776855Y-110184548D01*
X83744743Y-110156135D01*
X83702872Y-110117035D01*
X83650043Y-110066097D01*
X83585055Y-110002173D01*
X83506709Y-109924114D01*
X83413803Y-109830772D01*
X83305137Y-109720998D01*
X83252769Y-109667952D01*
X82710951Y-109118767D01*
X82711570Y-109205848D01*
X82711570Y-109205848D01*
G37*
X82711570Y-109205848D02*
X82712189Y-109292931D01*
X83163914Y-109751891D01*
X83615639Y-110210852D01*
X83615968Y-110421471D01*
X83616297Y-110632089D01*
X83891390Y-110632089D01*
X83898478Y-110685530D01*
X83901162Y-110709888D01*
X83905687Y-110755759D01*
X83911809Y-110820405D01*
X83919288Y-110901091D01*
X83927881Y-110995081D01*
X83937346Y-111099637D01*
X83947442Y-111212025D01*
X83957926Y-111329507D01*
X83968556Y-111449348D01*
X83979091Y-111568811D01*
X83989287Y-111685159D01*
X83998905Y-111795657D01*
X84007700Y-111897569D01*
X84015432Y-111988158D01*
X84021858Y-112064687D01*
X84026737Y-112124421D01*
X84029825Y-112164624D01*
X84030883Y-112182559D01*
X84030882Y-112182644D01*
X84023173Y-112197035D01*
X84000019Y-112226748D01*
X83961105Y-112272131D01*
X83906116Y-112333529D01*
X83834736Y-112411288D01*
X83746651Y-112505754D01*
X83641546Y-112617272D01*
X83519105Y-112746188D01*
X83484690Y-112782287D01*
X82938863Y-113354416D01*
X83027119Y-113442436D01*
X83098515Y-113364758D01*
X83124634Y-113336686D01*
X83165434Y-113293274D01*
X83218223Y-113237366D01*
X83280309Y-113171808D01*
X83349000Y-113099441D01*
X83421604Y-113023112D01*
X83465040Y-112977524D01*
X83546584Y-112892119D01*
X83612496Y-112823710D01*
X83664456Y-112771053D01*
X83704145Y-112732905D01*
X83733243Y-112708020D01*
X83753431Y-112695156D01*
X83766390Y-112693068D01*
X83773800Y-112700513D01*
X83777342Y-112716246D01*
X83778697Y-112739023D01*
X83778879Y-112745239D01*
X83788297Y-112788061D01*
X83811503Y-112839819D01*
X83843864Y-112892328D01*
X83880748Y-112937403D01*
X83895507Y-112951328D01*
X83971233Y-113000047D01*
X84059692Y-113027306D01*
X84137900Y-113033773D01*
X84226532Y-113021576D01*
X84308388Y-112985813D01*
X84380836Y-112927722D01*
X84394203Y-112913262D01*
X84443082Y-112857733D01*
X85288674Y-112857733D01*
X85288674Y-113033773D01*
X85515010Y-113033773D01*
X85515010Y-112951531D01*
X85517850Y-112895386D01*
X85527393Y-112856416D01*
X85538991Y-112835219D01*
X85547277Y-112820052D01*
X85554373Y-112798062D01*
X85560748Y-112765987D01*
X85566872Y-112720569D01*
X85573216Y-112658548D01*
X85580250Y-112576662D01*
X85585066Y-112515746D01*
X85607161Y-112230343D01*
X86149565Y-112779805D01*
X86247637Y-112879228D01*
X86341784Y-112974815D01*
X86430285Y-113064810D01*
X86511420Y-113147457D01*
X86583469Y-113221001D01*
X86644712Y-113283684D01*
X86693427Y-113333752D01*
X86727896Y-113369448D01*
X86746379Y-113388995D01*
X86776743Y-113419944D01*
X86802071Y-113441530D01*
X86815695Y-113448723D01*
X86833095Y-113440297D01*
X86858460Y-113419245D01*
X86867058Y-113410671D01*
X86903514Y-113372620D01*
X86702802Y-113168658D01*
X86651596Y-113116699D01*
X86585569Y-113049820D01*
X86507618Y-112970950D01*
X86420638Y-112883014D01*
X86327526Y-112788941D01*
X86231179Y-112691658D01*
X86134492Y-112594093D01*
X86065134Y-112524145D01*
X85959703Y-112417550D01*
X85871129Y-112327307D01*
X85798281Y-112252192D01*
X85740023Y-112190986D01*
X85695225Y-112142466D01*
X85673021Y-112117129D01*
X85494724Y-112117129D01*
X85472401Y-112402555D01*
X85465669Y-112486219D01*
X85459157Y-112562727D01*
X85453234Y-112628081D01*
X85448268Y-112678281D01*
X85444629Y-112709329D01*
X85443458Y-112716273D01*
X85436838Y-112744565D01*
X84487364Y-112744565D01*
X84481026Y-112665606D01*
X84461890Y-112572315D01*
X84421846Y-112489791D01*
X84363418Y-112421038D01*
X84289129Y-112369063D01*
X84205748Y-112337863D01*
X84178698Y-112323228D01*
X84165156Y-112291819D01*
X84164872Y-112290434D01*
X84163247Y-112277174D01*
X84165256Y-112263595D01*
X84172858Y-112247181D01*
X84188016Y-112225411D01*
X84212688Y-112195767D01*
X84248836Y-112155732D01*
X84298420Y-112102785D01*
X84363401Y-112034409D01*
X84367599Y-112030005D01*
X84437493Y-111956611D01*
X84511800Y-111878437D01*
X84585414Y-111800864D01*
X84653229Y-111729275D01*
X84710140Y-111669051D01*
X84722832Y-111655587D01*
X84771487Y-111604820D01*
X84814709Y-111561375D01*
X84849395Y-111528241D01*
X84872444Y-111508405D01*
X84880182Y-111504046D01*
X84891722Y-111513170D01*
X84918710Y-111538200D01*
X84959021Y-111577052D01*
X85010529Y-111627643D01*
X85071109Y-111687888D01*
X85138636Y-111755704D01*
X85193826Y-111811565D01*
X85494724Y-112117129D01*
X85673021Y-112117129D01*
X85662751Y-112105411D01*
X85641471Y-112078599D01*
X85630251Y-112060808D01*
X85627754Y-112052570D01*
X85628700Y-112034590D01*
X85631573Y-111993892D01*
X85636187Y-111932819D01*
X85642358Y-111853713D01*
X85649898Y-111758914D01*
X85658621Y-111650767D01*
X85668343Y-111531612D01*
X85678876Y-111403791D01*
X85687365Y-111301635D01*
X85735396Y-110725674D01*
X85611805Y-110725674D01*
X85611273Y-110738104D01*
X85608769Y-110773110D01*
X85604496Y-110828215D01*
X85598653Y-110900943D01*
X85591443Y-110988814D01*
X85583066Y-111089351D01*
X85573723Y-111200077D01*
X85564758Y-111305205D01*
X85554602Y-111424483D01*
X85545142Y-111537080D01*
X85536596Y-111640305D01*
X85529179Y-111731473D01*
X85523108Y-111807895D01*
X85518601Y-111866883D01*
X85515873Y-111905749D01*
X85515116Y-111920844D01*
X85513935Y-111930238D01*
X85509256Y-111933966D01*
X85499276Y-111930471D01*
X85482190Y-111918199D01*
X85456196Y-111895594D01*
X85419490Y-111861100D01*
X85370267Y-111813162D01*
X85306726Y-111750224D01*
X85239305Y-111682968D01*
X84963601Y-111407477D01*
X84965533Y-111405406D01*
X84783290Y-111405406D01*
X84774984Y-111416780D01*
X84751733Y-111443563D01*
X84715865Y-111483292D01*
X84669713Y-111533507D01*
X84615606Y-111591746D01*
X84555874Y-111655547D01*
X84492848Y-111722449D01*
X84428858Y-111789990D01*
X84366236Y-111855710D01*
X84307310Y-111917146D01*
X84254412Y-111971837D01*
X84209872Y-112017322D01*
X84176020Y-112051138D01*
X84155188Y-112070826D01*
X84149506Y-112074837D01*
X84147634Y-112061891D01*
X84143746Y-112026134D01*
X84138057Y-111969804D01*
X84130781Y-111895140D01*
X84122131Y-111804380D01*
X84112322Y-111699762D01*
X84101566Y-111583526D01*
X84090079Y-111457908D01*
X84080907Y-111356618D01*
X84069174Y-111225279D01*
X84058335Y-111101552D01*
X84048570Y-110987681D01*
X84040063Y-110885911D01*
X84032995Y-110798487D01*
X84027549Y-110727653D01*
X84023908Y-110675653D01*
X84022253Y-110644732D01*
X84022442Y-110636703D01*
X84032334Y-110643854D01*
X84057524Y-110666841D01*
X84095810Y-110703439D01*
X84144989Y-110751422D01*
X84202861Y-110808566D01*
X84267222Y-110872647D01*
X84335871Y-110941438D01*
X84406605Y-111012716D01*
X84477222Y-111084255D01*
X84545520Y-111153830D01*
X84609296Y-111219217D01*
X84666350Y-111278191D01*
X84714478Y-111328527D01*
X84751478Y-111367999D01*
X84775148Y-111394383D01*
X84783290Y-111405406D01*
X84965533Y-111405406D01*
X85066409Y-111297295D01*
X85118768Y-111241377D01*
X85177535Y-111178948D01*
X85240385Y-111112443D01*
X85304995Y-111044298D01*
X85369042Y-110976948D01*
X85430203Y-110912828D01*
X85486153Y-110854372D01*
X85534570Y-110804018D01*
X85573130Y-110764198D01*
X85599509Y-110737350D01*
X85611384Y-110725908D01*
X85611805Y-110725674D01*
X85735396Y-110725674D01*
X85747401Y-110581726D01*
X86347938Y-109950158D01*
X86948475Y-109318589D01*
X86948034Y-109230315D01*
X86947592Y-109142040D01*
X86850583Y-109245666D01*
X86796291Y-109303463D01*
X86732192Y-109371368D01*
X86660016Y-109447572D01*
X86581492Y-109530269D01*
X86498349Y-109617653D01*
X86412319Y-109707915D01*
X86325130Y-109799250D01*
X86238513Y-109889849D01*
X86154197Y-109977907D01*
X86073912Y-110061615D01*
X85999387Y-110139167D01*
X85932354Y-110208757D01*
X85874541Y-110268576D01*
X85827679Y-110316818D01*
X85793496Y-110351676D01*
X85773724Y-110371343D01*
X85769390Y-110375116D01*
X85769092Y-110361992D01*
X85770731Y-110328389D01*
X85774023Y-110278880D01*
X85778682Y-110218037D01*
X85780682Y-110193732D01*
X85795577Y-110015951D01*
X85678955Y-110015951D01*
X85672934Y-110044243D01*
X85669863Y-110066618D01*
X85665548Y-110108717D01*
X85660488Y-110165178D01*
X85655181Y-110230635D01*
X85653344Y-110254862D01*
X85647927Y-110324421D01*
X85642459Y-110389018D01*
X85637488Y-110442548D01*
X85633561Y-110478910D01*
X85632675Y-110485509D01*
X85629334Y-110499056D01*
X85622101Y-110514914D01*
X85609440Y-110534861D01*
X85589811Y-110560673D01*
X85561678Y-110594129D01*
X85523502Y-110637007D01*
X85473746Y-110691083D01*
X85410871Y-110758136D01*
X85333341Y-110839943D01*
X85254251Y-110922950D01*
X85175564Y-111005094D01*
X85102112Y-111081169D01*
X85035724Y-111149325D01*
X84978227Y-111207712D01*
X84931451Y-111254481D01*
X84897224Y-111287782D01*
X84877373Y-111305767D01*
X84873140Y-111308442D01*
X84862003Y-111298741D01*
X84835971Y-111273441D01*
X84797570Y-111235082D01*
X84749328Y-111186200D01*
X84693770Y-111129334D01*
X84653592Y-111087906D01*
X84443831Y-110871000D01*
X85062337Y-110871000D01*
X85062337Y-110632089D01*
X84307881Y-110632089D01*
X84307881Y-110738542D01*
X84169565Y-110600654D01*
X84071447Y-110502840D01*
X83880357Y-110502840D01*
X83878529Y-110518270D01*
X83869277Y-110526867D01*
X83846950Y-110530613D01*
X83805895Y-110531489D01*
X83798624Y-110531495D01*
X83716891Y-110531495D01*
X83716891Y-110312172D01*
X83798624Y-110393179D01*
X83844730Y-110442428D01*
X83872306Y-110480159D01*
X83880357Y-110502840D01*
X84071447Y-110502840D01*
X84031248Y-110462766D01*
X84031248Y-110339952D01*
X84030863Y-110283450D01*
X84029100Y-110247505D01*
X84025050Y-110227530D01*
X84017801Y-110218937D01*
X84006870Y-110217139D01*
X83994712Y-110214498D01*
X83985727Y-110203912D01*
X83978826Y-110181381D01*
X83972924Y-110142909D01*
X83966935Y-110084498D01*
X83965013Y-110063104D01*
X83960852Y-110015951D01*
X85678955Y-110015951D01*
X85795577Y-110015951D01*
X85955109Y-110015951D01*
X85955109Y-109902782D01*
X85887314Y-109902782D01*
X85847662Y-109901696D01*
X85826116Y-109896454D01*
X85823480Y-109893334D01*
X85684616Y-109893334D01*
X85677308Y-109900462D01*
X85651993Y-109902662D01*
X85634908Y-109902782D01*
X85577881Y-109902782D01*
X85365221Y-109902782D01*
X83950698Y-109902782D01*
X83998542Y-109853786D01*
X84072850Y-109793324D01*
X84164816Y-109746691D01*
X84275998Y-109713249D01*
X84386471Y-109694753D01*
X84458773Y-109686122D01*
X84458773Y-109777040D01*
X85037188Y-109777040D01*
X85037188Y-109673893D01*
X85122065Y-109682496D01*
X85181368Y-109689756D01*
X85244551Y-109699379D01*
X85282386Y-109706252D01*
X85357832Y-109721407D01*
X85361526Y-109812095D01*
X85365221Y-109902782D01*
X85577881Y-109902782D01*
X85577881Y-109852485D01*
X85579544Y-109820976D01*
X85583697Y-109803463D01*
X85585371Y-109802188D01*
X85603987Y-109810254D01*
X85631183Y-109829820D01*
X85658448Y-109853944D01*
X85677267Y-109875682D01*
X85678943Y-109878508D01*
X85684616Y-109893334D01*
X85823480Y-109893334D01*
X85815662Y-109884081D01*
X85811442Y-109870604D01*
X85794219Y-109835627D01*
X85761138Y-109793579D01*
X85717893Y-109750356D01*
X85670174Y-109711854D01*
X85638830Y-109691801D01*
X85603123Y-109669851D01*
X85584819Y-109651411D01*
X85578388Y-109629668D01*
X85577894Y-109616718D01*
X85577894Y-109613575D01*
X84936594Y-109613575D01*
X84936594Y-109676446D01*
X84559367Y-109676446D01*
X84559367Y-109613575D01*
X84936594Y-109613575D01*
X85577894Y-109613575D01*
X85577881Y-109575852D01*
X85472048Y-109575852D01*
X85423355Y-109577029D01*
X85385405Y-109580165D01*
X85364308Y-109584671D01*
X85362023Y-109586495D01*
X85348641Y-109589295D01*
X85316074Y-109588148D01*
X85269916Y-109583393D01*
X85238376Y-109579003D01*
X85181188Y-109570378D01*
X85128886Y-109562591D01*
X85089582Y-109556847D01*
X85078055Y-109555215D01*
X85047937Y-109545888D01*
X85037188Y-109531272D01*
X85033920Y-109525320D01*
X85022230Y-109520778D01*
X84999288Y-109517470D01*
X84962265Y-109515215D01*
X84908332Y-109513834D01*
X84834660Y-109513150D01*
X84747980Y-109512980D01*
X84655471Y-109513077D01*
X84585094Y-109513530D01*
X84533836Y-109514590D01*
X84498680Y-109516503D01*
X84476611Y-109519519D01*
X84464615Y-109523885D01*
X84459676Y-109529849D01*
X84458773Y-109536784D01*
X84451079Y-109558795D01*
X84425879Y-109571321D01*
X84379991Y-109575788D01*
X84371736Y-109575852D01*
X84294027Y-109583868D01*
X84205767Y-109605936D01*
X84114915Y-109639084D01*
X84029430Y-109680339D01*
X83957274Y-109726731D01*
X83947928Y-109734082D01*
X83917467Y-109757998D01*
X83899428Y-109767576D01*
X83886831Y-109764480D01*
X83873900Y-109751704D01*
X83835707Y-109726678D01*
X83786002Y-109717071D01*
X83732476Y-109722067D01*
X83682822Y-109740851D01*
X83644733Y-109772606D01*
X83641975Y-109776297D01*
X83613474Y-109835575D01*
X83608172Y-109896934D01*
X83625482Y-109955427D01*
X83664820Y-110006104D01*
X83669630Y-110010289D01*
X83697560Y-110030167D01*
X83725898Y-110038921D01*
X83765737Y-110039553D01*
X83775689Y-110038992D01*
X83814668Y-110037562D01*
X83834746Y-110040839D01*
X83842015Y-110050728D01*
X83842760Y-110059961D01*
X83844284Y-110086744D01*
X83848065Y-110127025D01*
X83850782Y-110151124D01*
X83854723Y-110189401D01*
X83853084Y-110208996D01*
X83843579Y-110216158D01*
X83826649Y-110217139D01*
X83816608Y-110213901D01*
X83800410Y-110203420D01*
X83776855Y-110184548D01*
X83744743Y-110156135D01*
X83702872Y-110117035D01*
X83650043Y-110066097D01*
X83585055Y-110002173D01*
X83506709Y-109924114D01*
X83413803Y-109830772D01*
X83305137Y-109720998D01*
X83252769Y-109667952D01*
X82710951Y-109118767D01*
X82711570Y-109205848D01*
G36*
X95909637Y-87450699D02*
X95887845Y-87457976D01*
X95869414Y-87474420D01*
X95854065Y-87503197D01*
X95841519Y-87547474D01*
X95831495Y-87610418D01*
X95823717Y-87695194D01*
X95817904Y-87804971D01*
X95813777Y-87942914D01*
X95811057Y-88112191D01*
X95809465Y-88315968D01*
X95808723Y-88557411D01*
X95808550Y-88839687D01*
X95808668Y-89165964D01*
X95808797Y-89539407D01*
X95808800Y-89598500D01*
X95808878Y-89973884D01*
X95809151Y-90301711D01*
X95809682Y-90585221D01*
X95810531Y-90827658D01*
X95811760Y-91032261D01*
X95813431Y-91202274D01*
X95815605Y-91340939D01*
X95818343Y-91451496D01*
X95821708Y-91537188D01*
X95825759Y-91601257D01*
X95830559Y-91646944D01*
X95836169Y-91677492D01*
X95842651Y-91696141D01*
X95848715Y-91704885D01*
X95859791Y-91711992D01*
X95879999Y-91718213D01*
X95912510Y-91723606D01*
X95960497Y-91728229D01*
X96027133Y-91732140D01*
X96115590Y-91735396D01*
X96229040Y-91738056D01*
X96370656Y-91740175D01*
X96543610Y-91741813D01*
X96751076Y-91743028D01*
X96996224Y-91743876D01*
X97282229Y-91744415D01*
X97612261Y-91744703D01*
X97989495Y-91744798D01*
X98044001Y-91744800D01*
X98427824Y-91744726D01*
X98764020Y-91744467D01*
X99055761Y-91743965D01*
X99306219Y-91743162D01*
X99518568Y-91742000D01*
X99695979Y-91740422D01*
X99841625Y-91738371D01*
X99958678Y-91735787D01*
X100050312Y-91732615D01*
X100119697Y-91728795D01*
X100170008Y-91724271D01*
X100204416Y-91718985D01*
X100226093Y-91712879D01*
X100238213Y-91705895D01*
X100239286Y-91704885D01*
X100246535Y-91693627D01*
X100252862Y-91673152D01*
X100258328Y-91640219D01*
X100262994Y-91591586D01*
X100266922Y-91524011D01*
X100270174Y-91434252D01*
X100272810Y-91319068D01*
X100274893Y-91175217D01*
X100276483Y-90999456D01*
X100277642Y-90788544D01*
X100278432Y-90539239D01*
X100278914Y-90248300D01*
X100279149Y-89912484D01*
X100279200Y-89598500D01*
X100279123Y-89223115D01*
X100278850Y-88895288D01*
X100278319Y-88611778D01*
X100277470Y-88369341D01*
X100276241Y-88164738D01*
X100275052Y-88043729D01*
X99999801Y-88043729D01*
X99989363Y-88068638D01*
X99963056Y-88122844D01*
X99949001Y-88150699D01*
X99938068Y-88173774D01*
X99928826Y-88199420D01*
X99921133Y-88231859D01*
X99914848Y-88275308D01*
X99909828Y-88333988D01*
X99905932Y-88412117D01*
X99903017Y-88513917D01*
X99900943Y-88643605D01*
X99899566Y-88805401D01*
X99898746Y-89003525D01*
X99898341Y-89242197D01*
X99898209Y-89525635D01*
X99898201Y-89662290D01*
X99898561Y-89925726D01*
X99899598Y-90174037D01*
X99901244Y-90402556D01*
X99903432Y-90606618D01*
X99906097Y-90781558D01*
X99909170Y-90922711D01*
X99912585Y-91025410D01*
X99916276Y-91084991D01*
X99918776Y-91098370D01*
X99943200Y-91138136D01*
X99969032Y-91192350D01*
X99998711Y-91262200D01*
X99472206Y-91261811D01*
X99317033Y-91260849D01*
X99182650Y-91258381D01*
X99076001Y-91254674D01*
X99004030Y-91249992D01*
X98973681Y-91244600D01*
X98973906Y-91242761D01*
X99003855Y-91208826D01*
X99039668Y-91150626D01*
X99043756Y-91142811D01*
X99058682Y-91105521D01*
X99069693Y-91055267D01*
X99077331Y-90984556D01*
X99082134Y-90885898D01*
X99084644Y-90751800D01*
X99085399Y-90574772D01*
X99085400Y-90564961D01*
X99084167Y-90387347D01*
X99080604Y-90244876D01*
X99074922Y-90141727D01*
X99067328Y-90082078D01*
X99060586Y-90068400D01*
X99031086Y-90087770D01*
X98993359Y-90134744D01*
X98991085Y-90138250D01*
X98950507Y-90195268D01*
X98916301Y-90233500D01*
X98885853Y-90270632D01*
X98845917Y-90332966D01*
X98832329Y-90356833D01*
X98790180Y-90423930D01*
X98727473Y-90512720D01*
X98656408Y-90606064D01*
X98642458Y-90623533D01*
X98534339Y-90766344D01*
X98443862Y-90902967D01*
X98375611Y-91025349D01*
X98334169Y-91125440D01*
X98323400Y-91183923D01*
X98323400Y-91262200D01*
X97196945Y-91262200D01*
X97209071Y-91248488D01*
X97053400Y-91248488D01*
X97029301Y-91252757D01*
X96962204Y-91256485D01*
X96859911Y-91259448D01*
X96730222Y-91261426D01*
X96580939Y-91262196D01*
X96570800Y-91262200D01*
X96394033Y-91261408D01*
X96262899Y-91258806D01*
X96172253Y-91254056D01*
X96116950Y-91246818D01*
X96091844Y-91236752D01*
X96089008Y-91230450D01*
X96103962Y-91186554D01*
X96127108Y-91149395D01*
X96136302Y-91130692D01*
X96143898Y-91098195D01*
X96150041Y-91047498D01*
X96154873Y-90974196D01*
X96158536Y-90873883D01*
X96161174Y-90742154D01*
X96162930Y-90574604D01*
X96163947Y-90366827D01*
X96164367Y-90114418D01*
X96164400Y-90000045D01*
X96164400Y-88900000D01*
X97029305Y-88900000D01*
X96990553Y-88974938D01*
X96980522Y-89000815D01*
X96972333Y-89039092D01*
X96965808Y-89094607D01*
X96960774Y-89172197D01*
X96957053Y-89276700D01*
X96954471Y-89412954D01*
X96952852Y-89585797D01*
X96952021Y-89800067D01*
X96951800Y-90042750D01*
X96951914Y-90294440D01*
X96952415Y-90500511D01*
X96953545Y-90666147D01*
X96955545Y-90796527D01*
X96958655Y-90896835D01*
X96963117Y-90972251D01*
X96969171Y-91027957D01*
X96977059Y-91069135D01*
X96987021Y-91100967D01*
X96999299Y-91128635D01*
X97002600Y-91135200D01*
X97033510Y-91198636D01*
X97051520Y-91241110D01*
X97053400Y-91248488D01*
X97209071Y-91248488D01*
X97258523Y-91192570D01*
X97302445Y-91143266D01*
X97330627Y-91112290D01*
X97332800Y-91110020D01*
X97390555Y-91046905D01*
X97462037Y-90962689D01*
X97537103Y-90870065D01*
X97605609Y-90781725D01*
X97657412Y-90710361D01*
X97677624Y-90678547D01*
X97717845Y-90614584D01*
X97781338Y-90523299D01*
X97859196Y-90416680D01*
X97942513Y-90306715D01*
X98022383Y-90205390D01*
X98084727Y-90130607D01*
X98145171Y-90053548D01*
X98201841Y-89969943D01*
X98206022Y-89963050D01*
X98333363Y-89764936D01*
X98429006Y-89634356D01*
X98498964Y-89543212D01*
X98417532Y-89455760D01*
X98347340Y-89376661D01*
X98257285Y-89269892D01*
X98157943Y-89148451D01*
X98059893Y-89025339D01*
X97973711Y-88913555D01*
X97944849Y-88874815D01*
X97640059Y-88494892D01*
X97400721Y-88237787D01*
X97201941Y-88036400D01*
X97747253Y-88036400D01*
X97932450Y-88036523D01*
X98073002Y-88037861D01*
X98175063Y-88041867D01*
X98244788Y-88049993D01*
X98288331Y-88063691D01*
X98311847Y-88084416D01*
X98321489Y-88113618D01*
X98323414Y-88152751D01*
X98323400Y-88172390D01*
X98338988Y-88225842D01*
X98378059Y-88293121D01*
X98395701Y-88316362D01*
X98454348Y-88393668D01*
X98517110Y-88484586D01*
X98539198Y-88519000D01*
X98582448Y-88585764D01*
X98616088Y-88632931D01*
X98627761Y-88646000D01*
X98657555Y-88675339D01*
X98706755Y-88731018D01*
X98766478Y-88802108D01*
X98827838Y-88877681D01*
X98881953Y-88946808D01*
X98919937Y-88998561D01*
X98933000Y-89021483D01*
X98949818Y-89050974D01*
X98991854Y-89098717D01*
X99009201Y-89115900D01*
X99085401Y-89188904D01*
X99085400Y-88769088D01*
X99083807Y-88586302D01*
X99078105Y-88443476D01*
X99066907Y-88329840D01*
X99048828Y-88234629D01*
X99022482Y-88147075D01*
X98996836Y-88080850D01*
X98993606Y-88065771D01*
X99002351Y-88054538D01*
X99029295Y-88046591D01*
X99080662Y-88041367D01*
X99162676Y-88038303D01*
X99281561Y-88036838D01*
X99443540Y-88036410D01*
X99489083Y-88036400D01*
X99643917Y-88036746D01*
X99779878Y-88037712D01*
X99889383Y-88039190D01*
X99964849Y-88041071D01*
X99998692Y-88043245D01*
X99999801Y-88043729D01*
X100275052Y-88043729D01*
X100274570Y-87994725D01*
X100272396Y-87856060D01*
X100269658Y-87745503D01*
X100266293Y-87659811D01*
X100262242Y-87595742D01*
X100257442Y-87550055D01*
X100251832Y-87519507D01*
X100245350Y-87500858D01*
X100239286Y-87492114D01*
X100226822Y-87483934D01*
X100204563Y-87476938D01*
X100168809Y-87471034D01*
X100115859Y-87466133D01*
X100042012Y-87462144D01*
X99943569Y-87458978D01*
X99816827Y-87456544D01*
X99658087Y-87454752D01*
X99463647Y-87453511D01*
X99229807Y-87452733D01*
X98952865Y-87452326D01*
X98629122Y-87452200D01*
X97002600Y-87452200D01*
X97002600Y-87548418D01*
X96982521Y-87664335D01*
X96929475Y-87783000D01*
X96854246Y-87883991D01*
X96801994Y-87928244D01*
X96688454Y-87975370D01*
X96557500Y-87985636D01*
X96423372Y-87961918D01*
X96300310Y-87907089D01*
X96202552Y-87824023D01*
X96187200Y-87804147D01*
X96140194Y-87703428D01*
X96118561Y-87587877D01*
X96107310Y-87452199D01*
X95997970Y-87452200D01*
X95964420Y-87450977D01*
X95935069Y-87449421D01*
X95909637Y-87450699D01*
X95909637Y-87450699D01*
G37*
X95909637Y-87450699D02*
X95887845Y-87457976D01*
X95869414Y-87474420D01*
X95854065Y-87503197D01*
X95841519Y-87547474D01*
X95831495Y-87610418D01*
X95823717Y-87695194D01*
X95817904Y-87804971D01*
X95813777Y-87942914D01*
X95811057Y-88112191D01*
X95809465Y-88315968D01*
X95808723Y-88557411D01*
X95808550Y-88839687D01*
X95808668Y-89165964D01*
X95808797Y-89539407D01*
X95808800Y-89598500D01*
X95808878Y-89973884D01*
X95809151Y-90301711D01*
X95809682Y-90585221D01*
X95810531Y-90827658D01*
X95811760Y-91032261D01*
X95813431Y-91202274D01*
X95815605Y-91340939D01*
X95818343Y-91451496D01*
X95821708Y-91537188D01*
X95825759Y-91601257D01*
X95830559Y-91646944D01*
X95836169Y-91677492D01*
X95842651Y-91696141D01*
X95848715Y-91704885D01*
X95859791Y-91711992D01*
X95879999Y-91718213D01*
X95912510Y-91723606D01*
X95960497Y-91728229D01*
X96027133Y-91732140D01*
X96115590Y-91735396D01*
X96229040Y-91738056D01*
X96370656Y-91740175D01*
X96543610Y-91741813D01*
X96751076Y-91743028D01*
X96996224Y-91743876D01*
X97282229Y-91744415D01*
X97612261Y-91744703D01*
X97989495Y-91744798D01*
X98044001Y-91744800D01*
X98427824Y-91744726D01*
X98764020Y-91744467D01*
X99055761Y-91743965D01*
X99306219Y-91743162D01*
X99518568Y-91742000D01*
X99695979Y-91740422D01*
X99841625Y-91738371D01*
X99958678Y-91735787D01*
X100050312Y-91732615D01*
X100119697Y-91728795D01*
X100170008Y-91724271D01*
X100204416Y-91718985D01*
X100226093Y-91712879D01*
X100238213Y-91705895D01*
X100239286Y-91704885D01*
X100246535Y-91693627D01*
X100252862Y-91673152D01*
X100258328Y-91640219D01*
X100262994Y-91591586D01*
X100266922Y-91524011D01*
X100270174Y-91434252D01*
X100272810Y-91319068D01*
X100274893Y-91175217D01*
X100276483Y-90999456D01*
X100277642Y-90788544D01*
X100278432Y-90539239D01*
X100278914Y-90248300D01*
X100279149Y-89912484D01*
X100279200Y-89598500D01*
X100279123Y-89223115D01*
X100278850Y-88895288D01*
X100278319Y-88611778D01*
X100277470Y-88369341D01*
X100276241Y-88164738D01*
X100275052Y-88043729D01*
X99999801Y-88043729D01*
X99989363Y-88068638D01*
X99963056Y-88122844D01*
X99949001Y-88150699D01*
X99938068Y-88173774D01*
X99928826Y-88199420D01*
X99921133Y-88231859D01*
X99914848Y-88275308D01*
X99909828Y-88333988D01*
X99905932Y-88412117D01*
X99903017Y-88513917D01*
X99900943Y-88643605D01*
X99899566Y-88805401D01*
X99898746Y-89003525D01*
X99898341Y-89242197D01*
X99898209Y-89525635D01*
X99898201Y-89662290D01*
X99898561Y-89925726D01*
X99899598Y-90174037D01*
X99901244Y-90402556D01*
X99903432Y-90606618D01*
X99906097Y-90781558D01*
X99909170Y-90922711D01*
X99912585Y-91025410D01*
X99916276Y-91084991D01*
X99918776Y-91098370D01*
X99943200Y-91138136D01*
X99969032Y-91192350D01*
X99998711Y-91262200D01*
X99472206Y-91261811D01*
X99317033Y-91260849D01*
X99182650Y-91258381D01*
X99076001Y-91254674D01*
X99004030Y-91249992D01*
X98973681Y-91244600D01*
X98973906Y-91242761D01*
X99003855Y-91208826D01*
X99039668Y-91150626D01*
X99043756Y-91142811D01*
X99058682Y-91105521D01*
X99069693Y-91055267D01*
X99077331Y-90984556D01*
X99082134Y-90885898D01*
X99084644Y-90751800D01*
X99085399Y-90574772D01*
X99085400Y-90564961D01*
X99084167Y-90387347D01*
X99080604Y-90244876D01*
X99074922Y-90141727D01*
X99067328Y-90082078D01*
X99060586Y-90068400D01*
X99031086Y-90087770D01*
X98993359Y-90134744D01*
X98991085Y-90138250D01*
X98950507Y-90195268D01*
X98916301Y-90233500D01*
X98885853Y-90270632D01*
X98845917Y-90332966D01*
X98832329Y-90356833D01*
X98790180Y-90423930D01*
X98727473Y-90512720D01*
X98656408Y-90606064D01*
X98642458Y-90623533D01*
X98534339Y-90766344D01*
X98443862Y-90902967D01*
X98375611Y-91025349D01*
X98334169Y-91125440D01*
X98323400Y-91183923D01*
X98323400Y-91262200D01*
X97196945Y-91262200D01*
X97209071Y-91248488D01*
X97053400Y-91248488D01*
X97029301Y-91252757D01*
X96962204Y-91256485D01*
X96859911Y-91259448D01*
X96730222Y-91261426D01*
X96580939Y-91262196D01*
X96570800Y-91262200D01*
X96394033Y-91261408D01*
X96262899Y-91258806D01*
X96172253Y-91254056D01*
X96116950Y-91246818D01*
X96091844Y-91236752D01*
X96089008Y-91230450D01*
X96103962Y-91186554D01*
X96127108Y-91149395D01*
X96136302Y-91130692D01*
X96143898Y-91098195D01*
X96150041Y-91047498D01*
X96154873Y-90974196D01*
X96158536Y-90873883D01*
X96161174Y-90742154D01*
X96162930Y-90574604D01*
X96163947Y-90366827D01*
X96164367Y-90114418D01*
X96164400Y-90000045D01*
X96164400Y-88900000D01*
X97029305Y-88900000D01*
X96990553Y-88974938D01*
X96980522Y-89000815D01*
X96972333Y-89039092D01*
X96965808Y-89094607D01*
X96960774Y-89172197D01*
X96957053Y-89276700D01*
X96954471Y-89412954D01*
X96952852Y-89585797D01*
X96952021Y-89800067D01*
X96951800Y-90042750D01*
X96951914Y-90294440D01*
X96952415Y-90500511D01*
X96953545Y-90666147D01*
X96955545Y-90796527D01*
X96958655Y-90896835D01*
X96963117Y-90972251D01*
X96969171Y-91027957D01*
X96977059Y-91069135D01*
X96987021Y-91100967D01*
X96999299Y-91128635D01*
X97002600Y-91135200D01*
X97033510Y-91198636D01*
X97051520Y-91241110D01*
X97053400Y-91248488D01*
X97209071Y-91248488D01*
X97258523Y-91192570D01*
X97302445Y-91143266D01*
X97330627Y-91112290D01*
X97332800Y-91110020D01*
X97390555Y-91046905D01*
X97462037Y-90962689D01*
X97537103Y-90870065D01*
X97605609Y-90781725D01*
X97657412Y-90710361D01*
X97677624Y-90678547D01*
X97717845Y-90614584D01*
X97781338Y-90523299D01*
X97859196Y-90416680D01*
X97942513Y-90306715D01*
X98022383Y-90205390D01*
X98084727Y-90130607D01*
X98145171Y-90053548D01*
X98201841Y-89969943D01*
X98206022Y-89963050D01*
X98333363Y-89764936D01*
X98429006Y-89634356D01*
X98498964Y-89543212D01*
X98417532Y-89455760D01*
X98347340Y-89376661D01*
X98257285Y-89269892D01*
X98157943Y-89148451D01*
X98059893Y-89025339D01*
X97973711Y-88913555D01*
X97944849Y-88874815D01*
X97640059Y-88494892D01*
X97400721Y-88237787D01*
X97201941Y-88036400D01*
X97747253Y-88036400D01*
X97932450Y-88036523D01*
X98073002Y-88037861D01*
X98175063Y-88041867D01*
X98244788Y-88049993D01*
X98288331Y-88063691D01*
X98311847Y-88084416D01*
X98321489Y-88113618D01*
X98323414Y-88152751D01*
X98323400Y-88172390D01*
X98338988Y-88225842D01*
X98378059Y-88293121D01*
X98395701Y-88316362D01*
X98454348Y-88393668D01*
X98517110Y-88484586D01*
X98539198Y-88519000D01*
X98582448Y-88585764D01*
X98616088Y-88632931D01*
X98627761Y-88646000D01*
X98657555Y-88675339D01*
X98706755Y-88731018D01*
X98766478Y-88802108D01*
X98827838Y-88877681D01*
X98881953Y-88946808D01*
X98919937Y-88998561D01*
X98933000Y-89021483D01*
X98949818Y-89050974D01*
X98991854Y-89098717D01*
X99009201Y-89115900D01*
X99085401Y-89188904D01*
X99085400Y-88769088D01*
X99083807Y-88586302D01*
X99078105Y-88443476D01*
X99066907Y-88329840D01*
X99048828Y-88234629D01*
X99022482Y-88147075D01*
X98996836Y-88080850D01*
X98993606Y-88065771D01*
X99002351Y-88054538D01*
X99029295Y-88046591D01*
X99080662Y-88041367D01*
X99162676Y-88038303D01*
X99281561Y-88036838D01*
X99443540Y-88036410D01*
X99489083Y-88036400D01*
X99643917Y-88036746D01*
X99779878Y-88037712D01*
X99889383Y-88039190D01*
X99964849Y-88041071D01*
X99998692Y-88043245D01*
X99999801Y-88043729D01*
X100275052Y-88043729D01*
X100274570Y-87994725D01*
X100272396Y-87856060D01*
X100269658Y-87745503D01*
X100266293Y-87659811D01*
X100262242Y-87595742D01*
X100257442Y-87550055D01*
X100251832Y-87519507D01*
X100245350Y-87500858D01*
X100239286Y-87492114D01*
X100226822Y-87483934D01*
X100204563Y-87476938D01*
X100168809Y-87471034D01*
X100115859Y-87466133D01*
X100042012Y-87462144D01*
X99943569Y-87458978D01*
X99816827Y-87456544D01*
X99658087Y-87454752D01*
X99463647Y-87453511D01*
X99229807Y-87452733D01*
X98952865Y-87452326D01*
X98629122Y-87452200D01*
X97002600Y-87452200D01*
X97002600Y-87548418D01*
X96982521Y-87664335D01*
X96929475Y-87783000D01*
X96854246Y-87883991D01*
X96801994Y-87928244D01*
X96688454Y-87975370D01*
X96557500Y-87985636D01*
X96423372Y-87961918D01*
X96300310Y-87907089D01*
X96202552Y-87824023D01*
X96187200Y-87804147D01*
X96140194Y-87703428D01*
X96118561Y-87587877D01*
X96107310Y-87452199D01*
X95997970Y-87452200D01*
X95964420Y-87450977D01*
X95935069Y-87449421D01*
X95909637Y-87450699D01*
G36*
X93816324Y-88014341D02*
X93775089Y-88024143D01*
X93704121Y-88046829D01*
X93608827Y-88082963D01*
X93501479Y-88127187D01*
X93394347Y-88174147D01*
X93299702Y-88218487D01*
X93229815Y-88254851D01*
X93198936Y-88275598D01*
X93208626Y-88298582D01*
X93240964Y-88353508D01*
X93289536Y-88430651D01*
X93347926Y-88520288D01*
X93409719Y-88612695D01*
X93468498Y-88698151D01*
X93517848Y-88766930D01*
X93550323Y-88808159D01*
X93578764Y-88805624D01*
X93630919Y-88775335D01*
X93674593Y-88741312D01*
X93819702Y-88649226D01*
X93984513Y-88603559D01*
X94142902Y-88602284D01*
X94313602Y-88642902D01*
X94457741Y-88726127D01*
X94574755Y-88850925D01*
X94664081Y-89016260D01*
X94725157Y-89221097D01*
X94757419Y-89464401D01*
X94760574Y-89738200D01*
X94739133Y-89985826D01*
X94694016Y-90191741D01*
X94623370Y-90360105D01*
X94525343Y-90495080D01*
X94398083Y-90600826D01*
X94368421Y-90619151D01*
X94291227Y-90659415D01*
X94219762Y-90680876D01*
X94131973Y-90688676D01*
X94068900Y-90689009D01*
X93909183Y-90673354D01*
X93770453Y-90625392D01*
X93636375Y-90538613D01*
X93586154Y-90496663D01*
X93531908Y-90452162D01*
X93495586Y-90428225D01*
X93487945Y-90426969D01*
X93465784Y-90460288D01*
X93426502Y-90524333D01*
X93375770Y-90609348D01*
X93319257Y-90705575D01*
X93262634Y-90803257D01*
X93211569Y-90892636D01*
X93171735Y-90963956D01*
X93148799Y-91007460D01*
X93145547Y-91016180D01*
X93170782Y-91029554D01*
X93228656Y-91060253D01*
X93306938Y-91101786D01*
X93311543Y-91104230D01*
X93473853Y-91184612D01*
X93616788Y-91239928D01*
X93758728Y-91274986D01*
X93918053Y-91294593D01*
X94068900Y-91302340D01*
X94261715Y-91303569D01*
X94413750Y-91294113D01*
X94504564Y-91278565D01*
X94736799Y-91193718D01*
X94949841Y-91064718D01*
X95139634Y-90895906D01*
X95302122Y-90691623D01*
X95433248Y-90456209D01*
X95528956Y-90194005D01*
X95533452Y-90177632D01*
X95569750Y-89991026D01*
X95588655Y-89776920D01*
X95590177Y-89553257D01*
X95574331Y-89337982D01*
X95541128Y-89149040D01*
X95532703Y-89117044D01*
X95430939Y-88843435D01*
X95288268Y-88597468D01*
X95107196Y-88382653D01*
X94890230Y-88202495D01*
X94869000Y-88188082D01*
X94691356Y-88095504D01*
X94483302Y-88029748D01*
X94258802Y-87992907D01*
X94031822Y-87987073D01*
X93816324Y-88014341D01*
X93816324Y-88014341D01*
G37*
X93816324Y-88014341D02*
X93775089Y-88024143D01*
X93704121Y-88046829D01*
X93608827Y-88082963D01*
X93501479Y-88127187D01*
X93394347Y-88174147D01*
X93299702Y-88218487D01*
X93229815Y-88254851D01*
X93198936Y-88275598D01*
X93208626Y-88298582D01*
X93240964Y-88353508D01*
X93289536Y-88430651D01*
X93347926Y-88520288D01*
X93409719Y-88612695D01*
X93468498Y-88698151D01*
X93517848Y-88766930D01*
X93550323Y-88808159D01*
X93578764Y-88805624D01*
X93630919Y-88775335D01*
X93674593Y-88741312D01*
X93819702Y-88649226D01*
X93984513Y-88603559D01*
X94142902Y-88602284D01*
X94313602Y-88642902D01*
X94457741Y-88726127D01*
X94574755Y-88850925D01*
X94664081Y-89016260D01*
X94725157Y-89221097D01*
X94757419Y-89464401D01*
X94760574Y-89738200D01*
X94739133Y-89985826D01*
X94694016Y-90191741D01*
X94623370Y-90360105D01*
X94525343Y-90495080D01*
X94398083Y-90600826D01*
X94368421Y-90619151D01*
X94291227Y-90659415D01*
X94219762Y-90680876D01*
X94131973Y-90688676D01*
X94068900Y-90689009D01*
X93909183Y-90673354D01*
X93770453Y-90625392D01*
X93636375Y-90538613D01*
X93586154Y-90496663D01*
X93531908Y-90452162D01*
X93495586Y-90428225D01*
X93487945Y-90426969D01*
X93465784Y-90460288D01*
X93426502Y-90524333D01*
X93375770Y-90609348D01*
X93319257Y-90705575D01*
X93262634Y-90803257D01*
X93211569Y-90892636D01*
X93171735Y-90963956D01*
X93148799Y-91007460D01*
X93145547Y-91016180D01*
X93170782Y-91029554D01*
X93228656Y-91060253D01*
X93306938Y-91101786D01*
X93311543Y-91104230D01*
X93473853Y-91184612D01*
X93616788Y-91239928D01*
X93758728Y-91274986D01*
X93918053Y-91294593D01*
X94068900Y-91302340D01*
X94261715Y-91303569D01*
X94413750Y-91294113D01*
X94504564Y-91278565D01*
X94736799Y-91193718D01*
X94949841Y-91064718D01*
X95139634Y-90895906D01*
X95302122Y-90691623D01*
X95433248Y-90456209D01*
X95528956Y-90194005D01*
X95533452Y-90177632D01*
X95569750Y-89991026D01*
X95588655Y-89776920D01*
X95590177Y-89553257D01*
X95574331Y-89337982D01*
X95541128Y-89149040D01*
X95532703Y-89117044D01*
X95430939Y-88843435D01*
X95288268Y-88597468D01*
X95107196Y-88382653D01*
X94890230Y-88202495D01*
X94869000Y-88188082D01*
X94691356Y-88095504D01*
X94483302Y-88029748D01*
X94258802Y-87992907D01*
X94031822Y-87987073D01*
X93816324Y-88014341D01*
G36*
X91733380Y-88860359D02*
X91557424Y-88900264D01*
X91438487Y-88944895D01*
X91345902Y-89000778D01*
X91263221Y-89074360D01*
X91210083Y-89129188D01*
X91166604Y-89180829D01*
X91131709Y-89234992D01*
X91104324Y-89297387D01*
X91083376Y-89373723D01*
X91067791Y-89469710D01*
X91056496Y-89591058D01*
X91048415Y-89743475D01*
X91042477Y-89932670D01*
X91037606Y-90164355D01*
X91035451Y-90285477D01*
X91031193Y-90517434D01*
X91027070Y-90704051D01*
X91022724Y-90850785D01*
X91017797Y-90963095D01*
X91011932Y-91046437D01*
X91004769Y-91106269D01*
X90995951Y-91148049D01*
X90985120Y-91177234D01*
X90975865Y-91193527D01*
X90930829Y-91262200D01*
X91741582Y-91262200D01*
X91757500Y-91108698D01*
X91856898Y-91176483D01*
X92013054Y-91255254D01*
X92193908Y-91301178D01*
X92383705Y-91312137D01*
X92566691Y-91286011D01*
X92600166Y-91276436D01*
X92786571Y-91194112D01*
X92937480Y-91076585D01*
X93050348Y-90927321D01*
X93122625Y-90749786D01*
X93151765Y-90547443D01*
X93152212Y-90525600D01*
X93151548Y-90496545D01*
X92423293Y-90496545D01*
X92419037Y-90585884D01*
X92408910Y-90616502D01*
X92346221Y-90697089D01*
X92251277Y-90751481D01*
X92137673Y-90775352D01*
X92019004Y-90764378D01*
X91981404Y-90752508D01*
X91894217Y-90710968D01*
X91838576Y-90658366D01*
X91808106Y-90583280D01*
X91796434Y-90474289D01*
X91795600Y-90419572D01*
X91795600Y-90220800D01*
X91961516Y-90220800D01*
X92125253Y-90235824D01*
X92263872Y-90278733D01*
X92359324Y-90339555D01*
X92401931Y-90406298D01*
X92423293Y-90496545D01*
X93151548Y-90496545D01*
X93149597Y-90411273D01*
X93135949Y-90323974D01*
X93106450Y-90240311D01*
X93083118Y-90190215D01*
X92978777Y-90033636D01*
X92834396Y-89907758D01*
X92650631Y-89812878D01*
X92428138Y-89749291D01*
X92167574Y-89717295D01*
X92027206Y-89713241D01*
X91788912Y-89712800D01*
X91802804Y-89609228D01*
X91838738Y-89495960D01*
X91910656Y-89417507D01*
X92017276Y-89374163D01*
X92157313Y-89366223D01*
X92329484Y-89393980D01*
X92506491Y-89448144D01*
X92590949Y-89475413D01*
X92655942Y-89490373D01*
X92687805Y-89489908D01*
X92688138Y-89489589D01*
X92705724Y-89457872D01*
X92735820Y-89391912D01*
X92773098Y-89304745D01*
X92812227Y-89209404D01*
X92847878Y-89118925D01*
X92874720Y-89046340D01*
X92887425Y-89004685D01*
X92887800Y-89001302D01*
X92866010Y-88982617D01*
X92822553Y-88976200D01*
X92770969Y-88970037D01*
X92684150Y-88953424D01*
X92575897Y-88929175D01*
X92498703Y-88910173D01*
X92232904Y-88859360D01*
X91974224Y-88842718D01*
X91733380Y-88860359D01*
X91733380Y-88860359D01*
G37*
X91733380Y-88860359D02*
X91557424Y-88900264D01*
X91438487Y-88944895D01*
X91345902Y-89000778D01*
X91263221Y-89074360D01*
X91210083Y-89129188D01*
X91166604Y-89180829D01*
X91131709Y-89234992D01*
X91104324Y-89297387D01*
X91083376Y-89373723D01*
X91067791Y-89469710D01*
X91056496Y-89591058D01*
X91048415Y-89743475D01*
X91042477Y-89932670D01*
X91037606Y-90164355D01*
X91035451Y-90285477D01*
X91031193Y-90517434D01*
X91027070Y-90704051D01*
X91022724Y-90850785D01*
X91017797Y-90963095D01*
X91011932Y-91046437D01*
X91004769Y-91106269D01*
X90995951Y-91148049D01*
X90985120Y-91177234D01*
X90975865Y-91193527D01*
X90930829Y-91262200D01*
X91741582Y-91262200D01*
X91757500Y-91108698D01*
X91856898Y-91176483D01*
X92013054Y-91255254D01*
X92193908Y-91301178D01*
X92383705Y-91312137D01*
X92566691Y-91286011D01*
X92600166Y-91276436D01*
X92786571Y-91194112D01*
X92937480Y-91076585D01*
X93050348Y-90927321D01*
X93122625Y-90749786D01*
X93151765Y-90547443D01*
X93152212Y-90525600D01*
X93151548Y-90496545D01*
X92423293Y-90496545D01*
X92419037Y-90585884D01*
X92408910Y-90616502D01*
X92346221Y-90697089D01*
X92251277Y-90751481D01*
X92137673Y-90775352D01*
X92019004Y-90764378D01*
X91981404Y-90752508D01*
X91894217Y-90710968D01*
X91838576Y-90658366D01*
X91808106Y-90583280D01*
X91796434Y-90474289D01*
X91795600Y-90419572D01*
X91795600Y-90220800D01*
X91961516Y-90220800D01*
X92125253Y-90235824D01*
X92263872Y-90278733D01*
X92359324Y-90339555D01*
X92401931Y-90406298D01*
X92423293Y-90496545D01*
X93151548Y-90496545D01*
X93149597Y-90411273D01*
X93135949Y-90323974D01*
X93106450Y-90240311D01*
X93083118Y-90190215D01*
X92978777Y-90033636D01*
X92834396Y-89907758D01*
X92650631Y-89812878D01*
X92428138Y-89749291D01*
X92167574Y-89717295D01*
X92027206Y-89713241D01*
X91788912Y-89712800D01*
X91802804Y-89609228D01*
X91838738Y-89495960D01*
X91910656Y-89417507D01*
X92017276Y-89374163D01*
X92157313Y-89366223D01*
X92329484Y-89393980D01*
X92506491Y-89448144D01*
X92590949Y-89475413D01*
X92655942Y-89490373D01*
X92687805Y-89489908D01*
X92688138Y-89489589D01*
X92705724Y-89457872D01*
X92735820Y-89391912D01*
X92773098Y-89304745D01*
X92812227Y-89209404D01*
X92847878Y-89118925D01*
X92874720Y-89046340D01*
X92887425Y-89004685D01*
X92887800Y-89001302D01*
X92866010Y-88982617D01*
X92822553Y-88976200D01*
X92770969Y-88970037D01*
X92684150Y-88953424D01*
X92575897Y-88929175D01*
X92498703Y-88910173D01*
X92232904Y-88859360D01*
X91974224Y-88842718D01*
X91733380Y-88860359D01*
G36*
X88513536Y-89465150D02*
X88511994Y-89795052D01*
X88510434Y-90077981D01*
X88508739Y-90317761D01*
X88506792Y-90518219D01*
X88504477Y-90683181D01*
X88501678Y-90816472D01*
X88498276Y-90921918D01*
X88494156Y-91003345D01*
X88489201Y-91064580D01*
X88483293Y-91109447D01*
X88476317Y-91141774D01*
X88468155Y-91165385D01*
X88461198Y-91179650D01*
X88416096Y-91262200D01*
X89230200Y-91262200D01*
X89230200Y-91186000D01*
X89233559Y-91132452D01*
X89241649Y-91109804D01*
X89241773Y-91109800D01*
X89267891Y-91122784D01*
X89320274Y-91155537D01*
X89347097Y-91173421D01*
X89479397Y-91240647D01*
X89639063Y-91287589D01*
X89807978Y-91311338D01*
X89968023Y-91308984D01*
X90068400Y-91289247D01*
X90252462Y-91207939D01*
X90417590Y-91086200D01*
X90552483Y-90933510D01*
X90613845Y-90831694D01*
X90681269Y-90674029D01*
X90725145Y-90507951D01*
X90748286Y-90319403D01*
X90753759Y-90132913D01*
X90752998Y-90119200D01*
X89952864Y-90119200D01*
X89948366Y-90294895D01*
X89934751Y-90428414D01*
X89909523Y-90527949D01*
X89870188Y-90601691D01*
X89814249Y-90657831D01*
X89781984Y-90680170D01*
X89675579Y-90718164D01*
X89549856Y-90715176D01*
X89414797Y-90671728D01*
X89390501Y-90659773D01*
X89293700Y-90609557D01*
X89286858Y-90060487D01*
X89280015Y-89511416D01*
X89347109Y-89467454D01*
X89410640Y-89440707D01*
X89500332Y-89420044D01*
X89558367Y-89413065D01*
X89646745Y-89409970D01*
X89705709Y-89420095D01*
X89756015Y-89448683D01*
X89782073Y-89469568D01*
X89849417Y-89543167D01*
X89898336Y-89638737D01*
X89930659Y-89763234D01*
X89948213Y-89923611D01*
X89952864Y-90119200D01*
X90752998Y-90119200D01*
X90737325Y-89836965D01*
X90689458Y-89577134D01*
X90610829Y-89354509D01*
X90502111Y-89170180D01*
X90363975Y-89025237D01*
X90197094Y-88920768D01*
X90002140Y-88857864D01*
X89962830Y-88850835D01*
X89847297Y-88842575D01*
X89719937Y-88849429D01*
X89593339Y-88868852D01*
X89480088Y-88898299D01*
X89392772Y-88935225D01*
X89344738Y-88975815D01*
X89323873Y-89000282D01*
X89307830Y-88995192D01*
X89296075Y-88956657D01*
X89288076Y-88880788D01*
X89283298Y-88763701D01*
X89281207Y-88601506D01*
X89281000Y-88511670D01*
X89281523Y-88337573D01*
X89283531Y-88206217D01*
X89287689Y-88109550D01*
X89294657Y-88039519D01*
X89305099Y-87988073D01*
X89319678Y-87947158D01*
X89329062Y-87927470D01*
X89377124Y-87833200D01*
X88520772Y-87833200D01*
X88513536Y-89465150D01*
X88513536Y-89465150D01*
G37*
X88513536Y-89465150D02*
X88511994Y-89795052D01*
X88510434Y-90077981D01*
X88508739Y-90317761D01*
X88506792Y-90518219D01*
X88504477Y-90683181D01*
X88501678Y-90816472D01*
X88498276Y-90921918D01*
X88494156Y-91003345D01*
X88489201Y-91064580D01*
X88483293Y-91109447D01*
X88476317Y-91141774D01*
X88468155Y-91165385D01*
X88461198Y-91179650D01*
X88416096Y-91262200D01*
X89230200Y-91262200D01*
X89230200Y-91186000D01*
X89233559Y-91132452D01*
X89241649Y-91109804D01*
X89241773Y-91109800D01*
X89267891Y-91122784D01*
X89320274Y-91155537D01*
X89347097Y-91173421D01*
X89479397Y-91240647D01*
X89639063Y-91287589D01*
X89807978Y-91311338D01*
X89968023Y-91308984D01*
X90068400Y-91289247D01*
X90252462Y-91207939D01*
X90417590Y-91086200D01*
X90552483Y-90933510D01*
X90613845Y-90831694D01*
X90681269Y-90674029D01*
X90725145Y-90507951D01*
X90748286Y-90319403D01*
X90753759Y-90132913D01*
X90752998Y-90119200D01*
X89952864Y-90119200D01*
X89948366Y-90294895D01*
X89934751Y-90428414D01*
X89909523Y-90527949D01*
X89870188Y-90601691D01*
X89814249Y-90657831D01*
X89781984Y-90680170D01*
X89675579Y-90718164D01*
X89549856Y-90715176D01*
X89414797Y-90671728D01*
X89390501Y-90659773D01*
X89293700Y-90609557D01*
X89286858Y-90060487D01*
X89280015Y-89511416D01*
X89347109Y-89467454D01*
X89410640Y-89440707D01*
X89500332Y-89420044D01*
X89558367Y-89413065D01*
X89646745Y-89409970D01*
X89705709Y-89420095D01*
X89756015Y-89448683D01*
X89782073Y-89469568D01*
X89849417Y-89543167D01*
X89898336Y-89638737D01*
X89930659Y-89763234D01*
X89948213Y-89923611D01*
X89952864Y-90119200D01*
X90752998Y-90119200D01*
X90737325Y-89836965D01*
X90689458Y-89577134D01*
X90610829Y-89354509D01*
X90502111Y-89170180D01*
X90363975Y-89025237D01*
X90197094Y-88920768D01*
X90002140Y-88857864D01*
X89962830Y-88850835D01*
X89847297Y-88842575D01*
X89719937Y-88849429D01*
X89593339Y-88868852D01*
X89480088Y-88898299D01*
X89392772Y-88935225D01*
X89344738Y-88975815D01*
X89323873Y-89000282D01*
X89307830Y-88995192D01*
X89296075Y-88956657D01*
X89288076Y-88880788D01*
X89283298Y-88763701D01*
X89281207Y-88601506D01*
X89281000Y-88511670D01*
X89281523Y-88337573D01*
X89283531Y-88206217D01*
X89287689Y-88109550D01*
X89294657Y-88039519D01*
X89305099Y-87988073D01*
X89319678Y-87947158D01*
X89329062Y-87927470D01*
X89377124Y-87833200D01*
X88520772Y-87833200D01*
X88513536Y-89465150D01*
D12*
X91461000Y-106165000D02*
X91461000Y-113465000D01*
X89461000Y-106165000D02*
X91461000Y-106165000D01*
X89461000Y-113465000D02*
X89461000Y-106165000D01*
X91461000Y-95773000D02*
X91461000Y-103073000D01*
X91461000Y-103073000D02*
X89461000Y-103073000D01*
X89461000Y-103073000D02*
X89461000Y-95773000D01*
X106900000Y-105200000D02*
X107600000Y-105200000D01*
X107600000Y-104000000D02*
X106900000Y-104000000D01*
X104400000Y-106200000D02*
X104400000Y-105500000D01*
X103200000Y-105500000D02*
X103200000Y-106200000D01*
X102958000Y-95287600D02*
X103658000Y-95287600D01*
X103658000Y-94087600D02*
X102958000Y-94087600D01*
X98112000Y-95287600D02*
X98812000Y-95287600D01*
X98812000Y-94087600D02*
X98112000Y-94087600D01*
X102200000Y-103700000D02*
X102200000Y-103000000D01*
X101000000Y-103000000D02*
X101000000Y-103700000D01*
D13*
X106852000Y-107757800D02*
X107852000Y-107757800D01*
X107852000Y-106407800D02*
X106852000Y-106407800D01*
X93021580Y-109951504D02*
X92021580Y-109951504D01*
X92021580Y-110189600D01*
X92069200Y-110332457D01*
X92164438Y-110427695D01*
X92259676Y-110475314D01*
X92450152Y-110522933D01*
X92593009Y-110522933D01*
X92783485Y-110475314D01*
X92878723Y-110427695D01*
X92973961Y-110332457D01*
X93021580Y-110189600D01*
X93021580Y-109951504D01*
X93021580Y-111475314D02*
X93021580Y-110903885D01*
X93021580Y-111189600D02*
X92021580Y-111189600D01*
X92164438Y-111094361D01*
X92259676Y-110999123D01*
X92307295Y-110903885D01*
X93072380Y-97759504D02*
X92072380Y-97759504D01*
X92072380Y-97997600D01*
X92120000Y-98140457D01*
X92215238Y-98235695D01*
X92310476Y-98283314D01*
X92500952Y-98330933D01*
X92643809Y-98330933D01*
X92834285Y-98283314D01*
X92929523Y-98235695D01*
X93024761Y-98140457D01*
X93072380Y-97997600D01*
X93072380Y-97759504D01*
X92167619Y-98711885D02*
X92120000Y-98759504D01*
X92072380Y-98854742D01*
X92072380Y-99092838D01*
X92120000Y-99188076D01*
X92167619Y-99235695D01*
X92262857Y-99283314D01*
X92358095Y-99283314D01*
X92500952Y-99235695D01*
X93072380Y-98664266D01*
X93072380Y-99283314D01*
X107416666Y-103057142D02*
X107464285Y-103104761D01*
X107607142Y-103152380D01*
X107702380Y-103152380D01*
X107845238Y-103104761D01*
X107940476Y-103009523D01*
X107988095Y-102914285D01*
X108035714Y-102723809D01*
X108035714Y-102580952D01*
X107988095Y-102390476D01*
X107940476Y-102295238D01*
X107845238Y-102200000D01*
X107702380Y-102152380D01*
X107607142Y-102152380D01*
X107464285Y-102200000D01*
X107416666Y-102247619D01*
X106511904Y-102152380D02*
X106988095Y-102152380D01*
X107035714Y-102628571D01*
X106988095Y-102580952D01*
X106892857Y-102533333D01*
X106654761Y-102533333D01*
X106559523Y-102580952D01*
X106511904Y-102628571D01*
X106464285Y-102723809D01*
X106464285Y-102961904D01*
X106511904Y-103057142D01*
X106559523Y-103104761D01*
X106654761Y-103152380D01*
X106892857Y-103152380D01*
X106988095Y-103104761D01*
X107035714Y-103057142D01*
X104116142Y-108418333D02*
X104163761Y-108370714D01*
X104211380Y-108227857D01*
X104211380Y-108132619D01*
X104163761Y-107989761D01*
X104068523Y-107894523D01*
X103973285Y-107846904D01*
X103782809Y-107799285D01*
X103639952Y-107799285D01*
X103449476Y-107846904D01*
X103354238Y-107894523D01*
X103259000Y-107989761D01*
X103211380Y-108132619D01*
X103211380Y-108227857D01*
X103259000Y-108370714D01*
X103306619Y-108418333D01*
X103211380Y-109275476D02*
X103211380Y-109085000D01*
X103259000Y-108989761D01*
X103306619Y-108942142D01*
X103449476Y-108846904D01*
X103639952Y-108799285D01*
X104020904Y-108799285D01*
X104116142Y-108846904D01*
X104163761Y-108894523D01*
X104211380Y-108989761D01*
X104211380Y-109180238D01*
X104163761Y-109275476D01*
X104116142Y-109323095D01*
X104020904Y-109370714D01*
X103782809Y-109370714D01*
X103687571Y-109323095D01*
X103639952Y-109275476D01*
X103592333Y-109180238D01*
X103592333Y-108989761D01*
X103639952Y-108894523D01*
X103687571Y-108846904D01*
X103782809Y-108799285D01*
X106338666Y-95099142D02*
X106386285Y-95146761D01*
X106529142Y-95194380D01*
X106624380Y-95194380D01*
X106767238Y-95146761D01*
X106862476Y-95051523D01*
X106910095Y-94956285D01*
X106957714Y-94765809D01*
X106957714Y-94622952D01*
X106910095Y-94432476D01*
X106862476Y-94337238D01*
X106767238Y-94242000D01*
X106624380Y-94194380D01*
X106529142Y-94194380D01*
X106386285Y-94242000D01*
X106338666Y-94289619D01*
X106005333Y-94194380D02*
X105338666Y-94194380D01*
X105767238Y-95194380D01*
X95797666Y-95099142D02*
X95845285Y-95146761D01*
X95988142Y-95194380D01*
X96083380Y-95194380D01*
X96226238Y-95146761D01*
X96321476Y-95051523D01*
X96369095Y-94956285D01*
X96416714Y-94765809D01*
X96416714Y-94622952D01*
X96369095Y-94432476D01*
X96321476Y-94337238D01*
X96226238Y-94242000D01*
X96083380Y-94194380D01*
X95988142Y-94194380D01*
X95845285Y-94242000D01*
X95797666Y-94289619D01*
X95226238Y-94622952D02*
X95321476Y-94575333D01*
X95369095Y-94527714D01*
X95416714Y-94432476D01*
X95416714Y-94384857D01*
X95369095Y-94289619D01*
X95321476Y-94242000D01*
X95226238Y-94194380D01*
X95035761Y-94194380D01*
X94940523Y-94242000D01*
X94892904Y-94289619D01*
X94845285Y-94384857D01*
X94845285Y-94432476D01*
X94892904Y-94527714D01*
X94940523Y-94575333D01*
X95035761Y-94622952D01*
X95226238Y-94622952D01*
X95321476Y-94670571D01*
X95369095Y-94718190D01*
X95416714Y-94813428D01*
X95416714Y-95003904D01*
X95369095Y-95099142D01*
X95321476Y-95146761D01*
X95226238Y-95194380D01*
X95035761Y-95194380D01*
X94940523Y-95146761D01*
X94892904Y-95099142D01*
X94845285Y-95003904D01*
X94845285Y-94813428D01*
X94892904Y-94718190D01*
X94940523Y-94670571D01*
X95035761Y-94622952D01*
X100057142Y-103183333D02*
X100104761Y-103135714D01*
X100152380Y-102992857D01*
X100152380Y-102897619D01*
X100104761Y-102754761D01*
X100009523Y-102659523D01*
X99914285Y-102611904D01*
X99723809Y-102564285D01*
X99580952Y-102564285D01*
X99390476Y-102611904D01*
X99295238Y-102659523D01*
X99200000Y-102754761D01*
X99152380Y-102897619D01*
X99152380Y-102992857D01*
X99200000Y-103135714D01*
X99247619Y-103183333D01*
X100152380Y-103659523D02*
X100152380Y-103850000D01*
X100104761Y-103945238D01*
X100057142Y-103992857D01*
X99914285Y-104088095D01*
X99723809Y-104135714D01*
X99342857Y-104135714D01*
X99247619Y-104088095D01*
X99200000Y-104040476D01*
X99152380Y-103945238D01*
X99152380Y-103754761D01*
X99200000Y-103659523D01*
X99247619Y-103611904D01*
X99342857Y-103564285D01*
X99580952Y-103564285D01*
X99676190Y-103611904D01*
X99723809Y-103659523D01*
X99771428Y-103754761D01*
X99771428Y-103945238D01*
X99723809Y-104040476D01*
X99676190Y-104088095D01*
X99580952Y-104135714D01*
X110529666Y-107513380D02*
X110863000Y-107037190D01*
X111101095Y-107513380D02*
X111101095Y-106513380D01*
X110720142Y-106513380D01*
X110624904Y-106561000D01*
X110577285Y-106608619D01*
X110529666Y-106703857D01*
X110529666Y-106846714D01*
X110577285Y-106941952D01*
X110624904Y-106989571D01*
X110720142Y-107037190D01*
X111101095Y-107037190D01*
X109672523Y-106846714D02*
X109672523Y-107513380D01*
X109910619Y-106465761D02*
X110148714Y-107180047D01*
X109529666Y-107180047D01*
M02*
