G04 #@! TF.GenerationSoftware,KiCad,Pcbnew,(2017-01-09 revision c2fb336)-makepkg*
G04 #@! TF.CreationDate,2017-04-23T15:34:07+02:00*
G04 #@! TF.ProjectId,avrIspMk2Clone,6176724973704D6B32436C6F6E652E6B,rev?*
G04 #@! TF.FileFunction,Soldermask,Top*
G04 #@! TF.FilePolarity,Negative*
%FSLAX46Y46*%
G04 Gerber Fmt 4.6, Leading zero omitted, Abs format (unit mm)*
G04 Created by KiCad (PCBNEW (2017-01-09 revision c2fb336)-makepkg) date 04/23/17 15:34:07*
%MOMM*%
%LPD*%
G01*
G04 APERTURE LIST*
%ADD10C,0.100000*%
%ADD11O,2.100000X2.100000*%
%ADD12R,2.100000X2.100000*%
%ADD13O,2.127200X2.127200*%
%ADD14R,2.127200X2.127200*%
%ADD15C,1.900000*%
%ADD16R,2.000000X2.000000*%
%ADD17C,2.000000*%
%ADD18R,1.600000X1.600000*%
%ADD19R,2.000000X0.950000*%
%ADD20R,0.950000X2.000000*%
%ADD21C,4.210000*%
%ADD22R,1.920000X1.920000*%
%ADD23C,1.920000*%
%ADD24C,1.300000*%
%ADD25R,2.900000X2.400000*%
%ADD26R,2.700000X0.900000*%
%ADD27R,2.400000X4.200000*%
%ADD28R,2.400000X1.900000*%
%ADD29C,2.400000*%
%ADD30R,2.400000X2.400000*%
%ADD31R,1.600000X1.150000*%
%ADD32R,1.300000X1.600000*%
%ADD33R,1.600000X1.300000*%
G04 APERTURE END LIST*
D10*
D11*
X110908000Y-104600000D03*
D12*
X113448000Y-104600000D03*
D13*
X90969000Y-117700000D03*
X90969000Y-120240000D03*
X88429000Y-117700000D03*
X88429000Y-120240000D03*
X85889000Y-117700000D03*
D14*
X85889000Y-120240000D03*
D15*
X98462000Y-96774000D03*
X103342000Y-96774000D03*
D16*
X83476000Y-91760000D03*
D17*
X83476000Y-89760000D03*
D16*
X112432000Y-96650000D03*
D17*
X112432000Y-98650000D03*
D18*
X83560000Y-112620000D03*
X81360000Y-112620000D03*
X81360000Y-97380000D03*
X83560000Y-97380000D03*
X83560000Y-94840000D03*
X81360000Y-94840000D03*
X128348000Y-123288000D03*
X126148000Y-123288000D03*
D19*
X107538000Y-102200000D03*
X107538000Y-103000000D03*
X107538000Y-103800000D03*
X107538000Y-104600000D03*
X107538000Y-105400000D03*
X107538000Y-106200000D03*
X107538000Y-107000000D03*
X107538000Y-107800000D03*
D20*
X106088000Y-109250000D03*
X105288000Y-109250000D03*
X104488000Y-109250000D03*
X103688000Y-109250000D03*
X102888000Y-109250000D03*
X102088000Y-109250000D03*
X101288000Y-109250000D03*
X100488000Y-109250000D03*
D19*
X99038000Y-107800000D03*
X99038000Y-107000000D03*
X99038000Y-106200000D03*
X99038000Y-105400000D03*
X99038000Y-104600000D03*
X99038000Y-103800000D03*
X99038000Y-103000000D03*
X99038000Y-102200000D03*
D20*
X100488000Y-100750000D03*
X101288000Y-100750000D03*
X102088000Y-100750000D03*
X102888000Y-100750000D03*
X103688000Y-100750000D03*
X104488000Y-100750000D03*
X105288000Y-100750000D03*
X106088000Y-100750000D03*
D21*
X122084000Y-117830000D03*
X122084000Y-92430000D03*
D22*
X119544000Y-99540000D03*
D23*
X119544000Y-102330000D03*
X119544000Y-105000000D03*
X119544000Y-107800000D03*
X119544000Y-110590000D03*
X122084000Y-100940000D03*
X122084000Y-103730000D03*
X122084000Y-106400000D03*
X122084000Y-109190000D03*
D24*
X85200000Y-107200000D03*
X85200000Y-102800000D03*
D25*
X82200000Y-109450000D03*
X87700000Y-109450000D03*
X82200000Y-100550000D03*
X87700000Y-100550000D03*
D26*
X87800000Y-106600000D03*
X87800000Y-105800000D03*
X87800000Y-105000000D03*
X87800000Y-104200000D03*
X87800000Y-103400000D03*
D14*
X102399000Y-120240000D03*
D13*
X102399000Y-117700000D03*
X104939000Y-120240000D03*
X104939000Y-117700000D03*
X107479000Y-120240000D03*
X107479000Y-117700000D03*
X110019000Y-120240000D03*
X110019000Y-117700000D03*
X112559000Y-120240000D03*
X112559000Y-117700000D03*
D27*
X99326000Y-89506000D03*
D28*
X93026000Y-89506000D03*
X93026000Y-91806000D03*
X93026000Y-87206000D03*
D11*
X108622000Y-87982000D03*
X111162000Y-87982000D03*
D12*
X113702000Y-87982000D03*
D29*
X107962000Y-92554000D03*
X111162000Y-92554000D03*
D30*
X114362000Y-92554000D03*
D31*
X88241000Y-91792000D03*
X90141000Y-91792000D03*
X90141000Y-89506000D03*
X88241000Y-89506000D03*
D11*
X103288000Y-86966000D03*
X103288000Y-89506000D03*
D12*
X103288000Y-92046000D03*
D32*
X92710000Y-101684000D03*
X92710000Y-99484000D03*
D33*
X92880000Y-103886000D03*
X95080000Y-103886000D03*
X95080000Y-105762000D03*
X92880000Y-105762000D03*
D32*
X116750000Y-97464000D03*
X116750000Y-95264000D03*
X91313000Y-111590000D03*
X91313000Y-109390000D03*
X93345000Y-109390000D03*
X93345000Y-111590000D03*
X95377000Y-111590000D03*
X95377000Y-109390000D03*
D33*
X97579000Y-112395000D03*
X99779000Y-112395000D03*
X110951000Y-101571000D03*
X113151000Y-101571000D03*
X108161000Y-112395000D03*
X105961000Y-112395000D03*
X112479000Y-112395000D03*
X110279000Y-112395000D03*
X88640000Y-112620000D03*
X86440000Y-112620000D03*
X86440000Y-97380000D03*
X88640000Y-97380000D03*
X88640000Y-94840000D03*
X86440000Y-94840000D03*
X123184000Y-123288000D03*
X120984000Y-123288000D03*
D31*
X103693000Y-112395000D03*
X101793000Y-112395000D03*
M02*
