G04 #@! TF.GenerationSoftware,KiCad,Pcbnew,(2017-01-09 revision c2fb336)-makepkg*
G04 #@! TF.CreationDate,2017-04-23T15:34:07+02:00*
G04 #@! TF.ProjectId,avrIspMk2Clone,6176724973704D6B32436C6F6E652E6B,rev?*
G04 #@! TF.FileFunction,Soldermask,Bot*
G04 #@! TF.FilePolarity,Negative*
%FSLAX46Y46*%
G04 Gerber Fmt 4.6, Leading zero omitted, Abs format (unit mm)*
G04 Created by KiCad (PCBNEW (2017-01-09 revision c2fb336)-makepkg) date 04/23/17 15:34:07*
%MOMM*%
%LPD*%
G01*
G04 APERTURE LIST*
%ADD10C,0.100000*%
%ADD11C,0.010000*%
%ADD12O,2.100000X2.100000*%
%ADD13R,2.100000X2.100000*%
%ADD14O,2.127200X2.127200*%
%ADD15R,2.127200X2.127200*%
%ADD16C,1.900000*%
%ADD17R,2.000000X2.000000*%
%ADD18C,2.000000*%
%ADD19R,2.100000X3.700000*%
%ADD20C,4.210000*%
%ADD21R,1.920000X1.920000*%
%ADD22C,1.920000*%
%ADD23C,1.300000*%
%ADD24C,2.400000*%
%ADD25R,2.400000X2.400000*%
%ADD26R,1.600000X1.150000*%
%ADD27R,1.150000X1.600000*%
%ADD28R,1.600000X1.300000*%
G04 APERTURE END LIST*
D10*
D11*
G36*
X97747253Y-88036400D02*
X97201941Y-88036400D01*
X97400721Y-88237787D01*
X97730429Y-88600691D01*
X97944849Y-88874815D01*
X98023297Y-88978400D01*
X98117856Y-89098529D01*
X98217950Y-89222202D01*
X98313002Y-89336419D01*
X98392434Y-89428181D01*
X98417532Y-89455760D01*
X98498964Y-89543212D01*
X98429006Y-89634356D01*
X98293564Y-89823604D01*
X98206022Y-89963050D01*
X98151152Y-90045286D01*
X98089876Y-90124612D01*
X98084727Y-90130607D01*
X98015778Y-90213581D01*
X97935253Y-90316137D01*
X97852058Y-90426288D01*
X97775098Y-90532047D01*
X97713281Y-90621425D01*
X97677624Y-90678547D01*
X97642543Y-90731596D01*
X97584014Y-90810062D01*
X97512180Y-90901252D01*
X97437185Y-90992472D01*
X97369172Y-91071032D01*
X97332800Y-91110020D01*
X97308911Y-91136081D01*
X97266637Y-91183406D01*
X97258523Y-91192570D01*
X97196945Y-91262200D01*
X98323400Y-91262200D01*
X98323400Y-91183923D01*
X98340163Y-91107395D01*
X98387393Y-91002149D01*
X98460507Y-90876239D01*
X98554919Y-90737716D01*
X98642458Y-90623533D01*
X98713732Y-90531313D01*
X98779053Y-90440269D01*
X98826223Y-90367535D01*
X98832329Y-90356833D01*
X98872371Y-90290434D01*
X98907658Y-90242284D01*
X98916301Y-90233500D01*
X98950862Y-90194816D01*
X98991085Y-90138250D01*
X99028774Y-90090093D01*
X99059285Y-90068487D01*
X99060586Y-90068400D01*
X99069462Y-90093091D01*
X99076582Y-90164381D01*
X99081736Y-90278092D01*
X99084717Y-90430044D01*
X99085400Y-90564961D01*
X99084716Y-90744263D01*
X99082305Y-90880270D01*
X99077625Y-90980475D01*
X99070137Y-91052369D01*
X99059302Y-91103443D01*
X99044579Y-91141188D01*
X99043756Y-91142811D01*
X99008283Y-91202491D01*
X98976777Y-91240618D01*
X98973906Y-91242761D01*
X98989403Y-91248323D01*
X99048753Y-91253262D01*
X99145014Y-91257312D01*
X99271241Y-91260207D01*
X99420489Y-91261682D01*
X99472206Y-91261811D01*
X99998711Y-91262200D01*
X99969032Y-91192350D01*
X99940859Y-91133758D01*
X99918776Y-91098370D01*
X99914943Y-91069142D01*
X99911343Y-90993781D01*
X99908041Y-90876951D01*
X99905104Y-90723317D01*
X99902601Y-90537546D01*
X99900596Y-90324302D01*
X99899158Y-90088251D01*
X99898353Y-89834059D01*
X99898201Y-89662290D01*
X99898259Y-89358311D01*
X99898530Y-89100912D01*
X99899154Y-88885874D01*
X99900274Y-88708978D01*
X99902031Y-88566004D01*
X99904567Y-88452733D01*
X99908024Y-88364945D01*
X99912543Y-88298421D01*
X99918267Y-88248941D01*
X99925338Y-88212286D01*
X99933896Y-88184237D01*
X99944084Y-88160574D01*
X99949001Y-88150699D01*
X99979756Y-88088869D01*
X99997810Y-88049660D01*
X99999801Y-88043729D01*
X99975665Y-88041507D01*
X99908312Y-88039556D01*
X99805328Y-88037984D01*
X99674294Y-88036901D01*
X99522795Y-88036415D01*
X99489083Y-88036400D01*
X99315940Y-88036664D01*
X99187371Y-88037831D01*
X99097154Y-88040464D01*
X99039063Y-88045123D01*
X99006876Y-88052372D01*
X98994368Y-88062772D01*
X98995314Y-88076885D01*
X98996836Y-88080850D01*
X99030195Y-88169673D01*
X99054261Y-88258181D01*
X99070420Y-88357141D01*
X99080058Y-88477321D01*
X99084560Y-88629488D01*
X99085400Y-88769088D01*
X99085401Y-89188904D01*
X99009201Y-89115900D01*
X98961587Y-89065557D01*
X98935006Y-89028278D01*
X98933000Y-89021483D01*
X98917863Y-88995550D01*
X98878372Y-88942128D01*
X98823412Y-88872145D01*
X98761868Y-88796529D01*
X98702623Y-88726209D01*
X98654561Y-88672114D01*
X98627761Y-88646000D01*
X98605439Y-88618734D01*
X98567064Y-88562630D01*
X98539198Y-88519000D01*
X98480995Y-88431298D01*
X98418049Y-88344698D01*
X98395701Y-88316362D01*
X98350987Y-88249736D01*
X98325592Y-88188643D01*
X98323400Y-88172390D01*
X98322878Y-88128677D01*
X98317209Y-88095502D01*
X98300238Y-88071412D01*
X98265811Y-88054955D01*
X98207774Y-88044677D01*
X98119972Y-88039127D01*
X97996250Y-88036851D01*
X97830455Y-88036396D01*
X97747253Y-88036400D01*
X97747253Y-88036400D01*
G37*
X97747253Y-88036400D02*
X97201941Y-88036400D01*
X97400721Y-88237787D01*
X97730429Y-88600691D01*
X97944849Y-88874815D01*
X98023297Y-88978400D01*
X98117856Y-89098529D01*
X98217950Y-89222202D01*
X98313002Y-89336419D01*
X98392434Y-89428181D01*
X98417532Y-89455760D01*
X98498964Y-89543212D01*
X98429006Y-89634356D01*
X98293564Y-89823604D01*
X98206022Y-89963050D01*
X98151152Y-90045286D01*
X98089876Y-90124612D01*
X98084727Y-90130607D01*
X98015778Y-90213581D01*
X97935253Y-90316137D01*
X97852058Y-90426288D01*
X97775098Y-90532047D01*
X97713281Y-90621425D01*
X97677624Y-90678547D01*
X97642543Y-90731596D01*
X97584014Y-90810062D01*
X97512180Y-90901252D01*
X97437185Y-90992472D01*
X97369172Y-91071032D01*
X97332800Y-91110020D01*
X97308911Y-91136081D01*
X97266637Y-91183406D01*
X97258523Y-91192570D01*
X97196945Y-91262200D01*
X98323400Y-91262200D01*
X98323400Y-91183923D01*
X98340163Y-91107395D01*
X98387393Y-91002149D01*
X98460507Y-90876239D01*
X98554919Y-90737716D01*
X98642458Y-90623533D01*
X98713732Y-90531313D01*
X98779053Y-90440269D01*
X98826223Y-90367535D01*
X98832329Y-90356833D01*
X98872371Y-90290434D01*
X98907658Y-90242284D01*
X98916301Y-90233500D01*
X98950862Y-90194816D01*
X98991085Y-90138250D01*
X99028774Y-90090093D01*
X99059285Y-90068487D01*
X99060586Y-90068400D01*
X99069462Y-90093091D01*
X99076582Y-90164381D01*
X99081736Y-90278092D01*
X99084717Y-90430044D01*
X99085400Y-90564961D01*
X99084716Y-90744263D01*
X99082305Y-90880270D01*
X99077625Y-90980475D01*
X99070137Y-91052369D01*
X99059302Y-91103443D01*
X99044579Y-91141188D01*
X99043756Y-91142811D01*
X99008283Y-91202491D01*
X98976777Y-91240618D01*
X98973906Y-91242761D01*
X98989403Y-91248323D01*
X99048753Y-91253262D01*
X99145014Y-91257312D01*
X99271241Y-91260207D01*
X99420489Y-91261682D01*
X99472206Y-91261811D01*
X99998711Y-91262200D01*
X99969032Y-91192350D01*
X99940859Y-91133758D01*
X99918776Y-91098370D01*
X99914943Y-91069142D01*
X99911343Y-90993781D01*
X99908041Y-90876951D01*
X99905104Y-90723317D01*
X99902601Y-90537546D01*
X99900596Y-90324302D01*
X99899158Y-90088251D01*
X99898353Y-89834059D01*
X99898201Y-89662290D01*
X99898259Y-89358311D01*
X99898530Y-89100912D01*
X99899154Y-88885874D01*
X99900274Y-88708978D01*
X99902031Y-88566004D01*
X99904567Y-88452733D01*
X99908024Y-88364945D01*
X99912543Y-88298421D01*
X99918267Y-88248941D01*
X99925338Y-88212286D01*
X99933896Y-88184237D01*
X99944084Y-88160574D01*
X99949001Y-88150699D01*
X99979756Y-88088869D01*
X99997810Y-88049660D01*
X99999801Y-88043729D01*
X99975665Y-88041507D01*
X99908312Y-88039556D01*
X99805328Y-88037984D01*
X99674294Y-88036901D01*
X99522795Y-88036415D01*
X99489083Y-88036400D01*
X99315940Y-88036664D01*
X99187371Y-88037831D01*
X99097154Y-88040464D01*
X99039063Y-88045123D01*
X99006876Y-88052372D01*
X98994368Y-88062772D01*
X98995314Y-88076885D01*
X98996836Y-88080850D01*
X99030195Y-88169673D01*
X99054261Y-88258181D01*
X99070420Y-88357141D01*
X99080058Y-88477321D01*
X99084560Y-88629488D01*
X99085400Y-88769088D01*
X99085401Y-89188904D01*
X99009201Y-89115900D01*
X98961587Y-89065557D01*
X98935006Y-89028278D01*
X98933000Y-89021483D01*
X98917863Y-88995550D01*
X98878372Y-88942128D01*
X98823412Y-88872145D01*
X98761868Y-88796529D01*
X98702623Y-88726209D01*
X98654561Y-88672114D01*
X98627761Y-88646000D01*
X98605439Y-88618734D01*
X98567064Y-88562630D01*
X98539198Y-88519000D01*
X98480995Y-88431298D01*
X98418049Y-88344698D01*
X98395701Y-88316362D01*
X98350987Y-88249736D01*
X98325592Y-88188643D01*
X98323400Y-88172390D01*
X98322878Y-88128677D01*
X98317209Y-88095502D01*
X98300238Y-88071412D01*
X98265811Y-88054955D01*
X98207774Y-88044677D01*
X98119972Y-88039127D01*
X97996250Y-88036851D01*
X97830455Y-88036396D01*
X97747253Y-88036400D01*
G36*
X96164400Y-90000045D02*
X96164179Y-90271528D01*
X96163417Y-90496618D01*
X96161974Y-90679721D01*
X96159706Y-90825240D01*
X96156469Y-90937583D01*
X96152122Y-91021155D01*
X96146520Y-91080359D01*
X96139522Y-91119603D01*
X96130984Y-91143292D01*
X96127108Y-91149395D01*
X96100822Y-91186943D01*
X96090109Y-91215085D01*
X96100290Y-91235174D01*
X96136688Y-91248563D01*
X96204624Y-91256605D01*
X96309422Y-91260653D01*
X96456402Y-91262060D01*
X96570800Y-91262200D01*
X96721082Y-91261515D01*
X96852273Y-91259608D01*
X96956573Y-91256702D01*
X97026181Y-91253017D01*
X97053295Y-91248776D01*
X97053400Y-91248488D01*
X97042845Y-91219454D01*
X97016274Y-91162509D01*
X97002600Y-91135200D01*
X96989734Y-91107760D01*
X96979241Y-91077394D01*
X96970880Y-91038920D01*
X96964409Y-90987155D01*
X96959589Y-90916918D01*
X96956178Y-90823027D01*
X96953935Y-90700301D01*
X96952619Y-90543559D01*
X96951990Y-90347617D01*
X96951805Y-90107296D01*
X96951800Y-90042750D01*
X96952053Y-89785269D01*
X96952929Y-89573749D01*
X96954604Y-89403351D01*
X96957252Y-89269238D01*
X96961050Y-89166571D01*
X96966173Y-89090513D01*
X96972797Y-89036226D01*
X96981097Y-88998872D01*
X96990553Y-88974938D01*
X97029305Y-88900000D01*
X96164400Y-88900000D01*
X96164400Y-90000045D01*
X96164400Y-90000045D01*
G37*
X96164400Y-90000045D02*
X96164179Y-90271528D01*
X96163417Y-90496618D01*
X96161974Y-90679721D01*
X96159706Y-90825240D01*
X96156469Y-90937583D01*
X96152122Y-91021155D01*
X96146520Y-91080359D01*
X96139522Y-91119603D01*
X96130984Y-91143292D01*
X96127108Y-91149395D01*
X96100822Y-91186943D01*
X96090109Y-91215085D01*
X96100290Y-91235174D01*
X96136688Y-91248563D01*
X96204624Y-91256605D01*
X96309422Y-91260653D01*
X96456402Y-91262060D01*
X96570800Y-91262200D01*
X96721082Y-91261515D01*
X96852273Y-91259608D01*
X96956573Y-91256702D01*
X97026181Y-91253017D01*
X97053295Y-91248776D01*
X97053400Y-91248488D01*
X97042845Y-91219454D01*
X97016274Y-91162509D01*
X97002600Y-91135200D01*
X96989734Y-91107760D01*
X96979241Y-91077394D01*
X96970880Y-91038920D01*
X96964409Y-90987155D01*
X96959589Y-90916918D01*
X96956178Y-90823027D01*
X96953935Y-90700301D01*
X96952619Y-90543559D01*
X96951990Y-90347617D01*
X96951805Y-90107296D01*
X96951800Y-90042750D01*
X96952053Y-89785269D01*
X96952929Y-89573749D01*
X96954604Y-89403351D01*
X96957252Y-89269238D01*
X96961050Y-89166571D01*
X96966173Y-89090513D01*
X96972797Y-89036226D01*
X96981097Y-88998872D01*
X96990553Y-88974938D01*
X97029305Y-88900000D01*
X96164400Y-88900000D01*
X96164400Y-90000045D01*
G36*
X96405059Y-87133960D02*
X96287455Y-87200395D01*
X96193977Y-87303045D01*
X96150188Y-87389124D01*
X96119578Y-87527614D01*
X96128679Y-87665591D01*
X96176027Y-87787084D01*
X96188412Y-87805850D01*
X96278851Y-87893408D01*
X96397729Y-87953553D01*
X96530667Y-87983418D01*
X96663287Y-87980134D01*
X96781210Y-87940832D01*
X96801994Y-87928244D01*
X96884263Y-87849394D01*
X96952086Y-87740770D01*
X96994253Y-87623295D01*
X97002600Y-87553799D01*
X96983326Y-87444575D01*
X96932810Y-87330110D01*
X96862018Y-87231158D01*
X96806358Y-87182295D01*
X96674139Y-87121876D01*
X96537163Y-87106776D01*
X96405059Y-87133960D01*
X96405059Y-87133960D01*
G37*
X96405059Y-87133960D02*
X96287455Y-87200395D01*
X96193977Y-87303045D01*
X96150188Y-87389124D01*
X96119578Y-87527614D01*
X96128679Y-87665591D01*
X96176027Y-87787084D01*
X96188412Y-87805850D01*
X96278851Y-87893408D01*
X96397729Y-87953553D01*
X96530667Y-87983418D01*
X96663287Y-87980134D01*
X96781210Y-87940832D01*
X96801994Y-87928244D01*
X96884263Y-87849394D01*
X96952086Y-87740770D01*
X96994253Y-87623295D01*
X97002600Y-87553799D01*
X96983326Y-87444575D01*
X96932810Y-87330110D01*
X96862018Y-87231158D01*
X96806358Y-87182295D01*
X96674139Y-87121876D01*
X96537163Y-87106776D01*
X96405059Y-87133960D01*
D10*
G36*
X125949654Y-113848591D02*
X125969947Y-113843697D01*
X125990093Y-113827890D01*
X126011025Y-113799481D01*
X126033675Y-113756783D01*
X126058975Y-113698105D01*
X126087857Y-113621760D01*
X126110666Y-113557017D01*
X126191600Y-113342708D01*
X126280536Y-113146616D01*
X126378360Y-112967012D01*
X126485958Y-112802169D01*
X126524380Y-112749897D01*
X126548589Y-112717092D01*
X126566859Y-112690766D01*
X126576132Y-112675378D01*
X126576702Y-112673562D01*
X126568395Y-112663993D01*
X126548740Y-112651377D01*
X126535568Y-112645263D01*
X126523997Y-112644680D01*
X126510433Y-112651912D01*
X126491283Y-112669240D01*
X126462953Y-112698947D01*
X126447363Y-112715762D01*
X126360903Y-112811057D01*
X126280829Y-112902961D01*
X126209538Y-112988607D01*
X126149429Y-113065125D01*
X126109928Y-113119388D01*
X126079931Y-113161793D01*
X126051798Y-113200063D01*
X126029143Y-113229359D01*
X126017711Y-113242756D01*
X125999568Y-113259260D01*
X125985699Y-113261216D01*
X125970067Y-113252562D01*
X125958535Y-113242793D01*
X125951624Y-113229175D01*
X125948239Y-113206684D01*
X125947282Y-113170292D01*
X125947350Y-113148364D01*
X125948774Y-113110980D01*
X125952981Y-113070880D01*
X125960657Y-113024260D01*
X125972486Y-112967314D01*
X125989154Y-112896239D01*
X126002381Y-112842755D01*
X126035047Y-112708927D01*
X126061233Y-112592677D01*
X126081116Y-112491485D01*
X126094872Y-112402826D01*
X126102678Y-112324178D01*
X126104710Y-112253019D01*
X126101144Y-112186824D01*
X126092157Y-112123073D01*
X126077925Y-112059241D01*
X126061211Y-112001030D01*
X126048577Y-111963565D01*
X126037707Y-111942847D01*
X126025109Y-111935112D01*
X126007297Y-111936593D01*
X126002562Y-111937723D01*
X125975923Y-111944409D01*
X125996703Y-112009777D01*
X126006688Y-112048980D01*
X126012072Y-112091328D01*
X126012496Y-112138740D01*
X126007599Y-112193135D01*
X125997023Y-112256429D01*
X125980408Y-112330543D01*
X125957395Y-112417393D01*
X125927623Y-112518898D01*
X125890733Y-112636977D01*
X125863143Y-112722374D01*
X125830031Y-112824665D01*
X125803192Y-112910128D01*
X125781970Y-112981944D01*
X125765708Y-113043295D01*
X125753750Y-113097362D01*
X125745437Y-113147326D01*
X125740114Y-113196369D01*
X125737125Y-113247672D01*
X125735811Y-113304415D01*
X125735560Y-113340379D01*
X125735686Y-113409162D01*
X125736894Y-113461729D01*
X125739648Y-113503028D01*
X125744408Y-113538011D01*
X125751637Y-113571626D01*
X125760029Y-113602689D01*
X125786047Y-113676515D01*
X125818200Y-113740278D01*
X125854585Y-113791510D01*
X125893299Y-113827742D01*
X125932439Y-113846505D01*
X125949654Y-113848591D01*
X125949654Y-113848591D01*
X125949654Y-113848591D01*
G37*
X125949654Y-113848591D02*
X125969947Y-113843697D01*
X125990093Y-113827890D01*
X126011025Y-113799481D01*
X126033675Y-113756783D01*
X126058975Y-113698105D01*
X126087857Y-113621760D01*
X126110666Y-113557017D01*
X126191600Y-113342708D01*
X126280536Y-113146616D01*
X126378360Y-112967012D01*
X126485958Y-112802169D01*
X126524380Y-112749897D01*
X126548589Y-112717092D01*
X126566859Y-112690766D01*
X126576132Y-112675378D01*
X126576702Y-112673562D01*
X126568395Y-112663993D01*
X126548740Y-112651377D01*
X126535568Y-112645263D01*
X126523997Y-112644680D01*
X126510433Y-112651912D01*
X126491283Y-112669240D01*
X126462953Y-112698947D01*
X126447363Y-112715762D01*
X126360903Y-112811057D01*
X126280829Y-112902961D01*
X126209538Y-112988607D01*
X126149429Y-113065125D01*
X126109928Y-113119388D01*
X126079931Y-113161793D01*
X126051798Y-113200063D01*
X126029143Y-113229359D01*
X126017711Y-113242756D01*
X125999568Y-113259260D01*
X125985699Y-113261216D01*
X125970067Y-113252562D01*
X125958535Y-113242793D01*
X125951624Y-113229175D01*
X125948239Y-113206684D01*
X125947282Y-113170292D01*
X125947350Y-113148364D01*
X125948774Y-113110980D01*
X125952981Y-113070880D01*
X125960657Y-113024260D01*
X125972486Y-112967314D01*
X125989154Y-112896239D01*
X126002381Y-112842755D01*
X126035047Y-112708927D01*
X126061233Y-112592677D01*
X126081116Y-112491485D01*
X126094872Y-112402826D01*
X126102678Y-112324178D01*
X126104710Y-112253019D01*
X126101144Y-112186824D01*
X126092157Y-112123073D01*
X126077925Y-112059241D01*
X126061211Y-112001030D01*
X126048577Y-111963565D01*
X126037707Y-111942847D01*
X126025109Y-111935112D01*
X126007297Y-111936593D01*
X126002562Y-111937723D01*
X125975923Y-111944409D01*
X125996703Y-112009777D01*
X126006688Y-112048980D01*
X126012072Y-112091328D01*
X126012496Y-112138740D01*
X126007599Y-112193135D01*
X125997023Y-112256429D01*
X125980408Y-112330543D01*
X125957395Y-112417393D01*
X125927623Y-112518898D01*
X125890733Y-112636977D01*
X125863143Y-112722374D01*
X125830031Y-112824665D01*
X125803192Y-112910128D01*
X125781970Y-112981944D01*
X125765708Y-113043295D01*
X125753750Y-113097362D01*
X125745437Y-113147326D01*
X125740114Y-113196369D01*
X125737125Y-113247672D01*
X125735811Y-113304415D01*
X125735560Y-113340379D01*
X125735686Y-113409162D01*
X125736894Y-113461729D01*
X125739648Y-113503028D01*
X125744408Y-113538011D01*
X125751637Y-113571626D01*
X125760029Y-113602689D01*
X125786047Y-113676515D01*
X125818200Y-113740278D01*
X125854585Y-113791510D01*
X125893299Y-113827742D01*
X125932439Y-113846505D01*
X125949654Y-113848591D01*
X125949654Y-113848591D01*
G36*
X126518469Y-108879811D02*
X126676517Y-108877238D01*
X126832791Y-108853974D01*
X126985616Y-108810504D01*
X127133320Y-108747313D01*
X127274229Y-108664884D01*
X127284288Y-108658069D01*
X127351052Y-108607207D01*
X127424043Y-108542752D01*
X127498741Y-108469357D01*
X127570627Y-108391678D01*
X127635179Y-108314366D01*
X127686922Y-108243516D01*
X127772282Y-108102689D01*
X127847248Y-107951425D01*
X127912163Y-107788446D01*
X127967370Y-107612476D01*
X128013213Y-107422236D01*
X128050033Y-107216450D01*
X128078175Y-106993841D01*
X128097981Y-106753131D01*
X128101019Y-106701863D01*
X128105489Y-106620438D01*
X128108680Y-106557640D01*
X128110548Y-106510959D01*
X128111046Y-106477882D01*
X128110128Y-106455899D01*
X128107747Y-106442497D01*
X128103859Y-106435165D01*
X128098417Y-106431391D01*
X128096043Y-106430411D01*
X128069856Y-106428180D01*
X128053491Y-106444073D01*
X128048398Y-106473241D01*
X128046657Y-106506868D01*
X128041799Y-106557362D01*
X128034377Y-106620735D01*
X128024941Y-106692997D01*
X128014043Y-106770162D01*
X128002235Y-106848239D01*
X127990067Y-106923242D01*
X127978091Y-106991180D01*
X127973371Y-107016034D01*
X127925395Y-107227344D01*
X127866266Y-107427754D01*
X127796630Y-107616340D01*
X127717136Y-107792176D01*
X127628431Y-107954340D01*
X127531162Y-108101905D01*
X127425977Y-108233949D01*
X127313523Y-108349547D01*
X127194447Y-108447774D01*
X127069397Y-108527707D01*
X126939020Y-108588420D01*
X126851983Y-108617068D01*
X126710697Y-108646567D01*
X126574886Y-108655798D01*
X126445395Y-108645154D01*
X126323068Y-108615028D01*
X126208749Y-108565815D01*
X126103281Y-108497907D01*
X126007509Y-108411699D01*
X125922275Y-108307585D01*
X125848425Y-108185958D01*
X125824695Y-108137761D01*
X125792462Y-108062875D01*
X125768556Y-107992755D01*
X125751943Y-107922048D01*
X125741587Y-107845397D01*
X125736454Y-107757450D01*
X125735411Y-107675936D01*
X125735849Y-107604239D01*
X125737312Y-107548224D01*
X125740320Y-107502403D01*
X125745391Y-107461288D01*
X125753044Y-107419393D01*
X125763801Y-107371229D01*
X125764545Y-107368064D01*
X125785497Y-107283635D01*
X125807796Y-107203605D01*
X125832535Y-107125261D01*
X125860810Y-107045890D01*
X125893714Y-106962779D01*
X125932342Y-106873216D01*
X125977787Y-106774487D01*
X126031143Y-106663880D01*
X126093505Y-106538682D01*
X126120756Y-106484815D01*
X126176793Y-106373086D01*
X126222947Y-106277860D01*
X126259944Y-106197315D01*
X126288514Y-106129628D01*
X126309383Y-106072978D01*
X126323280Y-106025543D01*
X126330931Y-105985499D01*
X126333080Y-105953150D01*
X126322718Y-105887171D01*
X126292840Y-105820114D01*
X126244863Y-105754097D01*
X126180205Y-105691238D01*
X126134454Y-105656244D01*
X126102212Y-105634052D01*
X126081931Y-105622621D01*
X126068279Y-105620494D01*
X126055921Y-105626214D01*
X126047379Y-105632452D01*
X126021765Y-105651773D01*
X126055899Y-105686686D01*
X126088256Y-105730326D01*
X126103522Y-105779636D01*
X126102753Y-105838790D01*
X126099519Y-105859265D01*
X126086628Y-105913403D01*
X126064745Y-105985578D01*
X126034211Y-106074820D01*
X125995367Y-106180158D01*
X125948555Y-106300621D01*
X125914968Y-106384231D01*
X125831307Y-106598665D01*
X125760782Y-106798386D01*
X125703089Y-106985048D01*
X125657925Y-107160304D01*
X125624987Y-107325806D01*
X125603971Y-107483208D01*
X125594576Y-107634161D01*
X125596497Y-107780320D01*
X125609431Y-107923336D01*
X125619831Y-107993568D01*
X125654458Y-108149665D01*
X125703992Y-108291099D01*
X125768884Y-108418680D01*
X125849583Y-108533220D01*
X125946540Y-108635528D01*
X126003774Y-108684355D01*
X126117150Y-108762572D01*
X126235534Y-108820530D01*
X126360673Y-108858891D01*
X126494314Y-108878320D01*
X126518469Y-108879811D01*
X126518469Y-108879811D01*
X126518469Y-108879811D01*
G37*
X126518469Y-108879811D02*
X126676517Y-108877238D01*
X126832791Y-108853974D01*
X126985616Y-108810504D01*
X127133320Y-108747313D01*
X127274229Y-108664884D01*
X127284288Y-108658069D01*
X127351052Y-108607207D01*
X127424043Y-108542752D01*
X127498741Y-108469357D01*
X127570627Y-108391678D01*
X127635179Y-108314366D01*
X127686922Y-108243516D01*
X127772282Y-108102689D01*
X127847248Y-107951425D01*
X127912163Y-107788446D01*
X127967370Y-107612476D01*
X128013213Y-107422236D01*
X128050033Y-107216450D01*
X128078175Y-106993841D01*
X128097981Y-106753131D01*
X128101019Y-106701863D01*
X128105489Y-106620438D01*
X128108680Y-106557640D01*
X128110548Y-106510959D01*
X128111046Y-106477882D01*
X128110128Y-106455899D01*
X128107747Y-106442497D01*
X128103859Y-106435165D01*
X128098417Y-106431391D01*
X128096043Y-106430411D01*
X128069856Y-106428180D01*
X128053491Y-106444073D01*
X128048398Y-106473241D01*
X128046657Y-106506868D01*
X128041799Y-106557362D01*
X128034377Y-106620735D01*
X128024941Y-106692997D01*
X128014043Y-106770162D01*
X128002235Y-106848239D01*
X127990067Y-106923242D01*
X127978091Y-106991180D01*
X127973371Y-107016034D01*
X127925395Y-107227344D01*
X127866266Y-107427754D01*
X127796630Y-107616340D01*
X127717136Y-107792176D01*
X127628431Y-107954340D01*
X127531162Y-108101905D01*
X127425977Y-108233949D01*
X127313523Y-108349547D01*
X127194447Y-108447774D01*
X127069397Y-108527707D01*
X126939020Y-108588420D01*
X126851983Y-108617068D01*
X126710697Y-108646567D01*
X126574886Y-108655798D01*
X126445395Y-108645154D01*
X126323068Y-108615028D01*
X126208749Y-108565815D01*
X126103281Y-108497907D01*
X126007509Y-108411699D01*
X125922275Y-108307585D01*
X125848425Y-108185958D01*
X125824695Y-108137761D01*
X125792462Y-108062875D01*
X125768556Y-107992755D01*
X125751943Y-107922048D01*
X125741587Y-107845397D01*
X125736454Y-107757450D01*
X125735411Y-107675936D01*
X125735849Y-107604239D01*
X125737312Y-107548224D01*
X125740320Y-107502403D01*
X125745391Y-107461288D01*
X125753044Y-107419393D01*
X125763801Y-107371229D01*
X125764545Y-107368064D01*
X125785497Y-107283635D01*
X125807796Y-107203605D01*
X125832535Y-107125261D01*
X125860810Y-107045890D01*
X125893714Y-106962779D01*
X125932342Y-106873216D01*
X125977787Y-106774487D01*
X126031143Y-106663880D01*
X126093505Y-106538682D01*
X126120756Y-106484815D01*
X126176793Y-106373086D01*
X126222947Y-106277860D01*
X126259944Y-106197315D01*
X126288514Y-106129628D01*
X126309383Y-106072978D01*
X126323280Y-106025543D01*
X126330931Y-105985499D01*
X126333080Y-105953150D01*
X126322718Y-105887171D01*
X126292840Y-105820114D01*
X126244863Y-105754097D01*
X126180205Y-105691238D01*
X126134454Y-105656244D01*
X126102212Y-105634052D01*
X126081931Y-105622621D01*
X126068279Y-105620494D01*
X126055921Y-105626214D01*
X126047379Y-105632452D01*
X126021765Y-105651773D01*
X126055899Y-105686686D01*
X126088256Y-105730326D01*
X126103522Y-105779636D01*
X126102753Y-105838790D01*
X126099519Y-105859265D01*
X126086628Y-105913403D01*
X126064745Y-105985578D01*
X126034211Y-106074820D01*
X125995367Y-106180158D01*
X125948555Y-106300621D01*
X125914968Y-106384231D01*
X125831307Y-106598665D01*
X125760782Y-106798386D01*
X125703089Y-106985048D01*
X125657925Y-107160304D01*
X125624987Y-107325806D01*
X125603971Y-107483208D01*
X125594576Y-107634161D01*
X125596497Y-107780320D01*
X125609431Y-107923336D01*
X125619831Y-107993568D01*
X125654458Y-108149665D01*
X125703992Y-108291099D01*
X125768884Y-108418680D01*
X125849583Y-108533220D01*
X125946540Y-108635528D01*
X126003774Y-108684355D01*
X126117150Y-108762572D01*
X126235534Y-108820530D01*
X126360673Y-108858891D01*
X126494314Y-108878320D01*
X126518469Y-108879811D01*
X126518469Y-108879811D01*
G36*
X128348196Y-114017995D02*
X128379988Y-114011494D01*
X128407933Y-113991273D01*
X128432401Y-113956256D01*
X128453763Y-113905366D01*
X128472390Y-113837528D01*
X128488653Y-113751664D01*
X128502923Y-113646700D01*
X128514256Y-113536253D01*
X128516896Y-113495902D01*
X128519109Y-113440208D01*
X128520870Y-113373128D01*
X128522155Y-113298618D01*
X128522940Y-113220634D01*
X128523203Y-113143133D01*
X128522919Y-113070071D01*
X128522065Y-113005405D01*
X128520617Y-112953090D01*
X128518551Y-112917084D01*
X128517992Y-112911576D01*
X128494563Y-112752317D01*
X128462886Y-112610941D01*
X128422157Y-112485507D01*
X128371572Y-112374072D01*
X128310326Y-112274696D01*
X128237616Y-112185438D01*
X128202186Y-112149258D01*
X128105307Y-112068200D01*
X128003181Y-112007648D01*
X127895674Y-111967559D01*
X127782653Y-111947890D01*
X127663984Y-111948598D01*
X127602105Y-111956645D01*
X127509741Y-111976196D01*
X127410972Y-112003742D01*
X127315261Y-112036380D01*
X127238436Y-112068225D01*
X127174909Y-112097631D01*
X127202760Y-112115892D01*
X127218211Y-112124843D01*
X127233220Y-112128441D01*
X127253695Y-112126503D01*
X127285546Y-112118849D01*
X127308168Y-112112660D01*
X127431978Y-112084541D01*
X127550922Y-112069649D01*
X127661585Y-112068175D01*
X127760554Y-112080313D01*
X127784385Y-112085834D01*
X127887783Y-112123190D01*
X127982791Y-112178725D01*
X128067104Y-112250336D01*
X128138419Y-112335922D01*
X128194432Y-112433378D01*
X128212604Y-112476714D01*
X128235430Y-112543427D01*
X128252383Y-112608659D01*
X128264143Y-112677185D01*
X128271390Y-112753784D01*
X128274805Y-112843232D01*
X128275276Y-112916870D01*
X128274497Y-112992884D01*
X128272245Y-113058963D01*
X128267902Y-113119492D01*
X128260849Y-113178853D01*
X128250469Y-113241429D01*
X128236143Y-113311606D01*
X128217255Y-113393765D01*
X128195428Y-113483248D01*
X128174444Y-113570861D01*
X128159453Y-113641395D01*
X128150128Y-113697982D01*
X128146146Y-113743754D01*
X128147178Y-113781842D01*
X128152900Y-113815380D01*
X128158759Y-113835564D01*
X128182433Y-113886903D01*
X128216325Y-113934630D01*
X128256416Y-113974872D01*
X128298685Y-114003757D01*
X128339111Y-114017414D01*
X128348196Y-114017995D01*
X128348196Y-114017995D01*
X128348196Y-114017995D01*
G37*
X128348196Y-114017995D02*
X128379988Y-114011494D01*
X128407933Y-113991273D01*
X128432401Y-113956256D01*
X128453763Y-113905366D01*
X128472390Y-113837528D01*
X128488653Y-113751664D01*
X128502923Y-113646700D01*
X128514256Y-113536253D01*
X128516896Y-113495902D01*
X128519109Y-113440208D01*
X128520870Y-113373128D01*
X128522155Y-113298618D01*
X128522940Y-113220634D01*
X128523203Y-113143133D01*
X128522919Y-113070071D01*
X128522065Y-113005405D01*
X128520617Y-112953090D01*
X128518551Y-112917084D01*
X128517992Y-112911576D01*
X128494563Y-112752317D01*
X128462886Y-112610941D01*
X128422157Y-112485507D01*
X128371572Y-112374072D01*
X128310326Y-112274696D01*
X128237616Y-112185438D01*
X128202186Y-112149258D01*
X128105307Y-112068200D01*
X128003181Y-112007648D01*
X127895674Y-111967559D01*
X127782653Y-111947890D01*
X127663984Y-111948598D01*
X127602105Y-111956645D01*
X127509741Y-111976196D01*
X127410972Y-112003742D01*
X127315261Y-112036380D01*
X127238436Y-112068225D01*
X127174909Y-112097631D01*
X127202760Y-112115892D01*
X127218211Y-112124843D01*
X127233220Y-112128441D01*
X127253695Y-112126503D01*
X127285546Y-112118849D01*
X127308168Y-112112660D01*
X127431978Y-112084541D01*
X127550922Y-112069649D01*
X127661585Y-112068175D01*
X127760554Y-112080313D01*
X127784385Y-112085834D01*
X127887783Y-112123190D01*
X127982791Y-112178725D01*
X128067104Y-112250336D01*
X128138419Y-112335922D01*
X128194432Y-112433378D01*
X128212604Y-112476714D01*
X128235430Y-112543427D01*
X128252383Y-112608659D01*
X128264143Y-112677185D01*
X128271390Y-112753784D01*
X128274805Y-112843232D01*
X128275276Y-112916870D01*
X128274497Y-112992884D01*
X128272245Y-113058963D01*
X128267902Y-113119492D01*
X128260849Y-113178853D01*
X128250469Y-113241429D01*
X128236143Y-113311606D01*
X128217255Y-113393765D01*
X128195428Y-113483248D01*
X128174444Y-113570861D01*
X128159453Y-113641395D01*
X128150128Y-113697982D01*
X128146146Y-113743754D01*
X128147178Y-113781842D01*
X128152900Y-113815380D01*
X128158759Y-113835564D01*
X128182433Y-113886903D01*
X128216325Y-113934630D01*
X128256416Y-113974872D01*
X128298685Y-114003757D01*
X128339111Y-114017414D01*
X128348196Y-114017995D01*
X128348196Y-114017995D01*
G36*
X127317423Y-99091202D02*
X127331437Y-99090240D01*
X127349457Y-99078603D01*
X127406594Y-99034753D01*
X127474840Y-98977756D01*
X127551223Y-98910276D01*
X127632769Y-98834978D01*
X127716505Y-98754529D01*
X127767823Y-98703626D01*
X127894689Y-98571430D01*
X128005382Y-98445383D01*
X128102568Y-98321958D01*
X128188909Y-98197626D01*
X128267070Y-98068861D01*
X128317676Y-97975484D01*
X128400267Y-97798287D01*
X128464347Y-97621641D01*
X128509618Y-97446922D01*
X128535777Y-97275504D01*
X128542527Y-97108762D01*
X128534211Y-96983586D01*
X128510444Y-96850651D01*
X128471490Y-96724738D01*
X128418670Y-96608324D01*
X128353303Y-96503890D01*
X128276710Y-96413913D01*
X128193053Y-96342877D01*
X128098406Y-96283953D01*
X127993055Y-96234330D01*
X127875294Y-96193548D01*
X127743415Y-96161146D01*
X127595710Y-96136665D01*
X127430472Y-96119643D01*
X127344313Y-96113980D01*
X127250180Y-96110533D01*
X127137718Y-96109363D01*
X127009635Y-96110330D01*
X126868640Y-96113296D01*
X126717441Y-96118123D01*
X126558746Y-96124674D01*
X126395263Y-96132810D01*
X126229702Y-96142394D01*
X126064770Y-96153286D01*
X125903176Y-96165349D01*
X125747628Y-96178445D01*
X125600835Y-96192436D01*
X125465505Y-96207183D01*
X125427932Y-96211687D01*
X125329006Y-96222445D01*
X125233430Y-96229691D01*
X125133302Y-96233874D01*
X125020718Y-96235444D01*
X125009716Y-96235472D01*
X124933670Y-96235475D01*
X124875397Y-96234989D01*
X124831497Y-96233734D01*
X124798569Y-96231428D01*
X124773211Y-96227791D01*
X124752023Y-96222540D01*
X124731603Y-96215395D01*
X124722313Y-96211711D01*
X124652352Y-96177125D01*
X124594844Y-96135885D01*
X124554002Y-96091054D01*
X124551898Y-96087893D01*
X124527502Y-96061826D01*
X124501952Y-96056867D01*
X124478024Y-96070497D01*
X124476270Y-96084057D01*
X124479408Y-96113512D01*
X124486480Y-96154406D01*
X124496529Y-96202283D01*
X124508595Y-96252687D01*
X124521720Y-96301161D01*
X124534946Y-96343251D01*
X124539247Y-96355184D01*
X124571405Y-96424423D01*
X124611207Y-96484472D01*
X124655453Y-96531166D01*
X124694843Y-96557577D01*
X124738599Y-96572818D01*
X124790779Y-96579186D01*
X124854869Y-96576761D01*
X124934355Y-96565627D01*
X124946189Y-96563510D01*
X125196969Y-96519270D01*
X125431397Y-96481376D01*
X125653207Y-96449471D01*
X125866133Y-96423195D01*
X126073910Y-96402190D01*
X126280270Y-96386098D01*
X126488950Y-96374560D01*
X126703681Y-96367218D01*
X126928199Y-96363714D01*
X127031975Y-96363294D01*
X127157149Y-96363419D01*
X127263813Y-96364154D01*
X127354629Y-96365704D01*
X127432258Y-96368275D01*
X127499362Y-96372070D01*
X127558603Y-96377296D01*
X127612642Y-96384158D01*
X127664141Y-96392860D01*
X127715761Y-96403607D01*
X127770165Y-96416604D01*
X127790286Y-96421705D01*
X127915305Y-96462722D01*
X128024241Y-96517381D01*
X128116965Y-96585400D01*
X128193346Y-96666497D01*
X128253255Y-96760387D01*
X128296562Y-96866790D01*
X128323136Y-96985421D01*
X128332847Y-97115998D01*
X128325566Y-97258238D01*
X128301163Y-97411859D01*
X128282551Y-97492647D01*
X128227454Y-97673836D01*
X128152962Y-97859539D01*
X128059988Y-98048268D01*
X127949444Y-98238533D01*
X127822242Y-98428844D01*
X127679294Y-98617713D01*
X127521512Y-98803650D01*
X127399332Y-98934773D01*
X127354485Y-98981218D01*
X127322675Y-99014929D01*
X127302203Y-99038379D01*
X127291371Y-99054041D01*
X127288479Y-99064388D01*
X127291828Y-99071893D01*
X127299721Y-99079030D01*
X127300052Y-99079297D01*
X127317423Y-99091202D01*
X127317423Y-99091202D01*
X127317423Y-99091202D01*
G37*
X127317423Y-99091202D02*
X127331437Y-99090240D01*
X127349457Y-99078603D01*
X127406594Y-99034753D01*
X127474840Y-98977756D01*
X127551223Y-98910276D01*
X127632769Y-98834978D01*
X127716505Y-98754529D01*
X127767823Y-98703626D01*
X127894689Y-98571430D01*
X128005382Y-98445383D01*
X128102568Y-98321958D01*
X128188909Y-98197626D01*
X128267070Y-98068861D01*
X128317676Y-97975484D01*
X128400267Y-97798287D01*
X128464347Y-97621641D01*
X128509618Y-97446922D01*
X128535777Y-97275504D01*
X128542527Y-97108762D01*
X128534211Y-96983586D01*
X128510444Y-96850651D01*
X128471490Y-96724738D01*
X128418670Y-96608324D01*
X128353303Y-96503890D01*
X128276710Y-96413913D01*
X128193053Y-96342877D01*
X128098406Y-96283953D01*
X127993055Y-96234330D01*
X127875294Y-96193548D01*
X127743415Y-96161146D01*
X127595710Y-96136665D01*
X127430472Y-96119643D01*
X127344313Y-96113980D01*
X127250180Y-96110533D01*
X127137718Y-96109363D01*
X127009635Y-96110330D01*
X126868640Y-96113296D01*
X126717441Y-96118123D01*
X126558746Y-96124674D01*
X126395263Y-96132810D01*
X126229702Y-96142394D01*
X126064770Y-96153286D01*
X125903176Y-96165349D01*
X125747628Y-96178445D01*
X125600835Y-96192436D01*
X125465505Y-96207183D01*
X125427932Y-96211687D01*
X125329006Y-96222445D01*
X125233430Y-96229691D01*
X125133302Y-96233874D01*
X125020718Y-96235444D01*
X125009716Y-96235472D01*
X124933670Y-96235475D01*
X124875397Y-96234989D01*
X124831497Y-96233734D01*
X124798569Y-96231428D01*
X124773211Y-96227791D01*
X124752023Y-96222540D01*
X124731603Y-96215395D01*
X124722313Y-96211711D01*
X124652352Y-96177125D01*
X124594844Y-96135885D01*
X124554002Y-96091054D01*
X124551898Y-96087893D01*
X124527502Y-96061826D01*
X124501952Y-96056867D01*
X124478024Y-96070497D01*
X124476270Y-96084057D01*
X124479408Y-96113512D01*
X124486480Y-96154406D01*
X124496529Y-96202283D01*
X124508595Y-96252687D01*
X124521720Y-96301161D01*
X124534946Y-96343251D01*
X124539247Y-96355184D01*
X124571405Y-96424423D01*
X124611207Y-96484472D01*
X124655453Y-96531166D01*
X124694843Y-96557577D01*
X124738599Y-96572818D01*
X124790779Y-96579186D01*
X124854869Y-96576761D01*
X124934355Y-96565627D01*
X124946189Y-96563510D01*
X125196969Y-96519270D01*
X125431397Y-96481376D01*
X125653207Y-96449471D01*
X125866133Y-96423195D01*
X126073910Y-96402190D01*
X126280270Y-96386098D01*
X126488950Y-96374560D01*
X126703681Y-96367218D01*
X126928199Y-96363714D01*
X127031975Y-96363294D01*
X127157149Y-96363419D01*
X127263813Y-96364154D01*
X127354629Y-96365704D01*
X127432258Y-96368275D01*
X127499362Y-96372070D01*
X127558603Y-96377296D01*
X127612642Y-96384158D01*
X127664141Y-96392860D01*
X127715761Y-96403607D01*
X127770165Y-96416604D01*
X127790286Y-96421705D01*
X127915305Y-96462722D01*
X128024241Y-96517381D01*
X128116965Y-96585400D01*
X128193346Y-96666497D01*
X128253255Y-96760387D01*
X128296562Y-96866790D01*
X128323136Y-96985421D01*
X128332847Y-97115998D01*
X128325566Y-97258238D01*
X128301163Y-97411859D01*
X128282551Y-97492647D01*
X128227454Y-97673836D01*
X128152962Y-97859539D01*
X128059988Y-98048268D01*
X127949444Y-98238533D01*
X127822242Y-98428844D01*
X127679294Y-98617713D01*
X127521512Y-98803650D01*
X127399332Y-98934773D01*
X127354485Y-98981218D01*
X127322675Y-99014929D01*
X127302203Y-99038379D01*
X127291371Y-99054041D01*
X127288479Y-99064388D01*
X127291828Y-99071893D01*
X127299721Y-99079030D01*
X127300052Y-99079297D01*
X127317423Y-99091202D01*
X127317423Y-99091202D01*
G36*
X125342305Y-112512693D02*
X125364500Y-112505541D01*
X125390189Y-112486607D01*
X125396334Y-112481292D01*
X125431275Y-112441221D01*
X125467848Y-112381392D01*
X125505588Y-112303118D01*
X125544027Y-112207710D01*
X125582698Y-112096481D01*
X125621135Y-111970744D01*
X125658870Y-111831813D01*
X125695436Y-111680998D01*
X125719032Y-111574041D01*
X125730254Y-111522222D01*
X125740172Y-111478351D01*
X125747871Y-111446335D01*
X125752436Y-111430081D01*
X125753018Y-111428896D01*
X125763690Y-111425271D01*
X125792754Y-111416416D01*
X125838239Y-111402909D01*
X125898172Y-111385324D01*
X125970581Y-111364237D01*
X126053496Y-111340225D01*
X126144942Y-111313864D01*
X126242949Y-111285730D01*
X126254221Y-111282501D01*
X126514693Y-111207073D01*
X126756182Y-111135341D01*
X126980445Y-111066711D01*
X127189234Y-111000591D01*
X127384306Y-110936388D01*
X127567414Y-110873511D01*
X127740314Y-110811365D01*
X127904759Y-110749360D01*
X128062506Y-110686901D01*
X128215308Y-110623397D01*
X128250540Y-110608322D01*
X128341726Y-110567939D01*
X128414256Y-110533142D01*
X128469650Y-110503084D01*
X128509426Y-110476917D01*
X128535104Y-110453795D01*
X128541042Y-110446264D01*
X128551073Y-110421445D01*
X128556365Y-110387872D01*
X128556610Y-110379690D01*
X128553257Y-110346469D01*
X128539948Y-110322909D01*
X128524797Y-110308573D01*
X128477385Y-110282433D01*
X128417980Y-110273546D01*
X128346923Y-110281954D01*
X128333073Y-110285269D01*
X128314418Y-110290147D01*
X128296830Y-110295195D01*
X128278187Y-110301305D01*
X128256365Y-110309371D01*
X128229241Y-110320283D01*
X128194692Y-110334937D01*
X128150593Y-110354223D01*
X128094822Y-110379036D01*
X128025256Y-110410267D01*
X127939770Y-110448810D01*
X127881160Y-110475272D01*
X127607605Y-110593906D01*
X127324498Y-110707412D01*
X127039332Y-110812938D01*
X126759601Y-110907633D01*
X126671992Y-110935327D01*
X126591088Y-110960021D01*
X126504105Y-110985838D01*
X126413337Y-111012163D01*
X126321074Y-111038378D01*
X126229610Y-111063868D01*
X126141237Y-111088016D01*
X126058248Y-111110206D01*
X125982934Y-111129821D01*
X125917588Y-111146246D01*
X125864502Y-111158863D01*
X125825969Y-111167056D01*
X125804281Y-111170209D01*
X125800435Y-111169668D01*
X125800229Y-111157883D01*
X125803031Y-111129343D01*
X125808354Y-111088179D01*
X125815709Y-111038520D01*
X125816695Y-111032251D01*
X125830067Y-110922479D01*
X125837289Y-110799429D01*
X125838788Y-110719913D01*
X125839014Y-110652726D01*
X125838390Y-110602133D01*
X125836439Y-110563556D01*
X125832685Y-110532416D01*
X125826654Y-110504135D01*
X125817871Y-110474134D01*
X125811131Y-110453553D01*
X125787910Y-110394975D01*
X125758023Y-110335477D01*
X125725011Y-110281179D01*
X125692419Y-110238203D01*
X125677868Y-110223306D01*
X125662946Y-110211664D01*
X125650126Y-110211162D01*
X125631028Y-110222480D01*
X125623607Y-110227723D01*
X125590508Y-110251292D01*
X125616535Y-110279141D01*
X125640878Y-110307194D01*
X125658348Y-110333974D01*
X125670010Y-110363726D01*
X125676930Y-110400695D01*
X125680172Y-110449124D01*
X125680802Y-110513258D01*
X125680656Y-110534627D01*
X125678406Y-110613967D01*
X125672711Y-110691841D01*
X125662955Y-110772487D01*
X125648517Y-110860143D01*
X125628782Y-110959046D01*
X125603130Y-111073434D01*
X125600379Y-111085190D01*
X125588148Y-111137068D01*
X125577700Y-111180921D01*
X125569951Y-111212951D01*
X125565812Y-111229362D01*
X125565400Y-111230692D01*
X125554325Y-111234527D01*
X125525998Y-111241148D01*
X125484057Y-111249872D01*
X125432141Y-111260017D01*
X125373888Y-111270900D01*
X125312935Y-111281838D01*
X125252921Y-111292148D01*
X125197482Y-111301148D01*
X125159608Y-111306841D01*
X125037451Y-111322725D01*
X124933349Y-111332588D01*
X124845031Y-111336341D01*
X124770224Y-111333899D01*
X124706657Y-111325176D01*
X124652058Y-111310085D01*
X124604156Y-111288541D01*
X124598761Y-111285523D01*
X124559314Y-111257694D01*
X124525603Y-111224659D01*
X124515594Y-111211435D01*
X124487306Y-111168689D01*
X124460474Y-111195521D01*
X124445934Y-111211347D01*
X124439242Y-111225819D01*
X124439356Y-111245867D01*
X124445229Y-111278422D01*
X124446821Y-111286158D01*
X124458661Y-111335865D01*
X124474643Y-111392581D01*
X124492959Y-111450840D01*
X124511800Y-111505175D01*
X124529358Y-111550120D01*
X124543826Y-111580207D01*
X124544399Y-111581164D01*
X124565386Y-111609616D01*
X124591079Y-111631900D01*
X124623086Y-111647974D01*
X124663014Y-111657796D01*
X124712470Y-111661323D01*
X124773063Y-111658515D01*
X124846400Y-111649328D01*
X124934089Y-111633721D01*
X125037737Y-111611653D01*
X125158951Y-111583080D01*
X125239999Y-111562993D01*
X125308631Y-111545834D01*
X125369896Y-111530684D01*
X125420988Y-111518223D01*
X125459101Y-111509132D01*
X125481428Y-111504091D01*
X125486164Y-111503329D01*
X125482753Y-111515898D01*
X125473261Y-111545221D01*
X125458796Y-111588135D01*
X125440469Y-111641478D01*
X125419388Y-111702085D01*
X125396663Y-111766794D01*
X125373405Y-111832442D01*
X125350721Y-111895866D01*
X125329722Y-111953903D01*
X125311518Y-112003390D01*
X125300442Y-112032793D01*
X125270361Y-112111571D01*
X125247042Y-112173292D01*
X125229625Y-112220657D01*
X125217250Y-112256365D01*
X125209055Y-112283115D01*
X125204181Y-112303607D01*
X125201766Y-112320540D01*
X125200950Y-112336615D01*
X125200873Y-112345131D01*
X125206214Y-112389327D01*
X125220361Y-112434658D01*
X125240213Y-112472942D01*
X125256434Y-112491665D01*
X125278005Y-112502398D01*
X125308938Y-112510485D01*
X125314648Y-112511360D01*
X125342305Y-112512693D01*
X125342305Y-112512693D01*
X125342305Y-112512693D01*
G37*
X125342305Y-112512693D02*
X125364500Y-112505541D01*
X125390189Y-112486607D01*
X125396334Y-112481292D01*
X125431275Y-112441221D01*
X125467848Y-112381392D01*
X125505588Y-112303118D01*
X125544027Y-112207710D01*
X125582698Y-112096481D01*
X125621135Y-111970744D01*
X125658870Y-111831813D01*
X125695436Y-111680998D01*
X125719032Y-111574041D01*
X125730254Y-111522222D01*
X125740172Y-111478351D01*
X125747871Y-111446335D01*
X125752436Y-111430081D01*
X125753018Y-111428896D01*
X125763690Y-111425271D01*
X125792754Y-111416416D01*
X125838239Y-111402909D01*
X125898172Y-111385324D01*
X125970581Y-111364237D01*
X126053496Y-111340225D01*
X126144942Y-111313864D01*
X126242949Y-111285730D01*
X126254221Y-111282501D01*
X126514693Y-111207073D01*
X126756182Y-111135341D01*
X126980445Y-111066711D01*
X127189234Y-111000591D01*
X127384306Y-110936388D01*
X127567414Y-110873511D01*
X127740314Y-110811365D01*
X127904759Y-110749360D01*
X128062506Y-110686901D01*
X128215308Y-110623397D01*
X128250540Y-110608322D01*
X128341726Y-110567939D01*
X128414256Y-110533142D01*
X128469650Y-110503084D01*
X128509426Y-110476917D01*
X128535104Y-110453795D01*
X128541042Y-110446264D01*
X128551073Y-110421445D01*
X128556365Y-110387872D01*
X128556610Y-110379690D01*
X128553257Y-110346469D01*
X128539948Y-110322909D01*
X128524797Y-110308573D01*
X128477385Y-110282433D01*
X128417980Y-110273546D01*
X128346923Y-110281954D01*
X128333073Y-110285269D01*
X128314418Y-110290147D01*
X128296830Y-110295195D01*
X128278187Y-110301305D01*
X128256365Y-110309371D01*
X128229241Y-110320283D01*
X128194692Y-110334937D01*
X128150593Y-110354223D01*
X128094822Y-110379036D01*
X128025256Y-110410267D01*
X127939770Y-110448810D01*
X127881160Y-110475272D01*
X127607605Y-110593906D01*
X127324498Y-110707412D01*
X127039332Y-110812938D01*
X126759601Y-110907633D01*
X126671992Y-110935327D01*
X126591088Y-110960021D01*
X126504105Y-110985838D01*
X126413337Y-111012163D01*
X126321074Y-111038378D01*
X126229610Y-111063868D01*
X126141237Y-111088016D01*
X126058248Y-111110206D01*
X125982934Y-111129821D01*
X125917588Y-111146246D01*
X125864502Y-111158863D01*
X125825969Y-111167056D01*
X125804281Y-111170209D01*
X125800435Y-111169668D01*
X125800229Y-111157883D01*
X125803031Y-111129343D01*
X125808354Y-111088179D01*
X125815709Y-111038520D01*
X125816695Y-111032251D01*
X125830067Y-110922479D01*
X125837289Y-110799429D01*
X125838788Y-110719913D01*
X125839014Y-110652726D01*
X125838390Y-110602133D01*
X125836439Y-110563556D01*
X125832685Y-110532416D01*
X125826654Y-110504135D01*
X125817871Y-110474134D01*
X125811131Y-110453553D01*
X125787910Y-110394975D01*
X125758023Y-110335477D01*
X125725011Y-110281179D01*
X125692419Y-110238203D01*
X125677868Y-110223306D01*
X125662946Y-110211664D01*
X125650126Y-110211162D01*
X125631028Y-110222480D01*
X125623607Y-110227723D01*
X125590508Y-110251292D01*
X125616535Y-110279141D01*
X125640878Y-110307194D01*
X125658348Y-110333974D01*
X125670010Y-110363726D01*
X125676930Y-110400695D01*
X125680172Y-110449124D01*
X125680802Y-110513258D01*
X125680656Y-110534627D01*
X125678406Y-110613967D01*
X125672711Y-110691841D01*
X125662955Y-110772487D01*
X125648517Y-110860143D01*
X125628782Y-110959046D01*
X125603130Y-111073434D01*
X125600379Y-111085190D01*
X125588148Y-111137068D01*
X125577700Y-111180921D01*
X125569951Y-111212951D01*
X125565812Y-111229362D01*
X125565400Y-111230692D01*
X125554325Y-111234527D01*
X125525998Y-111241148D01*
X125484057Y-111249872D01*
X125432141Y-111260017D01*
X125373888Y-111270900D01*
X125312935Y-111281838D01*
X125252921Y-111292148D01*
X125197482Y-111301148D01*
X125159608Y-111306841D01*
X125037451Y-111322725D01*
X124933349Y-111332588D01*
X124845031Y-111336341D01*
X124770224Y-111333899D01*
X124706657Y-111325176D01*
X124652058Y-111310085D01*
X124604156Y-111288541D01*
X124598761Y-111285523D01*
X124559314Y-111257694D01*
X124525603Y-111224659D01*
X124515594Y-111211435D01*
X124487306Y-111168689D01*
X124460474Y-111195521D01*
X124445934Y-111211347D01*
X124439242Y-111225819D01*
X124439356Y-111245867D01*
X124445229Y-111278422D01*
X124446821Y-111286158D01*
X124458661Y-111335865D01*
X124474643Y-111392581D01*
X124492959Y-111450840D01*
X124511800Y-111505175D01*
X124529358Y-111550120D01*
X124543826Y-111580207D01*
X124544399Y-111581164D01*
X124565386Y-111609616D01*
X124591079Y-111631900D01*
X124623086Y-111647974D01*
X124663014Y-111657796D01*
X124712470Y-111661323D01*
X124773063Y-111658515D01*
X124846400Y-111649328D01*
X124934089Y-111633721D01*
X125037737Y-111611653D01*
X125158951Y-111583080D01*
X125239999Y-111562993D01*
X125308631Y-111545834D01*
X125369896Y-111530684D01*
X125420988Y-111518223D01*
X125459101Y-111509132D01*
X125481428Y-111504091D01*
X125486164Y-111503329D01*
X125482753Y-111515898D01*
X125473261Y-111545221D01*
X125458796Y-111588135D01*
X125440469Y-111641478D01*
X125419388Y-111702085D01*
X125396663Y-111766794D01*
X125373405Y-111832442D01*
X125350721Y-111895866D01*
X125329722Y-111953903D01*
X125311518Y-112003390D01*
X125300442Y-112032793D01*
X125270361Y-112111571D01*
X125247042Y-112173292D01*
X125229625Y-112220657D01*
X125217250Y-112256365D01*
X125209055Y-112283115D01*
X125204181Y-112303607D01*
X125201766Y-112320540D01*
X125200950Y-112336615D01*
X125200873Y-112345131D01*
X125206214Y-112389327D01*
X125220361Y-112434658D01*
X125240213Y-112472942D01*
X125256434Y-112491665D01*
X125278005Y-112502398D01*
X125308938Y-112510485D01*
X125314648Y-112511360D01*
X125342305Y-112512693D01*
X125342305Y-112512693D01*
G36*
X128466905Y-103843073D02*
X128513001Y-103836277D01*
X128543395Y-103815483D01*
X128558244Y-103780462D01*
X128557704Y-103730984D01*
X128554597Y-103713443D01*
X128543806Y-103676816D01*
X128524617Y-103632205D01*
X128496143Y-103578084D01*
X128457500Y-103512928D01*
X128407804Y-103435212D01*
X128346167Y-103343410D01*
X128306214Y-103285436D01*
X128254870Y-103210957D01*
X128200314Y-103130896D01*
X128145942Y-103050302D01*
X128095153Y-102974223D01*
X128051343Y-102907709D01*
X128031966Y-102877830D01*
X127993447Y-102817544D01*
X127965535Y-102772550D01*
X127947051Y-102740546D01*
X127936815Y-102719232D01*
X127933648Y-102706306D01*
X127936369Y-102699470D01*
X127939577Y-102697613D01*
X127958883Y-102690045D01*
X127990723Y-102677608D01*
X128024881Y-102664288D01*
X128138256Y-102610057D01*
X128237452Y-102540876D01*
X128300907Y-102478125D01*
X127830986Y-102478125D01*
X127814002Y-102468947D01*
X127800302Y-102448809D01*
X127785686Y-102416650D01*
X127782797Y-102409886D01*
X127737090Y-102278375D01*
X127706896Y-102136272D01*
X127692862Y-101988060D01*
X127695632Y-101838225D01*
X127697465Y-101816648D01*
X127716358Y-101675128D01*
X127744797Y-101551577D01*
X127782674Y-101446226D01*
X127829883Y-101359305D01*
X127886317Y-101291047D01*
X127951869Y-101241682D01*
X127966655Y-101233802D01*
X128026152Y-101213238D01*
X128089494Y-101206642D01*
X128148804Y-101214508D01*
X128168016Y-101221128D01*
X128204582Y-101244467D01*
X128242671Y-101282270D01*
X128277083Y-101328923D01*
X128291671Y-101354571D01*
X128320949Y-101427443D01*
X128343636Y-101515659D01*
X128359287Y-101614301D01*
X128367460Y-101718450D01*
X128367710Y-101823188D01*
X128359593Y-101923595D01*
X128348824Y-101988060D01*
X128315450Y-102098575D01*
X128264605Y-102198444D01*
X128197679Y-102286079D01*
X128116063Y-102359892D01*
X128021147Y-102418298D01*
X127943636Y-102450504D01*
X127891604Y-102467843D01*
X127855453Y-102477404D01*
X127830986Y-102478125D01*
X128300907Y-102478125D01*
X128323490Y-102455793D01*
X128397394Y-102353856D01*
X128438800Y-102279326D01*
X128481519Y-102177596D01*
X128512679Y-102068092D01*
X128532664Y-101953250D01*
X128541855Y-101835512D01*
X128540636Y-101717314D01*
X128529389Y-101601096D01*
X128508497Y-101489297D01*
X128478342Y-101384355D01*
X128439307Y-101288710D01*
X128391775Y-101204799D01*
X128336128Y-101135062D01*
X128272749Y-101081937D01*
X128248702Y-101067661D01*
X128224199Y-101056051D01*
X128199455Y-101048666D01*
X128168709Y-101044598D01*
X128126201Y-101042935D01*
X128090749Y-101042714D01*
X128038987Y-101043208D01*
X128002293Y-101045417D01*
X127974571Y-101050429D01*
X127949725Y-101059331D01*
X127922586Y-101072721D01*
X127841813Y-101126499D01*
X127766851Y-101198652D01*
X127699111Y-101286844D01*
X127640002Y-101388736D01*
X127590935Y-101501991D01*
X127553319Y-101624271D01*
X127534090Y-101716759D01*
X127523977Y-101804717D01*
X127519868Y-101906737D01*
X127521542Y-102016640D01*
X127528780Y-102128247D01*
X127541362Y-102235379D01*
X127555367Y-102314859D01*
X127566662Y-102367086D01*
X127577483Y-102413974D01*
X127586596Y-102450368D01*
X127592733Y-102471028D01*
X127603189Y-102498529D01*
X127441988Y-102498516D01*
X127392769Y-102498114D01*
X127331852Y-102496993D01*
X127262335Y-102495271D01*
X127187316Y-102493063D01*
X127109892Y-102490489D01*
X127033161Y-102487666D01*
X126960221Y-102484710D01*
X126894170Y-102481739D01*
X126838105Y-102478872D01*
X126795125Y-102476224D01*
X126768327Y-102473913D01*
X126761250Y-102472720D01*
X126755652Y-102461170D01*
X126755227Y-102431262D01*
X126758844Y-102391069D01*
X126761885Y-102353666D01*
X126764518Y-102300661D01*
X126766550Y-102237627D01*
X126767784Y-102170140D01*
X126768063Y-102127958D01*
X126766307Y-102020450D01*
X126760115Y-101929336D01*
X126748676Y-101850144D01*
X126731175Y-101778403D01*
X126706799Y-101709643D01*
X126681847Y-101653867D01*
X126653925Y-101600867D01*
X126624131Y-101556211D01*
X126586754Y-101512029D01*
X126555310Y-101479458D01*
X126521184Y-101446197D01*
X126491951Y-101419411D01*
X126471107Y-101402200D01*
X126462738Y-101397403D01*
X126449872Y-101405404D01*
X126434798Y-101423786D01*
X126425230Y-101440912D01*
X126424575Y-101455703D01*
X126433956Y-101475768D01*
X126445147Y-101493947D01*
X126489897Y-101581926D01*
X126523997Y-101685659D01*
X126547235Y-101802478D01*
X126559399Y-101929713D01*
X126560278Y-102064694D01*
X126549658Y-102204752D01*
X126527328Y-102347217D01*
X126516856Y-102396501D01*
X126500343Y-102469172D01*
X126461761Y-102462791D01*
X126442181Y-102461274D01*
X126404196Y-102459879D01*
X126350576Y-102458651D01*
X126284092Y-102457634D01*
X126207513Y-102456873D01*
X126123611Y-102456414D01*
X126059018Y-102456294D01*
X125694857Y-102456178D01*
X125701603Y-102384710D01*
X125709798Y-102286520D01*
X125716402Y-102184311D01*
X125721297Y-102082090D01*
X125724368Y-101983859D01*
X125725498Y-101893624D01*
X125724572Y-101815389D01*
X125721473Y-101753158D01*
X125720299Y-101740114D01*
X125701092Y-101614328D01*
X125670284Y-101505297D01*
X125627144Y-101411606D01*
X125570944Y-101331838D01*
X125500954Y-101264577D01*
X125459884Y-101234746D01*
X125433754Y-101218323D01*
X125415218Y-101208285D01*
X125410810Y-101206824D01*
X125400757Y-101214735D01*
X125386239Y-101233774D01*
X125386139Y-101233927D01*
X125376492Y-101250705D01*
X125376002Y-101263998D01*
X125386530Y-101280532D01*
X125404818Y-101301362D01*
X125436896Y-101343938D01*
X125462628Y-101394749D01*
X125482463Y-101455971D01*
X125496851Y-101529781D01*
X125506239Y-101618356D01*
X125511077Y-101723871D01*
X125511977Y-101820913D01*
X125511137Y-101910356D01*
X125508877Y-101988009D01*
X125504707Y-102059828D01*
X125498135Y-102131771D01*
X125488670Y-102209795D01*
X125475820Y-102299856D01*
X125468531Y-102347653D01*
X125451744Y-102456178D01*
X125153969Y-102455994D01*
X125048078Y-102455499D01*
X124960600Y-102453942D01*
X124888785Y-102450995D01*
X124829885Y-102446333D01*
X124781149Y-102439630D01*
X124739828Y-102430561D01*
X124703173Y-102418799D01*
X124668433Y-102404018D01*
X124653418Y-102396663D01*
X124615184Y-102373947D01*
X124578955Y-102347023D01*
X124563736Y-102333083D01*
X124532831Y-102306631D01*
X124507079Y-102298113D01*
X124483105Y-102306009D01*
X124478737Y-102320406D01*
X124481711Y-102350264D01*
X124490793Y-102391680D01*
X124504750Y-102440755D01*
X124522350Y-102493586D01*
X124542360Y-102546271D01*
X124563547Y-102594910D01*
X124584677Y-102635601D01*
X124590054Y-102644467D01*
X124627207Y-102692282D01*
X124670402Y-102730311D01*
X124714369Y-102754287D01*
X124731561Y-102759094D01*
X124755637Y-102760845D01*
X124796193Y-102760808D01*
X124848624Y-102759111D01*
X124908321Y-102755878D01*
X124946189Y-102753217D01*
X125018830Y-102747989D01*
X125097333Y-102742897D01*
X125173534Y-102738438D01*
X125239270Y-102735107D01*
X125255881Y-102734396D01*
X125311761Y-102732400D01*
X125349830Y-102731924D01*
X125373417Y-102733264D01*
X125385852Y-102736717D01*
X125390463Y-102742580D01*
X125390874Y-102746440D01*
X125388273Y-102760948D01*
X125380931Y-102793105D01*
X125369545Y-102840093D01*
X125354809Y-102899094D01*
X125337420Y-102967291D01*
X125318071Y-103041866D01*
X125316451Y-103048053D01*
X125284691Y-103171012D01*
X125258688Y-103275683D01*
X125238039Y-103364039D01*
X125222339Y-103438050D01*
X125211184Y-103499689D01*
X125204169Y-103550926D01*
X125200890Y-103593735D01*
X125200528Y-103613264D01*
X125206952Y-103680295D01*
X125225141Y-103732560D01*
X125254249Y-103768780D01*
X125293432Y-103787677D01*
X125317419Y-103790234D01*
X125343096Y-103781327D01*
X125373635Y-103757429D01*
X125405016Y-103722767D01*
X125433217Y-103681573D01*
X125448244Y-103652617D01*
X125462805Y-103614245D01*
X125480400Y-103558293D01*
X125500265Y-103488019D01*
X125521639Y-103406674D01*
X125543757Y-103317514D01*
X125565858Y-103223793D01*
X125587177Y-103128764D01*
X125606952Y-103035683D01*
X125624420Y-102947803D01*
X125638817Y-102868378D01*
X125649382Y-102800664D01*
X125651194Y-102787045D01*
X125658296Y-102731459D01*
X126042352Y-102731459D01*
X126426407Y-102731459D01*
X126376095Y-102866453D01*
X126354582Y-102923282D01*
X126327710Y-102992913D01*
X126298134Y-103068548D01*
X126268504Y-103143389D01*
X126251139Y-103186732D01*
X126214256Y-103279637D01*
X126185309Y-103355984D01*
X126163476Y-103418497D01*
X126147931Y-103469894D01*
X126137850Y-103512898D01*
X126132409Y-103550229D01*
X126130783Y-103583990D01*
X126134220Y-103641927D01*
X126145536Y-103683437D01*
X126165949Y-103712198D01*
X126176055Y-103720345D01*
X126214740Y-103735877D01*
X126256420Y-103731354D01*
X126300050Y-103707509D01*
X126344585Y-103665073D01*
X126388980Y-103604777D01*
X126421494Y-103548395D01*
X126456137Y-103477011D01*
X126493949Y-103389918D01*
X126533161Y-103291999D01*
X126572004Y-103188135D01*
X126608709Y-103083211D01*
X126641507Y-102982107D01*
X126668630Y-102889708D01*
X126687686Y-102813721D01*
X126705788Y-102731873D01*
X127191710Y-102729019D01*
X127677632Y-102726165D01*
X127722046Y-102837336D01*
X127759046Y-102923922D01*
X127804818Y-103021609D01*
X127856115Y-103124064D01*
X127909686Y-103224958D01*
X127962284Y-103317957D01*
X128002832Y-103384551D01*
X128086800Y-103510521D01*
X128165675Y-103616405D01*
X128239393Y-103702139D01*
X128307888Y-103767657D01*
X128371094Y-103812894D01*
X128428944Y-103837786D01*
X128466905Y-103843073D01*
X128466905Y-103843073D01*
X128466905Y-103843073D01*
G37*
X128466905Y-103843073D02*
X128513001Y-103836277D01*
X128543395Y-103815483D01*
X128558244Y-103780462D01*
X128557704Y-103730984D01*
X128554597Y-103713443D01*
X128543806Y-103676816D01*
X128524617Y-103632205D01*
X128496143Y-103578084D01*
X128457500Y-103512928D01*
X128407804Y-103435212D01*
X128346167Y-103343410D01*
X128306214Y-103285436D01*
X128254870Y-103210957D01*
X128200314Y-103130896D01*
X128145942Y-103050302D01*
X128095153Y-102974223D01*
X128051343Y-102907709D01*
X128031966Y-102877830D01*
X127993447Y-102817544D01*
X127965535Y-102772550D01*
X127947051Y-102740546D01*
X127936815Y-102719232D01*
X127933648Y-102706306D01*
X127936369Y-102699470D01*
X127939577Y-102697613D01*
X127958883Y-102690045D01*
X127990723Y-102677608D01*
X128024881Y-102664288D01*
X128138256Y-102610057D01*
X128237452Y-102540876D01*
X128300907Y-102478125D01*
X127830986Y-102478125D01*
X127814002Y-102468947D01*
X127800302Y-102448809D01*
X127785686Y-102416650D01*
X127782797Y-102409886D01*
X127737090Y-102278375D01*
X127706896Y-102136272D01*
X127692862Y-101988060D01*
X127695632Y-101838225D01*
X127697465Y-101816648D01*
X127716358Y-101675128D01*
X127744797Y-101551577D01*
X127782674Y-101446226D01*
X127829883Y-101359305D01*
X127886317Y-101291047D01*
X127951869Y-101241682D01*
X127966655Y-101233802D01*
X128026152Y-101213238D01*
X128089494Y-101206642D01*
X128148804Y-101214508D01*
X128168016Y-101221128D01*
X128204582Y-101244467D01*
X128242671Y-101282270D01*
X128277083Y-101328923D01*
X128291671Y-101354571D01*
X128320949Y-101427443D01*
X128343636Y-101515659D01*
X128359287Y-101614301D01*
X128367460Y-101718450D01*
X128367710Y-101823188D01*
X128359593Y-101923595D01*
X128348824Y-101988060D01*
X128315450Y-102098575D01*
X128264605Y-102198444D01*
X128197679Y-102286079D01*
X128116063Y-102359892D01*
X128021147Y-102418298D01*
X127943636Y-102450504D01*
X127891604Y-102467843D01*
X127855453Y-102477404D01*
X127830986Y-102478125D01*
X128300907Y-102478125D01*
X128323490Y-102455793D01*
X128397394Y-102353856D01*
X128438800Y-102279326D01*
X128481519Y-102177596D01*
X128512679Y-102068092D01*
X128532664Y-101953250D01*
X128541855Y-101835512D01*
X128540636Y-101717314D01*
X128529389Y-101601096D01*
X128508497Y-101489297D01*
X128478342Y-101384355D01*
X128439307Y-101288710D01*
X128391775Y-101204799D01*
X128336128Y-101135062D01*
X128272749Y-101081937D01*
X128248702Y-101067661D01*
X128224199Y-101056051D01*
X128199455Y-101048666D01*
X128168709Y-101044598D01*
X128126201Y-101042935D01*
X128090749Y-101042714D01*
X128038987Y-101043208D01*
X128002293Y-101045417D01*
X127974571Y-101050429D01*
X127949725Y-101059331D01*
X127922586Y-101072721D01*
X127841813Y-101126499D01*
X127766851Y-101198652D01*
X127699111Y-101286844D01*
X127640002Y-101388736D01*
X127590935Y-101501991D01*
X127553319Y-101624271D01*
X127534090Y-101716759D01*
X127523977Y-101804717D01*
X127519868Y-101906737D01*
X127521542Y-102016640D01*
X127528780Y-102128247D01*
X127541362Y-102235379D01*
X127555367Y-102314859D01*
X127566662Y-102367086D01*
X127577483Y-102413974D01*
X127586596Y-102450368D01*
X127592733Y-102471028D01*
X127603189Y-102498529D01*
X127441988Y-102498516D01*
X127392769Y-102498114D01*
X127331852Y-102496993D01*
X127262335Y-102495271D01*
X127187316Y-102493063D01*
X127109892Y-102490489D01*
X127033161Y-102487666D01*
X126960221Y-102484710D01*
X126894170Y-102481739D01*
X126838105Y-102478872D01*
X126795125Y-102476224D01*
X126768327Y-102473913D01*
X126761250Y-102472720D01*
X126755652Y-102461170D01*
X126755227Y-102431262D01*
X126758844Y-102391069D01*
X126761885Y-102353666D01*
X126764518Y-102300661D01*
X126766550Y-102237627D01*
X126767784Y-102170140D01*
X126768063Y-102127958D01*
X126766307Y-102020450D01*
X126760115Y-101929336D01*
X126748676Y-101850144D01*
X126731175Y-101778403D01*
X126706799Y-101709643D01*
X126681847Y-101653867D01*
X126653925Y-101600867D01*
X126624131Y-101556211D01*
X126586754Y-101512029D01*
X126555310Y-101479458D01*
X126521184Y-101446197D01*
X126491951Y-101419411D01*
X126471107Y-101402200D01*
X126462738Y-101397403D01*
X126449872Y-101405404D01*
X126434798Y-101423786D01*
X126425230Y-101440912D01*
X126424575Y-101455703D01*
X126433956Y-101475768D01*
X126445147Y-101493947D01*
X126489897Y-101581926D01*
X126523997Y-101685659D01*
X126547235Y-101802478D01*
X126559399Y-101929713D01*
X126560278Y-102064694D01*
X126549658Y-102204752D01*
X126527328Y-102347217D01*
X126516856Y-102396501D01*
X126500343Y-102469172D01*
X126461761Y-102462791D01*
X126442181Y-102461274D01*
X126404196Y-102459879D01*
X126350576Y-102458651D01*
X126284092Y-102457634D01*
X126207513Y-102456873D01*
X126123611Y-102456414D01*
X126059018Y-102456294D01*
X125694857Y-102456178D01*
X125701603Y-102384710D01*
X125709798Y-102286520D01*
X125716402Y-102184311D01*
X125721297Y-102082090D01*
X125724368Y-101983859D01*
X125725498Y-101893624D01*
X125724572Y-101815389D01*
X125721473Y-101753158D01*
X125720299Y-101740114D01*
X125701092Y-101614328D01*
X125670284Y-101505297D01*
X125627144Y-101411606D01*
X125570944Y-101331838D01*
X125500954Y-101264577D01*
X125459884Y-101234746D01*
X125433754Y-101218323D01*
X125415218Y-101208285D01*
X125410810Y-101206824D01*
X125400757Y-101214735D01*
X125386239Y-101233774D01*
X125386139Y-101233927D01*
X125376492Y-101250705D01*
X125376002Y-101263998D01*
X125386530Y-101280532D01*
X125404818Y-101301362D01*
X125436896Y-101343938D01*
X125462628Y-101394749D01*
X125482463Y-101455971D01*
X125496851Y-101529781D01*
X125506239Y-101618356D01*
X125511077Y-101723871D01*
X125511977Y-101820913D01*
X125511137Y-101910356D01*
X125508877Y-101988009D01*
X125504707Y-102059828D01*
X125498135Y-102131771D01*
X125488670Y-102209795D01*
X125475820Y-102299856D01*
X125468531Y-102347653D01*
X125451744Y-102456178D01*
X125153969Y-102455994D01*
X125048078Y-102455499D01*
X124960600Y-102453942D01*
X124888785Y-102450995D01*
X124829885Y-102446333D01*
X124781149Y-102439630D01*
X124739828Y-102430561D01*
X124703173Y-102418799D01*
X124668433Y-102404018D01*
X124653418Y-102396663D01*
X124615184Y-102373947D01*
X124578955Y-102347023D01*
X124563736Y-102333083D01*
X124532831Y-102306631D01*
X124507079Y-102298113D01*
X124483105Y-102306009D01*
X124478737Y-102320406D01*
X124481711Y-102350264D01*
X124490793Y-102391680D01*
X124504750Y-102440755D01*
X124522350Y-102493586D01*
X124542360Y-102546271D01*
X124563547Y-102594910D01*
X124584677Y-102635601D01*
X124590054Y-102644467D01*
X124627207Y-102692282D01*
X124670402Y-102730311D01*
X124714369Y-102754287D01*
X124731561Y-102759094D01*
X124755637Y-102760845D01*
X124796193Y-102760808D01*
X124848624Y-102759111D01*
X124908321Y-102755878D01*
X124946189Y-102753217D01*
X125018830Y-102747989D01*
X125097333Y-102742897D01*
X125173534Y-102738438D01*
X125239270Y-102735107D01*
X125255881Y-102734396D01*
X125311761Y-102732400D01*
X125349830Y-102731924D01*
X125373417Y-102733264D01*
X125385852Y-102736717D01*
X125390463Y-102742580D01*
X125390874Y-102746440D01*
X125388273Y-102760948D01*
X125380931Y-102793105D01*
X125369545Y-102840093D01*
X125354809Y-102899094D01*
X125337420Y-102967291D01*
X125318071Y-103041866D01*
X125316451Y-103048053D01*
X125284691Y-103171012D01*
X125258688Y-103275683D01*
X125238039Y-103364039D01*
X125222339Y-103438050D01*
X125211184Y-103499689D01*
X125204169Y-103550926D01*
X125200890Y-103593735D01*
X125200528Y-103613264D01*
X125206952Y-103680295D01*
X125225141Y-103732560D01*
X125254249Y-103768780D01*
X125293432Y-103787677D01*
X125317419Y-103790234D01*
X125343096Y-103781327D01*
X125373635Y-103757429D01*
X125405016Y-103722767D01*
X125433217Y-103681573D01*
X125448244Y-103652617D01*
X125462805Y-103614245D01*
X125480400Y-103558293D01*
X125500265Y-103488019D01*
X125521639Y-103406674D01*
X125543757Y-103317514D01*
X125565858Y-103223793D01*
X125587177Y-103128764D01*
X125606952Y-103035683D01*
X125624420Y-102947803D01*
X125638817Y-102868378D01*
X125649382Y-102800664D01*
X125651194Y-102787045D01*
X125658296Y-102731459D01*
X126042352Y-102731459D01*
X126426407Y-102731459D01*
X126376095Y-102866453D01*
X126354582Y-102923282D01*
X126327710Y-102992913D01*
X126298134Y-103068548D01*
X126268504Y-103143389D01*
X126251139Y-103186732D01*
X126214256Y-103279637D01*
X126185309Y-103355984D01*
X126163476Y-103418497D01*
X126147931Y-103469894D01*
X126137850Y-103512898D01*
X126132409Y-103550229D01*
X126130783Y-103583990D01*
X126134220Y-103641927D01*
X126145536Y-103683437D01*
X126165949Y-103712198D01*
X126176055Y-103720345D01*
X126214740Y-103735877D01*
X126256420Y-103731354D01*
X126300050Y-103707509D01*
X126344585Y-103665073D01*
X126388980Y-103604777D01*
X126421494Y-103548395D01*
X126456137Y-103477011D01*
X126493949Y-103389918D01*
X126533161Y-103291999D01*
X126572004Y-103188135D01*
X126608709Y-103083211D01*
X126641507Y-102982107D01*
X126668630Y-102889708D01*
X126687686Y-102813721D01*
X126705788Y-102731873D01*
X127191710Y-102729019D01*
X127677632Y-102726165D01*
X127722046Y-102837336D01*
X127759046Y-102923922D01*
X127804818Y-103021609D01*
X127856115Y-103124064D01*
X127909686Y-103224958D01*
X127962284Y-103317957D01*
X128002832Y-103384551D01*
X128086800Y-103510521D01*
X128165675Y-103616405D01*
X128239393Y-103702139D01*
X128307888Y-103767657D01*
X128371094Y-103812894D01*
X128428944Y-103837786D01*
X128466905Y-103843073D01*
X128466905Y-103843073D01*
D12*
X110908000Y-104600000D03*
D13*
X113448000Y-104600000D03*
D14*
X90969000Y-117700000D03*
X90969000Y-120240000D03*
X88429000Y-117700000D03*
X88429000Y-120240000D03*
X85889000Y-117700000D03*
D15*
X85889000Y-120240000D03*
D16*
X98462000Y-96774000D03*
X103342000Y-96774000D03*
D17*
X83476000Y-91760000D03*
D18*
X83476000Y-89760000D03*
D17*
X112432000Y-96650000D03*
D18*
X112432000Y-98650000D03*
D19*
X90461000Y-113465000D03*
X90461000Y-107965000D03*
X90461000Y-101273000D03*
X90461000Y-95773000D03*
D20*
X122084000Y-117830000D03*
X122084000Y-92430000D03*
D21*
X119544000Y-99540000D03*
D22*
X119544000Y-102330000D03*
X119544000Y-105000000D03*
X119544000Y-107800000D03*
X119544000Y-110590000D03*
X122084000Y-100940000D03*
X122084000Y-103730000D03*
X122084000Y-106400000D03*
X122084000Y-109190000D03*
D23*
X85200000Y-107200000D03*
X85200000Y-102800000D03*
D15*
X102399000Y-120240000D03*
D14*
X102399000Y-117700000D03*
X104939000Y-120240000D03*
X104939000Y-117700000D03*
X107479000Y-120240000D03*
X107479000Y-117700000D03*
X110019000Y-120240000D03*
X110019000Y-117700000D03*
X112559000Y-120240000D03*
X112559000Y-117700000D03*
D12*
X108622000Y-87982000D03*
X111162000Y-87982000D03*
D13*
X113702000Y-87982000D03*
D24*
X107962000Y-92554000D03*
X111162000Y-92554000D03*
D25*
X114362000Y-92554000D03*
D26*
X106300000Y-104600000D03*
X108200000Y-104600000D03*
D27*
X103800000Y-106800000D03*
X103800000Y-104900000D03*
D26*
X102358000Y-94687600D03*
X104258000Y-94687600D03*
X97512000Y-94687600D03*
X99412000Y-94687600D03*
D27*
X101600000Y-104300000D03*
X101600000Y-102400000D03*
D12*
X103288000Y-86966000D03*
X103288000Y-89506000D03*
D13*
X103288000Y-92046000D03*
D28*
X108452000Y-107082800D03*
X106252000Y-107082800D03*
M02*
