%FSLAX45Y45*%
G04 Gerber Fmt 4.5, Leading zero omitted, Abs format (unit mm)*
G04 Created by KiCad (PCBNEW (2017-05-12 revision b823d0b78)-makepkg) date 05/13/17 13:59:04*
%MOMM*%
%LPD*%
G01*
G04 APERTURE LIST*
%ADD10C,0.127000*%
%ADD11C,0.150000*%
%ADD12C,0.200000*%
%ADD13C,0.300000*%
G04 APERTURE END LIST*
D10*
D11*
X13000000Y-8500000D02*
X8000000Y-8500000D01*
X8000000Y-12500000D02*
X13000000Y-12500000D01*
X13000000Y-12500000D02*
X13000000Y-8500000D01*
X8000000Y-8500000D02*
X8000000Y-12500000D01*
D12*
X11384600Y-11219500D02*
X11424600Y-11259500D01*
X11424600Y-11219500D02*
X11384600Y-11259500D01*
X8131300Y-10233300D02*
G75*
G03X8131300Y-10233300I-25000J0D01*
G01*
X8131300Y-10766700D02*
G75*
G03X8131300Y-10766700I-25000J0D01*
G01*
X8159240Y-9351920D02*
G75*
G03X8159240Y-9351920I-25000J0D01*
G01*
X8245600Y-10233300D02*
G75*
G03X8245600Y-10233300I-25000J0D01*
G01*
X8245600Y-10766700D02*
G75*
G03X8245600Y-10766700I-25000J0D01*
G01*
X8664700Y-8950600D02*
G75*
G03X8664700Y-8950600I-25000J0D01*
G01*
X8664700Y-9179200D02*
G75*
G03X8664700Y-9179200I-25000J0D01*
G01*
X8702800Y-10766700D02*
G75*
G03X8702800Y-10766700I-25000J0D01*
G01*
X8715500Y-10233300D02*
G75*
G03X8715500Y-10233300I-25000J0D01*
G01*
X8817099Y-10766700D02*
G75*
G03X8817099Y-10766700I-25000J0D01*
G01*
X8817100Y-10233300D02*
G75*
G03X8817100Y-10233300I-25000J0D01*
G01*
X9071100Y-10385700D02*
G75*
G03X9071100Y-10385700I-25000J0D01*
G01*
X9071100Y-10538100D02*
G75*
G03X9071100Y-10538100I-25000J0D01*
G01*
X9535920Y-11897000D02*
G75*
G03X9535920Y-11897000I-25000J0D01*
G01*
X9551160Y-12211960D02*
G75*
G03X9551160Y-12211960I-25000J0D01*
G01*
X9688320Y-11764920D02*
G75*
G03X9688320Y-11764920I-25000J0D01*
G01*
X9731500Y-12112900D02*
G75*
G03X9731500Y-12112900I-25000J0D01*
G01*
X9747875Y-10318525D02*
G75*
G03X9747875Y-10318525I-25000J0D01*
G01*
X9840720Y-11764920D02*
G75*
G03X9840720Y-11764920I-25000J0D01*
G01*
X9957560Y-12328800D02*
G75*
G03X9957560Y-12328800I-25000J0D01*
G01*
X9972800Y-11764920D02*
G75*
G03X9972800Y-11764920I-25000J0D01*
G01*
X10134200Y-11417300D02*
G75*
G03X10134200Y-11417300I-25000J0D01*
G01*
X10252200Y-10754000D02*
G75*
G03X10252200Y-10754000I-25000J0D01*
G01*
X10277600Y-9890400D02*
G75*
G03X10277600Y-9890400I-25000J0D01*
G01*
X10315700Y-10235000D02*
G75*
G03X10315700Y-10235000I-25000J0D01*
G01*
X10318240Y-11378840D02*
G75*
G03X10318240Y-11378840I-25000J0D01*
G01*
X10394440Y-11104520D02*
G75*
G03X10394440Y-11104520I-25000J0D01*
G01*
X10424920Y-11378840D02*
G75*
G03X10424920Y-11378840I-25000J0D01*
G01*
X10506200Y-9890400D02*
G75*
G03X10506200Y-9890400I-25000J0D01*
G01*
X10531600Y-11378840D02*
G75*
G03X10531600Y-11378840I-25000J0D01*
G01*
X10566000Y-10337800D02*
G75*
G03X10566000Y-10337800I-25000J0D01*
G01*
X10673840Y-8691520D02*
G75*
G03X10673840Y-8691520I-25000J0D01*
G01*
X10684000Y-9560200D02*
G75*
G03X10684000Y-9560200I-25000J0D01*
G01*
X10760200Y-9052200D02*
G75*
G03X10760200Y-9052200I-25000J0D01*
G01*
X11153900Y-11626400D02*
G75*
G03X11153900Y-11626400I-25000J0D01*
G01*
X11480400Y-11506200D02*
G75*
G03X11480400Y-11506200I-25000J0D01*
G01*
X11537440Y-10281560D02*
G75*
G03X11537440Y-10281560I-25000J0D01*
G01*
X11537784Y-10131664D02*
G75*
G03X11537784Y-10131664I-25000J0D01*
G01*
X11760960Y-11322960D02*
G75*
G03X11760960Y-11322960I-25000J0D01*
G01*
X12858240Y-12176400D02*
G75*
G03X12858240Y-12176400I-25000J0D01*
G01*
X8347600Y-8936000D02*
X8347600Y-9016000D01*
X8307600Y-8976000D02*
X8387600Y-8976000D01*
X8347600Y-9136000D02*
X8347600Y-9216000D01*
X8307600Y-9176000D02*
X8387600Y-9176000D01*
X11243200Y-9625000D02*
X11243200Y-9705000D01*
X11203200Y-9665000D02*
X11283200Y-9665000D01*
X11243200Y-9825000D02*
X11243200Y-9905000D01*
X11203200Y-9865000D02*
X11283200Y-9865000D01*
X9846200Y-9637400D02*
X9846200Y-9717400D01*
X9806200Y-9677400D02*
X9886200Y-9677400D01*
X10334200Y-9637400D02*
X10334200Y-9717400D01*
X10294200Y-9677400D02*
X10374200Y-9677400D01*
X10824937Y-9284137D02*
X10824937Y-9226663D01*
X10767463Y-9226663D01*
X10767463Y-9284137D01*
X10824937Y-9284137D01*
X11144937Y-9284137D02*
X11144937Y-9226663D01*
X11087463Y-9226663D01*
X11087463Y-9284137D01*
X11144937Y-9284137D01*
X11464937Y-9284137D02*
X11464937Y-9226663D01*
X11407463Y-9226663D01*
X11407463Y-9284137D01*
X11464937Y-9284137D01*
X10328800Y-8746600D02*
X10378800Y-8696600D01*
X10328800Y-8646600D01*
X10278800Y-8696600D01*
X10328800Y-8746600D01*
X10328800Y-9000600D02*
X10378800Y-8950600D01*
X10328800Y-8900600D01*
X10278800Y-8950600D01*
X10328800Y-9000600D01*
X10328800Y-9254600D02*
X10378800Y-9204600D01*
X10328800Y-9154600D01*
X10278800Y-9204600D01*
X10328800Y-9254600D01*
X11090800Y-10510000D02*
X11140800Y-10460000D01*
X11090800Y-10410000D01*
X11040800Y-10460000D01*
X11090800Y-10510000D01*
X11344800Y-10510000D02*
X11394800Y-10460000D01*
X11344800Y-10410000D01*
X11294800Y-10460000D01*
X11344800Y-10510000D01*
X10862200Y-8848200D02*
X10912200Y-8798200D01*
X10862200Y-8748200D01*
X10812200Y-8798200D01*
X10862200Y-8848200D01*
X11116200Y-8848200D02*
X11166200Y-8798200D01*
X11116200Y-8748200D01*
X11066200Y-8798200D01*
X11116200Y-8848200D01*
X11370200Y-8848200D02*
X11420200Y-8798200D01*
X11370200Y-8748200D01*
X11320200Y-8798200D01*
X11370200Y-8848200D01*
X10189100Y-11719200D02*
X10290700Y-11820800D01*
X10290700Y-11719200D02*
X10189100Y-11820800D01*
X10290700Y-11770000D02*
G75*
G03X10290700Y-11770000I-50800J0D01*
G01*
X10189100Y-11973200D02*
X10290700Y-12074800D01*
X10290700Y-11973200D02*
X10189100Y-12074800D01*
X10290700Y-12024000D02*
G75*
G03X10290700Y-12024000I-50800J0D01*
G01*
X10443100Y-11719200D02*
X10544700Y-11820800D01*
X10544700Y-11719200D02*
X10443100Y-11820800D01*
X10544700Y-11770000D02*
G75*
G03X10544700Y-11770000I-50800J0D01*
G01*
X10443100Y-11973200D02*
X10544700Y-12074800D01*
X10544700Y-11973200D02*
X10443100Y-12074800D01*
X10544700Y-12024000D02*
G75*
G03X10544700Y-12024000I-50800J0D01*
G01*
X10697100Y-11719200D02*
X10798700Y-11820800D01*
X10798700Y-11719200D02*
X10697100Y-11820800D01*
X10798700Y-11770000D02*
G75*
G03X10798700Y-11770000I-50800J0D01*
G01*
X10697100Y-11973200D02*
X10798700Y-12074800D01*
X10798700Y-11973200D02*
X10697100Y-12074800D01*
X10798700Y-12024000D02*
G75*
G03X10798700Y-12024000I-50800J0D01*
G01*
X10951100Y-11719200D02*
X11052700Y-11820800D01*
X11052700Y-11719200D02*
X10951100Y-11820800D01*
X11052700Y-11770000D02*
G75*
G03X11052700Y-11770000I-50800J0D01*
G01*
X10951100Y-11973200D02*
X11052700Y-12074800D01*
X11052700Y-11973200D02*
X10951100Y-12074800D01*
X11052700Y-12024000D02*
G75*
G03X11052700Y-12024000I-50800J0D01*
G01*
X11205100Y-11719200D02*
X11306700Y-11820800D01*
X11306700Y-11719200D02*
X11205100Y-11820800D01*
X11306700Y-11770000D02*
G75*
G03X11306700Y-11770000I-50800J0D01*
G01*
X11205100Y-11973200D02*
X11306700Y-12074800D01*
X11306700Y-11973200D02*
X11205100Y-12074800D01*
X11306700Y-12024000D02*
G75*
G03X11306700Y-12024000I-50800J0D01*
G01*
X8538100Y-11719200D02*
X8639700Y-11820800D01*
X8639700Y-11719200D02*
X8538100Y-11820800D01*
X8639700Y-11770000D02*
G75*
G03X8639700Y-11770000I-50800J0D01*
G01*
X8538100Y-11973200D02*
X8639700Y-12074800D01*
X8639700Y-11973200D02*
X8538100Y-12074800D01*
X8639700Y-12024000D02*
G75*
G03X8639700Y-12024000I-50800J0D01*
G01*
X8792100Y-11719200D02*
X8893700Y-11820800D01*
X8893700Y-11719200D02*
X8792100Y-11820800D01*
X8893700Y-11770000D02*
G75*
G03X8893700Y-11770000I-50800J0D01*
G01*
X8792100Y-11973200D02*
X8893700Y-12074800D01*
X8893700Y-11973200D02*
X8792100Y-12074800D01*
X8893700Y-12024000D02*
G75*
G03X8893700Y-12024000I-50800J0D01*
G01*
X9046100Y-11719200D02*
X9147700Y-11820800D01*
X9147700Y-11719200D02*
X9046100Y-11820800D01*
X9147700Y-11770000D02*
G75*
G03X9147700Y-11770000I-50800J0D01*
G01*
X9046100Y-11973200D02*
X9147700Y-12074800D01*
X9147700Y-11973200D02*
X9046100Y-12074800D01*
X9147700Y-12024000D02*
G75*
G03X9147700Y-12024000I-50800J0D01*
G01*
X11903400Y-9903000D02*
X12005400Y-10005000D01*
X12005400Y-9903000D02*
X11903400Y-10005000D01*
X11954400Y-9903000D02*
X11954400Y-10005000D01*
X11903400Y-9954000D02*
X12005400Y-9954000D01*
X11903400Y-10182000D02*
X12005400Y-10284000D01*
X12005400Y-10182000D02*
X11903400Y-10284000D01*
X11954400Y-10182000D02*
X11954400Y-10284000D01*
X11903400Y-10233000D02*
X12005400Y-10233000D01*
X11903400Y-10449000D02*
X12005400Y-10551000D01*
X12005400Y-10449000D02*
X11903400Y-10551000D01*
X11954400Y-10449000D02*
X11954400Y-10551000D01*
X11903400Y-10500000D02*
X12005400Y-10500000D01*
X11903400Y-10729000D02*
X12005400Y-10831000D01*
X12005400Y-10729000D02*
X11903400Y-10831000D01*
X11954400Y-10729000D02*
X11954400Y-10831000D01*
X11903400Y-10780000D02*
X12005400Y-10780000D01*
X11903400Y-11008000D02*
X12005400Y-11110000D01*
X12005400Y-11008000D02*
X11903400Y-11110000D01*
X11954400Y-11008000D02*
X11954400Y-11110000D01*
X11903400Y-11059000D02*
X12005400Y-11059000D01*
X12157400Y-10043000D02*
X12259400Y-10145000D01*
X12259400Y-10043000D02*
X12157400Y-10145000D01*
X12208400Y-10043000D02*
X12208400Y-10145000D01*
X12157400Y-10094000D02*
X12259400Y-10094000D01*
X12157400Y-10322000D02*
X12259400Y-10424000D01*
X12259400Y-10322000D02*
X12157400Y-10424000D01*
X12208400Y-10322000D02*
X12208400Y-10424000D01*
X12157400Y-10373000D02*
X12259400Y-10373000D01*
X12157400Y-10589000D02*
X12259400Y-10691000D01*
X12259400Y-10589000D02*
X12157400Y-10691000D01*
X12208400Y-10589000D02*
X12208400Y-10691000D01*
X12157400Y-10640000D02*
X12259400Y-10640000D01*
X12157400Y-10868000D02*
X12259400Y-10970000D01*
X12259400Y-10868000D02*
X12157400Y-10970000D01*
X12208400Y-10868000D02*
X12208400Y-10970000D01*
X12157400Y-10919000D02*
X12259400Y-10919000D01*
X12055900Y-9090500D02*
X12360900Y-9395500D01*
X12360900Y-9090500D02*
X12055900Y-9395500D01*
X12316235Y-9350835D02*
X12316235Y-9135165D01*
X12100565Y-9135165D01*
X12100565Y-9350835D01*
X12316235Y-9350835D01*
X12055900Y-11630500D02*
X12360900Y-11935500D01*
X12360900Y-11630500D02*
X12055900Y-11935500D01*
X12316235Y-11890835D02*
X12316235Y-11675165D01*
X12100565Y-11675165D01*
X12100565Y-11890835D01*
X12316235Y-11890835D01*
X8475000Y-10235000D02*
X8565000Y-10325000D01*
X8565000Y-10235000D02*
X8475000Y-10325000D01*
X8520000Y-10325000D02*
X8565000Y-10280000D01*
X8520000Y-10235000D01*
X8475000Y-10280000D01*
X8520000Y-10325000D01*
X8475000Y-10675000D02*
X8565000Y-10765000D01*
X8565000Y-10675000D02*
X8475000Y-10765000D01*
X8520000Y-10765000D02*
X8565000Y-10720000D01*
X8520000Y-10675000D01*
X8475000Y-10720000D01*
X8520000Y-10765000D01*
D13*
X8278928Y-12973214D02*
X8278928Y-12673214D01*
X8350357Y-12673214D01*
X8393214Y-12687500D01*
X8421786Y-12716071D01*
X8436071Y-12744643D01*
X8450357Y-12801786D01*
X8450357Y-12844643D01*
X8436071Y-12901786D01*
X8421786Y-12930357D01*
X8393214Y-12958929D01*
X8350357Y-12973214D01*
X8278928Y-12973214D01*
X8578928Y-12973214D02*
X8578928Y-12773214D01*
X8578928Y-12830357D02*
X8593214Y-12801786D01*
X8607500Y-12787500D01*
X8636071Y-12773214D01*
X8664643Y-12773214D01*
X8764643Y-12973214D02*
X8764643Y-12773214D01*
X8764643Y-12673214D02*
X8750357Y-12687500D01*
X8764643Y-12701786D01*
X8778928Y-12687500D01*
X8764643Y-12673214D01*
X8764643Y-12701786D01*
X8950357Y-12973214D02*
X8921786Y-12958929D01*
X8907500Y-12930357D01*
X8907500Y-12673214D01*
X9107500Y-12973214D02*
X9078928Y-12958929D01*
X9064643Y-12930357D01*
X9064643Y-12673214D01*
X9450357Y-12973214D02*
X9450357Y-12673214D01*
X9550357Y-12887500D01*
X9650357Y-12673214D01*
X9650357Y-12973214D01*
X9921786Y-12973214D02*
X9921786Y-12816071D01*
X9907500Y-12787500D01*
X9878928Y-12773214D01*
X9821786Y-12773214D01*
X9793214Y-12787500D01*
X9921786Y-12958929D02*
X9893214Y-12973214D01*
X9821786Y-12973214D01*
X9793214Y-12958929D01*
X9778928Y-12930357D01*
X9778928Y-12901786D01*
X9793214Y-12873214D01*
X9821786Y-12858929D01*
X9893214Y-12858929D01*
X9921786Y-12844643D01*
X10064643Y-12773214D02*
X10064643Y-13073214D01*
X10064643Y-12787500D02*
X10093214Y-12773214D01*
X10150357Y-12773214D01*
X10178928Y-12787500D01*
X10193214Y-12801786D01*
X10207500Y-12830357D01*
X10207500Y-12916071D01*
X10193214Y-12944643D01*
X10178928Y-12958929D01*
X10150357Y-12973214D01*
X10093214Y-12973214D01*
X10064643Y-12958929D01*
X10336071Y-12944643D02*
X10350357Y-12958929D01*
X10336071Y-12973214D01*
X10321786Y-12958929D01*
X10336071Y-12944643D01*
X10336071Y-12973214D01*
X10336071Y-12787500D02*
X10350357Y-12801786D01*
X10336071Y-12816071D01*
X10321786Y-12801786D01*
X10336071Y-12787500D01*
X10336071Y-12816071D01*
X7952500Y-13447500D02*
X7992500Y-13487500D01*
X7992500Y-13447500D02*
X7952500Y-13487500D01*
X8336071Y-13303214D02*
X8364643Y-13303214D01*
X8393214Y-13317500D01*
X8407500Y-13331786D01*
X8421786Y-13360357D01*
X8436071Y-13417500D01*
X8436071Y-13488929D01*
X8421786Y-13546071D01*
X8407500Y-13574643D01*
X8393214Y-13588929D01*
X8364643Y-13603214D01*
X8336071Y-13603214D01*
X8307500Y-13588929D01*
X8293214Y-13574643D01*
X8278928Y-13546071D01*
X8264643Y-13488929D01*
X8264643Y-13417500D01*
X8278928Y-13360357D01*
X8293214Y-13331786D01*
X8307500Y-13317500D01*
X8336071Y-13303214D01*
X8564643Y-13574643D02*
X8578928Y-13588929D01*
X8564643Y-13603214D01*
X8550357Y-13588929D01*
X8564643Y-13574643D01*
X8564643Y-13603214D01*
X8836071Y-13403214D02*
X8836071Y-13603214D01*
X8764643Y-13288929D02*
X8693214Y-13503214D01*
X8878928Y-13503214D01*
X9050357Y-13303214D02*
X9078928Y-13303214D01*
X9107500Y-13317500D01*
X9121786Y-13331786D01*
X9136071Y-13360357D01*
X9150357Y-13417500D01*
X9150357Y-13488929D01*
X9136071Y-13546071D01*
X9121786Y-13574643D01*
X9107500Y-13588929D01*
X9078928Y-13603214D01*
X9050357Y-13603214D01*
X9021786Y-13588929D01*
X9007500Y-13574643D01*
X8993214Y-13546071D01*
X8978928Y-13488929D01*
X8978928Y-13417500D01*
X8993214Y-13360357D01*
X9007500Y-13331786D01*
X9021786Y-13317500D01*
X9050357Y-13303214D01*
X9278928Y-13603214D02*
X9278928Y-13403214D01*
X9278928Y-13431786D02*
X9293214Y-13417500D01*
X9321786Y-13403214D01*
X9364643Y-13403214D01*
X9393214Y-13417500D01*
X9407500Y-13446071D01*
X9407500Y-13603214D01*
X9407500Y-13446071D02*
X9421786Y-13417500D01*
X9450357Y-13403214D01*
X9493214Y-13403214D01*
X9521786Y-13417500D01*
X9536071Y-13446071D01*
X9536071Y-13603214D01*
X9678928Y-13603214D02*
X9678928Y-13403214D01*
X9678928Y-13431786D02*
X9693214Y-13417500D01*
X9721786Y-13403214D01*
X9764643Y-13403214D01*
X9793214Y-13417500D01*
X9807500Y-13446071D01*
X9807500Y-13603214D01*
X9807500Y-13446071D02*
X9821786Y-13417500D01*
X9850357Y-13403214D01*
X9893214Y-13403214D01*
X9921786Y-13417500D01*
X9936071Y-13446071D01*
X9936071Y-13603214D01*
X10521786Y-13288929D02*
X10264643Y-13674643D01*
X10907500Y-13303214D02*
X10936071Y-13303214D01*
X10964643Y-13317500D01*
X10978928Y-13331786D01*
X10993214Y-13360357D01*
X11007500Y-13417500D01*
X11007500Y-13488929D01*
X10993214Y-13546071D01*
X10978928Y-13574643D01*
X10964643Y-13588929D01*
X10936071Y-13603214D01*
X10907500Y-13603214D01*
X10878928Y-13588929D01*
X10864643Y-13574643D01*
X10850357Y-13546071D01*
X10836071Y-13488929D01*
X10836071Y-13417500D01*
X10850357Y-13360357D01*
X10864643Y-13331786D01*
X10878928Y-13317500D01*
X10907500Y-13303214D01*
X11136071Y-13574643D02*
X11150357Y-13588929D01*
X11136071Y-13603214D01*
X11121786Y-13588929D01*
X11136071Y-13574643D01*
X11136071Y-13603214D01*
X11336071Y-13303214D02*
X11364643Y-13303214D01*
X11393214Y-13317500D01*
X11407500Y-13331786D01*
X11421786Y-13360357D01*
X11436071Y-13417500D01*
X11436071Y-13488929D01*
X11421786Y-13546071D01*
X11407500Y-13574643D01*
X11393214Y-13588929D01*
X11364643Y-13603214D01*
X11336071Y-13603214D01*
X11307500Y-13588929D01*
X11293214Y-13574643D01*
X11278928Y-13546071D01*
X11264643Y-13488929D01*
X11264643Y-13417500D01*
X11278928Y-13360357D01*
X11293214Y-13331786D01*
X11307500Y-13317500D01*
X11336071Y-13303214D01*
X11721786Y-13603214D02*
X11550357Y-13603214D01*
X11636071Y-13603214D02*
X11636071Y-13303214D01*
X11607500Y-13346071D01*
X11578928Y-13374643D01*
X11550357Y-13388929D01*
X11978928Y-13303214D02*
X11921786Y-13303214D01*
X11893214Y-13317500D01*
X11878928Y-13331786D01*
X11850357Y-13374643D01*
X11836071Y-13431786D01*
X11836071Y-13546071D01*
X11850357Y-13574643D01*
X11864643Y-13588929D01*
X11893214Y-13603214D01*
X11950357Y-13603214D01*
X11978928Y-13588929D01*
X11993214Y-13574643D01*
X12007500Y-13546071D01*
X12007500Y-13474643D01*
X11993214Y-13446071D01*
X11978928Y-13431786D01*
X11950357Y-13417500D01*
X11893214Y-13417500D01*
X11864643Y-13431786D01*
X11850357Y-13446071D01*
X11836071Y-13474643D01*
X12121786Y-13303214D02*
X12121786Y-13360357D01*
X12236071Y-13303214D02*
X12236071Y-13360357D01*
X12678928Y-13717500D02*
X12664643Y-13703214D01*
X12636071Y-13660357D01*
X12621786Y-13631786D01*
X12607500Y-13588929D01*
X12593214Y-13517500D01*
X12593214Y-13460357D01*
X12607500Y-13388929D01*
X12621786Y-13346071D01*
X12636071Y-13317500D01*
X12664643Y-13274643D01*
X12678928Y-13260357D01*
X12950357Y-13603214D02*
X12778928Y-13603214D01*
X12864643Y-13603214D02*
X12864643Y-13303214D01*
X12836071Y-13346071D01*
X12807500Y-13374643D01*
X12778928Y-13388929D01*
X13307500Y-13603214D02*
X13307500Y-13303214D01*
X13436071Y-13603214D02*
X13436071Y-13446071D01*
X13421786Y-13417500D01*
X13393214Y-13403214D01*
X13350357Y-13403214D01*
X13321786Y-13417500D01*
X13307500Y-13431786D01*
X13621786Y-13603214D02*
X13593214Y-13588929D01*
X13578928Y-13574643D01*
X13564643Y-13546071D01*
X13564643Y-13460357D01*
X13578928Y-13431786D01*
X13593214Y-13417500D01*
X13621786Y-13403214D01*
X13664643Y-13403214D01*
X13693214Y-13417500D01*
X13707500Y-13431786D01*
X13721786Y-13460357D01*
X13721786Y-13546071D01*
X13707500Y-13574643D01*
X13693214Y-13588929D01*
X13664643Y-13603214D01*
X13621786Y-13603214D01*
X13893214Y-13603214D02*
X13864643Y-13588929D01*
X13850357Y-13560357D01*
X13850357Y-13303214D01*
X14121786Y-13588929D02*
X14093214Y-13603214D01*
X14036071Y-13603214D01*
X14007500Y-13588929D01*
X13993214Y-13560357D01*
X13993214Y-13446071D01*
X14007500Y-13417500D01*
X14036071Y-13403214D01*
X14093214Y-13403214D01*
X14121786Y-13417500D01*
X14136071Y-13446071D01*
X14136071Y-13474643D01*
X13993214Y-13503214D01*
X14236071Y-13717500D02*
X14250357Y-13703214D01*
X14278928Y-13660357D01*
X14293214Y-13631786D01*
X14307500Y-13588929D01*
X14321786Y-13517500D01*
X14321786Y-13460357D01*
X14307500Y-13388929D01*
X14293214Y-13346071D01*
X14278928Y-13317500D01*
X14250357Y-13274643D01*
X14236071Y-13260357D01*
X7992500Y-13863500D02*
G75*
G03X7992500Y-13863500I-25000J0D01*
G01*
X8336071Y-13699214D02*
X8364643Y-13699214D01*
X8393214Y-13713500D01*
X8407500Y-13727786D01*
X8421786Y-13756357D01*
X8436071Y-13813500D01*
X8436071Y-13884929D01*
X8421786Y-13942071D01*
X8407500Y-13970643D01*
X8393214Y-13984929D01*
X8364643Y-13999214D01*
X8336071Y-13999214D01*
X8307500Y-13984929D01*
X8293214Y-13970643D01*
X8278928Y-13942071D01*
X8264643Y-13884929D01*
X8264643Y-13813500D01*
X8278928Y-13756357D01*
X8293214Y-13727786D01*
X8307500Y-13713500D01*
X8336071Y-13699214D01*
X8564643Y-13970643D02*
X8578928Y-13984929D01*
X8564643Y-13999214D01*
X8550357Y-13984929D01*
X8564643Y-13970643D01*
X8564643Y-13999214D01*
X8850357Y-13699214D02*
X8707500Y-13699214D01*
X8693214Y-13842071D01*
X8707500Y-13827786D01*
X8736071Y-13813500D01*
X8807500Y-13813500D01*
X8836071Y-13827786D01*
X8850357Y-13842071D01*
X8864643Y-13870643D01*
X8864643Y-13942071D01*
X8850357Y-13970643D01*
X8836071Y-13984929D01*
X8807500Y-13999214D01*
X8736071Y-13999214D01*
X8707500Y-13984929D01*
X8693214Y-13970643D01*
X9050357Y-13699214D02*
X9078928Y-13699214D01*
X9107500Y-13713500D01*
X9121786Y-13727786D01*
X9136071Y-13756357D01*
X9150357Y-13813500D01*
X9150357Y-13884929D01*
X9136071Y-13942071D01*
X9121786Y-13970643D01*
X9107500Y-13984929D01*
X9078928Y-13999214D01*
X9050357Y-13999214D01*
X9021786Y-13984929D01*
X9007500Y-13970643D01*
X8993214Y-13942071D01*
X8978928Y-13884929D01*
X8978928Y-13813500D01*
X8993214Y-13756357D01*
X9007500Y-13727786D01*
X9021786Y-13713500D01*
X9050357Y-13699214D01*
X9278928Y-13999214D02*
X9278928Y-13799214D01*
X9278928Y-13827786D02*
X9293214Y-13813500D01*
X9321786Y-13799214D01*
X9364643Y-13799214D01*
X9393214Y-13813500D01*
X9407500Y-13842071D01*
X9407500Y-13999214D01*
X9407500Y-13842071D02*
X9421786Y-13813500D01*
X9450357Y-13799214D01*
X9493214Y-13799214D01*
X9521786Y-13813500D01*
X9536071Y-13842071D01*
X9536071Y-13999214D01*
X9678928Y-13999214D02*
X9678928Y-13799214D01*
X9678928Y-13827786D02*
X9693214Y-13813500D01*
X9721786Y-13799214D01*
X9764643Y-13799214D01*
X9793214Y-13813500D01*
X9807500Y-13842071D01*
X9807500Y-13999214D01*
X9807500Y-13842071D02*
X9821786Y-13813500D01*
X9850357Y-13799214D01*
X9893214Y-13799214D01*
X9921786Y-13813500D01*
X9936071Y-13842071D01*
X9936071Y-13999214D01*
X10521786Y-13684929D02*
X10264643Y-14070643D01*
X10907500Y-13699214D02*
X10936071Y-13699214D01*
X10964643Y-13713500D01*
X10978928Y-13727786D01*
X10993214Y-13756357D01*
X11007500Y-13813500D01*
X11007500Y-13884929D01*
X10993214Y-13942071D01*
X10978928Y-13970643D01*
X10964643Y-13984929D01*
X10936071Y-13999214D01*
X10907500Y-13999214D01*
X10878928Y-13984929D01*
X10864643Y-13970643D01*
X10850357Y-13942071D01*
X10836071Y-13884929D01*
X10836071Y-13813500D01*
X10850357Y-13756357D01*
X10864643Y-13727786D01*
X10878928Y-13713500D01*
X10907500Y-13699214D01*
X11136071Y-13970643D02*
X11150357Y-13984929D01*
X11136071Y-13999214D01*
X11121786Y-13984929D01*
X11136071Y-13970643D01*
X11136071Y-13999214D01*
X11336071Y-13699214D02*
X11364643Y-13699214D01*
X11393214Y-13713500D01*
X11407500Y-13727786D01*
X11421786Y-13756357D01*
X11436071Y-13813500D01*
X11436071Y-13884929D01*
X11421786Y-13942071D01*
X11407500Y-13970643D01*
X11393214Y-13984929D01*
X11364643Y-13999214D01*
X11336071Y-13999214D01*
X11307500Y-13984929D01*
X11293214Y-13970643D01*
X11278928Y-13942071D01*
X11264643Y-13884929D01*
X11264643Y-13813500D01*
X11278928Y-13756357D01*
X11293214Y-13727786D01*
X11307500Y-13713500D01*
X11336071Y-13699214D01*
X11550357Y-13727786D02*
X11564643Y-13713500D01*
X11593214Y-13699214D01*
X11664643Y-13699214D01*
X11693214Y-13713500D01*
X11707500Y-13727786D01*
X11721786Y-13756357D01*
X11721786Y-13784929D01*
X11707500Y-13827786D01*
X11536071Y-13999214D01*
X11721786Y-13999214D01*
X11907500Y-13699214D02*
X11936071Y-13699214D01*
X11964643Y-13713500D01*
X11978928Y-13727786D01*
X11993214Y-13756357D01*
X12007500Y-13813500D01*
X12007500Y-13884929D01*
X11993214Y-13942071D01*
X11978928Y-13970643D01*
X11964643Y-13984929D01*
X11936071Y-13999214D01*
X11907500Y-13999214D01*
X11878928Y-13984929D01*
X11864643Y-13970643D01*
X11850357Y-13942071D01*
X11836071Y-13884929D01*
X11836071Y-13813500D01*
X11850357Y-13756357D01*
X11864643Y-13727786D01*
X11878928Y-13713500D01*
X11907500Y-13699214D01*
X12121786Y-13699214D02*
X12121786Y-13756357D01*
X12236071Y-13699214D02*
X12236071Y-13756357D01*
X12678928Y-14113500D02*
X12664643Y-14099214D01*
X12636071Y-14056357D01*
X12621786Y-14027786D01*
X12607500Y-13984929D01*
X12593214Y-13913500D01*
X12593214Y-13856357D01*
X12607500Y-13784929D01*
X12621786Y-13742071D01*
X12636071Y-13713500D01*
X12664643Y-13670643D01*
X12678928Y-13656357D01*
X12921786Y-13799214D02*
X12921786Y-13999214D01*
X12850357Y-13684929D02*
X12778928Y-13899214D01*
X12964643Y-13899214D01*
X13136071Y-13699214D02*
X13164643Y-13699214D01*
X13193214Y-13713500D01*
X13207500Y-13727786D01*
X13221786Y-13756357D01*
X13236071Y-13813500D01*
X13236071Y-13884929D01*
X13221786Y-13942071D01*
X13207500Y-13970643D01*
X13193214Y-13984929D01*
X13164643Y-13999214D01*
X13136071Y-13999214D01*
X13107500Y-13984929D01*
X13093214Y-13970643D01*
X13078928Y-13942071D01*
X13064643Y-13884929D01*
X13064643Y-13813500D01*
X13078928Y-13756357D01*
X13093214Y-13727786D01*
X13107500Y-13713500D01*
X13136071Y-13699214D01*
X13593214Y-13999214D02*
X13593214Y-13699214D01*
X13721786Y-13999214D02*
X13721786Y-13842071D01*
X13707500Y-13813500D01*
X13678928Y-13799214D01*
X13636071Y-13799214D01*
X13607500Y-13813500D01*
X13593214Y-13827786D01*
X13907500Y-13999214D02*
X13878928Y-13984929D01*
X13864643Y-13970643D01*
X13850357Y-13942071D01*
X13850357Y-13856357D01*
X13864643Y-13827786D01*
X13878928Y-13813500D01*
X13907500Y-13799214D01*
X13950357Y-13799214D01*
X13978928Y-13813500D01*
X13993214Y-13827786D01*
X14007500Y-13856357D01*
X14007500Y-13942071D01*
X13993214Y-13970643D01*
X13978928Y-13984929D01*
X13950357Y-13999214D01*
X13907500Y-13999214D01*
X14178928Y-13999214D02*
X14150357Y-13984929D01*
X14136071Y-13956357D01*
X14136071Y-13699214D01*
X14407500Y-13984929D02*
X14378928Y-13999214D01*
X14321786Y-13999214D01*
X14293214Y-13984929D01*
X14278928Y-13956357D01*
X14278928Y-13842071D01*
X14293214Y-13813500D01*
X14321786Y-13799214D01*
X14378928Y-13799214D01*
X14407500Y-13813500D01*
X14421786Y-13842071D01*
X14421786Y-13870643D01*
X14278928Y-13899214D01*
X14536071Y-13984929D02*
X14564643Y-13999214D01*
X14621786Y-13999214D01*
X14650357Y-13984929D01*
X14664643Y-13956357D01*
X14664643Y-13942071D01*
X14650357Y-13913500D01*
X14621786Y-13899214D01*
X14578928Y-13899214D01*
X14550357Y-13884929D01*
X14536071Y-13856357D01*
X14536071Y-13842071D01*
X14550357Y-13813500D01*
X14578928Y-13799214D01*
X14621786Y-13799214D01*
X14650357Y-13813500D01*
X14764643Y-14113500D02*
X14778928Y-14099214D01*
X14807500Y-14056357D01*
X14821786Y-14027786D01*
X14836071Y-13984929D01*
X14850357Y-13913500D01*
X14850357Y-13856357D01*
X14836071Y-13784929D01*
X14821786Y-13742071D01*
X14807500Y-13713500D01*
X14778928Y-13670643D01*
X14764643Y-13656357D01*
X7952500Y-14219500D02*
X7952500Y-14299500D01*
X7912500Y-14259500D02*
X7992500Y-14259500D01*
X8336071Y-14095214D02*
X8364643Y-14095214D01*
X8393214Y-14109500D01*
X8407500Y-14123786D01*
X8421786Y-14152357D01*
X8436071Y-14209500D01*
X8436071Y-14280929D01*
X8421786Y-14338071D01*
X8407500Y-14366643D01*
X8393214Y-14380929D01*
X8364643Y-14395214D01*
X8336071Y-14395214D01*
X8307500Y-14380929D01*
X8293214Y-14366643D01*
X8278928Y-14338071D01*
X8264643Y-14280929D01*
X8264643Y-14209500D01*
X8278928Y-14152357D01*
X8293214Y-14123786D01*
X8307500Y-14109500D01*
X8336071Y-14095214D01*
X8564643Y-14366643D02*
X8578928Y-14380929D01*
X8564643Y-14395214D01*
X8550357Y-14380929D01*
X8564643Y-14366643D01*
X8564643Y-14395214D01*
X8750357Y-14223786D02*
X8721786Y-14209500D01*
X8707500Y-14195214D01*
X8693214Y-14166643D01*
X8693214Y-14152357D01*
X8707500Y-14123786D01*
X8721786Y-14109500D01*
X8750357Y-14095214D01*
X8807500Y-14095214D01*
X8836071Y-14109500D01*
X8850357Y-14123786D01*
X8864643Y-14152357D01*
X8864643Y-14166643D01*
X8850357Y-14195214D01*
X8836071Y-14209500D01*
X8807500Y-14223786D01*
X8750357Y-14223786D01*
X8721786Y-14238071D01*
X8707500Y-14252357D01*
X8693214Y-14280929D01*
X8693214Y-14338071D01*
X8707500Y-14366643D01*
X8721786Y-14380929D01*
X8750357Y-14395214D01*
X8807500Y-14395214D01*
X8836071Y-14380929D01*
X8850357Y-14366643D01*
X8864643Y-14338071D01*
X8864643Y-14280929D01*
X8850357Y-14252357D01*
X8836071Y-14238071D01*
X8807500Y-14223786D01*
X9050357Y-14095214D02*
X9078928Y-14095214D01*
X9107500Y-14109500D01*
X9121786Y-14123786D01*
X9136071Y-14152357D01*
X9150357Y-14209500D01*
X9150357Y-14280929D01*
X9136071Y-14338071D01*
X9121786Y-14366643D01*
X9107500Y-14380929D01*
X9078928Y-14395214D01*
X9050357Y-14395214D01*
X9021786Y-14380929D01*
X9007500Y-14366643D01*
X8993214Y-14338071D01*
X8978928Y-14280929D01*
X8978928Y-14209500D01*
X8993214Y-14152357D01*
X9007500Y-14123786D01*
X9021786Y-14109500D01*
X9050357Y-14095214D01*
X9278928Y-14395214D02*
X9278928Y-14195214D01*
X9278928Y-14223786D02*
X9293214Y-14209500D01*
X9321786Y-14195214D01*
X9364643Y-14195214D01*
X9393214Y-14209500D01*
X9407500Y-14238071D01*
X9407500Y-14395214D01*
X9407500Y-14238071D02*
X9421786Y-14209500D01*
X9450357Y-14195214D01*
X9493214Y-14195214D01*
X9521786Y-14209500D01*
X9536071Y-14238071D01*
X9536071Y-14395214D01*
X9678928Y-14395214D02*
X9678928Y-14195214D01*
X9678928Y-14223786D02*
X9693214Y-14209500D01*
X9721786Y-14195214D01*
X9764643Y-14195214D01*
X9793214Y-14209500D01*
X9807500Y-14238071D01*
X9807500Y-14395214D01*
X9807500Y-14238071D02*
X9821786Y-14209500D01*
X9850357Y-14195214D01*
X9893214Y-14195214D01*
X9921786Y-14209500D01*
X9936071Y-14238071D01*
X9936071Y-14395214D01*
X10521786Y-14080929D02*
X10264643Y-14466643D01*
X10907500Y-14095214D02*
X10936071Y-14095214D01*
X10964643Y-14109500D01*
X10978928Y-14123786D01*
X10993214Y-14152357D01*
X11007500Y-14209500D01*
X11007500Y-14280929D01*
X10993214Y-14338071D01*
X10978928Y-14366643D01*
X10964643Y-14380929D01*
X10936071Y-14395214D01*
X10907500Y-14395214D01*
X10878928Y-14380929D01*
X10864643Y-14366643D01*
X10850357Y-14338071D01*
X10836071Y-14280929D01*
X10836071Y-14209500D01*
X10850357Y-14152357D01*
X10864643Y-14123786D01*
X10878928Y-14109500D01*
X10907500Y-14095214D01*
X11136071Y-14366643D02*
X11150357Y-14380929D01*
X11136071Y-14395214D01*
X11121786Y-14380929D01*
X11136071Y-14366643D01*
X11136071Y-14395214D01*
X11336071Y-14095214D02*
X11364643Y-14095214D01*
X11393214Y-14109500D01*
X11407500Y-14123786D01*
X11421786Y-14152357D01*
X11436071Y-14209500D01*
X11436071Y-14280929D01*
X11421786Y-14338071D01*
X11407500Y-14366643D01*
X11393214Y-14380929D01*
X11364643Y-14395214D01*
X11336071Y-14395214D01*
X11307500Y-14380929D01*
X11293214Y-14366643D01*
X11278928Y-14338071D01*
X11264643Y-14280929D01*
X11264643Y-14209500D01*
X11278928Y-14152357D01*
X11293214Y-14123786D01*
X11307500Y-14109500D01*
X11336071Y-14095214D01*
X11536071Y-14095214D02*
X11721786Y-14095214D01*
X11621786Y-14209500D01*
X11664643Y-14209500D01*
X11693214Y-14223786D01*
X11707500Y-14238071D01*
X11721786Y-14266643D01*
X11721786Y-14338071D01*
X11707500Y-14366643D01*
X11693214Y-14380929D01*
X11664643Y-14395214D01*
X11578928Y-14395214D01*
X11550357Y-14380929D01*
X11536071Y-14366643D01*
X12007500Y-14395214D02*
X11836071Y-14395214D01*
X11921786Y-14395214D02*
X11921786Y-14095214D01*
X11893214Y-14138071D01*
X11864643Y-14166643D01*
X11836071Y-14180929D01*
X12121786Y-14095214D02*
X12121786Y-14152357D01*
X12236071Y-14095214D02*
X12236071Y-14152357D01*
X12678928Y-14509500D02*
X12664643Y-14495214D01*
X12636071Y-14452357D01*
X12621786Y-14423786D01*
X12607500Y-14380929D01*
X12593214Y-14309500D01*
X12593214Y-14252357D01*
X12607500Y-14180929D01*
X12621786Y-14138071D01*
X12636071Y-14109500D01*
X12664643Y-14066643D01*
X12678928Y-14052357D01*
X12921786Y-14095214D02*
X12864643Y-14095214D01*
X12836071Y-14109500D01*
X12821786Y-14123786D01*
X12793214Y-14166643D01*
X12778928Y-14223786D01*
X12778928Y-14338071D01*
X12793214Y-14366643D01*
X12807500Y-14380929D01*
X12836071Y-14395214D01*
X12893214Y-14395214D01*
X12921786Y-14380929D01*
X12936071Y-14366643D01*
X12950357Y-14338071D01*
X12950357Y-14266643D01*
X12936071Y-14238071D01*
X12921786Y-14223786D01*
X12893214Y-14209500D01*
X12836071Y-14209500D01*
X12807500Y-14223786D01*
X12793214Y-14238071D01*
X12778928Y-14266643D01*
X13307500Y-14395214D02*
X13307500Y-14095214D01*
X13436071Y-14395214D02*
X13436071Y-14238071D01*
X13421786Y-14209500D01*
X13393214Y-14195214D01*
X13350357Y-14195214D01*
X13321786Y-14209500D01*
X13307500Y-14223786D01*
X13621786Y-14395214D02*
X13593214Y-14380929D01*
X13578928Y-14366643D01*
X13564643Y-14338071D01*
X13564643Y-14252357D01*
X13578928Y-14223786D01*
X13593214Y-14209500D01*
X13621786Y-14195214D01*
X13664643Y-14195214D01*
X13693214Y-14209500D01*
X13707500Y-14223786D01*
X13721786Y-14252357D01*
X13721786Y-14338071D01*
X13707500Y-14366643D01*
X13693214Y-14380929D01*
X13664643Y-14395214D01*
X13621786Y-14395214D01*
X13893214Y-14395214D02*
X13864643Y-14380929D01*
X13850357Y-14352357D01*
X13850357Y-14095214D01*
X14121786Y-14380929D02*
X14093214Y-14395214D01*
X14036071Y-14395214D01*
X14007500Y-14380929D01*
X13993214Y-14352357D01*
X13993214Y-14238071D01*
X14007500Y-14209500D01*
X14036071Y-14195214D01*
X14093214Y-14195214D01*
X14121786Y-14209500D01*
X14136071Y-14238071D01*
X14136071Y-14266643D01*
X13993214Y-14295214D01*
X14250357Y-14380929D02*
X14278928Y-14395214D01*
X14336071Y-14395214D01*
X14364643Y-14380929D01*
X14378928Y-14352357D01*
X14378928Y-14338071D01*
X14364643Y-14309500D01*
X14336071Y-14295214D01*
X14293214Y-14295214D01*
X14264643Y-14280929D01*
X14250357Y-14252357D01*
X14250357Y-14238071D01*
X14264643Y-14209500D01*
X14293214Y-14195214D01*
X14336071Y-14195214D01*
X14364643Y-14209500D01*
X14478928Y-14509500D02*
X14493214Y-14495214D01*
X14521786Y-14452357D01*
X14536071Y-14423786D01*
X14550357Y-14380929D01*
X14564643Y-14309500D01*
X14564643Y-14252357D01*
X14550357Y-14180929D01*
X14536071Y-14138071D01*
X14521786Y-14109500D01*
X14493214Y-14066643D01*
X14478928Y-14052357D01*
X7980597Y-14684237D02*
X7980597Y-14626763D01*
X7923123Y-14626763D01*
X7923123Y-14684237D01*
X7980597Y-14684237D01*
X8336071Y-14491214D02*
X8364643Y-14491214D01*
X8393214Y-14505500D01*
X8407500Y-14519786D01*
X8421786Y-14548357D01*
X8436071Y-14605500D01*
X8436071Y-14676929D01*
X8421786Y-14734071D01*
X8407500Y-14762643D01*
X8393214Y-14776929D01*
X8364643Y-14791214D01*
X8336071Y-14791214D01*
X8307500Y-14776929D01*
X8293214Y-14762643D01*
X8278928Y-14734071D01*
X8264643Y-14676929D01*
X8264643Y-14605500D01*
X8278928Y-14548357D01*
X8293214Y-14519786D01*
X8307500Y-14505500D01*
X8336071Y-14491214D01*
X8564643Y-14762643D02*
X8578928Y-14776929D01*
X8564643Y-14791214D01*
X8550357Y-14776929D01*
X8564643Y-14762643D01*
X8564643Y-14791214D01*
X8750357Y-14619786D02*
X8721786Y-14605500D01*
X8707500Y-14591214D01*
X8693214Y-14562643D01*
X8693214Y-14548357D01*
X8707500Y-14519786D01*
X8721786Y-14505500D01*
X8750357Y-14491214D01*
X8807500Y-14491214D01*
X8836071Y-14505500D01*
X8850357Y-14519786D01*
X8864643Y-14548357D01*
X8864643Y-14562643D01*
X8850357Y-14591214D01*
X8836071Y-14605500D01*
X8807500Y-14619786D01*
X8750357Y-14619786D01*
X8721786Y-14634071D01*
X8707500Y-14648357D01*
X8693214Y-14676929D01*
X8693214Y-14734071D01*
X8707500Y-14762643D01*
X8721786Y-14776929D01*
X8750357Y-14791214D01*
X8807500Y-14791214D01*
X8836071Y-14776929D01*
X8850357Y-14762643D01*
X8864643Y-14734071D01*
X8864643Y-14676929D01*
X8850357Y-14648357D01*
X8836071Y-14634071D01*
X8807500Y-14619786D01*
X9150357Y-14791214D02*
X8978928Y-14791214D01*
X9064643Y-14791214D02*
X9064643Y-14491214D01*
X9036071Y-14534071D01*
X9007500Y-14562643D01*
X8978928Y-14576929D01*
X9278928Y-14791214D02*
X9278928Y-14591214D01*
X9278928Y-14619786D02*
X9293214Y-14605500D01*
X9321786Y-14591214D01*
X9364643Y-14591214D01*
X9393214Y-14605500D01*
X9407500Y-14634071D01*
X9407500Y-14791214D01*
X9407500Y-14634071D02*
X9421786Y-14605500D01*
X9450357Y-14591214D01*
X9493214Y-14591214D01*
X9521786Y-14605500D01*
X9536071Y-14634071D01*
X9536071Y-14791214D01*
X9678928Y-14791214D02*
X9678928Y-14591214D01*
X9678928Y-14619786D02*
X9693214Y-14605500D01*
X9721786Y-14591214D01*
X9764643Y-14591214D01*
X9793214Y-14605500D01*
X9807500Y-14634071D01*
X9807500Y-14791214D01*
X9807500Y-14634071D02*
X9821786Y-14605500D01*
X9850357Y-14591214D01*
X9893214Y-14591214D01*
X9921786Y-14605500D01*
X9936071Y-14634071D01*
X9936071Y-14791214D01*
X10521786Y-14476929D02*
X10264643Y-14862643D01*
X10907500Y-14491214D02*
X10936071Y-14491214D01*
X10964643Y-14505500D01*
X10978928Y-14519786D01*
X10993214Y-14548357D01*
X11007500Y-14605500D01*
X11007500Y-14676929D01*
X10993214Y-14734071D01*
X10978928Y-14762643D01*
X10964643Y-14776929D01*
X10936071Y-14791214D01*
X10907500Y-14791214D01*
X10878928Y-14776929D01*
X10864643Y-14762643D01*
X10850357Y-14734071D01*
X10836071Y-14676929D01*
X10836071Y-14605500D01*
X10850357Y-14548357D01*
X10864643Y-14519786D01*
X10878928Y-14505500D01*
X10907500Y-14491214D01*
X11136071Y-14762643D02*
X11150357Y-14776929D01*
X11136071Y-14791214D01*
X11121786Y-14776929D01*
X11136071Y-14762643D01*
X11136071Y-14791214D01*
X11336071Y-14491214D02*
X11364643Y-14491214D01*
X11393214Y-14505500D01*
X11407500Y-14519786D01*
X11421786Y-14548357D01*
X11436071Y-14605500D01*
X11436071Y-14676929D01*
X11421786Y-14734071D01*
X11407500Y-14762643D01*
X11393214Y-14776929D01*
X11364643Y-14791214D01*
X11336071Y-14791214D01*
X11307500Y-14776929D01*
X11293214Y-14762643D01*
X11278928Y-14734071D01*
X11264643Y-14676929D01*
X11264643Y-14605500D01*
X11278928Y-14548357D01*
X11293214Y-14519786D01*
X11307500Y-14505500D01*
X11336071Y-14491214D01*
X11536071Y-14491214D02*
X11721786Y-14491214D01*
X11621786Y-14605500D01*
X11664643Y-14605500D01*
X11693214Y-14619786D01*
X11707500Y-14634071D01*
X11721786Y-14662643D01*
X11721786Y-14734071D01*
X11707500Y-14762643D01*
X11693214Y-14776929D01*
X11664643Y-14791214D01*
X11578928Y-14791214D01*
X11550357Y-14776929D01*
X11536071Y-14762643D01*
X11836071Y-14519786D02*
X11850357Y-14505500D01*
X11878928Y-14491214D01*
X11950357Y-14491214D01*
X11978928Y-14505500D01*
X11993214Y-14519786D01*
X12007500Y-14548357D01*
X12007500Y-14576929D01*
X11993214Y-14619786D01*
X11821786Y-14791214D01*
X12007500Y-14791214D01*
X12121786Y-14491214D02*
X12121786Y-14548357D01*
X12236071Y-14491214D02*
X12236071Y-14548357D01*
X12678928Y-14905500D02*
X12664643Y-14891214D01*
X12636071Y-14848357D01*
X12621786Y-14819786D01*
X12607500Y-14776929D01*
X12593214Y-14705500D01*
X12593214Y-14648357D01*
X12607500Y-14576929D01*
X12621786Y-14534071D01*
X12636071Y-14505500D01*
X12664643Y-14462643D01*
X12678928Y-14448357D01*
X12764643Y-14491214D02*
X12950357Y-14491214D01*
X12850357Y-14605500D01*
X12893214Y-14605500D01*
X12921786Y-14619786D01*
X12936071Y-14634071D01*
X12950357Y-14662643D01*
X12950357Y-14734071D01*
X12936071Y-14762643D01*
X12921786Y-14776929D01*
X12893214Y-14791214D01*
X12807500Y-14791214D01*
X12778928Y-14776929D01*
X12764643Y-14762643D01*
X13307500Y-14791214D02*
X13307500Y-14491214D01*
X13436071Y-14791214D02*
X13436071Y-14634071D01*
X13421786Y-14605500D01*
X13393214Y-14591214D01*
X13350357Y-14591214D01*
X13321786Y-14605500D01*
X13307500Y-14619786D01*
X13621786Y-14791214D02*
X13593214Y-14776929D01*
X13578928Y-14762643D01*
X13564643Y-14734071D01*
X13564643Y-14648357D01*
X13578928Y-14619786D01*
X13593214Y-14605500D01*
X13621786Y-14591214D01*
X13664643Y-14591214D01*
X13693214Y-14605500D01*
X13707500Y-14619786D01*
X13721786Y-14648357D01*
X13721786Y-14734071D01*
X13707500Y-14762643D01*
X13693214Y-14776929D01*
X13664643Y-14791214D01*
X13621786Y-14791214D01*
X13893214Y-14791214D02*
X13864643Y-14776929D01*
X13850357Y-14748357D01*
X13850357Y-14491214D01*
X14121786Y-14776929D02*
X14093214Y-14791214D01*
X14036071Y-14791214D01*
X14007500Y-14776929D01*
X13993214Y-14748357D01*
X13993214Y-14634071D01*
X14007500Y-14605500D01*
X14036071Y-14591214D01*
X14093214Y-14591214D01*
X14121786Y-14605500D01*
X14136071Y-14634071D01*
X14136071Y-14662643D01*
X13993214Y-14691214D01*
X14250357Y-14776929D02*
X14278928Y-14791214D01*
X14336071Y-14791214D01*
X14364643Y-14776929D01*
X14378928Y-14748357D01*
X14378928Y-14734071D01*
X14364643Y-14705500D01*
X14336071Y-14691214D01*
X14293214Y-14691214D01*
X14264643Y-14676929D01*
X14250357Y-14648357D01*
X14250357Y-14634071D01*
X14264643Y-14605500D01*
X14293214Y-14591214D01*
X14336071Y-14591214D01*
X14364643Y-14605500D01*
X14478928Y-14905500D02*
X14493214Y-14891214D01*
X14521786Y-14848357D01*
X14536071Y-14819786D01*
X14550357Y-14776929D01*
X14564643Y-14705500D01*
X14564643Y-14648357D01*
X14550357Y-14576929D01*
X14536071Y-14534071D01*
X14521786Y-14505500D01*
X14493214Y-14462643D01*
X14478928Y-14448357D01*
X7942500Y-15101500D02*
X7992500Y-15051500D01*
X7942500Y-15001500D01*
X7892500Y-15051500D01*
X7942500Y-15101500D01*
X8436071Y-15187214D02*
X8264643Y-15187214D01*
X8350357Y-15187214D02*
X8350357Y-14887214D01*
X8321786Y-14930071D01*
X8293214Y-14958643D01*
X8264643Y-14972929D01*
X8564643Y-15158643D02*
X8578928Y-15172929D01*
X8564643Y-15187214D01*
X8550357Y-15172929D01*
X8564643Y-15158643D01*
X8564643Y-15187214D01*
X8764643Y-14887214D02*
X8793214Y-14887214D01*
X8821786Y-14901500D01*
X8836071Y-14915786D01*
X8850357Y-14944357D01*
X8864643Y-15001500D01*
X8864643Y-15072929D01*
X8850357Y-15130071D01*
X8836071Y-15158643D01*
X8821786Y-15172929D01*
X8793214Y-15187214D01*
X8764643Y-15187214D01*
X8736071Y-15172929D01*
X8721786Y-15158643D01*
X8707500Y-15130071D01*
X8693214Y-15072929D01*
X8693214Y-15001500D01*
X8707500Y-14944357D01*
X8721786Y-14915786D01*
X8736071Y-14901500D01*
X8764643Y-14887214D01*
X9050357Y-14887214D02*
X9078928Y-14887214D01*
X9107500Y-14901500D01*
X9121786Y-14915786D01*
X9136071Y-14944357D01*
X9150357Y-15001500D01*
X9150357Y-15072929D01*
X9136071Y-15130071D01*
X9121786Y-15158643D01*
X9107500Y-15172929D01*
X9078928Y-15187214D01*
X9050357Y-15187214D01*
X9021786Y-15172929D01*
X9007500Y-15158643D01*
X8993214Y-15130071D01*
X8978928Y-15072929D01*
X8978928Y-15001500D01*
X8993214Y-14944357D01*
X9007500Y-14915786D01*
X9021786Y-14901500D01*
X9050357Y-14887214D01*
X9278928Y-15187214D02*
X9278928Y-14987214D01*
X9278928Y-15015786D02*
X9293214Y-15001500D01*
X9321786Y-14987214D01*
X9364643Y-14987214D01*
X9393214Y-15001500D01*
X9407500Y-15030071D01*
X9407500Y-15187214D01*
X9407500Y-15030071D02*
X9421786Y-15001500D01*
X9450357Y-14987214D01*
X9493214Y-14987214D01*
X9521786Y-15001500D01*
X9536071Y-15030071D01*
X9536071Y-15187214D01*
X9678928Y-15187214D02*
X9678928Y-14987214D01*
X9678928Y-15015786D02*
X9693214Y-15001500D01*
X9721786Y-14987214D01*
X9764643Y-14987214D01*
X9793214Y-15001500D01*
X9807500Y-15030071D01*
X9807500Y-15187214D01*
X9807500Y-15030071D02*
X9821786Y-15001500D01*
X9850357Y-14987214D01*
X9893214Y-14987214D01*
X9921786Y-15001500D01*
X9936071Y-15030071D01*
X9936071Y-15187214D01*
X10521786Y-14872929D02*
X10264643Y-15258643D01*
X10907500Y-14887214D02*
X10936071Y-14887214D01*
X10964643Y-14901500D01*
X10978928Y-14915786D01*
X10993214Y-14944357D01*
X11007500Y-15001500D01*
X11007500Y-15072929D01*
X10993214Y-15130071D01*
X10978928Y-15158643D01*
X10964643Y-15172929D01*
X10936071Y-15187214D01*
X10907500Y-15187214D01*
X10878928Y-15172929D01*
X10864643Y-15158643D01*
X10850357Y-15130071D01*
X10836071Y-15072929D01*
X10836071Y-15001500D01*
X10850357Y-14944357D01*
X10864643Y-14915786D01*
X10878928Y-14901500D01*
X10907500Y-14887214D01*
X11136071Y-15158643D02*
X11150357Y-15172929D01*
X11136071Y-15187214D01*
X11121786Y-15172929D01*
X11136071Y-15158643D01*
X11136071Y-15187214D01*
X11336071Y-14887214D02*
X11364643Y-14887214D01*
X11393214Y-14901500D01*
X11407500Y-14915786D01*
X11421786Y-14944357D01*
X11436071Y-15001500D01*
X11436071Y-15072929D01*
X11421786Y-15130071D01*
X11407500Y-15158643D01*
X11393214Y-15172929D01*
X11364643Y-15187214D01*
X11336071Y-15187214D01*
X11307500Y-15172929D01*
X11293214Y-15158643D01*
X11278928Y-15130071D01*
X11264643Y-15072929D01*
X11264643Y-15001500D01*
X11278928Y-14944357D01*
X11293214Y-14915786D01*
X11307500Y-14901500D01*
X11336071Y-14887214D01*
X11536071Y-14887214D02*
X11721786Y-14887214D01*
X11621786Y-15001500D01*
X11664643Y-15001500D01*
X11693214Y-15015786D01*
X11707500Y-15030071D01*
X11721786Y-15058643D01*
X11721786Y-15130071D01*
X11707500Y-15158643D01*
X11693214Y-15172929D01*
X11664643Y-15187214D01*
X11578928Y-15187214D01*
X11550357Y-15172929D01*
X11536071Y-15158643D01*
X11864643Y-15187214D02*
X11921786Y-15187214D01*
X11950357Y-15172929D01*
X11964643Y-15158643D01*
X11993214Y-15115786D01*
X12007500Y-15058643D01*
X12007500Y-14944357D01*
X11993214Y-14915786D01*
X11978928Y-14901500D01*
X11950357Y-14887214D01*
X11893214Y-14887214D01*
X11864643Y-14901500D01*
X11850357Y-14915786D01*
X11836071Y-14944357D01*
X11836071Y-15015786D01*
X11850357Y-15044357D01*
X11864643Y-15058643D01*
X11893214Y-15072929D01*
X11950357Y-15072929D01*
X11978928Y-15058643D01*
X11993214Y-15044357D01*
X12007500Y-15015786D01*
X12121786Y-14887214D02*
X12121786Y-14944357D01*
X12236071Y-14887214D02*
X12236071Y-14944357D01*
X12678928Y-15301500D02*
X12664643Y-15287214D01*
X12636071Y-15244357D01*
X12621786Y-15215786D01*
X12607500Y-15172929D01*
X12593214Y-15101500D01*
X12593214Y-15044357D01*
X12607500Y-14972929D01*
X12621786Y-14930071D01*
X12636071Y-14901500D01*
X12664643Y-14858643D01*
X12678928Y-14844357D01*
X12836071Y-15015786D02*
X12807500Y-15001500D01*
X12793214Y-14987214D01*
X12778928Y-14958643D01*
X12778928Y-14944357D01*
X12793214Y-14915786D01*
X12807500Y-14901500D01*
X12836071Y-14887214D01*
X12893214Y-14887214D01*
X12921786Y-14901500D01*
X12936071Y-14915786D01*
X12950357Y-14944357D01*
X12950357Y-14958643D01*
X12936071Y-14987214D01*
X12921786Y-15001500D01*
X12893214Y-15015786D01*
X12836071Y-15015786D01*
X12807500Y-15030071D01*
X12793214Y-15044357D01*
X12778928Y-15072929D01*
X12778928Y-15130071D01*
X12793214Y-15158643D01*
X12807500Y-15172929D01*
X12836071Y-15187214D01*
X12893214Y-15187214D01*
X12921786Y-15172929D01*
X12936071Y-15158643D01*
X12950357Y-15130071D01*
X12950357Y-15072929D01*
X12936071Y-15044357D01*
X12921786Y-15030071D01*
X12893214Y-15015786D01*
X13307500Y-15187214D02*
X13307500Y-14887214D01*
X13436071Y-15187214D02*
X13436071Y-15030071D01*
X13421786Y-15001500D01*
X13393214Y-14987214D01*
X13350357Y-14987214D01*
X13321786Y-15001500D01*
X13307500Y-15015786D01*
X13621786Y-15187214D02*
X13593214Y-15172929D01*
X13578928Y-15158643D01*
X13564643Y-15130071D01*
X13564643Y-15044357D01*
X13578928Y-15015786D01*
X13593214Y-15001500D01*
X13621786Y-14987214D01*
X13664643Y-14987214D01*
X13693214Y-15001500D01*
X13707500Y-15015786D01*
X13721786Y-15044357D01*
X13721786Y-15130071D01*
X13707500Y-15158643D01*
X13693214Y-15172929D01*
X13664643Y-15187214D01*
X13621786Y-15187214D01*
X13893214Y-15187214D02*
X13864643Y-15172929D01*
X13850357Y-15144357D01*
X13850357Y-14887214D01*
X14121786Y-15172929D02*
X14093214Y-15187214D01*
X14036071Y-15187214D01*
X14007500Y-15172929D01*
X13993214Y-15144357D01*
X13993214Y-15030071D01*
X14007500Y-15001500D01*
X14036071Y-14987214D01*
X14093214Y-14987214D01*
X14121786Y-15001500D01*
X14136071Y-15030071D01*
X14136071Y-15058643D01*
X13993214Y-15087214D01*
X14250357Y-15172929D02*
X14278928Y-15187214D01*
X14336071Y-15187214D01*
X14364643Y-15172929D01*
X14378928Y-15144357D01*
X14378928Y-15130071D01*
X14364643Y-15101500D01*
X14336071Y-15087214D01*
X14293214Y-15087214D01*
X14264643Y-15072929D01*
X14250357Y-15044357D01*
X14250357Y-15030071D01*
X14264643Y-15001500D01*
X14293214Y-14987214D01*
X14336071Y-14987214D01*
X14364643Y-15001500D01*
X14478928Y-15301500D02*
X14493214Y-15287214D01*
X14521786Y-15244357D01*
X14536071Y-15215786D01*
X14550357Y-15172929D01*
X14564643Y-15101500D01*
X14564643Y-15044357D01*
X14550357Y-14972929D01*
X14536071Y-14930071D01*
X14521786Y-14901500D01*
X14493214Y-14858643D01*
X14478928Y-14844357D01*
X7890900Y-15396700D02*
X7992500Y-15498300D01*
X7992500Y-15396700D02*
X7890900Y-15498300D01*
X7992500Y-15447500D02*
G75*
G03X7992500Y-15447500I-50800J0D01*
G01*
X8436071Y-15583214D02*
X8264643Y-15583214D01*
X8350357Y-15583214D02*
X8350357Y-15283214D01*
X8321786Y-15326071D01*
X8293214Y-15354643D01*
X8264643Y-15368929D01*
X8564643Y-15554643D02*
X8578928Y-15568929D01*
X8564643Y-15583214D01*
X8550357Y-15568929D01*
X8564643Y-15554643D01*
X8564643Y-15583214D01*
X8764643Y-15283214D02*
X8793214Y-15283214D01*
X8821786Y-15297500D01*
X8836071Y-15311786D01*
X8850357Y-15340357D01*
X8864643Y-15397500D01*
X8864643Y-15468929D01*
X8850357Y-15526071D01*
X8836071Y-15554643D01*
X8821786Y-15568929D01*
X8793214Y-15583214D01*
X8764643Y-15583214D01*
X8736071Y-15568929D01*
X8721786Y-15554643D01*
X8707500Y-15526071D01*
X8693214Y-15468929D01*
X8693214Y-15397500D01*
X8707500Y-15340357D01*
X8721786Y-15311786D01*
X8736071Y-15297500D01*
X8764643Y-15283214D01*
X8978928Y-15311786D02*
X8993214Y-15297500D01*
X9021786Y-15283214D01*
X9093214Y-15283214D01*
X9121786Y-15297500D01*
X9136071Y-15311786D01*
X9150357Y-15340357D01*
X9150357Y-15368929D01*
X9136071Y-15411786D01*
X8964643Y-15583214D01*
X9150357Y-15583214D01*
X9278928Y-15583214D02*
X9278928Y-15383214D01*
X9278928Y-15411786D02*
X9293214Y-15397500D01*
X9321786Y-15383214D01*
X9364643Y-15383214D01*
X9393214Y-15397500D01*
X9407500Y-15426071D01*
X9407500Y-15583214D01*
X9407500Y-15426071D02*
X9421786Y-15397500D01*
X9450357Y-15383214D01*
X9493214Y-15383214D01*
X9521786Y-15397500D01*
X9536071Y-15426071D01*
X9536071Y-15583214D01*
X9678928Y-15583214D02*
X9678928Y-15383214D01*
X9678928Y-15411786D02*
X9693214Y-15397500D01*
X9721786Y-15383214D01*
X9764643Y-15383214D01*
X9793214Y-15397500D01*
X9807500Y-15426071D01*
X9807500Y-15583214D01*
X9807500Y-15426071D02*
X9821786Y-15397500D01*
X9850357Y-15383214D01*
X9893214Y-15383214D01*
X9921786Y-15397500D01*
X9936071Y-15426071D01*
X9936071Y-15583214D01*
X10521786Y-15268929D02*
X10264643Y-15654643D01*
X10907500Y-15283214D02*
X10936071Y-15283214D01*
X10964643Y-15297500D01*
X10978928Y-15311786D01*
X10993214Y-15340357D01*
X11007500Y-15397500D01*
X11007500Y-15468929D01*
X10993214Y-15526071D01*
X10978928Y-15554643D01*
X10964643Y-15568929D01*
X10936071Y-15583214D01*
X10907500Y-15583214D01*
X10878928Y-15568929D01*
X10864643Y-15554643D01*
X10850357Y-15526071D01*
X10836071Y-15468929D01*
X10836071Y-15397500D01*
X10850357Y-15340357D01*
X10864643Y-15311786D01*
X10878928Y-15297500D01*
X10907500Y-15283214D01*
X11136071Y-15554643D02*
X11150357Y-15568929D01*
X11136071Y-15583214D01*
X11121786Y-15568929D01*
X11136071Y-15554643D01*
X11136071Y-15583214D01*
X11336071Y-15283214D02*
X11364643Y-15283214D01*
X11393214Y-15297500D01*
X11407500Y-15311786D01*
X11421786Y-15340357D01*
X11436071Y-15397500D01*
X11436071Y-15468929D01*
X11421786Y-15526071D01*
X11407500Y-15554643D01*
X11393214Y-15568929D01*
X11364643Y-15583214D01*
X11336071Y-15583214D01*
X11307500Y-15568929D01*
X11293214Y-15554643D01*
X11278928Y-15526071D01*
X11264643Y-15468929D01*
X11264643Y-15397500D01*
X11278928Y-15340357D01*
X11293214Y-15311786D01*
X11307500Y-15297500D01*
X11336071Y-15283214D01*
X11693214Y-15383214D02*
X11693214Y-15583214D01*
X11621786Y-15268929D02*
X11550357Y-15483214D01*
X11736071Y-15483214D01*
X11907500Y-15283214D02*
X11936071Y-15283214D01*
X11964643Y-15297500D01*
X11978928Y-15311786D01*
X11993214Y-15340357D01*
X12007500Y-15397500D01*
X12007500Y-15468929D01*
X11993214Y-15526071D01*
X11978928Y-15554643D01*
X11964643Y-15568929D01*
X11936071Y-15583214D01*
X11907500Y-15583214D01*
X11878928Y-15568929D01*
X11864643Y-15554643D01*
X11850357Y-15526071D01*
X11836071Y-15468929D01*
X11836071Y-15397500D01*
X11850357Y-15340357D01*
X11864643Y-15311786D01*
X11878928Y-15297500D01*
X11907500Y-15283214D01*
X12121786Y-15283214D02*
X12121786Y-15340357D01*
X12236071Y-15283214D02*
X12236071Y-15340357D01*
X12678928Y-15697500D02*
X12664643Y-15683214D01*
X12636071Y-15640357D01*
X12621786Y-15611786D01*
X12607500Y-15568929D01*
X12593214Y-15497500D01*
X12593214Y-15440357D01*
X12607500Y-15368929D01*
X12621786Y-15326071D01*
X12636071Y-15297500D01*
X12664643Y-15254643D01*
X12678928Y-15240357D01*
X12950357Y-15583214D02*
X12778928Y-15583214D01*
X12864643Y-15583214D02*
X12864643Y-15283214D01*
X12836071Y-15326071D01*
X12807500Y-15354643D01*
X12778928Y-15368929D01*
X13207500Y-15283214D02*
X13150357Y-15283214D01*
X13121786Y-15297500D01*
X13107500Y-15311786D01*
X13078928Y-15354643D01*
X13064643Y-15411786D01*
X13064643Y-15526071D01*
X13078928Y-15554643D01*
X13093214Y-15568929D01*
X13121786Y-15583214D01*
X13178928Y-15583214D01*
X13207500Y-15568929D01*
X13221786Y-15554643D01*
X13236071Y-15526071D01*
X13236071Y-15454643D01*
X13221786Y-15426071D01*
X13207500Y-15411786D01*
X13178928Y-15397500D01*
X13121786Y-15397500D01*
X13093214Y-15411786D01*
X13078928Y-15426071D01*
X13064643Y-15454643D01*
X13593214Y-15583214D02*
X13593214Y-15283214D01*
X13721786Y-15583214D02*
X13721786Y-15426071D01*
X13707500Y-15397500D01*
X13678928Y-15383214D01*
X13636071Y-15383214D01*
X13607500Y-15397500D01*
X13593214Y-15411786D01*
X13907500Y-15583214D02*
X13878928Y-15568929D01*
X13864643Y-15554643D01*
X13850357Y-15526071D01*
X13850357Y-15440357D01*
X13864643Y-15411786D01*
X13878928Y-15397500D01*
X13907500Y-15383214D01*
X13950357Y-15383214D01*
X13978928Y-15397500D01*
X13993214Y-15411786D01*
X14007500Y-15440357D01*
X14007500Y-15526071D01*
X13993214Y-15554643D01*
X13978928Y-15568929D01*
X13950357Y-15583214D01*
X13907500Y-15583214D01*
X14178928Y-15583214D02*
X14150357Y-15568929D01*
X14136071Y-15540357D01*
X14136071Y-15283214D01*
X14407500Y-15568929D02*
X14378928Y-15583214D01*
X14321786Y-15583214D01*
X14293214Y-15568929D01*
X14278928Y-15540357D01*
X14278928Y-15426071D01*
X14293214Y-15397500D01*
X14321786Y-15383214D01*
X14378928Y-15383214D01*
X14407500Y-15397500D01*
X14421786Y-15426071D01*
X14421786Y-15454643D01*
X14278928Y-15483214D01*
X14536071Y-15568929D02*
X14564643Y-15583214D01*
X14621786Y-15583214D01*
X14650357Y-15568929D01*
X14664643Y-15540357D01*
X14664643Y-15526071D01*
X14650357Y-15497500D01*
X14621786Y-15483214D01*
X14578928Y-15483214D01*
X14550357Y-15468929D01*
X14536071Y-15440357D01*
X14536071Y-15426071D01*
X14550357Y-15397500D01*
X14578928Y-15383214D01*
X14621786Y-15383214D01*
X14650357Y-15397500D01*
X14764643Y-15697500D02*
X14778928Y-15683214D01*
X14807500Y-15640357D01*
X14821786Y-15611786D01*
X14836071Y-15568929D01*
X14850357Y-15497500D01*
X14850357Y-15440357D01*
X14836071Y-15368929D01*
X14821786Y-15326071D01*
X14807500Y-15297500D01*
X14778928Y-15254643D01*
X14764643Y-15240357D01*
X7890500Y-15792500D02*
X7992500Y-15894500D01*
X7992500Y-15792500D02*
X7890500Y-15894500D01*
X7941500Y-15792500D02*
X7941500Y-15894500D01*
X7890500Y-15843500D02*
X7992500Y-15843500D01*
X8436071Y-15979214D02*
X8264643Y-15979214D01*
X8350357Y-15979214D02*
X8350357Y-15679214D01*
X8321786Y-15722071D01*
X8293214Y-15750643D01*
X8264643Y-15764929D01*
X8564643Y-15950643D02*
X8578928Y-15964929D01*
X8564643Y-15979214D01*
X8550357Y-15964929D01*
X8564643Y-15950643D01*
X8564643Y-15979214D01*
X8764643Y-15679214D02*
X8793214Y-15679214D01*
X8821786Y-15693500D01*
X8836071Y-15707786D01*
X8850357Y-15736357D01*
X8864643Y-15793500D01*
X8864643Y-15864929D01*
X8850357Y-15922071D01*
X8836071Y-15950643D01*
X8821786Y-15964929D01*
X8793214Y-15979214D01*
X8764643Y-15979214D01*
X8736071Y-15964929D01*
X8721786Y-15950643D01*
X8707500Y-15922071D01*
X8693214Y-15864929D01*
X8693214Y-15793500D01*
X8707500Y-15736357D01*
X8721786Y-15707786D01*
X8736071Y-15693500D01*
X8764643Y-15679214D01*
X8978928Y-15707786D02*
X8993214Y-15693500D01*
X9021786Y-15679214D01*
X9093214Y-15679214D01*
X9121786Y-15693500D01*
X9136071Y-15707786D01*
X9150357Y-15736357D01*
X9150357Y-15764929D01*
X9136071Y-15807786D01*
X8964643Y-15979214D01*
X9150357Y-15979214D01*
X9278928Y-15979214D02*
X9278928Y-15779214D01*
X9278928Y-15807786D02*
X9293214Y-15793500D01*
X9321786Y-15779214D01*
X9364643Y-15779214D01*
X9393214Y-15793500D01*
X9407500Y-15822071D01*
X9407500Y-15979214D01*
X9407500Y-15822071D02*
X9421786Y-15793500D01*
X9450357Y-15779214D01*
X9493214Y-15779214D01*
X9521786Y-15793500D01*
X9536071Y-15822071D01*
X9536071Y-15979214D01*
X9678928Y-15979214D02*
X9678928Y-15779214D01*
X9678928Y-15807786D02*
X9693214Y-15793500D01*
X9721786Y-15779214D01*
X9764643Y-15779214D01*
X9793214Y-15793500D01*
X9807500Y-15822071D01*
X9807500Y-15979214D01*
X9807500Y-15822071D02*
X9821786Y-15793500D01*
X9850357Y-15779214D01*
X9893214Y-15779214D01*
X9921786Y-15793500D01*
X9936071Y-15822071D01*
X9936071Y-15979214D01*
X10521786Y-15664929D02*
X10264643Y-16050643D01*
X10907500Y-15679214D02*
X10936071Y-15679214D01*
X10964643Y-15693500D01*
X10978928Y-15707786D01*
X10993214Y-15736357D01*
X11007500Y-15793500D01*
X11007500Y-15864929D01*
X10993214Y-15922071D01*
X10978928Y-15950643D01*
X10964643Y-15964929D01*
X10936071Y-15979214D01*
X10907500Y-15979214D01*
X10878928Y-15964929D01*
X10864643Y-15950643D01*
X10850357Y-15922071D01*
X10836071Y-15864929D01*
X10836071Y-15793500D01*
X10850357Y-15736357D01*
X10864643Y-15707786D01*
X10878928Y-15693500D01*
X10907500Y-15679214D01*
X11136071Y-15950643D02*
X11150357Y-15964929D01*
X11136071Y-15979214D01*
X11121786Y-15964929D01*
X11136071Y-15950643D01*
X11136071Y-15979214D01*
X11336071Y-15679214D02*
X11364643Y-15679214D01*
X11393214Y-15693500D01*
X11407500Y-15707786D01*
X11421786Y-15736357D01*
X11436071Y-15793500D01*
X11436071Y-15864929D01*
X11421786Y-15922071D01*
X11407500Y-15950643D01*
X11393214Y-15964929D01*
X11364643Y-15979214D01*
X11336071Y-15979214D01*
X11307500Y-15964929D01*
X11293214Y-15950643D01*
X11278928Y-15922071D01*
X11264643Y-15864929D01*
X11264643Y-15793500D01*
X11278928Y-15736357D01*
X11293214Y-15707786D01*
X11307500Y-15693500D01*
X11336071Y-15679214D01*
X11693214Y-15779214D02*
X11693214Y-15979214D01*
X11621786Y-15664929D02*
X11550357Y-15879214D01*
X11736071Y-15879214D01*
X11907500Y-15679214D02*
X11936071Y-15679214D01*
X11964643Y-15693500D01*
X11978928Y-15707786D01*
X11993214Y-15736357D01*
X12007500Y-15793500D01*
X12007500Y-15864929D01*
X11993214Y-15922071D01*
X11978928Y-15950643D01*
X11964643Y-15964929D01*
X11936071Y-15979214D01*
X11907500Y-15979214D01*
X11878928Y-15964929D01*
X11864643Y-15950643D01*
X11850357Y-15922071D01*
X11836071Y-15864929D01*
X11836071Y-15793500D01*
X11850357Y-15736357D01*
X11864643Y-15707786D01*
X11878928Y-15693500D01*
X11907500Y-15679214D01*
X12121786Y-15679214D02*
X12121786Y-15736357D01*
X12236071Y-15679214D02*
X12236071Y-15736357D01*
X12678928Y-16093500D02*
X12664643Y-16079214D01*
X12636071Y-16036357D01*
X12621786Y-16007786D01*
X12607500Y-15964929D01*
X12593214Y-15893500D01*
X12593214Y-15836357D01*
X12607500Y-15764929D01*
X12621786Y-15722071D01*
X12636071Y-15693500D01*
X12664643Y-15650643D01*
X12678928Y-15636357D01*
X12807500Y-15979214D02*
X12864643Y-15979214D01*
X12893214Y-15964929D01*
X12907500Y-15950643D01*
X12936071Y-15907786D01*
X12950357Y-15850643D01*
X12950357Y-15736357D01*
X12936071Y-15707786D01*
X12921786Y-15693500D01*
X12893214Y-15679214D01*
X12836071Y-15679214D01*
X12807500Y-15693500D01*
X12793214Y-15707786D01*
X12778928Y-15736357D01*
X12778928Y-15807786D01*
X12793214Y-15836357D01*
X12807500Y-15850643D01*
X12836071Y-15864929D01*
X12893214Y-15864929D01*
X12921786Y-15850643D01*
X12936071Y-15836357D01*
X12950357Y-15807786D01*
X13307500Y-15979214D02*
X13307500Y-15679214D01*
X13436071Y-15979214D02*
X13436071Y-15822071D01*
X13421786Y-15793500D01*
X13393214Y-15779214D01*
X13350357Y-15779214D01*
X13321786Y-15793500D01*
X13307500Y-15807786D01*
X13621786Y-15979214D02*
X13593214Y-15964929D01*
X13578928Y-15950643D01*
X13564643Y-15922071D01*
X13564643Y-15836357D01*
X13578928Y-15807786D01*
X13593214Y-15793500D01*
X13621786Y-15779214D01*
X13664643Y-15779214D01*
X13693214Y-15793500D01*
X13707500Y-15807786D01*
X13721786Y-15836357D01*
X13721786Y-15922071D01*
X13707500Y-15950643D01*
X13693214Y-15964929D01*
X13664643Y-15979214D01*
X13621786Y-15979214D01*
X13893214Y-15979214D02*
X13864643Y-15964929D01*
X13850357Y-15936357D01*
X13850357Y-15679214D01*
X14121786Y-15964929D02*
X14093214Y-15979214D01*
X14036071Y-15979214D01*
X14007500Y-15964929D01*
X13993214Y-15936357D01*
X13993214Y-15822071D01*
X14007500Y-15793500D01*
X14036071Y-15779214D01*
X14093214Y-15779214D01*
X14121786Y-15793500D01*
X14136071Y-15822071D01*
X14136071Y-15850643D01*
X13993214Y-15879214D01*
X14250357Y-15964929D02*
X14278928Y-15979214D01*
X14336071Y-15979214D01*
X14364643Y-15964929D01*
X14378928Y-15936357D01*
X14378928Y-15922071D01*
X14364643Y-15893500D01*
X14336071Y-15879214D01*
X14293214Y-15879214D01*
X14264643Y-15864929D01*
X14250357Y-15836357D01*
X14250357Y-15822071D01*
X14264643Y-15793500D01*
X14293214Y-15779214D01*
X14336071Y-15779214D01*
X14364643Y-15793500D01*
X14478928Y-16093500D02*
X14493214Y-16079214D01*
X14521786Y-16036357D01*
X14536071Y-16007786D01*
X14550357Y-15964929D01*
X14564643Y-15893500D01*
X14564643Y-15836357D01*
X14550357Y-15764929D01*
X14536071Y-15722071D01*
X14521786Y-15693500D01*
X14493214Y-15650643D01*
X14478928Y-15636357D01*
X7687500Y-16087000D02*
X7992500Y-16392000D01*
X7992500Y-16087000D02*
X7687500Y-16392000D01*
X7947835Y-16347335D02*
X7947835Y-16131665D01*
X7732165Y-16131665D01*
X7732165Y-16347335D01*
X7947835Y-16347335D01*
X8250357Y-16075214D02*
X8436071Y-16075214D01*
X8336071Y-16189500D01*
X8378928Y-16189500D01*
X8407500Y-16203786D01*
X8421786Y-16218071D01*
X8436071Y-16246643D01*
X8436071Y-16318071D01*
X8421786Y-16346643D01*
X8407500Y-16360929D01*
X8378928Y-16375214D01*
X8293214Y-16375214D01*
X8264643Y-16360929D01*
X8250357Y-16346643D01*
X8564643Y-16346643D02*
X8578928Y-16360929D01*
X8564643Y-16375214D01*
X8550357Y-16360929D01*
X8564643Y-16346643D01*
X8564643Y-16375214D01*
X8764643Y-16075214D02*
X8793214Y-16075214D01*
X8821786Y-16089500D01*
X8836071Y-16103786D01*
X8850357Y-16132357D01*
X8864643Y-16189500D01*
X8864643Y-16260929D01*
X8850357Y-16318071D01*
X8836071Y-16346643D01*
X8821786Y-16360929D01*
X8793214Y-16375214D01*
X8764643Y-16375214D01*
X8736071Y-16360929D01*
X8721786Y-16346643D01*
X8707500Y-16318071D01*
X8693214Y-16260929D01*
X8693214Y-16189500D01*
X8707500Y-16132357D01*
X8721786Y-16103786D01*
X8736071Y-16089500D01*
X8764643Y-16075214D01*
X9136071Y-16075214D02*
X8993214Y-16075214D01*
X8978928Y-16218071D01*
X8993214Y-16203786D01*
X9021786Y-16189500D01*
X9093214Y-16189500D01*
X9121786Y-16203786D01*
X9136071Y-16218071D01*
X9150357Y-16246643D01*
X9150357Y-16318071D01*
X9136071Y-16346643D01*
X9121786Y-16360929D01*
X9093214Y-16375214D01*
X9021786Y-16375214D01*
X8993214Y-16360929D01*
X8978928Y-16346643D01*
X9278928Y-16375214D02*
X9278928Y-16175214D01*
X9278928Y-16203786D02*
X9293214Y-16189500D01*
X9321786Y-16175214D01*
X9364643Y-16175214D01*
X9393214Y-16189500D01*
X9407500Y-16218071D01*
X9407500Y-16375214D01*
X9407500Y-16218071D02*
X9421786Y-16189500D01*
X9450357Y-16175214D01*
X9493214Y-16175214D01*
X9521786Y-16189500D01*
X9536071Y-16218071D01*
X9536071Y-16375214D01*
X9678928Y-16375214D02*
X9678928Y-16175214D01*
X9678928Y-16203786D02*
X9693214Y-16189500D01*
X9721786Y-16175214D01*
X9764643Y-16175214D01*
X9793214Y-16189500D01*
X9807500Y-16218071D01*
X9807500Y-16375214D01*
X9807500Y-16218071D02*
X9821786Y-16189500D01*
X9850357Y-16175214D01*
X9893214Y-16175214D01*
X9921786Y-16189500D01*
X9936071Y-16218071D01*
X9936071Y-16375214D01*
X10521786Y-16060929D02*
X10264643Y-16446643D01*
X10907500Y-16075214D02*
X10936071Y-16075214D01*
X10964643Y-16089500D01*
X10978928Y-16103786D01*
X10993214Y-16132357D01*
X11007500Y-16189500D01*
X11007500Y-16260929D01*
X10993214Y-16318071D01*
X10978928Y-16346643D01*
X10964643Y-16360929D01*
X10936071Y-16375214D01*
X10907500Y-16375214D01*
X10878928Y-16360929D01*
X10864643Y-16346643D01*
X10850357Y-16318071D01*
X10836071Y-16260929D01*
X10836071Y-16189500D01*
X10850357Y-16132357D01*
X10864643Y-16103786D01*
X10878928Y-16089500D01*
X10907500Y-16075214D01*
X11136071Y-16346643D02*
X11150357Y-16360929D01*
X11136071Y-16375214D01*
X11121786Y-16360929D01*
X11136071Y-16346643D01*
X11136071Y-16375214D01*
X11436071Y-16375214D02*
X11264643Y-16375214D01*
X11350357Y-16375214D02*
X11350357Y-16075214D01*
X11321786Y-16118071D01*
X11293214Y-16146643D01*
X11264643Y-16160929D01*
X11550357Y-16103786D02*
X11564643Y-16089500D01*
X11593214Y-16075214D01*
X11664643Y-16075214D01*
X11693214Y-16089500D01*
X11707500Y-16103786D01*
X11721786Y-16132357D01*
X11721786Y-16160929D01*
X11707500Y-16203786D01*
X11536071Y-16375214D01*
X11721786Y-16375214D01*
X11907500Y-16075214D02*
X11936071Y-16075214D01*
X11964643Y-16089500D01*
X11978928Y-16103786D01*
X11993214Y-16132357D01*
X12007500Y-16189500D01*
X12007500Y-16260929D01*
X11993214Y-16318071D01*
X11978928Y-16346643D01*
X11964643Y-16360929D01*
X11936071Y-16375214D01*
X11907500Y-16375214D01*
X11878928Y-16360929D01*
X11864643Y-16346643D01*
X11850357Y-16318071D01*
X11836071Y-16260929D01*
X11836071Y-16189500D01*
X11850357Y-16132357D01*
X11864643Y-16103786D01*
X11878928Y-16089500D01*
X11907500Y-16075214D01*
X12121786Y-16075214D02*
X12121786Y-16132357D01*
X12236071Y-16075214D02*
X12236071Y-16132357D01*
X12678928Y-16489500D02*
X12664643Y-16475214D01*
X12636071Y-16432357D01*
X12621786Y-16403786D01*
X12607500Y-16360929D01*
X12593214Y-16289500D01*
X12593214Y-16232357D01*
X12607500Y-16160929D01*
X12621786Y-16118071D01*
X12636071Y-16089500D01*
X12664643Y-16046643D01*
X12678928Y-16032357D01*
X12778928Y-16103786D02*
X12793214Y-16089500D01*
X12821786Y-16075214D01*
X12893214Y-16075214D01*
X12921786Y-16089500D01*
X12936071Y-16103786D01*
X12950357Y-16132357D01*
X12950357Y-16160929D01*
X12936071Y-16203786D01*
X12764643Y-16375214D01*
X12950357Y-16375214D01*
X13307500Y-16375214D02*
X13307500Y-16075214D01*
X13436071Y-16375214D02*
X13436071Y-16218071D01*
X13421786Y-16189500D01*
X13393214Y-16175214D01*
X13350357Y-16175214D01*
X13321786Y-16189500D01*
X13307500Y-16203786D01*
X13621786Y-16375214D02*
X13593214Y-16360929D01*
X13578928Y-16346643D01*
X13564643Y-16318071D01*
X13564643Y-16232357D01*
X13578928Y-16203786D01*
X13593214Y-16189500D01*
X13621786Y-16175214D01*
X13664643Y-16175214D01*
X13693214Y-16189500D01*
X13707500Y-16203786D01*
X13721786Y-16232357D01*
X13721786Y-16318071D01*
X13707500Y-16346643D01*
X13693214Y-16360929D01*
X13664643Y-16375214D01*
X13621786Y-16375214D01*
X13893214Y-16375214D02*
X13864643Y-16360929D01*
X13850357Y-16332357D01*
X13850357Y-16075214D01*
X14121786Y-16360929D02*
X14093214Y-16375214D01*
X14036071Y-16375214D01*
X14007500Y-16360929D01*
X13993214Y-16332357D01*
X13993214Y-16218071D01*
X14007500Y-16189500D01*
X14036071Y-16175214D01*
X14093214Y-16175214D01*
X14121786Y-16189500D01*
X14136071Y-16218071D01*
X14136071Y-16246643D01*
X13993214Y-16275214D01*
X14250357Y-16360929D02*
X14278928Y-16375214D01*
X14336071Y-16375214D01*
X14364643Y-16360929D01*
X14378928Y-16332357D01*
X14378928Y-16318071D01*
X14364643Y-16289500D01*
X14336071Y-16275214D01*
X14293214Y-16275214D01*
X14264643Y-16260929D01*
X14250357Y-16232357D01*
X14250357Y-16218071D01*
X14264643Y-16189500D01*
X14293214Y-16175214D01*
X14336071Y-16175214D01*
X14364643Y-16189500D01*
X14478928Y-16489500D02*
X14493214Y-16475214D01*
X14521786Y-16432357D01*
X14536071Y-16403786D01*
X14550357Y-16360929D01*
X14564643Y-16289500D01*
X14564643Y-16232357D01*
X14550357Y-16160929D01*
X14536071Y-16118071D01*
X14521786Y-16089500D01*
X14493214Y-16046643D01*
X14478928Y-16032357D01*
X7902500Y-16629500D02*
X7992500Y-16719500D01*
X7992500Y-16629500D02*
X7902500Y-16719500D01*
X7947500Y-16719500D02*
X7992500Y-16674500D01*
X7947500Y-16629500D01*
X7902500Y-16674500D01*
X7947500Y-16719500D01*
X8336071Y-16510214D02*
X8364643Y-16510214D01*
X8393214Y-16524500D01*
X8407500Y-16538786D01*
X8421786Y-16567357D01*
X8436071Y-16624500D01*
X8436071Y-16695929D01*
X8421786Y-16753071D01*
X8407500Y-16781643D01*
X8393214Y-16795929D01*
X8364643Y-16810214D01*
X8336071Y-16810214D01*
X8307500Y-16795929D01*
X8293214Y-16781643D01*
X8278928Y-16753071D01*
X8264643Y-16695929D01*
X8264643Y-16624500D01*
X8278928Y-16567357D01*
X8293214Y-16538786D01*
X8307500Y-16524500D01*
X8336071Y-16510214D01*
X8564643Y-16781643D02*
X8578928Y-16795929D01*
X8564643Y-16810214D01*
X8550357Y-16795929D01*
X8564643Y-16781643D01*
X8564643Y-16810214D01*
X8721786Y-16810214D02*
X8778928Y-16810214D01*
X8807500Y-16795929D01*
X8821786Y-16781643D01*
X8850357Y-16738786D01*
X8864643Y-16681643D01*
X8864643Y-16567357D01*
X8850357Y-16538786D01*
X8836071Y-16524500D01*
X8807500Y-16510214D01*
X8750357Y-16510214D01*
X8721786Y-16524500D01*
X8707500Y-16538786D01*
X8693214Y-16567357D01*
X8693214Y-16638786D01*
X8707500Y-16667357D01*
X8721786Y-16681643D01*
X8750357Y-16695929D01*
X8807500Y-16695929D01*
X8836071Y-16681643D01*
X8850357Y-16667357D01*
X8864643Y-16638786D01*
X9050357Y-16510214D02*
X9078928Y-16510214D01*
X9107500Y-16524500D01*
X9121786Y-16538786D01*
X9136071Y-16567357D01*
X9150357Y-16624500D01*
X9150357Y-16695929D01*
X9136071Y-16753071D01*
X9121786Y-16781643D01*
X9107500Y-16795929D01*
X9078928Y-16810214D01*
X9050357Y-16810214D01*
X9021786Y-16795929D01*
X9007500Y-16781643D01*
X8993214Y-16753071D01*
X8978928Y-16695929D01*
X8978928Y-16624500D01*
X8993214Y-16567357D01*
X9007500Y-16538786D01*
X9021786Y-16524500D01*
X9050357Y-16510214D01*
X9278928Y-16810214D02*
X9278928Y-16610214D01*
X9278928Y-16638786D02*
X9293214Y-16624500D01*
X9321786Y-16610214D01*
X9364643Y-16610214D01*
X9393214Y-16624500D01*
X9407500Y-16653071D01*
X9407500Y-16810214D01*
X9407500Y-16653071D02*
X9421786Y-16624500D01*
X9450357Y-16610214D01*
X9493214Y-16610214D01*
X9521786Y-16624500D01*
X9536071Y-16653071D01*
X9536071Y-16810214D01*
X9678928Y-16810214D02*
X9678928Y-16610214D01*
X9678928Y-16638786D02*
X9693214Y-16624500D01*
X9721786Y-16610214D01*
X9764643Y-16610214D01*
X9793214Y-16624500D01*
X9807500Y-16653071D01*
X9807500Y-16810214D01*
X9807500Y-16653071D02*
X9821786Y-16624500D01*
X9850357Y-16610214D01*
X9893214Y-16610214D01*
X9921786Y-16624500D01*
X9936071Y-16653071D01*
X9936071Y-16810214D01*
X10521786Y-16495929D02*
X10264643Y-16881643D01*
X10907500Y-16510214D02*
X10936071Y-16510214D01*
X10964643Y-16524500D01*
X10978928Y-16538786D01*
X10993214Y-16567357D01*
X11007500Y-16624500D01*
X11007500Y-16695929D01*
X10993214Y-16753071D01*
X10978928Y-16781643D01*
X10964643Y-16795929D01*
X10936071Y-16810214D01*
X10907500Y-16810214D01*
X10878928Y-16795929D01*
X10864643Y-16781643D01*
X10850357Y-16753071D01*
X10836071Y-16695929D01*
X10836071Y-16624500D01*
X10850357Y-16567357D01*
X10864643Y-16538786D01*
X10878928Y-16524500D01*
X10907500Y-16510214D01*
X11136071Y-16781643D02*
X11150357Y-16795929D01*
X11136071Y-16810214D01*
X11121786Y-16795929D01*
X11136071Y-16781643D01*
X11136071Y-16810214D01*
X11336071Y-16510214D02*
X11364643Y-16510214D01*
X11393214Y-16524500D01*
X11407500Y-16538786D01*
X11421786Y-16567357D01*
X11436071Y-16624500D01*
X11436071Y-16695929D01*
X11421786Y-16753071D01*
X11407500Y-16781643D01*
X11393214Y-16795929D01*
X11364643Y-16810214D01*
X11336071Y-16810214D01*
X11307500Y-16795929D01*
X11293214Y-16781643D01*
X11278928Y-16753071D01*
X11264643Y-16695929D01*
X11264643Y-16624500D01*
X11278928Y-16567357D01*
X11293214Y-16538786D01*
X11307500Y-16524500D01*
X11336071Y-16510214D01*
X11536071Y-16510214D02*
X11721786Y-16510214D01*
X11621786Y-16624500D01*
X11664643Y-16624500D01*
X11693214Y-16638786D01*
X11707500Y-16653071D01*
X11721786Y-16681643D01*
X11721786Y-16753071D01*
X11707500Y-16781643D01*
X11693214Y-16795929D01*
X11664643Y-16810214D01*
X11578928Y-16810214D01*
X11550357Y-16795929D01*
X11536071Y-16781643D01*
X11993214Y-16510214D02*
X11850357Y-16510214D01*
X11836071Y-16653071D01*
X11850357Y-16638786D01*
X11878928Y-16624500D01*
X11950357Y-16624500D01*
X11978928Y-16638786D01*
X11993214Y-16653071D01*
X12007500Y-16681643D01*
X12007500Y-16753071D01*
X11993214Y-16781643D01*
X11978928Y-16795929D01*
X11950357Y-16810214D01*
X11878928Y-16810214D01*
X11850357Y-16795929D01*
X11836071Y-16781643D01*
X12121786Y-16510214D02*
X12121786Y-16567357D01*
X12236071Y-16510214D02*
X12236071Y-16567357D01*
X12678928Y-16924500D02*
X12664643Y-16910214D01*
X12636071Y-16867357D01*
X12621786Y-16838786D01*
X12607500Y-16795929D01*
X12593214Y-16724500D01*
X12593214Y-16667357D01*
X12607500Y-16595929D01*
X12621786Y-16553071D01*
X12636071Y-16524500D01*
X12664643Y-16481643D01*
X12678928Y-16467357D01*
X12778928Y-16538786D02*
X12793214Y-16524500D01*
X12821786Y-16510214D01*
X12893214Y-16510214D01*
X12921786Y-16524500D01*
X12936071Y-16538786D01*
X12950357Y-16567357D01*
X12950357Y-16595929D01*
X12936071Y-16638786D01*
X12764643Y-16810214D01*
X12950357Y-16810214D01*
X13307500Y-16810214D02*
X13307500Y-16510214D01*
X13436071Y-16810214D02*
X13436071Y-16653071D01*
X13421786Y-16624500D01*
X13393214Y-16610214D01*
X13350357Y-16610214D01*
X13321786Y-16624500D01*
X13307500Y-16638786D01*
X13621786Y-16810214D02*
X13593214Y-16795929D01*
X13578928Y-16781643D01*
X13564643Y-16753071D01*
X13564643Y-16667357D01*
X13578928Y-16638786D01*
X13593214Y-16624500D01*
X13621786Y-16610214D01*
X13664643Y-16610214D01*
X13693214Y-16624500D01*
X13707500Y-16638786D01*
X13721786Y-16667357D01*
X13721786Y-16753071D01*
X13707500Y-16781643D01*
X13693214Y-16795929D01*
X13664643Y-16810214D01*
X13621786Y-16810214D01*
X13893214Y-16810214D02*
X13864643Y-16795929D01*
X13850357Y-16767357D01*
X13850357Y-16510214D01*
X14121786Y-16795929D02*
X14093214Y-16810214D01*
X14036071Y-16810214D01*
X14007500Y-16795929D01*
X13993214Y-16767357D01*
X13993214Y-16653071D01*
X14007500Y-16624500D01*
X14036071Y-16610214D01*
X14093214Y-16610214D01*
X14121786Y-16624500D01*
X14136071Y-16653071D01*
X14136071Y-16681643D01*
X13993214Y-16710214D01*
X14250357Y-16795929D02*
X14278928Y-16810214D01*
X14336071Y-16810214D01*
X14364643Y-16795929D01*
X14378928Y-16767357D01*
X14378928Y-16753071D01*
X14364643Y-16724500D01*
X14336071Y-16710214D01*
X14293214Y-16710214D01*
X14264643Y-16695929D01*
X14250357Y-16667357D01*
X14250357Y-16653071D01*
X14264643Y-16624500D01*
X14293214Y-16610214D01*
X14336071Y-16610214D01*
X14364643Y-16624500D01*
X14478928Y-16924500D02*
X14493214Y-16910214D01*
X14521786Y-16867357D01*
X14536071Y-16838786D01*
X14550357Y-16795929D01*
X14564643Y-16724500D01*
X14564643Y-16667357D01*
X14550357Y-16595929D01*
X14536071Y-16553071D01*
X14521786Y-16524500D01*
X14493214Y-16481643D01*
X14478928Y-16467357D01*
X15021786Y-16924500D02*
X15007500Y-16910214D01*
X14978928Y-16867357D01*
X14964643Y-16838786D01*
X14950357Y-16795929D01*
X14936071Y-16724500D01*
X14936071Y-16667357D01*
X14950357Y-16595929D01*
X14964643Y-16553071D01*
X14978928Y-16524500D01*
X15007500Y-16481643D01*
X15021786Y-16467357D01*
X15136071Y-16610214D02*
X15136071Y-16810214D01*
X15136071Y-16638786D02*
X15150357Y-16624500D01*
X15178928Y-16610214D01*
X15221786Y-16610214D01*
X15250357Y-16624500D01*
X15264643Y-16653071D01*
X15264643Y-16810214D01*
X15450357Y-16810214D02*
X15421786Y-16795929D01*
X15407500Y-16781643D01*
X15393214Y-16753071D01*
X15393214Y-16667357D01*
X15407500Y-16638786D01*
X15421786Y-16624500D01*
X15450357Y-16610214D01*
X15493214Y-16610214D01*
X15521786Y-16624500D01*
X15536071Y-16638786D01*
X15550357Y-16667357D01*
X15550357Y-16753071D01*
X15536071Y-16781643D01*
X15521786Y-16795929D01*
X15493214Y-16810214D01*
X15450357Y-16810214D01*
X15636071Y-16610214D02*
X15750357Y-16610214D01*
X15678928Y-16510214D02*
X15678928Y-16767357D01*
X15693214Y-16795929D01*
X15721786Y-16810214D01*
X15750357Y-16810214D01*
X16078928Y-16610214D02*
X16078928Y-16910214D01*
X16078928Y-16624500D02*
X16107500Y-16610214D01*
X16164643Y-16610214D01*
X16193214Y-16624500D01*
X16207500Y-16638786D01*
X16221786Y-16667357D01*
X16221786Y-16753071D01*
X16207500Y-16781643D01*
X16193214Y-16795929D01*
X16164643Y-16810214D01*
X16107500Y-16810214D01*
X16078928Y-16795929D01*
X16393214Y-16810214D02*
X16364643Y-16795929D01*
X16350357Y-16767357D01*
X16350357Y-16510214D01*
X16636071Y-16810214D02*
X16636071Y-16653071D01*
X16621786Y-16624500D01*
X16593214Y-16610214D01*
X16536071Y-16610214D01*
X16507500Y-16624500D01*
X16636071Y-16795929D02*
X16607500Y-16810214D01*
X16536071Y-16810214D01*
X16507500Y-16795929D01*
X16493214Y-16767357D01*
X16493214Y-16738786D01*
X16507500Y-16710214D01*
X16536071Y-16695929D01*
X16607500Y-16695929D01*
X16636071Y-16681643D01*
X16736071Y-16610214D02*
X16850357Y-16610214D01*
X16778928Y-16510214D02*
X16778928Y-16767357D01*
X16793214Y-16795929D01*
X16821786Y-16810214D01*
X16850357Y-16810214D01*
X17064643Y-16795929D02*
X17036071Y-16810214D01*
X16978928Y-16810214D01*
X16950357Y-16795929D01*
X16936071Y-16767357D01*
X16936071Y-16653071D01*
X16950357Y-16624500D01*
X16978928Y-16610214D01*
X17036071Y-16610214D01*
X17064643Y-16624500D01*
X17078928Y-16653071D01*
X17078928Y-16681643D01*
X16936071Y-16710214D01*
X17336071Y-16810214D02*
X17336071Y-16510214D01*
X17336071Y-16795929D02*
X17307500Y-16810214D01*
X17250357Y-16810214D01*
X17221786Y-16795929D01*
X17207500Y-16781643D01*
X17193214Y-16753071D01*
X17193214Y-16667357D01*
X17207500Y-16638786D01*
X17221786Y-16624500D01*
X17250357Y-16610214D01*
X17307500Y-16610214D01*
X17336071Y-16624500D01*
X17450357Y-16924500D02*
X17464643Y-16910214D01*
X17493214Y-16867357D01*
X17507500Y-16838786D01*
X17521786Y-16795929D01*
X17536071Y-16724500D01*
X17536071Y-16667357D01*
X17521786Y-16595929D01*
X17507500Y-16553071D01*
X17493214Y-16524500D01*
X17464643Y-16481643D01*
X17450357Y-16467357D01*
M02*
