G04 #@! TF.GenerationSoftware,KiCad,Pcbnew,(2017-05-12 revision b823d0b78)-makepkg*
G04 #@! TF.CreationDate,2017-05-13T13:58:34+02:00*
G04 #@! TF.ProjectId,avrIspMk2Clone,6176724973704D6B32436C6F6E652E6B,1.0*
G04 #@! TF.FileFunction,Legend,Top*
G04 #@! TF.FilePolarity,Positive*
%FSLAX46Y46*%
G04 Gerber Fmt 4.6, Leading zero omitted, Abs format (unit mm)*
G04 Created by KiCad (PCBNEW (2017-05-12 revision b823d0b78)-makepkg) date 05/13/17 13:58:34*
%MOMM*%
%LPD*%
G01*
G04 APERTURE LIST*
%ADD10C,0.100000*%
%ADD11C,0.120000*%
%ADD12C,0.150000*%
G04 APERTURE END LIST*
D10*
D11*
X114838000Y-103210000D02*
X114838000Y-104600000D01*
X113448000Y-103210000D02*
X114838000Y-103210000D01*
X112178000Y-105990000D02*
X112178000Y-103210000D01*
X109518000Y-105990000D02*
X112178000Y-105990000D01*
X109518000Y-103210000D02*
X109518000Y-105990000D01*
X112178000Y-103210000D02*
X109518000Y-103210000D01*
X80559000Y-123770000D02*
X80559000Y-114170000D01*
X96299000Y-123770000D02*
X80559000Y-123770000D01*
X96299000Y-114170000D02*
X96299000Y-123770000D01*
X80559000Y-114170000D02*
X96299000Y-114170000D01*
X104027000Y-94249000D02*
X97777000Y-94249000D01*
X104027000Y-99299000D02*
X97777000Y-99299000D01*
X97777000Y-94249000D02*
G75*
G03X97777000Y-99299000I0J-2525000D01*
G01*
X104027000Y-94249000D02*
G75*
G02X104027000Y-99299000I0J-2525000D01*
G01*
X82494600Y-88363137D02*
G75*
G03X82496000Y-93157436I981400J-2396863D01*
G01*
X84457400Y-88363137D02*
G75*
G02X84456000Y-93157436I-981400J-2396863D01*
G01*
X84457400Y-88363137D02*
G75*
G03X82496000Y-88362564I-981400J-2396863D01*
G01*
X80926000Y-90760000D02*
X86026000Y-90760000D01*
X80926000Y-90720000D02*
X82496000Y-90720000D01*
X84456000Y-90720000D02*
X86026000Y-90720000D01*
X80927000Y-90680000D02*
X82496000Y-90680000D01*
X84456000Y-90680000D02*
X86025000Y-90680000D01*
X80928000Y-90640000D02*
X82496000Y-90640000D01*
X84456000Y-90640000D02*
X86024000Y-90640000D01*
X80930000Y-90600000D02*
X82496000Y-90600000D01*
X84456000Y-90600000D02*
X86022000Y-90600000D01*
X80933000Y-90560000D02*
X82496000Y-90560000D01*
X84456000Y-90560000D02*
X86019000Y-90560000D01*
X80937000Y-90520000D02*
X82496000Y-90520000D01*
X84456000Y-90520000D02*
X86015000Y-90520000D01*
X80941000Y-90480000D02*
X82496000Y-90480000D01*
X84456000Y-90480000D02*
X86011000Y-90480000D01*
X80945000Y-90440000D02*
X82496000Y-90440000D01*
X84456000Y-90440000D02*
X86007000Y-90440000D01*
X80951000Y-90400000D02*
X82496000Y-90400000D01*
X84456000Y-90400000D02*
X86001000Y-90400000D01*
X80957000Y-90360000D02*
X82496000Y-90360000D01*
X84456000Y-90360000D02*
X85995000Y-90360000D01*
X80963000Y-90320000D02*
X82496000Y-90320000D01*
X84456000Y-90320000D02*
X85989000Y-90320000D01*
X80970000Y-90280000D02*
X82496000Y-90280000D01*
X84456000Y-90280000D02*
X85982000Y-90280000D01*
X80978000Y-90240000D02*
X82496000Y-90240000D01*
X84456000Y-90240000D02*
X85974000Y-90240000D01*
X80987000Y-90200000D02*
X82496000Y-90200000D01*
X84456000Y-90200000D02*
X85965000Y-90200000D01*
X80996000Y-90160000D02*
X82496000Y-90160000D01*
X84456000Y-90160000D02*
X85956000Y-90160000D01*
X81006000Y-90120000D02*
X82496000Y-90120000D01*
X84456000Y-90120000D02*
X85946000Y-90120000D01*
X81016000Y-90080000D02*
X82496000Y-90080000D01*
X84456000Y-90080000D02*
X85936000Y-90080000D01*
X81028000Y-90039000D02*
X82496000Y-90039000D01*
X84456000Y-90039000D02*
X85924000Y-90039000D01*
X81040000Y-89999000D02*
X82496000Y-89999000D01*
X84456000Y-89999000D02*
X85912000Y-89999000D01*
X81052000Y-89959000D02*
X82496000Y-89959000D01*
X84456000Y-89959000D02*
X85900000Y-89959000D01*
X81066000Y-89919000D02*
X82496000Y-89919000D01*
X84456000Y-89919000D02*
X85886000Y-89919000D01*
X81080000Y-89879000D02*
X82496000Y-89879000D01*
X84456000Y-89879000D02*
X85872000Y-89879000D01*
X81094000Y-89839000D02*
X82496000Y-89839000D01*
X84456000Y-89839000D02*
X85858000Y-89839000D01*
X81110000Y-89799000D02*
X82496000Y-89799000D01*
X84456000Y-89799000D02*
X85842000Y-89799000D01*
X81126000Y-89759000D02*
X82496000Y-89759000D01*
X84456000Y-89759000D02*
X85826000Y-89759000D01*
X81143000Y-89719000D02*
X82496000Y-89719000D01*
X84456000Y-89719000D02*
X85809000Y-89719000D01*
X81161000Y-89679000D02*
X82496000Y-89679000D01*
X84456000Y-89679000D02*
X85791000Y-89679000D01*
X81180000Y-89639000D02*
X82496000Y-89639000D01*
X84456000Y-89639000D02*
X85772000Y-89639000D01*
X81200000Y-89599000D02*
X82496000Y-89599000D01*
X84456000Y-89599000D02*
X85752000Y-89599000D01*
X81220000Y-89559000D02*
X82496000Y-89559000D01*
X84456000Y-89559000D02*
X85732000Y-89559000D01*
X81242000Y-89519000D02*
X82496000Y-89519000D01*
X84456000Y-89519000D02*
X85710000Y-89519000D01*
X81264000Y-89479000D02*
X82496000Y-89479000D01*
X84456000Y-89479000D02*
X85688000Y-89479000D01*
X81287000Y-89439000D02*
X82496000Y-89439000D01*
X84456000Y-89439000D02*
X85665000Y-89439000D01*
X81311000Y-89399000D02*
X82496000Y-89399000D01*
X84456000Y-89399000D02*
X85641000Y-89399000D01*
X81336000Y-89359000D02*
X82496000Y-89359000D01*
X84456000Y-89359000D02*
X85616000Y-89359000D01*
X81363000Y-89319000D02*
X82496000Y-89319000D01*
X84456000Y-89319000D02*
X85589000Y-89319000D01*
X81390000Y-89279000D02*
X82496000Y-89279000D01*
X84456000Y-89279000D02*
X85562000Y-89279000D01*
X81418000Y-89239000D02*
X82496000Y-89239000D01*
X84456000Y-89239000D02*
X85534000Y-89239000D01*
X81448000Y-89199000D02*
X82496000Y-89199000D01*
X84456000Y-89199000D02*
X85504000Y-89199000D01*
X81479000Y-89159000D02*
X82496000Y-89159000D01*
X84456000Y-89159000D02*
X85473000Y-89159000D01*
X81511000Y-89119000D02*
X82496000Y-89119000D01*
X84456000Y-89119000D02*
X85441000Y-89119000D01*
X81544000Y-89079000D02*
X82496000Y-89079000D01*
X84456000Y-89079000D02*
X85408000Y-89079000D01*
X81579000Y-89039000D02*
X82496000Y-89039000D01*
X84456000Y-89039000D02*
X85373000Y-89039000D01*
X81615000Y-88999000D02*
X82496000Y-88999000D01*
X84456000Y-88999000D02*
X85337000Y-88999000D01*
X81653000Y-88959000D02*
X82496000Y-88959000D01*
X84456000Y-88959000D02*
X85299000Y-88959000D01*
X81693000Y-88919000D02*
X82496000Y-88919000D01*
X84456000Y-88919000D02*
X85259000Y-88919000D01*
X81734000Y-88879000D02*
X82496000Y-88879000D01*
X84456000Y-88879000D02*
X85218000Y-88879000D01*
X81777000Y-88839000D02*
X82496000Y-88839000D01*
X84456000Y-88839000D02*
X85175000Y-88839000D01*
X81822000Y-88799000D02*
X82496000Y-88799000D01*
X84456000Y-88799000D02*
X85130000Y-88799000D01*
X81870000Y-88759000D02*
X85082000Y-88759000D01*
X81920000Y-88719000D02*
X85032000Y-88719000D01*
X81972000Y-88679000D02*
X84980000Y-88679000D01*
X82028000Y-88639000D02*
X84924000Y-88639000D01*
X82086000Y-88599000D02*
X84866000Y-88599000D01*
X82149000Y-88559000D02*
X84803000Y-88559000D01*
X82215000Y-88519000D02*
X84737000Y-88519000D01*
X82287000Y-88479000D02*
X84665000Y-88479000D01*
X82364000Y-88439000D02*
X84588000Y-88439000D01*
X82448000Y-88399000D02*
X84504000Y-88399000D01*
X82542000Y-88359000D02*
X84410000Y-88359000D01*
X82647000Y-88319000D02*
X84305000Y-88319000D01*
X82769000Y-88279000D02*
X84183000Y-88279000D01*
X82917000Y-88239000D02*
X84035000Y-88239000D01*
X83122000Y-88199000D02*
X83830000Y-88199000D01*
X83476000Y-93960000D02*
X83476000Y-92760000D01*
X82826000Y-93360000D02*
X84126000Y-93360000D01*
X113413400Y-100046863D02*
G75*
G03X113412000Y-95252564I-981400J2396863D01*
G01*
X111450600Y-100046863D02*
G75*
G02X111452000Y-95252564I981400J2396863D01*
G01*
X111450600Y-100046863D02*
G75*
G03X113412000Y-100047436I981400J2396863D01*
G01*
X114982000Y-97650000D02*
X109882000Y-97650000D01*
X114982000Y-97690000D02*
X113412000Y-97690000D01*
X111452000Y-97690000D02*
X109882000Y-97690000D01*
X114981000Y-97730000D02*
X113412000Y-97730000D01*
X111452000Y-97730000D02*
X109883000Y-97730000D01*
X114980000Y-97770000D02*
X113412000Y-97770000D01*
X111452000Y-97770000D02*
X109884000Y-97770000D01*
X114978000Y-97810000D02*
X113412000Y-97810000D01*
X111452000Y-97810000D02*
X109886000Y-97810000D01*
X114975000Y-97850000D02*
X113412000Y-97850000D01*
X111452000Y-97850000D02*
X109889000Y-97850000D01*
X114971000Y-97890000D02*
X113412000Y-97890000D01*
X111452000Y-97890000D02*
X109893000Y-97890000D01*
X114967000Y-97930000D02*
X113412000Y-97930000D01*
X111452000Y-97930000D02*
X109897000Y-97930000D01*
X114963000Y-97970000D02*
X113412000Y-97970000D01*
X111452000Y-97970000D02*
X109901000Y-97970000D01*
X114957000Y-98010000D02*
X113412000Y-98010000D01*
X111452000Y-98010000D02*
X109907000Y-98010000D01*
X114951000Y-98050000D02*
X113412000Y-98050000D01*
X111452000Y-98050000D02*
X109913000Y-98050000D01*
X114945000Y-98090000D02*
X113412000Y-98090000D01*
X111452000Y-98090000D02*
X109919000Y-98090000D01*
X114938000Y-98130000D02*
X113412000Y-98130000D01*
X111452000Y-98130000D02*
X109926000Y-98130000D01*
X114930000Y-98170000D02*
X113412000Y-98170000D01*
X111452000Y-98170000D02*
X109934000Y-98170000D01*
X114921000Y-98210000D02*
X113412000Y-98210000D01*
X111452000Y-98210000D02*
X109943000Y-98210000D01*
X114912000Y-98250000D02*
X113412000Y-98250000D01*
X111452000Y-98250000D02*
X109952000Y-98250000D01*
X114902000Y-98290000D02*
X113412000Y-98290000D01*
X111452000Y-98290000D02*
X109962000Y-98290000D01*
X114892000Y-98330000D02*
X113412000Y-98330000D01*
X111452000Y-98330000D02*
X109972000Y-98330000D01*
X114880000Y-98371000D02*
X113412000Y-98371000D01*
X111452000Y-98371000D02*
X109984000Y-98371000D01*
X114868000Y-98411000D02*
X113412000Y-98411000D01*
X111452000Y-98411000D02*
X109996000Y-98411000D01*
X114856000Y-98451000D02*
X113412000Y-98451000D01*
X111452000Y-98451000D02*
X110008000Y-98451000D01*
X114842000Y-98491000D02*
X113412000Y-98491000D01*
X111452000Y-98491000D02*
X110022000Y-98491000D01*
X114828000Y-98531000D02*
X113412000Y-98531000D01*
X111452000Y-98531000D02*
X110036000Y-98531000D01*
X114814000Y-98571000D02*
X113412000Y-98571000D01*
X111452000Y-98571000D02*
X110050000Y-98571000D01*
X114798000Y-98611000D02*
X113412000Y-98611000D01*
X111452000Y-98611000D02*
X110066000Y-98611000D01*
X114782000Y-98651000D02*
X113412000Y-98651000D01*
X111452000Y-98651000D02*
X110082000Y-98651000D01*
X114765000Y-98691000D02*
X113412000Y-98691000D01*
X111452000Y-98691000D02*
X110099000Y-98691000D01*
X114747000Y-98731000D02*
X113412000Y-98731000D01*
X111452000Y-98731000D02*
X110117000Y-98731000D01*
X114728000Y-98771000D02*
X113412000Y-98771000D01*
X111452000Y-98771000D02*
X110136000Y-98771000D01*
X114708000Y-98811000D02*
X113412000Y-98811000D01*
X111452000Y-98811000D02*
X110156000Y-98811000D01*
X114688000Y-98851000D02*
X113412000Y-98851000D01*
X111452000Y-98851000D02*
X110176000Y-98851000D01*
X114666000Y-98891000D02*
X113412000Y-98891000D01*
X111452000Y-98891000D02*
X110198000Y-98891000D01*
X114644000Y-98931000D02*
X113412000Y-98931000D01*
X111452000Y-98931000D02*
X110220000Y-98931000D01*
X114621000Y-98971000D02*
X113412000Y-98971000D01*
X111452000Y-98971000D02*
X110243000Y-98971000D01*
X114597000Y-99011000D02*
X113412000Y-99011000D01*
X111452000Y-99011000D02*
X110267000Y-99011000D01*
X114572000Y-99051000D02*
X113412000Y-99051000D01*
X111452000Y-99051000D02*
X110292000Y-99051000D01*
X114545000Y-99091000D02*
X113412000Y-99091000D01*
X111452000Y-99091000D02*
X110319000Y-99091000D01*
X114518000Y-99131000D02*
X113412000Y-99131000D01*
X111452000Y-99131000D02*
X110346000Y-99131000D01*
X114490000Y-99171000D02*
X113412000Y-99171000D01*
X111452000Y-99171000D02*
X110374000Y-99171000D01*
X114460000Y-99211000D02*
X113412000Y-99211000D01*
X111452000Y-99211000D02*
X110404000Y-99211000D01*
X114429000Y-99251000D02*
X113412000Y-99251000D01*
X111452000Y-99251000D02*
X110435000Y-99251000D01*
X114397000Y-99291000D02*
X113412000Y-99291000D01*
X111452000Y-99291000D02*
X110467000Y-99291000D01*
X114364000Y-99331000D02*
X113412000Y-99331000D01*
X111452000Y-99331000D02*
X110500000Y-99331000D01*
X114329000Y-99371000D02*
X113412000Y-99371000D01*
X111452000Y-99371000D02*
X110535000Y-99371000D01*
X114293000Y-99411000D02*
X113412000Y-99411000D01*
X111452000Y-99411000D02*
X110571000Y-99411000D01*
X114255000Y-99451000D02*
X113412000Y-99451000D01*
X111452000Y-99451000D02*
X110609000Y-99451000D01*
X114215000Y-99491000D02*
X113412000Y-99491000D01*
X111452000Y-99491000D02*
X110649000Y-99491000D01*
X114174000Y-99531000D02*
X113412000Y-99531000D01*
X111452000Y-99531000D02*
X110690000Y-99531000D01*
X114131000Y-99571000D02*
X113412000Y-99571000D01*
X111452000Y-99571000D02*
X110733000Y-99571000D01*
X114086000Y-99611000D02*
X113412000Y-99611000D01*
X111452000Y-99611000D02*
X110778000Y-99611000D01*
X114038000Y-99651000D02*
X110826000Y-99651000D01*
X113988000Y-99691000D02*
X110876000Y-99691000D01*
X113936000Y-99731000D02*
X110928000Y-99731000D01*
X113880000Y-99771000D02*
X110984000Y-99771000D01*
X113822000Y-99811000D02*
X111042000Y-99811000D01*
X113759000Y-99851000D02*
X111105000Y-99851000D01*
X113693000Y-99891000D02*
X111171000Y-99891000D01*
X113621000Y-99931000D02*
X111243000Y-99931000D01*
X113544000Y-99971000D02*
X111320000Y-99971000D01*
X113460000Y-100011000D02*
X111404000Y-100011000D01*
X113366000Y-100051000D02*
X111498000Y-100051000D01*
X113261000Y-100091000D02*
X111603000Y-100091000D01*
X113139000Y-100131000D02*
X111725000Y-100131000D01*
X112991000Y-100171000D02*
X111873000Y-100171000D01*
X112786000Y-100211000D02*
X112078000Y-100211000D01*
X112432000Y-94450000D02*
X112432000Y-95650000D01*
X113082000Y-95050000D02*
X111782000Y-95050000D01*
X80660000Y-111920000D02*
X80660000Y-113320000D01*
X80660000Y-113320000D02*
X83460000Y-113320000D01*
X80660000Y-111920000D02*
X83460000Y-111920000D01*
X80660000Y-96680000D02*
X83460000Y-96680000D01*
X80660000Y-98080000D02*
X83460000Y-98080000D01*
X80660000Y-96680000D02*
X80660000Y-98080000D01*
X80660000Y-94140000D02*
X80660000Y-95540000D01*
X80660000Y-95540000D02*
X83460000Y-95540000D01*
X80660000Y-94140000D02*
X83460000Y-94140000D01*
X129048000Y-123988000D02*
X126248000Y-123988000D01*
X129048000Y-122588000D02*
X126248000Y-122588000D01*
X129048000Y-123988000D02*
X129048000Y-122588000D01*
D12*
X106688000Y-101375000D02*
X106688000Y-99950000D01*
X106913000Y-108625000D02*
X106913000Y-108299999D01*
X99663000Y-108625000D02*
X99663000Y-108299999D01*
X99663000Y-101375000D02*
X99663000Y-101700001D01*
X106913000Y-101375000D02*
X106913000Y-101700001D01*
X99663000Y-101375000D02*
X99988001Y-101375000D01*
X99663000Y-108625000D02*
X99988001Y-108625000D01*
X106913000Y-108625000D02*
X106587999Y-108625000D01*
X106913000Y-101375000D02*
X106688000Y-101375000D01*
D11*
X136364000Y-88800000D02*
X118464000Y-88850000D01*
X118464000Y-88850000D02*
X118464000Y-121450000D01*
X118464000Y-121450000D02*
X136364000Y-121450000D01*
X136364000Y-121450000D02*
X136364000Y-88800000D01*
X88950000Y-101150000D02*
X79750000Y-101150000D01*
X88950000Y-108850000D02*
X88950000Y-101150000D01*
X79750000Y-108850000D02*
X88950000Y-108850000D01*
X79750000Y-101150000D02*
X79750000Y-108850000D01*
X80750000Y-101150000D02*
X80750000Y-108850000D01*
X97069000Y-114170000D02*
X117889000Y-114170000D01*
X117889000Y-114170000D02*
X117889000Y-123770000D01*
X117889000Y-123770000D02*
X97069000Y-123770000D01*
X97069000Y-123770000D02*
X97069000Y-114170000D01*
X98086000Y-92916000D02*
X98086000Y-91656000D01*
X98086000Y-86096000D02*
X98086000Y-87356000D01*
X94326000Y-92916000D02*
X98086000Y-92916000D01*
X92076000Y-86096000D02*
X98086000Y-86096000D01*
X115092000Y-86592000D02*
X115092000Y-87982000D01*
X113702000Y-86592000D02*
X115092000Y-86592000D01*
X112432000Y-89372000D02*
X112432000Y-86592000D01*
X107232000Y-89372000D02*
X112432000Y-89372000D01*
X107232000Y-86592000D02*
X107232000Y-89372000D01*
X112432000Y-86592000D02*
X107232000Y-86592000D01*
D12*
X116662000Y-90954000D02*
X116662000Y-85054000D01*
X105662000Y-90954000D02*
X105662000Y-85054000D01*
X114362000Y-92554000D02*
X114362000Y-90954000D01*
X111162000Y-92554000D02*
X111162000Y-90954000D01*
X107962000Y-92554000D02*
X107962000Y-90954000D01*
X114362000Y-85054000D02*
X114362000Y-80554000D01*
X110962000Y-85054000D02*
X110962000Y-80554000D01*
X116662000Y-90954000D02*
X105662000Y-90954000D01*
X105662000Y-85054000D02*
X116662000Y-85054000D01*
X114462000Y-85254000D02*
X107862000Y-85254000D01*
X107862000Y-85254000D02*
X107862000Y-85054000D01*
X114462000Y-85254000D02*
X114462000Y-85054000D01*
X114362000Y-80554000D02*
X113862000Y-80054000D01*
X113862000Y-80054000D02*
X112662000Y-81254000D01*
X112662000Y-81254000D02*
X111462000Y-80054000D01*
X111462000Y-80054000D02*
X110962000Y-80554000D01*
D11*
X88841000Y-91192000D02*
X89541000Y-91192000D01*
X89541000Y-92392000D02*
X88841000Y-92392000D01*
X89541000Y-90106000D02*
X88841000Y-90106000D01*
X88841000Y-88906000D02*
X89541000Y-88906000D01*
X104678000Y-93436000D02*
X103288000Y-93436000D01*
X104678000Y-92046000D02*
X104678000Y-93436000D01*
X101898000Y-90776000D02*
X104678000Y-90776000D01*
X101898000Y-85576000D02*
X101898000Y-90776000D01*
X104678000Y-85576000D02*
X101898000Y-85576000D01*
X104678000Y-90776000D02*
X104678000Y-85576000D01*
D12*
X93385000Y-100084000D02*
X93385000Y-101084000D01*
X92035000Y-101084000D02*
X92035000Y-100084000D01*
X94480000Y-104561000D02*
X93480000Y-104561000D01*
X93480000Y-103211000D02*
X94480000Y-103211000D01*
X93480000Y-105087000D02*
X94480000Y-105087000D01*
X94480000Y-106437000D02*
X93480000Y-106437000D01*
X117425000Y-95864000D02*
X117425000Y-96864000D01*
X116075000Y-96864000D02*
X116075000Y-95864000D01*
X91988000Y-109990000D02*
X91988000Y-110990000D01*
X90638000Y-110990000D02*
X90638000Y-109990000D01*
X92670000Y-110990000D02*
X92670000Y-109990000D01*
X94020000Y-109990000D02*
X94020000Y-110990000D01*
X96052000Y-109990000D02*
X96052000Y-110990000D01*
X94702000Y-110990000D02*
X94702000Y-109990000D01*
X99179000Y-113070000D02*
X98179000Y-113070000D01*
X98179000Y-111720000D02*
X99179000Y-111720000D01*
X112551000Y-102246000D02*
X111551000Y-102246000D01*
X111551000Y-100896000D02*
X112551000Y-100896000D01*
X106561000Y-111720000D02*
X107561000Y-111720000D01*
X107561000Y-113070000D02*
X106561000Y-113070000D01*
X110879000Y-111720000D02*
X111879000Y-111720000D01*
X111879000Y-113070000D02*
X110879000Y-113070000D01*
X87040000Y-111945000D02*
X88040000Y-111945000D01*
X88040000Y-113295000D02*
X87040000Y-113295000D01*
X88040000Y-98055000D02*
X87040000Y-98055000D01*
X87040000Y-96705000D02*
X88040000Y-96705000D01*
X87040000Y-94165000D02*
X88040000Y-94165000D01*
X88040000Y-95515000D02*
X87040000Y-95515000D01*
X121584000Y-122613000D02*
X122584000Y-122613000D01*
X122584000Y-123963000D02*
X121584000Y-123963000D01*
D11*
X103093000Y-112995000D02*
X102393000Y-112995000D01*
X102393000Y-111795000D02*
X103093000Y-111795000D01*
D12*
X116290380Y-105338095D02*
X115290380Y-105338095D01*
X115290380Y-104957142D01*
X115338000Y-104861904D01*
X115385619Y-104814285D01*
X115480857Y-104766666D01*
X115623714Y-104766666D01*
X115718952Y-104814285D01*
X115766571Y-104861904D01*
X115814190Y-104957142D01*
X115814190Y-105338095D01*
X115290380Y-104433333D02*
X115290380Y-103814285D01*
X115671333Y-104147619D01*
X115671333Y-104004761D01*
X115718952Y-103909523D01*
X115766571Y-103861904D01*
X115861809Y-103814285D01*
X116099904Y-103814285D01*
X116195142Y-103861904D01*
X116242761Y-103909523D01*
X116290380Y-104004761D01*
X116290380Y-104290476D01*
X116242761Y-104385714D01*
X116195142Y-104433333D01*
X93977404Y-113897880D02*
X93977404Y-112897880D01*
X94358357Y-112897880D01*
X94453595Y-112945500D01*
X94501214Y-112993119D01*
X94548833Y-113088357D01*
X94548833Y-113231214D01*
X94501214Y-113326452D01*
X94453595Y-113374071D01*
X94358357Y-113421690D01*
X93977404Y-113421690D01*
X95453595Y-112897880D02*
X94977404Y-112897880D01*
X94929785Y-113374071D01*
X94977404Y-113326452D01*
X95072642Y-113278833D01*
X95310738Y-113278833D01*
X95405976Y-113326452D01*
X95453595Y-113374071D01*
X95501214Y-113469309D01*
X95501214Y-113707404D01*
X95453595Y-113802642D01*
X95405976Y-113850261D01*
X95310738Y-113897880D01*
X95072642Y-113897880D01*
X94977404Y-113850261D01*
X94929785Y-113802642D01*
D11*
X86194714Y-122412380D02*
X85623285Y-122412380D01*
X85909000Y-122412380D02*
X85909000Y-121412380D01*
X85813761Y-121555238D01*
X85718523Y-121650476D01*
X85623285Y-121698095D01*
D12*
X97287309Y-100150190D02*
X97287309Y-100626380D01*
X96953976Y-99626380D02*
X97287309Y-100150190D01*
X97620642Y-99626380D01*
X98477785Y-100626380D02*
X97906357Y-100626380D01*
X98192071Y-100626380D02*
X98192071Y-99626380D01*
X98096833Y-99769238D01*
X98001595Y-99864476D01*
X97906357Y-99912095D01*
X81658333Y-87577142D02*
X81610714Y-87624761D01*
X81467857Y-87672380D01*
X81372619Y-87672380D01*
X81229761Y-87624761D01*
X81134523Y-87529523D01*
X81086904Y-87434285D01*
X81039285Y-87243809D01*
X81039285Y-87100952D01*
X81086904Y-86910476D01*
X81134523Y-86815238D01*
X81229761Y-86720000D01*
X81372619Y-86672380D01*
X81467857Y-86672380D01*
X81610714Y-86720000D01*
X81658333Y-86767619D01*
X82610714Y-87672380D02*
X82039285Y-87672380D01*
X82325000Y-87672380D02*
X82325000Y-86672380D01*
X82229761Y-86815238D01*
X82134523Y-86910476D01*
X82039285Y-86958095D01*
X109852333Y-95209842D02*
X109804714Y-95257461D01*
X109661857Y-95305080D01*
X109566619Y-95305080D01*
X109423761Y-95257461D01*
X109328523Y-95162223D01*
X109280904Y-95066985D01*
X109233285Y-94876509D01*
X109233285Y-94733652D01*
X109280904Y-94543176D01*
X109328523Y-94447938D01*
X109423761Y-94352700D01*
X109566619Y-94305080D01*
X109661857Y-94305080D01*
X109804714Y-94352700D01*
X109852333Y-94400319D01*
X110709476Y-94638414D02*
X110709476Y-95305080D01*
X110471380Y-94257461D02*
X110233285Y-94971747D01*
X110852333Y-94971747D01*
X84224904Y-111704380D02*
X84224904Y-110704380D01*
X84463000Y-110704380D01*
X84605857Y-110752000D01*
X84701095Y-110847238D01*
X84748714Y-110942476D01*
X84796333Y-111132952D01*
X84796333Y-111275809D01*
X84748714Y-111466285D01*
X84701095Y-111561523D01*
X84605857Y-111656761D01*
X84463000Y-111704380D01*
X84224904Y-111704380D01*
X85129666Y-110704380D02*
X85748714Y-110704380D01*
X85415380Y-111085333D01*
X85558238Y-111085333D01*
X85653476Y-111132952D01*
X85701095Y-111180571D01*
X85748714Y-111275809D01*
X85748714Y-111513904D01*
X85701095Y-111609142D01*
X85653476Y-111656761D01*
X85558238Y-111704380D01*
X85272523Y-111704380D01*
X85177285Y-111656761D01*
X85129666Y-111609142D01*
X85542380Y-98147095D02*
X84542380Y-98147095D01*
X84542380Y-97909000D01*
X84590000Y-97766142D01*
X84685238Y-97670904D01*
X84780476Y-97623285D01*
X84970952Y-97575666D01*
X85113809Y-97575666D01*
X85304285Y-97623285D01*
X85399523Y-97670904D01*
X85494761Y-97766142D01*
X85542380Y-97909000D01*
X85542380Y-98147095D01*
X84875714Y-96718523D02*
X85542380Y-96718523D01*
X84494761Y-96956619D02*
X85209047Y-97194714D01*
X85209047Y-96575666D01*
X85542380Y-95607095D02*
X84542380Y-95607095D01*
X84542380Y-95369000D01*
X84590000Y-95226142D01*
X84685238Y-95130904D01*
X84780476Y-95083285D01*
X84970952Y-95035666D01*
X85113809Y-95035666D01*
X85304285Y-95083285D01*
X85399523Y-95130904D01*
X85494761Y-95226142D01*
X85542380Y-95369000D01*
X85542380Y-95607095D01*
X84542380Y-94130904D02*
X84542380Y-94607095D01*
X85018571Y-94654714D01*
X84970952Y-94607095D01*
X84923333Y-94511857D01*
X84923333Y-94273761D01*
X84970952Y-94178523D01*
X85018571Y-94130904D01*
X85113809Y-94083285D01*
X85351904Y-94083285D01*
X85447142Y-94130904D01*
X85494761Y-94178523D01*
X85542380Y-94273761D01*
X85542380Y-94511857D01*
X85494761Y-94607095D01*
X85447142Y-94654714D01*
X125166380Y-124055095D02*
X124166380Y-124055095D01*
X124166380Y-123817000D01*
X124214000Y-123674142D01*
X124309238Y-123578904D01*
X124404476Y-123531285D01*
X124594952Y-123483666D01*
X124737809Y-123483666D01*
X124928285Y-123531285D01*
X125023523Y-123578904D01*
X125118761Y-123674142D01*
X125166380Y-123817000D01*
X125166380Y-124055095D01*
X124166380Y-122626523D02*
X124166380Y-122817000D01*
X124214000Y-122912238D01*
X124261619Y-122959857D01*
X124404476Y-123055095D01*
X124594952Y-123102714D01*
X124975904Y-123102714D01*
X125071142Y-123055095D01*
X125118761Y-123007476D01*
X125166380Y-122912238D01*
X125166380Y-122721761D01*
X125118761Y-122626523D01*
X125071142Y-122578904D01*
X124975904Y-122531285D01*
X124737809Y-122531285D01*
X124642571Y-122578904D01*
X124594952Y-122626523D01*
X124547333Y-122721761D01*
X124547333Y-122912238D01*
X124594952Y-123007476D01*
X124642571Y-123055095D01*
X124737809Y-123102714D01*
X108248880Y-101150190D02*
X107248880Y-101150190D01*
X108153642Y-100102571D02*
X108201261Y-100150190D01*
X108248880Y-100293047D01*
X108248880Y-100388285D01*
X108201261Y-100531142D01*
X108106023Y-100626380D01*
X108010785Y-100674000D01*
X107820309Y-100721619D01*
X107677452Y-100721619D01*
X107486976Y-100674000D01*
X107391738Y-100626380D01*
X107296500Y-100531142D01*
X107248880Y-100388285D01*
X107248880Y-100293047D01*
X107296500Y-100150190D01*
X107344119Y-100102571D01*
X108248880Y-99150190D02*
X108248880Y-99721619D01*
X108248880Y-99435904D02*
X107248880Y-99435904D01*
X107391738Y-99531142D01*
X107486976Y-99626380D01*
X107534595Y-99721619D01*
X127846666Y-87370880D02*
X127846666Y-88085166D01*
X127799047Y-88228023D01*
X127703809Y-88323261D01*
X127560952Y-88370880D01*
X127465714Y-88370880D01*
X128846666Y-88370880D02*
X128275238Y-88370880D01*
X128560952Y-88370880D02*
X128560952Y-87370880D01*
X128465714Y-87513738D01*
X128370476Y-87608976D01*
X128275238Y-87656595D01*
X87309904Y-100753380D02*
X87309904Y-99753380D01*
X87690857Y-99753380D01*
X87786095Y-99801000D01*
X87833714Y-99848619D01*
X87881333Y-99943857D01*
X87881333Y-100086714D01*
X87833714Y-100181952D01*
X87786095Y-100229571D01*
X87690857Y-100277190D01*
X87309904Y-100277190D01*
X88833714Y-100753380D02*
X88262285Y-100753380D01*
X88548000Y-100753380D02*
X88548000Y-99753380D01*
X88452761Y-99896238D01*
X88357523Y-99991476D01*
X88262285Y-100039095D01*
X114741904Y-113897880D02*
X114741904Y-112897880D01*
X115122857Y-112897880D01*
X115218095Y-112945500D01*
X115265714Y-112993119D01*
X115313333Y-113088357D01*
X115313333Y-113231214D01*
X115265714Y-113326452D01*
X115218095Y-113374071D01*
X115122857Y-113421690D01*
X114741904Y-113421690D01*
X116170476Y-113231214D02*
X116170476Y-113897880D01*
X115932380Y-112850261D02*
X115694285Y-113564547D01*
X116313333Y-113564547D01*
D11*
X102704714Y-122412380D02*
X102133285Y-122412380D01*
X102419000Y-122412380D02*
X102419000Y-121412380D01*
X102323761Y-121555238D01*
X102228523Y-121650476D01*
X102133285Y-121698095D01*
D12*
X98612880Y-87219904D02*
X99422404Y-87219904D01*
X99517642Y-87172285D01*
X99565261Y-87124666D01*
X99612880Y-87029428D01*
X99612880Y-86838952D01*
X99565261Y-86743714D01*
X99517642Y-86696095D01*
X99422404Y-86648476D01*
X98612880Y-86648476D01*
X99612880Y-85648476D02*
X99612880Y-86219904D01*
X99612880Y-85934190D02*
X98612880Y-85934190D01*
X98755738Y-86029428D01*
X98850976Y-86124666D01*
X98898595Y-86219904D01*
X117879761Y-89217333D02*
X117927380Y-89074476D01*
X117927380Y-88836380D01*
X117879761Y-88741142D01*
X117832142Y-88693523D01*
X117736904Y-88645904D01*
X117641666Y-88645904D01*
X117546428Y-88693523D01*
X117498809Y-88741142D01*
X117451190Y-88836380D01*
X117403571Y-89026857D01*
X117355952Y-89122095D01*
X117308333Y-89169714D01*
X117213095Y-89217333D01*
X117117857Y-89217333D01*
X117022619Y-89169714D01*
X116975000Y-89122095D01*
X116927380Y-89026857D01*
X116927380Y-88788761D01*
X116975000Y-88645904D01*
X116927380Y-88312571D02*
X117927380Y-88074476D01*
X117213095Y-87884000D01*
X117927380Y-87693523D01*
X116927380Y-87455428D01*
X117022619Y-87122095D02*
X116975000Y-87074476D01*
X116927380Y-86979238D01*
X116927380Y-86741142D01*
X116975000Y-86645904D01*
X117022619Y-86598285D01*
X117117857Y-86550666D01*
X117213095Y-86550666D01*
X117355952Y-86598285D01*
X117927380Y-87169714D01*
X117927380Y-86550666D01*
X116990761Y-93916333D02*
X117038380Y-93773476D01*
X117038380Y-93535380D01*
X116990761Y-93440142D01*
X116943142Y-93392523D01*
X116847904Y-93344904D01*
X116752666Y-93344904D01*
X116657428Y-93392523D01*
X116609809Y-93440142D01*
X116562190Y-93535380D01*
X116514571Y-93725857D01*
X116466952Y-93821095D01*
X116419333Y-93868714D01*
X116324095Y-93916333D01*
X116228857Y-93916333D01*
X116133619Y-93868714D01*
X116086000Y-93821095D01*
X116038380Y-93725857D01*
X116038380Y-93487761D01*
X116086000Y-93344904D01*
X116038380Y-93011571D02*
X117038380Y-92773476D01*
X116324095Y-92583000D01*
X117038380Y-92392523D01*
X116038380Y-92154428D01*
X117038380Y-91249666D02*
X117038380Y-91821095D01*
X117038380Y-91535380D02*
X116038380Y-91535380D01*
X116181238Y-91630619D01*
X116276476Y-91725857D01*
X116324095Y-91821095D01*
X87336333Y-93575142D02*
X87288714Y-93622761D01*
X87145857Y-93670380D01*
X87050619Y-93670380D01*
X86907761Y-93622761D01*
X86812523Y-93527523D01*
X86764904Y-93432285D01*
X86717285Y-93241809D01*
X86717285Y-93098952D01*
X86764904Y-92908476D01*
X86812523Y-92813238D01*
X86907761Y-92718000D01*
X87050619Y-92670380D01*
X87145857Y-92670380D01*
X87288714Y-92718000D01*
X87336333Y-92765619D01*
X87717285Y-92765619D02*
X87764904Y-92718000D01*
X87860142Y-92670380D01*
X88098238Y-92670380D01*
X88193476Y-92718000D01*
X88241095Y-92765619D01*
X88288714Y-92860857D01*
X88288714Y-92956095D01*
X88241095Y-93098952D01*
X87669666Y-93670380D01*
X88288714Y-93670380D01*
X89024333Y-88495142D02*
X88976714Y-88542761D01*
X88833857Y-88590380D01*
X88738619Y-88590380D01*
X88595761Y-88542761D01*
X88500523Y-88447523D01*
X88452904Y-88352285D01*
X88405285Y-88161809D01*
X88405285Y-88018952D01*
X88452904Y-87828476D01*
X88500523Y-87733238D01*
X88595761Y-87638000D01*
X88738619Y-87590380D01*
X88833857Y-87590380D01*
X88976714Y-87638000D01*
X89024333Y-87685619D01*
X89357666Y-87590380D02*
X89976714Y-87590380D01*
X89643380Y-87971333D01*
X89786238Y-87971333D01*
X89881476Y-88018952D01*
X89929095Y-88066571D01*
X89976714Y-88161809D01*
X89976714Y-88399904D01*
X89929095Y-88495142D01*
X89881476Y-88542761D01*
X89786238Y-88590380D01*
X89500523Y-88590380D01*
X89405285Y-88542761D01*
X89357666Y-88495142D01*
X100099904Y-93670380D02*
X100099904Y-92670380D01*
X100480857Y-92670380D01*
X100576095Y-92718000D01*
X100623714Y-92765619D01*
X100671333Y-92860857D01*
X100671333Y-93003714D01*
X100623714Y-93098952D01*
X100576095Y-93146571D01*
X100480857Y-93194190D01*
X100099904Y-93194190D01*
X101052285Y-92765619D02*
X101099904Y-92718000D01*
X101195142Y-92670380D01*
X101433238Y-92670380D01*
X101528476Y-92718000D01*
X101576095Y-92765619D01*
X101623714Y-92860857D01*
X101623714Y-92956095D01*
X101576095Y-93098952D01*
X101004666Y-93670380D01*
X101623714Y-93670380D01*
X91262380Y-100750666D02*
X90786190Y-101084000D01*
X91262380Y-101322095D02*
X90262380Y-101322095D01*
X90262380Y-100941142D01*
X90310000Y-100845904D01*
X90357619Y-100798285D01*
X90452857Y-100750666D01*
X90595714Y-100750666D01*
X90690952Y-100798285D01*
X90738571Y-100845904D01*
X90786190Y-100941142D01*
X90786190Y-101322095D01*
X91262380Y-99798285D02*
X91262380Y-100369714D01*
X91262380Y-100084000D02*
X90262380Y-100084000D01*
X90405238Y-100179238D01*
X90500476Y-100274476D01*
X90548095Y-100369714D01*
X96480333Y-104338380D02*
X96147000Y-103862190D01*
X95908904Y-104338380D02*
X95908904Y-103338380D01*
X96289857Y-103338380D01*
X96385095Y-103386000D01*
X96432714Y-103433619D01*
X96480333Y-103528857D01*
X96480333Y-103671714D01*
X96432714Y-103766952D01*
X96385095Y-103814571D01*
X96289857Y-103862190D01*
X95908904Y-103862190D01*
X96861285Y-103433619D02*
X96908904Y-103386000D01*
X97004142Y-103338380D01*
X97242238Y-103338380D01*
X97337476Y-103386000D01*
X97385095Y-103433619D01*
X97432714Y-103528857D01*
X97432714Y-103624095D01*
X97385095Y-103766952D01*
X96813666Y-104338380D01*
X97432714Y-104338380D01*
X96480333Y-106243380D02*
X96147000Y-105767190D01*
X95908904Y-106243380D02*
X95908904Y-105243380D01*
X96289857Y-105243380D01*
X96385095Y-105291000D01*
X96432714Y-105338619D01*
X96480333Y-105433857D01*
X96480333Y-105576714D01*
X96432714Y-105671952D01*
X96385095Y-105719571D01*
X96289857Y-105767190D01*
X95908904Y-105767190D01*
X96813666Y-105243380D02*
X97432714Y-105243380D01*
X97099380Y-105624333D01*
X97242238Y-105624333D01*
X97337476Y-105671952D01*
X97385095Y-105719571D01*
X97432714Y-105814809D01*
X97432714Y-106052904D01*
X97385095Y-106148142D01*
X97337476Y-106195761D01*
X97242238Y-106243380D01*
X96956523Y-106243380D01*
X96861285Y-106195761D01*
X96813666Y-106148142D01*
X117165380Y-99353666D02*
X116689190Y-99687000D01*
X117165380Y-99925095D02*
X116165380Y-99925095D01*
X116165380Y-99544142D01*
X116213000Y-99448904D01*
X116260619Y-99401285D01*
X116355857Y-99353666D01*
X116498714Y-99353666D01*
X116593952Y-99401285D01*
X116641571Y-99448904D01*
X116689190Y-99544142D01*
X116689190Y-99925095D01*
X116165380Y-98448904D02*
X116165380Y-98925095D01*
X116641571Y-98972714D01*
X116593952Y-98925095D01*
X116546333Y-98829857D01*
X116546333Y-98591761D01*
X116593952Y-98496523D01*
X116641571Y-98448904D01*
X116736809Y-98401285D01*
X116974904Y-98401285D01*
X117070142Y-98448904D01*
X117117761Y-98496523D01*
X117165380Y-98591761D01*
X117165380Y-98829857D01*
X117117761Y-98925095D01*
X117070142Y-98972714D01*
X91765380Y-107735666D02*
X91289190Y-108069000D01*
X91765380Y-108307095D02*
X90765380Y-108307095D01*
X90765380Y-107926142D01*
X90813000Y-107830904D01*
X90860619Y-107783285D01*
X90955857Y-107735666D01*
X91098714Y-107735666D01*
X91193952Y-107783285D01*
X91241571Y-107830904D01*
X91289190Y-107926142D01*
X91289190Y-108307095D01*
X90765380Y-106878523D02*
X90765380Y-107069000D01*
X90813000Y-107164238D01*
X90860619Y-107211857D01*
X91003476Y-107307095D01*
X91193952Y-107354714D01*
X91574904Y-107354714D01*
X91670142Y-107307095D01*
X91717761Y-107259476D01*
X91765380Y-107164238D01*
X91765380Y-106973761D01*
X91717761Y-106878523D01*
X91670142Y-106830904D01*
X91574904Y-106783285D01*
X91336809Y-106783285D01*
X91241571Y-106830904D01*
X91193952Y-106878523D01*
X91146333Y-106973761D01*
X91146333Y-107164238D01*
X91193952Y-107259476D01*
X91241571Y-107307095D01*
X91336809Y-107354714D01*
X93797380Y-107735666D02*
X93321190Y-108069000D01*
X93797380Y-108307095D02*
X92797380Y-108307095D01*
X92797380Y-107926142D01*
X92845000Y-107830904D01*
X92892619Y-107783285D01*
X92987857Y-107735666D01*
X93130714Y-107735666D01*
X93225952Y-107783285D01*
X93273571Y-107830904D01*
X93321190Y-107926142D01*
X93321190Y-108307095D01*
X92797380Y-107402333D02*
X92797380Y-106735666D01*
X93797380Y-107164238D01*
X95829380Y-107735666D02*
X95353190Y-108069000D01*
X95829380Y-108307095D02*
X94829380Y-108307095D01*
X94829380Y-107926142D01*
X94877000Y-107830904D01*
X94924619Y-107783285D01*
X95019857Y-107735666D01*
X95162714Y-107735666D01*
X95257952Y-107783285D01*
X95305571Y-107830904D01*
X95353190Y-107926142D01*
X95353190Y-108307095D01*
X95257952Y-107164238D02*
X95210333Y-107259476D01*
X95162714Y-107307095D01*
X95067476Y-107354714D01*
X95019857Y-107354714D01*
X94924619Y-107307095D01*
X94877000Y-107259476D01*
X94829380Y-107164238D01*
X94829380Y-106973761D01*
X94877000Y-106878523D01*
X94924619Y-106830904D01*
X95019857Y-106783285D01*
X95067476Y-106783285D01*
X95162714Y-106830904D01*
X95210333Y-106878523D01*
X95257952Y-106973761D01*
X95257952Y-107164238D01*
X95305571Y-107259476D01*
X95353190Y-107307095D01*
X95448428Y-107354714D01*
X95638904Y-107354714D01*
X95734142Y-107307095D01*
X95781761Y-107259476D01*
X95829380Y-107164238D01*
X95829380Y-106973761D01*
X95781761Y-106878523D01*
X95734142Y-106830904D01*
X95638904Y-106783285D01*
X95448428Y-106783285D01*
X95353190Y-106830904D01*
X95305571Y-106878523D01*
X95257952Y-106973761D01*
X98512333Y-111450380D02*
X98179000Y-110974190D01*
X97940904Y-111450380D02*
X97940904Y-110450380D01*
X98321857Y-110450380D01*
X98417095Y-110498000D01*
X98464714Y-110545619D01*
X98512333Y-110640857D01*
X98512333Y-110783714D01*
X98464714Y-110878952D01*
X98417095Y-110926571D01*
X98321857Y-110974190D01*
X97940904Y-110974190D01*
X98988523Y-111450380D02*
X99179000Y-111450380D01*
X99274238Y-111402761D01*
X99321857Y-111355142D01*
X99417095Y-111212285D01*
X99464714Y-111021809D01*
X99464714Y-110640857D01*
X99417095Y-110545619D01*
X99369476Y-110498000D01*
X99274238Y-110450380D01*
X99083761Y-110450380D01*
X98988523Y-110498000D01*
X98940904Y-110545619D01*
X98893285Y-110640857D01*
X98893285Y-110878952D01*
X98940904Y-110974190D01*
X98988523Y-111021809D01*
X99083761Y-111069428D01*
X99274238Y-111069428D01*
X99369476Y-111021809D01*
X99417095Y-110974190D01*
X99464714Y-110878952D01*
X114800142Y-102052380D02*
X114466809Y-101576190D01*
X114228714Y-102052380D02*
X114228714Y-101052380D01*
X114609666Y-101052380D01*
X114704904Y-101100000D01*
X114752523Y-101147619D01*
X114800142Y-101242857D01*
X114800142Y-101385714D01*
X114752523Y-101480952D01*
X114704904Y-101528571D01*
X114609666Y-101576190D01*
X114228714Y-101576190D01*
X115752523Y-102052380D02*
X115181095Y-102052380D01*
X115466809Y-102052380D02*
X115466809Y-101052380D01*
X115371571Y-101195238D01*
X115276333Y-101290476D01*
X115181095Y-101338095D01*
X116371571Y-101052380D02*
X116466809Y-101052380D01*
X116562047Y-101100000D01*
X116609666Y-101147619D01*
X116657285Y-101242857D01*
X116704904Y-101433333D01*
X116704904Y-101671428D01*
X116657285Y-101861904D01*
X116609666Y-101957142D01*
X116562047Y-102004761D01*
X116466809Y-102052380D01*
X116371571Y-102052380D01*
X116276333Y-102004761D01*
X116228714Y-101957142D01*
X116181095Y-101861904D01*
X116133476Y-101671428D01*
X116133476Y-101433333D01*
X116181095Y-101242857D01*
X116228714Y-101147619D01*
X116276333Y-101100000D01*
X116371571Y-101052380D01*
X106418142Y-111450380D02*
X106084809Y-110974190D01*
X105846714Y-111450380D02*
X105846714Y-110450380D01*
X106227666Y-110450380D01*
X106322904Y-110498000D01*
X106370523Y-110545619D01*
X106418142Y-110640857D01*
X106418142Y-110783714D01*
X106370523Y-110878952D01*
X106322904Y-110926571D01*
X106227666Y-110974190D01*
X105846714Y-110974190D01*
X107370523Y-111450380D02*
X106799095Y-111450380D01*
X107084809Y-111450380D02*
X107084809Y-110450380D01*
X106989571Y-110593238D01*
X106894333Y-110688476D01*
X106799095Y-110736095D01*
X108322904Y-111450380D02*
X107751476Y-111450380D01*
X108037190Y-111450380D02*
X108037190Y-110450380D01*
X107941952Y-110593238D01*
X107846714Y-110688476D01*
X107751476Y-110736095D01*
X110736142Y-111323380D02*
X110402809Y-110847190D01*
X110164714Y-111323380D02*
X110164714Y-110323380D01*
X110545666Y-110323380D01*
X110640904Y-110371000D01*
X110688523Y-110418619D01*
X110736142Y-110513857D01*
X110736142Y-110656714D01*
X110688523Y-110751952D01*
X110640904Y-110799571D01*
X110545666Y-110847190D01*
X110164714Y-110847190D01*
X111688523Y-111323380D02*
X111117095Y-111323380D01*
X111402809Y-111323380D02*
X111402809Y-110323380D01*
X111307571Y-110466238D01*
X111212333Y-110561476D01*
X111117095Y-110609095D01*
X112069476Y-110418619D02*
X112117095Y-110371000D01*
X112212333Y-110323380D01*
X112450428Y-110323380D01*
X112545666Y-110371000D01*
X112593285Y-110418619D01*
X112640904Y-110513857D01*
X112640904Y-110609095D01*
X112593285Y-110751952D01*
X112021857Y-111323380D01*
X112640904Y-111323380D01*
X90035142Y-113863380D02*
X89701809Y-113387190D01*
X89463714Y-113863380D02*
X89463714Y-112863380D01*
X89844666Y-112863380D01*
X89939904Y-112911000D01*
X89987523Y-112958619D01*
X90035142Y-113053857D01*
X90035142Y-113196714D01*
X89987523Y-113291952D01*
X89939904Y-113339571D01*
X89844666Y-113387190D01*
X89463714Y-113387190D01*
X90987523Y-113863380D02*
X90416095Y-113863380D01*
X90701809Y-113863380D02*
X90701809Y-112863380D01*
X90606571Y-113006238D01*
X90511333Y-113101476D01*
X90416095Y-113149095D01*
X91320857Y-112863380D02*
X91939904Y-112863380D01*
X91606571Y-113244333D01*
X91749428Y-113244333D01*
X91844666Y-113291952D01*
X91892285Y-113339571D01*
X91939904Y-113434809D01*
X91939904Y-113672904D01*
X91892285Y-113768142D01*
X91844666Y-113815761D01*
X91749428Y-113863380D01*
X91463714Y-113863380D01*
X91368476Y-113815761D01*
X91320857Y-113768142D01*
X90416142Y-97861380D02*
X90082809Y-97385190D01*
X89844714Y-97861380D02*
X89844714Y-96861380D01*
X90225666Y-96861380D01*
X90320904Y-96909000D01*
X90368523Y-96956619D01*
X90416142Y-97051857D01*
X90416142Y-97194714D01*
X90368523Y-97289952D01*
X90320904Y-97337571D01*
X90225666Y-97385190D01*
X89844714Y-97385190D01*
X91368523Y-97861380D02*
X90797095Y-97861380D01*
X91082809Y-97861380D02*
X91082809Y-96861380D01*
X90987571Y-97004238D01*
X90892333Y-97099476D01*
X90797095Y-97147095D01*
X92225666Y-97194714D02*
X92225666Y-97861380D01*
X91987571Y-96813761D02*
X91749476Y-97528047D01*
X92368523Y-97528047D01*
X90416142Y-95321380D02*
X90082809Y-94845190D01*
X89844714Y-95321380D02*
X89844714Y-94321380D01*
X90225666Y-94321380D01*
X90320904Y-94369000D01*
X90368523Y-94416619D01*
X90416142Y-94511857D01*
X90416142Y-94654714D01*
X90368523Y-94749952D01*
X90320904Y-94797571D01*
X90225666Y-94845190D01*
X89844714Y-94845190D01*
X91368523Y-95321380D02*
X90797095Y-95321380D01*
X91082809Y-95321380D02*
X91082809Y-94321380D01*
X90987571Y-94464238D01*
X90892333Y-94559476D01*
X90797095Y-94607095D01*
X92273285Y-94321380D02*
X91797095Y-94321380D01*
X91749476Y-94797571D01*
X91797095Y-94749952D01*
X91892333Y-94702333D01*
X92130428Y-94702333D01*
X92225666Y-94749952D01*
X92273285Y-94797571D01*
X92320904Y-94892809D01*
X92320904Y-95130904D01*
X92273285Y-95226142D01*
X92225666Y-95273761D01*
X92130428Y-95321380D01*
X91892333Y-95321380D01*
X91797095Y-95273761D01*
X91749476Y-95226142D01*
X119832380Y-123959857D02*
X119356190Y-124293190D01*
X119832380Y-124531285D02*
X118832380Y-124531285D01*
X118832380Y-124150333D01*
X118880000Y-124055095D01*
X118927619Y-124007476D01*
X119022857Y-123959857D01*
X119165714Y-123959857D01*
X119260952Y-124007476D01*
X119308571Y-124055095D01*
X119356190Y-124150333D01*
X119356190Y-124531285D01*
X119832380Y-123007476D02*
X119832380Y-123578904D01*
X119832380Y-123293190D02*
X118832380Y-123293190D01*
X118975238Y-123388428D01*
X119070476Y-123483666D01*
X119118095Y-123578904D01*
X118832380Y-122150333D02*
X118832380Y-122340809D01*
X118880000Y-122436047D01*
X118927619Y-122483666D01*
X119070476Y-122578904D01*
X119260952Y-122626523D01*
X119641904Y-122626523D01*
X119737142Y-122578904D01*
X119784761Y-122531285D01*
X119832380Y-122436047D01*
X119832380Y-122245571D01*
X119784761Y-122150333D01*
X119737142Y-122102714D01*
X119641904Y-122055095D01*
X119403809Y-122055095D01*
X119308571Y-122102714D01*
X119260952Y-122150333D01*
X119213333Y-122245571D01*
X119213333Y-122436047D01*
X119260952Y-122531285D01*
X119308571Y-122578904D01*
X119403809Y-122626523D01*
X102100142Y-111502142D02*
X102052523Y-111549761D01*
X101909666Y-111597380D01*
X101814428Y-111597380D01*
X101671571Y-111549761D01*
X101576333Y-111454523D01*
X101528714Y-111359285D01*
X101481095Y-111168809D01*
X101481095Y-111025952D01*
X101528714Y-110835476D01*
X101576333Y-110740238D01*
X101671571Y-110645000D01*
X101814428Y-110597380D01*
X101909666Y-110597380D01*
X102052523Y-110645000D01*
X102100142Y-110692619D01*
X103052523Y-111597380D02*
X102481095Y-111597380D01*
X102766809Y-111597380D02*
X102766809Y-110597380D01*
X102671571Y-110740238D01*
X102576333Y-110835476D01*
X102481095Y-110883095D01*
X103671571Y-110597380D02*
X103766809Y-110597380D01*
X103862047Y-110645000D01*
X103909666Y-110692619D01*
X103957285Y-110787857D01*
X104004904Y-110978333D01*
X104004904Y-111216428D01*
X103957285Y-111406904D01*
X103909666Y-111502142D01*
X103862047Y-111549761D01*
X103766809Y-111597380D01*
X103671571Y-111597380D01*
X103576333Y-111549761D01*
X103528714Y-111502142D01*
X103481095Y-111406904D01*
X103433476Y-111216428D01*
X103433476Y-110978333D01*
X103481095Y-110787857D01*
X103528714Y-110692619D01*
X103576333Y-110645000D01*
X103671571Y-110597380D01*
M02*
